%TF.GenerationSoftware,KiCad,Pcbnew,7.0.5*%
%TF.CreationDate,2023-07-20T14:33:04+01:00*%
%TF.ProjectId,EmotionalCities_v.1.1,456d6f74-696f-46e6-916c-436974696573,rev?*%
%TF.SameCoordinates,PX76109c0PY3c14dc0*%
%TF.FileFunction,Soldermask,Bot*%
%TF.FilePolarity,Negative*%
%FSLAX45Y45*%
G04 Gerber Fmt 4.5, Leading zero omitted, Abs format (unit mm)*
G04 Created by KiCad (PCBNEW 7.0.5) date 2023-07-20 14:33:04*
%MOMM*%
%LPD*%
G01*
G04 APERTURE LIST*
G04 Aperture macros list*
%AMRoundRect*
0 Rectangle with rounded corners*
0 $1 Rounding radius*
0 $2 $3 $4 $5 $6 $7 $8 $9 X,Y pos of 4 corners*
0 Add a 4 corners polygon primitive as box body*
4,1,4,$2,$3,$4,$5,$6,$7,$8,$9,$2,$3,0*
0 Add four circle primitives for the rounded corners*
1,1,$1+$1,$2,$3*
1,1,$1+$1,$4,$5*
1,1,$1+$1,$6,$7*
1,1,$1+$1,$8,$9*
0 Add four rect primitives between the rounded corners*
20,1,$1+$1,$2,$3,$4,$5,0*
20,1,$1+$1,$4,$5,$6,$7,0*
20,1,$1+$1,$6,$7,$8,$9,0*
20,1,$1+$1,$8,$9,$2,$3,0*%
G04 Aperture macros list end*
%ADD10C,1.500000*%
%ADD11C,3.200000*%
%ADD12R,1.200000X1.200000*%
%ADD13C,1.200000*%
%ADD14C,1.000000*%
%ADD15R,2.000000X0.500000*%
%ADD16C,2.250000*%
%ADD17RoundRect,0.160000X-0.197500X-0.160000X0.197500X-0.160000X0.197500X0.160000X-0.197500X0.160000X0*%
%ADD18C,3.302000*%
%ADD19C,2.082800*%
%ADD20R,2.500000X0.550000*%
%ADD21RoundRect,0.096000X-1.854000X1.104000X-1.854000X-1.104000X1.854000X-1.104000X1.854000X1.104000X0*%
%ADD22C,2.032000*%
%ADD23R,1.700000X1.700000*%
%ADD24O,1.700000X1.700000*%
%ADD25R,2.400000X2.400000*%
%ADD26C,2.400000*%
%ADD27C,1.778000*%
%TA.AperFunction,Profile*%
%ADD28C,0.076200*%
%TD*%
G04 APERTURE END LIST*
D10*
%TO.C,+3V3_tp1*%
X2070000Y-3350000D03*
%TD*%
%TO.C,+5V_tp1*%
X2745000Y-6450000D03*
%TD*%
%TO.C,GND_tp1*%
X2980000Y-5420000D03*
%TD*%
%TO.C,GND_tp2*%
X10860000Y-690000D03*
%TD*%
D11*
%TO.C,H5*%
X680000Y-5980000D03*
%TD*%
D12*
%TO.C,C39*%
X2514263Y-6815414D03*
D13*
X2514263Y-7015414D03*
%TD*%
D14*
%TO.C,J1*%
X544525Y-7195110D03*
X544525Y-6845110D03*
D15*
X769525Y-7180110D03*
X769525Y-7100110D03*
X769525Y-7020110D03*
X769525Y-6940110D03*
X769525Y-6860110D03*
D16*
X214525Y-7385110D03*
X744525Y-7385110D03*
X214525Y-6655110D03*
X744525Y-6655110D03*
%TD*%
D17*
%TO.C,R15*%
X4062771Y-5278759D03*
X4182271Y-5278759D03*
%TD*%
D18*
%TO.C,U1*%
X8952000Y-7814000D03*
X11238000Y-7814000D03*
X8952000Y-4766000D03*
X11238000Y-4766000D03*
D19*
X10730000Y-7941000D03*
X10476000Y-7941000D03*
X10222000Y-7941000D03*
X8825000Y-6925000D03*
X8825000Y-6671000D03*
X8825000Y-6417000D03*
X8825000Y-6163000D03*
X8825000Y-5909000D03*
X8825000Y-5655000D03*
%TD*%
D14*
%TO.C,U7*%
X11450000Y-5770000D03*
X11450000Y-6070000D03*
D20*
X11130000Y-5800000D03*
X11130000Y-5880000D03*
X11130000Y-5960000D03*
X11130000Y-6040000D03*
D21*
X11370000Y-5535000D03*
X11370000Y-6305000D03*
%TD*%
D19*
%TO.C,U4*%
X3464000Y-6579758D03*
X3464000Y-6325758D03*
X3464000Y-6071758D03*
X3464000Y-5817758D03*
X3464000Y-5563759D03*
X3464000Y-5309759D03*
X3464000Y-5055759D03*
X3464000Y-4801759D03*
X3464000Y-4547759D03*
X7528000Y-4039758D03*
X7528000Y-4293759D03*
X7528000Y-4547759D03*
X7528000Y-4801759D03*
X7528000Y-5055759D03*
X7528000Y-5309759D03*
X7528000Y-5563759D03*
X7528000Y-5817758D03*
X7528000Y-6071758D03*
X7528000Y-6325758D03*
X7528000Y-6579758D03*
X6766000Y-7847218D03*
X6512000Y-7847218D03*
X6258000Y-7847218D03*
X6004000Y-7847218D03*
X5750000Y-7847218D03*
X5496000Y-7847218D03*
%TD*%
%TO.C,U2*%
X9296297Y-2551327D03*
X9042297Y-2551327D03*
X8788297Y-2551327D03*
X8534297Y-2551327D03*
X8280297Y-2551327D03*
X8026297Y-2551327D03*
X7772297Y-2551327D03*
X7518297Y-2551327D03*
X7518297Y-265327D03*
X7772297Y-265327D03*
X8026297Y-265327D03*
X8280297Y-265327D03*
X8534297Y-265327D03*
X8788297Y-265327D03*
X9042297Y-265327D03*
X9296297Y-265327D03*
%TD*%
D11*
%TO.C,H1*%
X2180000Y-7480000D03*
%TD*%
D22*
%TO.C,U3*%
X1168263Y-4753414D03*
X1422263Y-4753414D03*
X1676263Y-4753414D03*
X1930263Y-4753414D03*
X914263Y-2975414D03*
X1168263Y-2975414D03*
X1422263Y-2975414D03*
X1676263Y-2975414D03*
X1930263Y-2975414D03*
X2184263Y-2975414D03*
%TD*%
D23*
%TO.C,PDI1*%
X8140737Y-3654586D03*
D24*
X8394737Y-3654586D03*
X8140737Y-3400586D03*
X8394737Y-3400586D03*
X8140737Y-3146586D03*
X8394737Y-3146586D03*
%TD*%
D11*
%TO.C,H3*%
X8180000Y-7480000D03*
%TD*%
D25*
%TO.C,J4*%
X6230000Y-2380000D03*
D26*
X6230000Y-2030000D03*
X6230000Y-1680000D03*
%TD*%
D25*
%TO.C,J3*%
X10925000Y-3100000D03*
D26*
X10925000Y-3450000D03*
X10925000Y-3800000D03*
X10925000Y-4150000D03*
%TD*%
D27*
%TO.C,U5*%
X1050263Y-415414D03*
X1304263Y-415414D03*
X1558263Y-415414D03*
X1812263Y-415414D03*
X2066263Y-415414D03*
X2320263Y-415414D03*
X2574263Y-415414D03*
X2828263Y-415414D03*
X3082263Y-415414D03*
X3336263Y-415414D03*
X3590263Y-415414D03*
X3844263Y-415414D03*
X4098263Y-415414D03*
X4352263Y-415414D03*
X4606263Y-415414D03*
X4860263Y-415414D03*
X4860263Y-2447414D03*
X4606263Y-2447414D03*
X4352263Y-2447414D03*
X4098263Y-2447414D03*
X3844263Y-2447414D03*
X3590263Y-2447414D03*
X3336263Y-2447414D03*
X3082263Y-2447414D03*
X2828263Y-2447414D03*
X2574263Y-2447414D03*
X2320263Y-2447414D03*
X2066263Y-2447414D03*
%TD*%
D11*
%TO.C,H4*%
X6180000Y-480000D03*
%TD*%
%TO.C,H2*%
X9180000Y-3480000D03*
%TD*%
D28*
X200000Y0D02*
X11500000Y0D01*
X200000Y-8200000D02*
X11500000Y-8200000D01*
X0Y-8000000D02*
X0Y-200000D01*
X11500000Y0D02*
X11700000Y-200000D01*
X11700000Y-200000D02*
X11700000Y-8000000D01*
X11700000Y-8000000D02*
X11500000Y-8200000D01*
X200000Y0D02*
X0Y-200000D01*
X0Y-8000000D02*
X200000Y-8200000D01*
M02*
