%TF.GenerationSoftware,KiCad,Pcbnew,7.0.5*%
%TF.CreationDate,2023-07-20T14:33:04+01:00*%
%TF.ProjectId,EmotionalCities_v.1.1,456d6f74-696f-46e6-916c-436974696573,rev?*%
%TF.SameCoordinates,PX76109c0PY3c14dc0*%
%TF.FileFunction,Copper,L4,Bot*%
%TF.FilePolarity,Positive*%
%FSLAX45Y45*%
G04 Gerber Fmt 4.5, Leading zero omitted, Abs format (unit mm)*
G04 Created by KiCad (PCBNEW 7.0.5) date 2023-07-20 14:33:04*
%MOMM*%
%LPD*%
G01*
G04 APERTURE LIST*
G04 Aperture macros list*
%AMRoundRect*
0 Rectangle with rounded corners*
0 $1 Rounding radius*
0 $2 $3 $4 $5 $6 $7 $8 $9 X,Y pos of 4 corners*
0 Add a 4 corners polygon primitive as box body*
4,1,4,$2,$3,$4,$5,$6,$7,$8,$9,$2,$3,0*
0 Add four circle primitives for the rounded corners*
1,1,$1+$1,$2,$3*
1,1,$1+$1,$4,$5*
1,1,$1+$1,$6,$7*
1,1,$1+$1,$8,$9*
0 Add four rect primitives between the rounded corners*
20,1,$1+$1,$2,$3,$4,$5,0*
20,1,$1+$1,$4,$5,$6,$7,0*
20,1,$1+$1,$6,$7,$8,$9,0*
20,1,$1+$1,$8,$9,$2,$3,0*%
G04 Aperture macros list end*
%TA.AperFunction,ComponentPad*%
%ADD10C,1.500000*%
%TD*%
%TA.AperFunction,ComponentPad*%
%ADD11R,1.200000X1.200000*%
%TD*%
%TA.AperFunction,ComponentPad*%
%ADD12C,1.200000*%
%TD*%
%TA.AperFunction,SMDPad,CuDef*%
%ADD13R,2.000000X0.500000*%
%TD*%
%TA.AperFunction,ComponentPad*%
%ADD14C,2.250000*%
%TD*%
%TA.AperFunction,SMDPad,CuDef*%
%ADD15RoundRect,0.160000X-0.197500X-0.160000X0.197500X-0.160000X0.197500X0.160000X-0.197500X0.160000X0*%
%TD*%
%TA.AperFunction,ComponentPad*%
%ADD16C,1.879600*%
%TD*%
%TA.AperFunction,SMDPad,CuDef*%
%ADD17R,2.500000X0.550000*%
%TD*%
%TA.AperFunction,SMDPad,CuDef*%
%ADD18RoundRect,0.096000X-1.854000X1.104000X-1.854000X-1.104000X1.854000X-1.104000X1.854000X1.104000X0*%
%TD*%
%TA.AperFunction,ComponentPad*%
%ADD19C,1.930400*%
%TD*%
%TA.AperFunction,ComponentPad*%
%ADD20R,1.700000X1.700000*%
%TD*%
%TA.AperFunction,ComponentPad*%
%ADD21O,1.700000X1.700000*%
%TD*%
%TA.AperFunction,ComponentPad*%
%ADD22R,2.400000X2.400000*%
%TD*%
%TA.AperFunction,ComponentPad*%
%ADD23C,2.400000*%
%TD*%
%TA.AperFunction,ComponentPad*%
%ADD24C,1.676400*%
%TD*%
%TA.AperFunction,ViaPad*%
%ADD25C,0.600000*%
%TD*%
%TA.AperFunction,Conductor*%
%ADD26C,0.254000*%
%TD*%
%TA.AperFunction,Conductor*%
%ADD27C,0.304800*%
%TD*%
%TA.AperFunction,Conductor*%
%ADD28C,0.203200*%
%TD*%
%TA.AperFunction,Conductor*%
%ADD29C,0.250000*%
%TD*%
%TA.AperFunction,Profile*%
%ADD30C,0.076200*%
%TD*%
G04 APERTURE END LIST*
D10*
%TO.P,+3V3_tp1,1,1*%
%TO.N,+3V3*%
X2070000Y-3350000D03*
%TD*%
%TO.P,+5V_tp1,1,1*%
%TO.N,+5V*%
X2745000Y-6450000D03*
%TD*%
%TO.P,GND_tp1,1,1*%
%TO.N,GND*%
X2980000Y-5420000D03*
%TD*%
%TO.P,GND_tp2,1,1*%
%TO.N,GND*%
X10860000Y-690000D03*
%TD*%
D11*
%TO.P,C39,1*%
%TO.N,+5V*%
X2514263Y-6815414D03*
D12*
%TO.P,C39,2*%
%TO.N,GND*%
X2514263Y-7015414D03*
%TD*%
D13*
%TO.P,J1,1,VBUS*%
%TO.N,/5VUSB*%
X769525Y-7180110D03*
%TO.P,J1,2,D-*%
%TO.N,/USBD_plug-*%
X769525Y-7100110D03*
%TO.P,J1,3,D+*%
%TO.N,/USBD_plug+*%
X769525Y-7020110D03*
%TO.P,J1,4,ID*%
%TO.N,unconnected-(J1-ID-Pad4)*%
X769525Y-6940110D03*
%TO.P,J1,5,GND*%
%TO.N,GND*%
X769525Y-6860110D03*
D14*
%TO.P,J1,6,Shield*%
%TO.N,Net-(J1-Shield)*%
X214525Y-7385110D03*
X744525Y-7385110D03*
X214525Y-6655110D03*
X744525Y-6655110D03*
%TD*%
D15*
%TO.P,R15,1*%
%TO.N,/GNSS_RESET*%
X4062771Y-5278759D03*
%TO.P,R15,2*%
%TO.N,/u_GNSS_RESET*%
X4182271Y-5278759D03*
%TD*%
D16*
%TO.P,U1,1,RA*%
%TO.N,unconnected-(U1-RA-Pad1)*%
X10730000Y-7941000D03*
%TO.P,U1,2,LA*%
%TO.N,unconnected-(U1-LA-Pad2)*%
X10476000Y-7941000D03*
%TO.P,U1,3,RL*%
%TO.N,unconnected-(U1-RL-Pad3)*%
X10222000Y-7941000D03*
%TO.P,U1,4,GND*%
%TO.N,GND*%
X8825000Y-6925000D03*
%TO.P,U1,5,3V3*%
%TO.N,+3V3*%
X8825000Y-6671000D03*
%TO.P,U1,6,OUT*%
%TO.N,/HR_out*%
X8825000Y-6417000D03*
%TO.P,U1,7,LO-*%
%TO.N,/HR_LO-*%
X8825000Y-6163000D03*
%TO.P,U1,8,LO+*%
%TO.N,/HR_LO+*%
X8825000Y-5909000D03*
%TO.P,U1,9,~{SDN}*%
%TO.N,unconnected-(U1-~{SDN}-Pad9)*%
X8825000Y-5655000D03*
%TD*%
D17*
%TO.P,U7,1,Vin*%
%TO.N,+3V3*%
X11130000Y-5800000D03*
%TO.P,U7,2,SDA*%
%TO.N,Net-(U7-SDA)*%
X11130000Y-5880000D03*
%TO.P,U7,3,SCL*%
%TO.N,Net-(U7-SCL)*%
X11130000Y-5960000D03*
%TO.P,U7,4,GND*%
%TO.N,GND*%
X11130000Y-6040000D03*
D18*
%TO.P,U7,5,shield*%
X11370000Y-5535000D03*
X11370000Y-6305000D03*
%TD*%
D16*
%TO.P,U4,1,GND*%
%TO.N,GND*%
X3464000Y-6579758D03*
%TO.P,U4,2,3.3V*%
%TO.N,unconnected-(U4-3.3V-Pad2)*%
X3464000Y-6325758D03*
%TO.P,U4,3,SDA\u005C~{CS}*%
%TO.N,Net-(R19-Pad2)*%
X3464000Y-6071758D03*
%TO.P,U4,4,SCL\u005CCLK*%
%TO.N,Net-(U4-SCL\u005CCLK)*%
X3464000Y-5817758D03*
%TO.P,U4,5,TX_READY*%
%TO.N,unconnected-(U4-TX_READY-Pad5)*%
X3464000Y-5563759D03*
%TO.P,U4,6,~{RESET}*%
%TO.N,/GNSS_RESET*%
X3464000Y-5309759D03*
%TO.P,U4,7,~{SAFEBOOT}*%
%TO.N,unconnected-(U4-~{SAFEBOOT}-Pad7)*%
X3464000Y-5055759D03*
%TO.P,U4,8,INT*%
%TO.N,/GNSS_INT*%
X3464000Y-4801759D03*
%TO.P,U4,9,PPS*%
%TO.N,/GNSS_PPS*%
X3464000Y-4547759D03*
%TO.P,U4,10,WT+*%
%TO.N,unconnected-(U4-WT+-Pad10)*%
X7528000Y-4039758D03*
%TO.P,U4,11,GND*%
%TO.N,unconnected-(U4-GND-Pad11)*%
X7528000Y-4293759D03*
%TO.P,U4,12,DIR+*%
%TO.N,unconnected-(U4-DIR+-Pad12)*%
X7528000Y-4547759D03*
%TO.P,U4,13,GND*%
%TO.N,GND*%
X7528000Y-4801759D03*
%TO.P,U4,14,SCL\u005CCLL*%
%TO.N,unconnected-(U4-SCL\u005CCLL-Pad14)*%
X7528000Y-5055759D03*
%TO.P,U4,15,TXO\u005CMISO*%
%TO.N,/GPS_TXO*%
X7528000Y-5309759D03*
%TO.P,U4,16,RXI\u005CMOSI*%
%TO.N,/GPS_RXI*%
X7528000Y-5563759D03*
%TO.P,U4,17,SDA\u005C~{CS}*%
%TO.N,unconnected-(U4-SDA\u005C~{CS}-Pad17)*%
X7528000Y-5817758D03*
%TO.P,U4,18,3.3V*%
%TO.N,unconnected-(U4-3.3V-Pad18)*%
X7528000Y-6071758D03*
%TO.P,U4,19,5V*%
%TO.N,+5V*%
X7528000Y-6325758D03*
%TO.P,U4,20,GND*%
%TO.N,GND*%
X7528000Y-6579758D03*
%TO.P,U4,21,GND*%
X6766000Y-7847218D03*
%TO.P,U4,22,n.c*%
%TO.N,unconnected-(U4-n.c-Pad22)*%
X6512000Y-7847218D03*
%TO.P,U4,23,3V3_out*%
%TO.N,unconnected-(U4-3V3_out-Pad23)*%
X6258000Y-7847218D03*
%TO.P,U4,24,RXI2*%
%TO.N,unconnected-(U4-RXI2-Pad24)*%
X6004000Y-7847218D03*
%TO.P,U4,25,TXO2*%
%TO.N,unconnected-(U4-TXO2-Pad25)*%
X5750000Y-7847218D03*
%TO.P,U4,26,n.c.*%
%TO.N,unconnected-(U4-n.c.-Pad26)*%
X5496000Y-7847218D03*
%TD*%
%TO.P,U2,1,AN_out*%
%TO.N,/EDA_out*%
X9296297Y-2551327D03*
%TO.P,U2,2,nc*%
%TO.N,unconnected-(U2-nc-Pad2)*%
X9042297Y-2551327D03*
%TO.P,U2,3,CS*%
%TO.N,unconnected-(U2-CS-Pad3)*%
X8788297Y-2551327D03*
%TO.P,U2,4,SCK*%
%TO.N,unconnected-(U2-SCK-Pad4)*%
X8534297Y-2551327D03*
%TO.P,U2,5,SDO*%
%TO.N,unconnected-(U2-SDO-Pad5)*%
X8280297Y-2551327D03*
%TO.P,U2,6,nc*%
%TO.N,unconnected-(U2-nc-Pad6)*%
X8026297Y-2551327D03*
%TO.P,U2,7,3V3*%
%TO.N,+3V3*%
X7772297Y-2551327D03*
%TO.P,U2,8,GND*%
%TO.N,GND*%
X7518297Y-2551327D03*
%TO.P,U2,9,GND*%
X7518297Y-265327D03*
%TO.P,U2,10,5V*%
%TO.N,+5V*%
X7772297Y-265327D03*
%TO.P,U2,11,nc*%
%TO.N,Net-(R12-Pad2)*%
X8026297Y-265327D03*
%TO.P,U2,12,nc*%
%TO.N,Net-(R11-Pad2)*%
X8280297Y-265327D03*
%TO.P,U2,13,nc*%
%TO.N,unconnected-(U2-nc-Pad13)*%
X8534297Y-265327D03*
%TO.P,U2,14,nc*%
%TO.N,unconnected-(U2-nc-Pad14)*%
X8788297Y-265327D03*
%TO.P,U2,15,nc*%
%TO.N,unconnected-(U2-nc-Pad15)*%
X9042297Y-265327D03*
%TO.P,U2,16,nc*%
%TO.N,unconnected-(U2-nc-Pad16)*%
X9296297Y-265327D03*
%TD*%
D19*
%TO.P,U3,1,PS0*%
%TO.N,unconnected-(U3-PS0-Pad1)*%
X1168263Y-4753414D03*
%TO.P,U3,2,PS1*%
%TO.N,unconnected-(U3-PS1-Pad2)*%
X1422263Y-4753414D03*
%TO.P,U3,3,INT*%
%TO.N,unconnected-(U3-INT-Pad3)*%
X1676263Y-4753414D03*
%TO.P,U3,4,ADDR*%
%TO.N,unconnected-(U3-ADDR-Pad4)*%
X1930263Y-4753414D03*
%TO.P,U3,5,Vin*%
%TO.N,/Adafruit_3V3_out*%
X914263Y-2975414D03*
%TO.P,U3,6,3Vout*%
%TO.N,unconnected-(U3-3Vout-Pad6)*%
X1168263Y-2975414D03*
%TO.P,U3,7,GND*%
%TO.N,GND*%
X1422263Y-2975414D03*
%TO.P,U3,8,SDA*%
%TO.N,Net-(U3-SDA)*%
X1676263Y-2975414D03*
%TO.P,U3,9,SCL*%
%TO.N,Net-(U3-SCL)*%
X1930263Y-2975414D03*
%TO.P,U3,10,RST*%
%TO.N,unconnected-(U3-RST-Pad10)*%
X2184263Y-2975414D03*
%TD*%
D20*
%TO.P,PDI1,1,Pin_1*%
%TO.N,/PDI_DATA*%
X8140737Y-3654586D03*
D21*
%TO.P,PDI1,2,Pin_2*%
%TO.N,+3V3*%
X8394737Y-3654586D03*
%TO.P,PDI1,3,Pin_3*%
%TO.N,unconnected-(PDI1-Pin_3-Pad3)*%
X8140737Y-3400586D03*
%TO.P,PDI1,4,Pin_4*%
%TO.N,unconnected-(PDI1-Pin_4-Pad4)*%
X8394737Y-3400586D03*
%TO.P,PDI1,5,Pin_5*%
%TO.N,/PDI_CLK*%
X8140737Y-3146586D03*
%TO.P,PDI1,6,Pin_6*%
%TO.N,GND*%
X8394737Y-3146586D03*
%TD*%
D22*
%TO.P,J4,1,Pin_1*%
%TO.N,/EXTERNAL_3V3*%
X6230000Y-2380000D03*
D23*
%TO.P,J4,2,Pin_2*%
%TO.N,/EXTERNAL_SYNC_SIGNAL*%
X6230000Y-2030000D03*
%TO.P,J4,3,Pin_3*%
%TO.N,GND*%
X6230000Y-1680000D03*
%TD*%
D22*
%TO.P,J3,1,Pin_1*%
%TO.N,/EXTERNAL_3V3*%
X10925000Y-3100000D03*
D23*
%TO.P,J3,2,Pin_2*%
%TO.N,/External_EDA_1*%
X10925000Y-3450000D03*
%TO.P,J3,3,Pin_3*%
%TO.N,/External_EDA_2*%
X10925000Y-3800000D03*
%TO.P,J3,4,Pin_4*%
%TO.N,GND*%
X10925000Y-4150000D03*
%TD*%
D24*
%TO.P,U5,1,RST*%
%TO.N,unconnected-(U5-RST-Pad1)*%
X1050263Y-415414D03*
%TO.P,U5,2,3V3*%
%TO.N,/Adafruit_3V3_out*%
X1304263Y-415414D03*
%TO.P,U5,3,ARf*%
%TO.N,unconnected-(U5-ARf-Pad3)*%
X1558263Y-415414D03*
%TO.P,U5,4,GND*%
%TO.N,unconnected-(U5-GND-Pad4)*%
X1812263Y-415414D03*
%TO.P,U5,5,A0*%
%TO.N,unconnected-(U5-A0-Pad5)*%
X2066263Y-415414D03*
%TO.P,U5,6,A1*%
%TO.N,unconnected-(U5-A1-Pad6)*%
X2320263Y-415414D03*
%TO.P,U5,7,A2*%
%TO.N,unconnected-(U5-A2-Pad7)*%
X2574263Y-415414D03*
%TO.P,U5,8,A3*%
%TO.N,unconnected-(U5-A3-Pad8)*%
X2828263Y-415414D03*
%TO.P,U5,9,A4*%
%TO.N,unconnected-(U5-A4-Pad9)*%
X3082263Y-415414D03*
%TO.P,U5,10,A5*%
%TO.N,unconnected-(U5-A5-Pad10)*%
X3336263Y-415414D03*
%TO.P,U5,11,SCK*%
%TO.N,unconnected-(U5-SCK-Pad11)*%
X3590263Y-415414D03*
%TO.P,U5,12,MOSI*%
%TO.N,/MotionSensor_out*%
X3844263Y-415414D03*
%TO.P,U5,13,MISO*%
%TO.N,unconnected-(U5-MISO-Pad13)*%
X4098263Y-415414D03*
%TO.P,U5,14,RX0*%
%TO.N,unconnected-(U5-RX0-Pad14)*%
X4352263Y-415414D03*
%TO.P,U5,15,TX1*%
%TO.N,unconnected-(U5-TX1-Pad15)*%
X4606263Y-415414D03*
%TO.P,U5,16,GND*%
%TO.N,GND*%
X4860263Y-415414D03*
%TO.P,U5,17,SDA*%
%TO.N,/MotionSensor_SDA*%
X4860263Y-2447414D03*
%TO.P,U5,18,SCL*%
%TO.N,/MotionSensor_SCL*%
X4606263Y-2447414D03*
%TO.P,U5,19,D5*%
%TO.N,unconnected-(U5-D5-Pad19)*%
X4352263Y-2447414D03*
%TO.P,U5,20,D6*%
%TO.N,unconnected-(U5-D6-Pad20)*%
X4098263Y-2447414D03*
%TO.P,U5,21,D9*%
%TO.N,unconnected-(U5-D9-Pad21)*%
X3844263Y-2447414D03*
%TO.P,U5,22,D10*%
%TO.N,unconnected-(U5-D10-Pad22)*%
X3590263Y-2447414D03*
%TO.P,U5,23,D11*%
%TO.N,unconnected-(U5-D11-Pad23)*%
X3336263Y-2447414D03*
%TO.P,U5,24,D12*%
%TO.N,unconnected-(U5-D12-Pad24)*%
X3082263Y-2447414D03*
%TO.P,U5,25,D13*%
%TO.N,unconnected-(U5-D13-Pad25)*%
X2828263Y-2447414D03*
%TO.P,U5,26,VBUS*%
%TO.N,unconnected-(U5-VBUS-Pad26)*%
X2574263Y-2447414D03*
%TO.P,U5,27,EN*%
%TO.N,unconnected-(U5-EN-Pad27)*%
X2320263Y-2447414D03*
%TO.P,U5,28,VBAT*%
%TO.N,unconnected-(U5-VBAT-Pad28)*%
X2066263Y-2447414D03*
%TD*%
D25*
%TO.N,GND*%
X7995402Y-4551759D03*
X5820000Y-4800000D03*
X7510402Y-7431758D03*
X3050402Y-3346758D03*
X3580737Y-3674586D03*
X7750000Y-4080000D03*
X4230402Y-3631758D03*
X4650402Y-3066758D03*
X8005402Y-4301759D03*
X4175402Y-2881758D03*
X6942424Y-4737402D03*
X5697521Y-2673759D03*
X9740000Y-1050000D03*
X2272791Y-1299499D03*
X1660737Y-174586D03*
X1094263Y-6340414D03*
X4955402Y-661759D03*
X5280000Y-3030000D03*
X3310402Y-2886758D03*
X5345000Y-5075000D03*
X3930000Y-3650000D03*
X6590402Y-5521759D03*
X7155402Y-5436759D03*
X2340000Y-2020000D03*
X3440737Y-3384586D03*
X9075402Y-2891758D03*
X4345402Y-2726759D03*
X2830402Y-1121759D03*
X4660291Y-1104499D03*
X7100402Y-2884586D03*
X10060000Y-3050000D03*
X3000402Y-2731759D03*
X3830737Y-2721759D03*
X7810000Y-2900000D03*
X3330402Y-1471758D03*
X5820000Y-1010000D03*
X1745402Y-1311759D03*
X8310000Y-2890000D03*
X3520402Y-656759D03*
X4310402Y-661759D03*
X3240000Y-4380000D03*
X7670000Y-3590000D03*
X5645402Y-656759D03*
X10245000Y-1046758D03*
X4940402Y-1471758D03*
X4065402Y-2691759D03*
X10850000Y-1531758D03*
X5515402Y-3884586D03*
X7290737Y-534586D03*
X5100000Y-3740000D03*
X9520000Y-1730000D03*
X6970000Y-1550000D03*
X10780000Y-2130000D03*
X7650000Y-820000D03*
X4464263Y-5495414D03*
X4190737Y-2274586D03*
X9820737Y-5804586D03*
X7185402Y-4241759D03*
X5060000Y-3900000D03*
X8990000Y-1681758D03*
X10510000Y-200000D03*
X5845000Y-4500000D03*
X8550000Y-1726758D03*
X5115402Y-5586759D03*
X2570000Y-1590000D03*
X3460737Y-2334586D03*
X9730000Y-4190000D03*
X9520000Y-2660000D03*
X7295000Y-4500000D03*
X6795000Y-4350000D03*
X10760000Y-2626759D03*
X3754263Y-4395414D03*
X5100402Y-4506759D03*
X2775402Y-3006758D03*
X7670000Y-1550000D03*
X5170000Y-8050000D03*
X4044263Y-985414D03*
X8010000Y-1071759D03*
X6930402Y-4246759D03*
X5745402Y-3166758D03*
X6810737Y-2574586D03*
X7020000Y-2100000D03*
X11510000Y-2260000D03*
X10430000Y-1886758D03*
X6290402Y-4236759D03*
X5354263Y-3975414D03*
X6280402Y-4501759D03*
X6630000Y-2090000D03*
X4010000Y-7390000D03*
X4634263Y-4505414D03*
X4874263Y-4645414D03*
X5360000Y-3730000D03*
X6995000Y-2325000D03*
X10225000Y-5255000D03*
X10410402Y-7146758D03*
X6730402Y-5186759D03*
X9615402Y-4526759D03*
X10625402Y-7521758D03*
X8840402Y-5016759D03*
X9540402Y-7171758D03*
X9400000Y-2330000D03*
X11055000Y-6400000D03*
X11480737Y-2991758D03*
X5495402Y-5941758D03*
X8650000Y-546759D03*
X7255402Y-3091758D03*
X7880737Y-3044586D03*
X8555402Y-5241759D03*
X9515402Y-5011759D03*
X10700000Y-4250000D03*
X5015402Y-5321759D03*
X9634263Y-3235414D03*
X8800000Y-2160000D03*
X4590402Y-5951758D03*
X7820737Y-524586D03*
X3670737Y-154586D03*
X9000402Y-3061758D03*
X9495000Y-776758D03*
X6144263Y-5941758D03*
X10070737Y-4516759D03*
X10440000Y-3190000D03*
X11090000Y-5465000D03*
X9165402Y-5251759D03*
X10240000Y-1560000D03*
X8290000Y-691759D03*
X10095000Y-6370000D03*
X4982521Y-253758D03*
X7590000Y-990000D03*
X8070000Y-2325000D03*
X5925402Y-236758D03*
X5820402Y-6146758D03*
X5095402Y-6656758D03*
X5070402Y-4146758D03*
X6320402Y-6661758D03*
X8860737Y-4234586D03*
X2995402Y-4351759D03*
X5860402Y-6656758D03*
X4425402Y-3901758D03*
X6974263Y-6655414D03*
X3924263Y-3935414D03*
X5490402Y-3566758D03*
X4620000Y-1580000D03*
X8390000Y-1581758D03*
X3650000Y-6330000D03*
X4090000Y-1560000D03*
X3357521Y-4113758D03*
X4290402Y-6151758D03*
X8135000Y-536759D03*
X5140000Y-3400000D03*
X3342791Y-3649498D03*
X6370402Y-6141758D03*
X3660000Y-5550000D03*
X7840000Y-2160000D03*
X4005402Y-5931758D03*
X3765402Y-4136758D03*
X3280000Y-5670000D03*
X6070402Y-6426758D03*
X4395402Y-6666758D03*
X5410737Y-1464586D03*
X5220402Y-2886758D03*
X3522521Y-3878758D03*
X11414263Y-245414D03*
X6925402Y-5931758D03*
X4910402Y-6391758D03*
X4860402Y-6151758D03*
X6905402Y-6141758D03*
X5215402Y-5135414D03*
X5460402Y-6141758D03*
X5620402Y-6356758D03*
X5775402Y-2881758D03*
X11536890Y-992048D03*
X270000Y-4900000D03*
X9510000Y-170000D03*
X3170000Y-6880000D03*
X254263Y-3775414D03*
X2630000Y-4260000D03*
X2509402Y-3767758D03*
X3020000Y-3920000D03*
X2960000Y-8040000D03*
X1904263Y-5185414D03*
X264263Y-7895414D03*
X1769263Y-5865414D03*
X6675402Y-6416758D03*
X11197692Y-7390848D03*
X3224263Y-4945414D03*
X2155402Y-791758D03*
X11210000Y-4300000D03*
X9750000Y-7850000D03*
X11177692Y-6689648D03*
X11224263Y-5115414D03*
X230737Y-2654586D03*
X1995000Y-5600000D03*
X945000Y-5000000D03*
X2749402Y-3602758D03*
X8620000Y-6300000D03*
X6280000Y-3760000D03*
X2274263Y-4685414D03*
X4080000Y-5040000D03*
X2880000Y-7420000D03*
X6810000Y-1530000D03*
X10114263Y-5025414D03*
X4440000Y-3430000D03*
X5795000Y-5050000D03*
X2770000Y-5190000D03*
X6550000Y-3590000D03*
X5560000Y-7340000D03*
X6000000Y-3590000D03*
X1445000Y-7475000D03*
X4500000Y-4650000D03*
X1010000Y-6860000D03*
X1630000Y-7180000D03*
X860000Y-590000D03*
X7120000Y-8060000D03*
X7100000Y-170000D03*
X1720000Y-3275000D03*
X8970000Y-840000D03*
X1710000Y-6710000D03*
X2260000Y-4100000D03*
X8570000Y-3860000D03*
X920000Y-6550000D03*
X1895000Y-4150000D03*
X6580000Y-6900000D03*
X1210000Y-6870000D03*
X4770000Y-3350000D03*
X820000Y-3450000D03*
X7176760Y-4741160D03*
X6270000Y-3300000D03*
X2645000Y-6225000D03*
X7670000Y-3760000D03*
X2420000Y-5825000D03*
X7720000Y-6140000D03*
X2070000Y-6850000D03*
X1730000Y-6370000D03*
X2364274Y-5023569D03*
X1234263Y-8015414D03*
X6400000Y-2880000D03*
X2270000Y-3950000D03*
X8130000Y-4880000D03*
X5510000Y-6890000D03*
X220000Y-5850000D03*
X6910000Y-3360000D03*
X9070000Y-6560000D03*
X1895000Y-3950000D03*
X3977337Y-3283166D03*
X320737Y-244586D03*
X1970000Y-3550000D03*
X830000Y-1970000D03*
X845000Y-4475000D03*
X7940000Y-5270000D03*
X1240000Y-780000D03*
X8020536Y-3885229D03*
X9050000Y-6040000D03*
X4450000Y-3640000D03*
X6650000Y-1090000D03*
X4240000Y-5140000D03*
X1600000Y-2290000D03*
X6810000Y-710000D03*
X8620000Y-6060000D03*
X8150000Y-5740000D03*
X2970000Y-4950000D03*
X1145000Y-2725000D03*
X245000Y-1325000D03*
X930000Y-5550000D03*
X2603045Y-5509156D03*
X1030000Y-1540000D03*
X8200000Y-6460000D03*
X9420000Y-2150000D03*
X8960000Y-1000000D03*
X6620000Y-3125000D03*
X4770000Y-3610000D03*
X1420000Y-7130000D03*
X4620000Y-6880000D03*
X2597319Y-5111230D03*
X4230000Y-4370000D03*
%TO.N,+5V*%
X2310737Y-4304586D03*
X2453750Y-4253750D03*
X2305983Y-4479340D03*
X7264263Y-6445414D03*
X8045000Y-1675000D03*
X2734402Y-4112758D03*
X2220737Y-4394586D03*
X2444263Y-6503104D03*
X7763250Y-1675000D03*
X2130000Y-1740000D03*
X7763250Y-810000D03*
%TO.N,+3V3*%
X4310402Y-4141758D03*
X8680000Y-850000D03*
X9090000Y-910000D03*
X6190277Y-3451758D03*
X4120402Y-3286758D03*
X2466858Y-3180707D03*
X2640737Y-3191758D03*
X6190402Y-2946758D03*
X10583250Y-5661750D03*
X4940402Y-2951758D03*
X4655402Y-2951758D03*
X2440737Y-2974586D03*
X4355402Y-5006759D03*
X5140402Y-2956758D03*
X9970000Y-2814180D03*
X4310402Y-2946758D03*
X2570737Y-3076828D03*
X4177521Y-5433759D03*
X2640737Y-2954586D03*
X6190402Y-4716759D03*
X2440737Y-910000D03*
X7700737Y-3034586D03*
X7645000Y-2810000D03*
X9970737Y-6664586D03*
%TO.N,/GNSS_PPS*%
X4044263Y-4445414D03*
X5344263Y-3480000D03*
X4040737Y-3525414D03*
%TO.N,/5VUSB*%
X1740000Y-7275000D03*
X1630000Y-6860000D03*
X1420000Y-6600000D03*
%TO.N,/USBD_plug+*%
X1070000Y-7030000D03*
%TO.N,/USBD_plug-*%
X1070000Y-7110000D03*
%TO.N,/FTDI_CTS*%
X2384263Y-4895414D03*
X1738243Y-4975000D03*
%TO.N,/PDI_CLK*%
X4960000Y-3750000D03*
X7820737Y-3414586D03*
%TO.N,/PDI_DATA*%
X4825402Y-3824586D03*
%TO.N,/u_GNSS_RESET*%
X5670000Y-5395414D03*
X5564263Y-4075414D03*
X4324263Y-5395414D03*
%TO.N,/HR_out*%
X8220737Y-4164586D03*
%TO.N,/HR_LO+*%
X8440536Y-3948728D03*
%TO.N,/HR_LO-*%
X8330737Y-4010000D03*
%TO.N,/EDA_out*%
X7175402Y-3991758D03*
%TO.N,/EXTERNAL_SYNC_SIGNAL*%
X9996500Y-1433500D03*
X6630000Y-1433500D03*
%TO.N,/LED_AUX*%
X1805000Y-1810000D03*
X1800737Y-4024586D03*
X4984263Y-4075414D03*
%TO.N,Net-(R11-Pad2)*%
X6880737Y-3064586D03*
X6880737Y-594586D03*
%TO.N,Net-(R12-Pad2)*%
X6730737Y-2674586D03*
X6730737Y-464586D03*
%TO.N,/I2C_SDA_port_E*%
X10415000Y-5830000D03*
X5284263Y-4075414D03*
%TO.N,/I2C_SCL_port_E*%
X5204263Y-4150000D03*
X10420000Y-6005000D03*
%TO.N,/GNSS_INT*%
X5970737Y-3744586D03*
X5934263Y-5250000D03*
%TO.N,Net-(R19-Pad2)*%
X7025402Y-3431758D03*
X7025402Y-6076758D03*
%TO.N,/External_EDA_1*%
X9870737Y-3454586D03*
X5410402Y-4141758D03*
%TO.N,/External_EDA_2*%
X6370000Y-4625000D03*
X10080737Y-4134586D03*
%TO.N,/PA3*%
X5495000Y-4525000D03*
X5470000Y-5325000D03*
%TO.N,/u_SYNC_SIGNAL*%
X5550000Y-3740000D03*
X5600000Y-1300000D03*
%TO.N,Net-(U7-SCL)*%
X10795000Y-6000000D03*
%TO.N,Net-(U7-SDA)*%
X10790000Y-5830000D03*
%TO.N,Net-(U4-SCL\u005CCLK)*%
X7085652Y-3171508D03*
X7085402Y-5817758D03*
%TO.N,/MotionSensor_out*%
X3970737Y-3134586D03*
%TO.N,/PA4*%
X5586810Y-5324453D03*
X5585017Y-4593409D03*
%TD*%
D26*
%TO.N,+5V*%
X2731352Y-4109708D02*
X2734402Y-4112758D01*
X2490292Y-4109708D02*
X2731352Y-4109708D01*
X2453750Y-4253750D02*
X2453750Y-4146250D01*
X2453750Y-4146250D02*
X2490292Y-4109708D01*
D27*
%TO.N,+3V3*%
X10796750Y-5661750D02*
X10935000Y-5800000D01*
X10935000Y-5800000D02*
X11130000Y-5800000D01*
X10583250Y-5661750D02*
X10796750Y-5661750D01*
D28*
%TO.N,/GNSS_PPS*%
X4040737Y-3525414D02*
X4040737Y-4441888D01*
X4040737Y-4441888D02*
X4044263Y-4445414D01*
D26*
%TO.N,/GNSS_RESET*%
X3488345Y-5285414D02*
X4056115Y-5285414D01*
D27*
%TO.N,/5VUSB*%
X1444263Y-6865414D02*
X1624586Y-6865414D01*
X1420000Y-6841151D02*
X1444263Y-6865414D01*
X939445Y-7180110D02*
X769525Y-7180110D01*
X1034335Y-7275000D02*
X939445Y-7180110D01*
X1740000Y-7275000D02*
X1034335Y-7275000D01*
X1420000Y-6600000D02*
X1420000Y-6841151D01*
D28*
%TO.N,/USBD_plug+*%
X919525Y-7020110D02*
X769525Y-7020110D01*
X1060210Y-7039790D02*
X939205Y-7039790D01*
X1070000Y-7030000D02*
X1060210Y-7039790D01*
X939205Y-7039790D02*
X919525Y-7020110D01*
%TO.N,/USBD_plug-*%
X769525Y-7100110D02*
X919525Y-7100110D01*
X1040000Y-7080000D02*
X1070000Y-7110000D01*
X1020000Y-7080000D02*
X1040000Y-7080000D01*
X939205Y-7080430D02*
X1020000Y-7080000D01*
X919525Y-7100110D02*
X939205Y-7080430D01*
%TO.N,/FTDI_CTS*%
X1738243Y-4975000D02*
X2304677Y-4975000D01*
X2304677Y-4975000D02*
X2384263Y-4895414D01*
D29*
%TO.N,/u_GNSS_RESET*%
X4324263Y-5315414D02*
X4287608Y-5278759D01*
D28*
X5670000Y-4161151D02*
X5584263Y-4075414D01*
D29*
X4324263Y-5395414D02*
X4324263Y-5315414D01*
D28*
X5584263Y-4075414D02*
X5564263Y-4075414D01*
D29*
X4287608Y-5278759D02*
X4182271Y-5278759D01*
D28*
X5670000Y-5395414D02*
X5670000Y-4161151D01*
%TO.N,/EDA_out*%
X7175402Y-3991758D02*
X7175402Y-2996758D01*
X9280500Y-2889177D02*
X9280500Y-2616759D01*
X8886746Y-2965414D02*
X9204263Y-2965414D01*
X7175402Y-2996758D02*
X7205402Y-2966758D01*
X7205402Y-2966758D02*
X8885402Y-2966758D01*
X9204263Y-2965414D02*
X9280500Y-2889177D01*
X8885402Y-2966758D02*
X8886746Y-2965414D01*
%TO.N,Net-(R11-Pad2)*%
X6880737Y-594586D02*
X6880737Y-3064586D01*
%TO.N,Net-(R12-Pad2)*%
X6730737Y-464586D02*
X6730737Y-2674586D01*
%TO.N,/GNSS_INT*%
X5934263Y-3781060D02*
X5970737Y-3744586D01*
X5934263Y-5250000D02*
X5934263Y-3781060D01*
%TO.N,Net-(R19-Pad2)*%
X7025402Y-6076758D02*
X7025402Y-3431758D01*
%TO.N,/PA3*%
X5470000Y-4550000D02*
X5470000Y-5325000D01*
X5495000Y-4525000D02*
X5470000Y-4550000D01*
D29*
%TO.N,/u_SYNC_SIGNAL*%
X5600000Y-1300000D02*
X5600000Y-3690000D01*
X5600000Y-3690000D02*
X5550000Y-3740000D01*
D28*
%TO.N,Net-(U7-SCL)*%
X10795000Y-6000000D02*
X10835000Y-5960000D01*
X10835000Y-5960000D02*
X11140000Y-5960000D01*
%TO.N,Net-(U7-SDA)*%
X10835000Y-5875000D02*
X11140000Y-5875000D01*
X10790000Y-5830000D02*
X10835000Y-5875000D01*
%TO.N,Net-(U4-SCL\u005CCLK)*%
X7085652Y-3171508D02*
X7085402Y-3171758D01*
X7085402Y-3171758D02*
X7085402Y-5817758D01*
%TO.N,/PA4*%
X5585017Y-5322660D02*
X5585017Y-4593409D01*
X5586810Y-5324453D02*
X5585017Y-5322660D01*
%TD*%
%TA.AperFunction,Conductor*%
%TO.N,+5V*%
G36*
X2374873Y-4262287D02*
G01*
X2375402Y-4263564D01*
X2375402Y-4529954D01*
X2374873Y-4531230D01*
X2373597Y-4531759D01*
X2187207Y-4531759D01*
X2185930Y-4531230D01*
X2185402Y-4529954D01*
X2185402Y-4263564D01*
X2185930Y-4262287D01*
X2187207Y-4261759D01*
X2373597Y-4261759D01*
X2374873Y-4262287D01*
G37*
%TD.AperFunction*%
%TD*%
%TA.AperFunction,Conductor*%
%TO.N,GND*%
G36*
X11345673Y-98396D02*
G01*
X11581663Y-303925D01*
X11583360Y-307338D01*
X11583372Y-307680D01*
X11583959Y-5363600D01*
X11582501Y-5367121D01*
X11578980Y-5368580D01*
X11577074Y-5368201D01*
X11571168Y-5365755D01*
X11571167Y-5365755D01*
X11559360Y-5364200D01*
X11395400Y-5364200D01*
X11395400Y-5555420D01*
X11393941Y-5558941D01*
X11390420Y-5560400D01*
X11124200Y-5560400D01*
X11124200Y-5649360D01*
X11125755Y-5661167D01*
X11125755Y-5661168D01*
X11131841Y-5675861D01*
X11141522Y-5688478D01*
X11141522Y-5688478D01*
X11153052Y-5697325D01*
X11154957Y-5700625D01*
X11155000Y-5701275D01*
X11155000Y-5752230D01*
X11153541Y-5755751D01*
X11150020Y-5757210D01*
X11003495Y-5757210D01*
X11003494Y-5757210D01*
X11000149Y-5757875D01*
X10999034Y-5758097D01*
X10999034Y-5758097D01*
X10999034Y-5758097D01*
X10993977Y-5761476D01*
X10993976Y-5761477D01*
X10990325Y-5766942D01*
X10990195Y-5766855D01*
X10987959Y-5769091D01*
X10986054Y-5769470D01*
X10949709Y-5769470D01*
X10946187Y-5768011D01*
X10822434Y-5644258D01*
X10821816Y-5643399D01*
X10821813Y-5643401D01*
X10821536Y-5643033D01*
X10821536Y-5643033D01*
X10821535Y-5643032D01*
X10817881Y-5639701D01*
X10817798Y-5639622D01*
X10817068Y-5638892D01*
X10816338Y-5638162D01*
X10815895Y-5637858D01*
X10815624Y-5637644D01*
X10813101Y-5635343D01*
X10811620Y-5634770D01*
X10810605Y-5634234D01*
X10809296Y-5633338D01*
X10809295Y-5633337D01*
X10805971Y-5632556D01*
X10805641Y-5632454D01*
X10802457Y-5631220D01*
X10802457Y-5631220D01*
X10800870Y-5631220D01*
X10799730Y-5631088D01*
X10799390Y-5631008D01*
X10798184Y-5630724D01*
X10795865Y-5631048D01*
X10794802Y-5631196D01*
X10794458Y-5631220D01*
X10618997Y-5631220D01*
X10615476Y-5629761D01*
X10615234Y-5629501D01*
X10613214Y-5627170D01*
X10613214Y-5627170D01*
X10613214Y-5627170D01*
X10602258Y-5620129D01*
X10589762Y-5616460D01*
X10576738Y-5616460D01*
X10564242Y-5620129D01*
X10558764Y-5623650D01*
X10553286Y-5627170D01*
X10546204Y-5635343D01*
X10544758Y-5637013D01*
X10539348Y-5648859D01*
X10537494Y-5661750D01*
X10539348Y-5674641D01*
X10544758Y-5686487D01*
X10553286Y-5696330D01*
X10564242Y-5703371D01*
X10576738Y-5707040D01*
X10576739Y-5707040D01*
X10589762Y-5707040D01*
X10589762Y-5707040D01*
X10602258Y-5703371D01*
X10613214Y-5696330D01*
X10613872Y-5695570D01*
X10615234Y-5693999D01*
X10618642Y-5692293D01*
X10618997Y-5692280D01*
X10782041Y-5692280D01*
X10785563Y-5693739D01*
X10909316Y-5817492D01*
X10909934Y-5818351D01*
X10909937Y-5818349D01*
X10910214Y-5818717D01*
X10913867Y-5822047D01*
X10913951Y-5822127D01*
X10914681Y-5822857D01*
X10915412Y-5823588D01*
X10915413Y-5823588D01*
X10915855Y-5823892D01*
X10916126Y-5824106D01*
X10917157Y-5825046D01*
X10918650Y-5826407D01*
X10918650Y-5826407D01*
X10918650Y-5826407D01*
X10919340Y-5826674D01*
X10920129Y-5826980D01*
X10921145Y-5827515D01*
X10922455Y-5828412D01*
X10925778Y-5829194D01*
X10926108Y-5829296D01*
X10929293Y-5830530D01*
X10930881Y-5830530D01*
X10932021Y-5830662D01*
X10933566Y-5831026D01*
X10936948Y-5830554D01*
X10937291Y-5830530D01*
X10986054Y-5830530D01*
X10989575Y-5831989D01*
X10990300Y-5833074D01*
X10990325Y-5833058D01*
X10993115Y-5837233D01*
X10993858Y-5840972D01*
X10993115Y-5842767D01*
X10990325Y-5846942D01*
X10990223Y-5846874D01*
X10987926Y-5849171D01*
X10986021Y-5849550D01*
X10847605Y-5849550D01*
X10844083Y-5848091D01*
X10836291Y-5840299D01*
X10834832Y-5836778D01*
X10834883Y-5836070D01*
X10835756Y-5830000D01*
X10835646Y-5829234D01*
X10834834Y-5823588D01*
X10833902Y-5817109D01*
X10828492Y-5805263D01*
X10819964Y-5795420D01*
X10809008Y-5788379D01*
X10796512Y-5784710D01*
X10783488Y-5784710D01*
X10770992Y-5788379D01*
X10765514Y-5791900D01*
X10760036Y-5795420D01*
X10751508Y-5805263D01*
X10746098Y-5817109D01*
X10746098Y-5817109D01*
X10744244Y-5830000D01*
X10744244Y-5830000D01*
X10745942Y-5841811D01*
X10746098Y-5842891D01*
X10751508Y-5854737D01*
X10760036Y-5864580D01*
X10770992Y-5871621D01*
X10783488Y-5875290D01*
X10783489Y-5875290D01*
X10796868Y-5875290D01*
X10796868Y-5875394D01*
X10800172Y-5876236D01*
X10800711Y-5876702D01*
X10814885Y-5890877D01*
X10815504Y-5891631D01*
X10816652Y-5893348D01*
X10818776Y-5894768D01*
X10818777Y-5894768D01*
X10824456Y-5898563D01*
X10824863Y-5898932D01*
X10826112Y-5899181D01*
X10832493Y-5900450D01*
X10832494Y-5900450D01*
X10835000Y-5900948D01*
X10835000Y-5900948D01*
X10837025Y-5900546D01*
X10837997Y-5900450D01*
X10984730Y-5900450D01*
X10988252Y-5901909D01*
X10989710Y-5905430D01*
X10989710Y-5909006D01*
X10990597Y-5913466D01*
X10990597Y-5913466D01*
X10993115Y-5917233D01*
X10993858Y-5920972D01*
X10993115Y-5922767D01*
X10990597Y-5926534D01*
X10990597Y-5926534D01*
X10989800Y-5930542D01*
X10987683Y-5933711D01*
X10984916Y-5934550D01*
X10837997Y-5934550D01*
X10837025Y-5934454D01*
X10835000Y-5934051D01*
X10835000Y-5934051D01*
X10832696Y-5934510D01*
X10832693Y-5934510D01*
X10825070Y-5936026D01*
X10816652Y-5941652D01*
X10816651Y-5941652D01*
X10815504Y-5943369D01*
X10814885Y-5944123D01*
X10805711Y-5953298D01*
X10802189Y-5954756D01*
X10801543Y-5954710D01*
X10801512Y-5954710D01*
X10788488Y-5954710D01*
X10775992Y-5958379D01*
X10770514Y-5961900D01*
X10765036Y-5965420D01*
X10756508Y-5975263D01*
X10751098Y-5987109D01*
X10751098Y-5987109D01*
X10749244Y-6000000D01*
X10749244Y-6000000D01*
X10750343Y-6007641D01*
X10751098Y-6012891D01*
X10756508Y-6024737D01*
X10765036Y-6034580D01*
X10775992Y-6041621D01*
X10788488Y-6045290D01*
X10788489Y-6045290D01*
X10801512Y-6045290D01*
X10801512Y-6045290D01*
X10814008Y-6041621D01*
X10824964Y-6034580D01*
X10833492Y-6024737D01*
X10838902Y-6012891D01*
X10840756Y-6000000D01*
X10839883Y-5993931D01*
X10840826Y-5990238D01*
X10841290Y-5989701D01*
X10844083Y-5986908D01*
X10847605Y-5985450D01*
X10953698Y-5985450D01*
X10957220Y-5986909D01*
X10958678Y-5990430D01*
X10958364Y-5992170D01*
X10954851Y-6001590D01*
X10954850Y-6001591D01*
X10954200Y-6007641D01*
X10954200Y-6014600D01*
X11150020Y-6014600D01*
X11153541Y-6016059D01*
X11155000Y-6019580D01*
X11155000Y-6138724D01*
X11153541Y-6142246D01*
X11153052Y-6142675D01*
X11141522Y-6151522D01*
X11131841Y-6164139D01*
X11125755Y-6178832D01*
X11125755Y-6178833D01*
X11124200Y-6190640D01*
X11124200Y-6190641D01*
X11124200Y-6279600D01*
X11124200Y-6279600D01*
X11390420Y-6279600D01*
X11393941Y-6281059D01*
X11395400Y-6284580D01*
X11395400Y-6475800D01*
X11559359Y-6475800D01*
X11559360Y-6475800D01*
X11571167Y-6474245D01*
X11571168Y-6474245D01*
X11577203Y-6471745D01*
X11581014Y-6471745D01*
X11583710Y-6474440D01*
X11584089Y-6476346D01*
X11584263Y-7973351D01*
X11582805Y-7976872D01*
X11435723Y-8123953D01*
X11432202Y-8125412D01*
X11432198Y-8125412D01*
X445856Y-8115415D01*
X442966Y-8114488D01*
X277888Y-7996575D01*
X247684Y-7975000D01*
X5345402Y-7975000D01*
X6696665Y-7975000D01*
X6699035Y-7975600D01*
X6707643Y-7980258D01*
X6730337Y-7988049D01*
X6754003Y-7991998D01*
X6777997Y-7991998D01*
X6801663Y-7988049D01*
X6824357Y-7980258D01*
X6845459Y-7968839D01*
X6845459Y-7968838D01*
X6848968Y-7966107D01*
X6779465Y-7896605D01*
X6780459Y-7896462D01*
X6793747Y-7890394D01*
X6804787Y-7880827D01*
X6812684Y-7868539D01*
X6815081Y-7860378D01*
X6884796Y-7930093D01*
X6893766Y-7916362D01*
X6903404Y-7894390D01*
X6903405Y-7894389D01*
X6909295Y-7871130D01*
X6911276Y-7847218D01*
X6909295Y-7823306D01*
X6908701Y-7820964D01*
X8761469Y-7820964D01*
X8764513Y-7848630D01*
X8764513Y-7848631D01*
X8771553Y-7875560D01*
X8771553Y-7875560D01*
X8782439Y-7901177D01*
X8782439Y-7901177D01*
X8789564Y-7912851D01*
X8796939Y-7924936D01*
X8796939Y-7924937D01*
X8814744Y-7946331D01*
X8835474Y-7964905D01*
X8835475Y-7964906D01*
X8837291Y-7966107D01*
X8858688Y-7980264D01*
X8858689Y-7980264D01*
X8858689Y-7980264D01*
X8883890Y-7992078D01*
X8883891Y-7992078D01*
X8910544Y-8000097D01*
X8910545Y-8000097D01*
X8910545Y-8000097D01*
X8938083Y-8004150D01*
X8938083Y-8004150D01*
X8958950Y-8004150D01*
X8968198Y-8003473D01*
X8979760Y-8002627D01*
X9006929Y-7996575D01*
X9032926Y-7986631D01*
X9057199Y-7973009D01*
X9079230Y-7955997D01*
X9093689Y-7941000D01*
X10112262Y-7941000D01*
X10114130Y-7961165D01*
X10119565Y-7980264D01*
X10119672Y-7980642D01*
X10119880Y-7981058D01*
X10120402Y-7983278D01*
X10120402Y-8050000D01*
X10209969Y-8050000D01*
X10210884Y-8050085D01*
X10211875Y-8050270D01*
X10232125Y-8050270D01*
X10233116Y-8050085D01*
X10234031Y-8050000D01*
X10463969Y-8050000D01*
X10464884Y-8050085D01*
X10465875Y-8050270D01*
X10486125Y-8050270D01*
X10487116Y-8050085D01*
X10488031Y-8050000D01*
X10717969Y-8050000D01*
X10718884Y-8050085D01*
X10719875Y-8050270D01*
X10740125Y-8050270D01*
X10741116Y-8050085D01*
X10742031Y-8050000D01*
X10845402Y-8050000D01*
X10845402Y-7830000D01*
X10120402Y-7830000D01*
X10120402Y-7898722D01*
X10119880Y-7900941D01*
X10119673Y-7901357D01*
X10119672Y-7901358D01*
X10114130Y-7920835D01*
X10112262Y-7941000D01*
X9093689Y-7941000D01*
X9098549Y-7935959D01*
X9114745Y-7913322D01*
X9127472Y-7888567D01*
X9136459Y-7862224D01*
X9141515Y-7834853D01*
X9142022Y-7820964D01*
X11047469Y-7820964D01*
X11050513Y-7848630D01*
X11050513Y-7848631D01*
X11057553Y-7875560D01*
X11057553Y-7875560D01*
X11068439Y-7901177D01*
X11068439Y-7901177D01*
X11075564Y-7912851D01*
X11082939Y-7924936D01*
X11082939Y-7924937D01*
X11100744Y-7946331D01*
X11121474Y-7964905D01*
X11121475Y-7964906D01*
X11123291Y-7966107D01*
X11144688Y-7980264D01*
X11144689Y-7980264D01*
X11144689Y-7980264D01*
X11169890Y-7992078D01*
X11169891Y-7992078D01*
X11196544Y-8000097D01*
X11196545Y-8000097D01*
X11196545Y-8000097D01*
X11224083Y-8004150D01*
X11224083Y-8004150D01*
X11244950Y-8004150D01*
X11254198Y-8003473D01*
X11265760Y-8002627D01*
X11292929Y-7996575D01*
X11318926Y-7986631D01*
X11343199Y-7973009D01*
X11365230Y-7955997D01*
X11384549Y-7935959D01*
X11400745Y-7913322D01*
X11413472Y-7888567D01*
X11422459Y-7862224D01*
X11427515Y-7834853D01*
X11428531Y-7807037D01*
X11425487Y-7779369D01*
X11418447Y-7752440D01*
X11407561Y-7726823D01*
X11393061Y-7703064D01*
X11375256Y-7681669D01*
X11354525Y-7663094D01*
X11354525Y-7663094D01*
X11338460Y-7652466D01*
X11331312Y-7647736D01*
X11331311Y-7647736D01*
X11331311Y-7647736D01*
X11306110Y-7635922D01*
X11306108Y-7635921D01*
X11279456Y-7627903D01*
X11279455Y-7627903D01*
X11251917Y-7623850D01*
X11251917Y-7623850D01*
X11231051Y-7623850D01*
X11231050Y-7623850D01*
X11210241Y-7625373D01*
X11210240Y-7625373D01*
X11210240Y-7625373D01*
X11183071Y-7631425D01*
X11183071Y-7631425D01*
X11157074Y-7641368D01*
X11157073Y-7641369D01*
X11132800Y-7654991D01*
X11110770Y-7672003D01*
X11091451Y-7692041D01*
X11075255Y-7714678D01*
X11062528Y-7739433D01*
X11053541Y-7765776D01*
X11048485Y-7793147D01*
X11047469Y-7820963D01*
X11047469Y-7820964D01*
X9142022Y-7820964D01*
X9142531Y-7807037D01*
X9139487Y-7779369D01*
X9132447Y-7752440D01*
X9121561Y-7726823D01*
X9107061Y-7703064D01*
X9089256Y-7681669D01*
X9068526Y-7663094D01*
X9068525Y-7663094D01*
X9052460Y-7652466D01*
X9045312Y-7647736D01*
X9045312Y-7647736D01*
X9045311Y-7647736D01*
X9020110Y-7635922D01*
X9020109Y-7635921D01*
X8993456Y-7627903D01*
X8993455Y-7627903D01*
X8965918Y-7623850D01*
X8965917Y-7623850D01*
X8945051Y-7623850D01*
X8945050Y-7623850D01*
X8924241Y-7625373D01*
X8924240Y-7625373D01*
X8924240Y-7625373D01*
X8897071Y-7631425D01*
X8897071Y-7631425D01*
X8897071Y-7631425D01*
X8871074Y-7641368D01*
X8871073Y-7641369D01*
X8846800Y-7654991D01*
X8824770Y-7672003D01*
X8805451Y-7692041D01*
X8789255Y-7714678D01*
X8776528Y-7739433D01*
X8767541Y-7765776D01*
X8762485Y-7793147D01*
X8761469Y-7820963D01*
X8761469Y-7820964D01*
X6908701Y-7820964D01*
X6903405Y-7800048D01*
X6903404Y-7800047D01*
X6893766Y-7778075D01*
X6884796Y-7764344D01*
X6815080Y-7834059D01*
X6812684Y-7825898D01*
X6804787Y-7813609D01*
X6793747Y-7804043D01*
X6780459Y-7797975D01*
X6779465Y-7797832D01*
X6848968Y-7728329D01*
X6845459Y-7725598D01*
X6845459Y-7725598D01*
X6824357Y-7714178D01*
X6801663Y-7706388D01*
X6777997Y-7702438D01*
X6754003Y-7702438D01*
X6730337Y-7706388D01*
X6707643Y-7714178D01*
X6702752Y-7716825D01*
X6698961Y-7717219D01*
X6696002Y-7714816D01*
X6695402Y-7712446D01*
X6695402Y-7710000D01*
X5345402Y-7710000D01*
X5345402Y-7975000D01*
X247684Y-7975000D01*
X166349Y-7916903D01*
X164331Y-7913670D01*
X164263Y-7912851D01*
X164324Y-7510446D01*
X165783Y-7506925D01*
X169304Y-7505467D01*
X170593Y-7505636D01*
X170651Y-7505652D01*
X170651Y-7505652D01*
X175401Y-7506925D01*
X188541Y-7510446D01*
X192249Y-7511439D01*
X192249Y-7511439D01*
X214525Y-7513388D01*
X236800Y-7511439D01*
X258398Y-7505652D01*
X278664Y-7496202D01*
X296980Y-7483377D01*
X312792Y-7467566D01*
X325617Y-7449249D01*
X335067Y-7428984D01*
X340854Y-7407385D01*
X342803Y-7385110D01*
X342803Y-7385110D01*
X342803Y-7385109D01*
X341089Y-7365524D01*
X342236Y-7361889D01*
X345616Y-7360129D01*
X346050Y-7360110D01*
X612999Y-7360110D01*
X616521Y-7361569D01*
X617979Y-7365090D01*
X617960Y-7365524D01*
X616247Y-7385109D01*
X616247Y-7385110D01*
X616247Y-7385110D01*
X617126Y-7395161D01*
X618196Y-7407386D01*
X623983Y-7428983D01*
X623983Y-7428984D01*
X633433Y-7449249D01*
X633433Y-7449249D01*
X646258Y-7467566D01*
X662069Y-7483377D01*
X680386Y-7496202D01*
X700651Y-7505652D01*
X722249Y-7511439D01*
X722249Y-7511439D01*
X744525Y-7513388D01*
X766800Y-7511439D01*
X788398Y-7505652D01*
X808664Y-7496202D01*
X822124Y-7486777D01*
X1994579Y-7486777D01*
X1997541Y-7513701D01*
X1997541Y-7513702D01*
X2004393Y-7539909D01*
X2004393Y-7539909D01*
X2014987Y-7564838D01*
X2014987Y-7564839D01*
X2029098Y-7587961D01*
X2029098Y-7587961D01*
X2038025Y-7598688D01*
X2046425Y-7608782D01*
X2064942Y-7625373D01*
X2066600Y-7626858D01*
X2066600Y-7626858D01*
X2073503Y-7631425D01*
X2089191Y-7641804D01*
X2089191Y-7641804D01*
X2089191Y-7641805D01*
X2113717Y-7653302D01*
X2113718Y-7653302D01*
X2139656Y-7661106D01*
X2139657Y-7661106D01*
X2139657Y-7661106D01*
X2166456Y-7665050D01*
X2166457Y-7665050D01*
X2186764Y-7665050D01*
X2195764Y-7664391D01*
X2207016Y-7663568D01*
X2233455Y-7657678D01*
X2258756Y-7648001D01*
X2282378Y-7634744D01*
X2303818Y-7618189D01*
X2322619Y-7598688D01*
X2338380Y-7576658D01*
X2350766Y-7552567D01*
X2359512Y-7526930D01*
X2364432Y-7500293D01*
X2364926Y-7486777D01*
X7994579Y-7486777D01*
X7997541Y-7513701D01*
X7997541Y-7513702D01*
X8004393Y-7539909D01*
X8004393Y-7539909D01*
X8014987Y-7564838D01*
X8014987Y-7564839D01*
X8029098Y-7587961D01*
X8029098Y-7587961D01*
X8038025Y-7598688D01*
X8046425Y-7608782D01*
X8064942Y-7625373D01*
X8066600Y-7626858D01*
X8066600Y-7626858D01*
X8073503Y-7631425D01*
X8089191Y-7641804D01*
X8089191Y-7641804D01*
X8089191Y-7641805D01*
X8113717Y-7653302D01*
X8113718Y-7653302D01*
X8139656Y-7661106D01*
X8139657Y-7661106D01*
X8139657Y-7661106D01*
X8166456Y-7665050D01*
X8166456Y-7665050D01*
X8186764Y-7665050D01*
X8195764Y-7664391D01*
X8207016Y-7663568D01*
X8233455Y-7657678D01*
X8258756Y-7648001D01*
X8282378Y-7634744D01*
X8303818Y-7618189D01*
X8322619Y-7598688D01*
X8338380Y-7576658D01*
X8350766Y-7552567D01*
X8359512Y-7526930D01*
X8364432Y-7500293D01*
X8365421Y-7473223D01*
X8362459Y-7446298D01*
X8355607Y-7420091D01*
X8345013Y-7395161D01*
X8330902Y-7372039D01*
X8313574Y-7351218D01*
X8302434Y-7341236D01*
X8293400Y-7333142D01*
X8293400Y-7333141D01*
X8270808Y-7318195D01*
X8246283Y-7306698D01*
X8246282Y-7306698D01*
X8220344Y-7298894D01*
X8220343Y-7298894D01*
X8193544Y-7294950D01*
X8193544Y-7294950D01*
X8173237Y-7294950D01*
X8173236Y-7294950D01*
X8152985Y-7296432D01*
X8152985Y-7296432D01*
X8152984Y-7296432D01*
X8130654Y-7301407D01*
X8126545Y-7302322D01*
X8126544Y-7302322D01*
X8101244Y-7311998D01*
X8101244Y-7311999D01*
X8077622Y-7325256D01*
X8056182Y-7341811D01*
X8037381Y-7361312D01*
X8021620Y-7383342D01*
X8009234Y-7407432D01*
X8000488Y-7433070D01*
X7995568Y-7459707D01*
X7994579Y-7486776D01*
X7994579Y-7486777D01*
X2364926Y-7486777D01*
X2365421Y-7473223D01*
X2362459Y-7446298D01*
X2355607Y-7420091D01*
X2345013Y-7395161D01*
X2330902Y-7372039D01*
X2313575Y-7351218D01*
X2302434Y-7341236D01*
X2293400Y-7333142D01*
X2293400Y-7333141D01*
X2270809Y-7318195D01*
X2246283Y-7306698D01*
X2246282Y-7306698D01*
X2220344Y-7298894D01*
X2220343Y-7298894D01*
X2193544Y-7294950D01*
X2193544Y-7294950D01*
X2173237Y-7294950D01*
X2173236Y-7294950D01*
X2152985Y-7296432D01*
X2152985Y-7296432D01*
X2152984Y-7296432D01*
X2130654Y-7301407D01*
X2126545Y-7302322D01*
X2126544Y-7302322D01*
X2101244Y-7311998D01*
X2101244Y-7311999D01*
X2077622Y-7325256D01*
X2056182Y-7341811D01*
X2037381Y-7361312D01*
X2021620Y-7383342D01*
X2009234Y-7407432D01*
X2000488Y-7433070D01*
X1995568Y-7459707D01*
X1994579Y-7486776D01*
X1994579Y-7486777D01*
X822124Y-7486777D01*
X826980Y-7483377D01*
X842791Y-7467566D01*
X855617Y-7449249D01*
X865067Y-7428984D01*
X870854Y-7407385D01*
X872803Y-7385110D01*
X870854Y-7362835D01*
X870515Y-7361569D01*
X867741Y-7351218D01*
X865067Y-7341236D01*
X855617Y-7320971D01*
X842791Y-7302654D01*
X826980Y-7286843D01*
X808664Y-7274018D01*
X808663Y-7274018D01*
X788399Y-7264568D01*
X788398Y-7264568D01*
X766800Y-7258781D01*
X766799Y-7258780D01*
X749663Y-7257281D01*
X746282Y-7255521D01*
X745117Y-7252339D01*
X745018Y-7225398D01*
X746463Y-7221871D01*
X749979Y-7220400D01*
X871030Y-7220400D01*
X871030Y-7220400D01*
X875491Y-7219513D01*
X880548Y-7216133D01*
X882740Y-7212853D01*
X885909Y-7210736D01*
X886881Y-7210640D01*
X924736Y-7210640D01*
X928257Y-7212099D01*
X1008651Y-7292492D01*
X1009269Y-7293351D01*
X1009271Y-7293349D01*
X1009549Y-7293717D01*
X1013202Y-7297047D01*
X1013285Y-7297127D01*
X1014016Y-7297857D01*
X1014747Y-7298588D01*
X1014747Y-7298588D01*
X1015190Y-7298892D01*
X1015460Y-7299106D01*
X1016153Y-7299737D01*
X1017984Y-7301407D01*
X1017984Y-7301407D01*
X1017984Y-7301407D01*
X1018674Y-7301674D01*
X1019464Y-7301980D01*
X1020479Y-7302515D01*
X1021789Y-7303412D01*
X1025113Y-7304194D01*
X1025443Y-7304296D01*
X1028628Y-7305530D01*
X1030215Y-7305530D01*
X1031355Y-7305662D01*
X1032900Y-7306026D01*
X1036282Y-7305554D01*
X1036626Y-7305530D01*
X1704253Y-7305530D01*
X1707774Y-7306989D01*
X1708016Y-7307249D01*
X1710036Y-7309580D01*
X1710036Y-7309580D01*
X1720992Y-7316621D01*
X1733488Y-7320290D01*
X1733488Y-7320290D01*
X1746511Y-7320290D01*
X1746512Y-7320290D01*
X1759008Y-7316621D01*
X1769964Y-7309580D01*
X1778492Y-7299737D01*
X1783902Y-7287891D01*
X1785756Y-7275000D01*
X1783902Y-7262109D01*
X1778492Y-7250263D01*
X1769964Y-7240420D01*
X1759008Y-7233379D01*
X1746512Y-7229710D01*
X1733488Y-7229710D01*
X1720992Y-7233379D01*
X1710036Y-7240420D01*
X1710036Y-7240420D01*
X1708016Y-7242751D01*
X1704608Y-7244457D01*
X1704253Y-7244470D01*
X1049043Y-7244470D01*
X1045522Y-7243011D01*
X965128Y-7162618D01*
X964510Y-7161759D01*
X964508Y-7161761D01*
X964230Y-7161393D01*
X964230Y-7161393D01*
X964230Y-7161392D01*
X960576Y-7158061D01*
X960493Y-7157982D01*
X959762Y-7157252D01*
X959032Y-7156522D01*
X958589Y-7156218D01*
X958319Y-7156004D01*
X955795Y-7153703D01*
X954314Y-7153130D01*
X953299Y-7152594D01*
X951990Y-7151698D01*
X951990Y-7151697D01*
X948666Y-7150916D01*
X948336Y-7150814D01*
X945152Y-7149580D01*
X945152Y-7149580D01*
X943564Y-7149580D01*
X942424Y-7149448D01*
X942085Y-7149368D01*
X940879Y-7149084D01*
X938559Y-7149408D01*
X937496Y-7149556D01*
X937153Y-7149580D01*
X886881Y-7149580D01*
X883359Y-7148121D01*
X882740Y-7147367D01*
X880548Y-7144086D01*
X880201Y-7143740D01*
X880352Y-7143589D01*
X878676Y-7141082D01*
X879419Y-7137344D01*
X880242Y-7136521D01*
X880201Y-7136480D01*
X880548Y-7136134D01*
X880548Y-7136133D01*
X883928Y-7131076D01*
X884227Y-7129568D01*
X886345Y-7126399D01*
X889112Y-7125560D01*
X916528Y-7125560D01*
X917499Y-7125656D01*
X919525Y-7126059D01*
X929455Y-7124083D01*
X935748Y-7119878D01*
X935748Y-7119878D01*
X936099Y-7119644D01*
X936100Y-7119643D01*
X937873Y-7118458D01*
X939021Y-7116741D01*
X939639Y-7115987D01*
X948355Y-7107271D01*
X951850Y-7105813D01*
X1019249Y-7105454D01*
X1022778Y-7106894D01*
X1024205Y-7109725D01*
X1026098Y-7122890D01*
X1026098Y-7122891D01*
X1031508Y-7134737D01*
X1035646Y-7139513D01*
X1039609Y-7144087D01*
X1040036Y-7144580D01*
X1050992Y-7151621D01*
X1063488Y-7155290D01*
X1063489Y-7155290D01*
X1076512Y-7155290D01*
X1076512Y-7155290D01*
X1089008Y-7151621D01*
X1099964Y-7144580D01*
X1108492Y-7134737D01*
X1113902Y-7122891D01*
X1115756Y-7110000D01*
X1115716Y-7109725D01*
X1115703Y-7109635D01*
X2455963Y-7109635D01*
X2464663Y-7115023D01*
X2483811Y-7122441D01*
X2503996Y-7126214D01*
X2524530Y-7126214D01*
X2544715Y-7122441D01*
X2563862Y-7115023D01*
X2572563Y-7109635D01*
X2514263Y-7051335D01*
X2455963Y-7109635D01*
X1115703Y-7109635D01*
X1115102Y-7105450D01*
X1113902Y-7097109D01*
X1108492Y-7085263D01*
X1099964Y-7075420D01*
X1099964Y-7075420D01*
X1098049Y-7074189D01*
X1095875Y-7071059D01*
X1096552Y-7067308D01*
X1098049Y-7065810D01*
X1099964Y-7064580D01*
X1108492Y-7054737D01*
X1113902Y-7042891D01*
X1115756Y-7030000D01*
X1113902Y-7017109D01*
X1113128Y-7015414D01*
X2402988Y-7015414D01*
X2404883Y-7035861D01*
X2410502Y-7055611D01*
X2419655Y-7073992D01*
X2419656Y-7073993D01*
X2419702Y-7074054D01*
X2419702Y-7074054D01*
X2478342Y-7015414D01*
X2475526Y-7012598D01*
X2483874Y-7012598D01*
X2484909Y-7023766D01*
X2489908Y-7033806D01*
X2498197Y-7041362D01*
X2508655Y-7045414D01*
X2517043Y-7045414D01*
X2525288Y-7043873D01*
X2534824Y-7037968D01*
X2541583Y-7029018D01*
X2544653Y-7018230D01*
X2544392Y-7015414D01*
X2550184Y-7015414D01*
X2608824Y-7074054D01*
X2608871Y-7073992D01*
X2608871Y-7073992D01*
X2618024Y-7055611D01*
X2623643Y-7035861D01*
X2625538Y-7015414D01*
X2623643Y-6994967D01*
X2618024Y-6975217D01*
X2608871Y-6956835D01*
X2608871Y-6956835D01*
X2608824Y-6956774D01*
X2608824Y-6956774D01*
X2550184Y-7015414D01*
X2544392Y-7015414D01*
X2543618Y-7007062D01*
X2538618Y-6997022D01*
X2530330Y-6989465D01*
X2519871Y-6985414D01*
X2511483Y-6985414D01*
X2503238Y-6986955D01*
X2493702Y-6992859D01*
X2486943Y-7001810D01*
X2483874Y-7012598D01*
X2475526Y-7012598D01*
X2419702Y-6956774D01*
X2419655Y-6956835D01*
X2410502Y-6975217D01*
X2404883Y-6994967D01*
X2402988Y-7015414D01*
X1113128Y-7015414D01*
X1108492Y-7005263D01*
X1099964Y-6995420D01*
X1089008Y-6988379D01*
X1076512Y-6984710D01*
X1063488Y-6984710D01*
X1050992Y-6988379D01*
X1045514Y-6991900D01*
X1040036Y-6995420D01*
X1031508Y-7005263D01*
X1031508Y-7005263D01*
X1028692Y-7011429D01*
X1025902Y-7014026D01*
X1024162Y-7014340D01*
X951809Y-7014340D01*
X948288Y-7012881D01*
X939639Y-7004233D01*
X939020Y-7003478D01*
X937873Y-7001762D01*
X935952Y-7000478D01*
X935951Y-7000477D01*
X929455Y-6996137D01*
X919525Y-6994161D01*
X917499Y-6994564D01*
X916528Y-6994660D01*
X889112Y-6994660D01*
X885590Y-6993201D01*
X884227Y-6990652D01*
X883928Y-6989144D01*
X883927Y-6989144D01*
X883927Y-6989144D01*
X880548Y-6984087D01*
X880201Y-6983740D01*
X880352Y-6983589D01*
X878676Y-6981082D01*
X879419Y-6977344D01*
X880242Y-6976521D01*
X880201Y-6976480D01*
X880548Y-6976134D01*
X880548Y-6976133D01*
X883928Y-6971076D01*
X884815Y-6966616D01*
X884815Y-6937083D01*
X886273Y-6933562D01*
X888054Y-6932417D01*
X894121Y-6930155D01*
X894121Y-6930154D01*
X905815Y-6921400D01*
X905815Y-6921400D01*
X905971Y-6921192D01*
X2455963Y-6921192D01*
X2514263Y-6979493D01*
X2572563Y-6921192D01*
X2563863Y-6915805D01*
X2544715Y-6908387D01*
X2524530Y-6904614D01*
X2503996Y-6904614D01*
X2483811Y-6908387D01*
X2464663Y-6915805D01*
X2455963Y-6921192D01*
X905971Y-6921192D01*
X914569Y-6909706D01*
X919674Y-6896020D01*
X919674Y-6896019D01*
X920325Y-6889968D01*
X920325Y-6885110D01*
X749505Y-6885110D01*
X745983Y-6883651D01*
X744525Y-6880130D01*
X744525Y-6840090D01*
X745983Y-6836569D01*
X749505Y-6835110D01*
X920325Y-6835110D01*
X920325Y-6830251D01*
X919674Y-6824201D01*
X919674Y-6824200D01*
X914569Y-6810514D01*
X905815Y-6798820D01*
X905815Y-6798819D01*
X894121Y-6790065D01*
X894121Y-6790065D01*
X880434Y-6784960D01*
X880434Y-6784960D01*
X874383Y-6784310D01*
X792295Y-6784310D01*
X788773Y-6782851D01*
X787315Y-6779330D01*
X788773Y-6775809D01*
X790190Y-6774817D01*
X795598Y-6772295D01*
X808664Y-6766202D01*
X826980Y-6753377D01*
X842791Y-6737566D01*
X855617Y-6719249D01*
X865067Y-6698984D01*
X870379Y-6679157D01*
X870854Y-6677386D01*
X870854Y-6677386D01*
X870854Y-6677385D01*
X872803Y-6655110D01*
X870854Y-6632835D01*
X870096Y-6630006D01*
X868201Y-6622934D01*
X865067Y-6611236D01*
X859827Y-6600000D01*
X1374244Y-6600000D01*
X1375860Y-6611236D01*
X1376098Y-6612891D01*
X1380684Y-6622934D01*
X1381508Y-6624737D01*
X1381508Y-6624738D01*
X1384732Y-6628458D01*
X1388254Y-6632522D01*
X1389470Y-6635783D01*
X1389470Y-6835358D01*
X1389300Y-6836402D01*
X1389303Y-6836403D01*
X1389239Y-6836859D01*
X1389467Y-6841798D01*
X1389470Y-6841913D01*
X1389470Y-6843980D01*
X1389569Y-6844508D01*
X1389608Y-6844850D01*
X1389766Y-6848262D01*
X1389766Y-6848262D01*
X1390407Y-6849714D01*
X1390747Y-6850810D01*
X1391039Y-6852370D01*
X1392836Y-6855274D01*
X1392997Y-6855579D01*
X1394377Y-6858703D01*
X1395499Y-6859825D01*
X1396212Y-6860725D01*
X1397047Y-6862075D01*
X1399773Y-6864133D01*
X1400032Y-6864359D01*
X1418579Y-6882906D01*
X1419197Y-6883765D01*
X1419200Y-6883763D01*
X1419477Y-6884131D01*
X1423132Y-6887462D01*
X1423215Y-6887541D01*
X1423945Y-6888272D01*
X1424675Y-6889002D01*
X1424676Y-6889002D01*
X1424676Y-6889002D01*
X1425118Y-6889305D01*
X1425389Y-6889519D01*
X1427913Y-6891820D01*
X1429392Y-6892394D01*
X1430408Y-6892929D01*
X1431167Y-6893449D01*
X1431718Y-6893826D01*
X1435041Y-6894608D01*
X1435371Y-6894710D01*
X1438556Y-6895944D01*
X1440144Y-6895944D01*
X1441284Y-6896076D01*
X1442829Y-6896439D01*
X1446211Y-6895968D01*
X1446554Y-6895944D01*
X1600696Y-6895944D01*
X1603389Y-6896734D01*
X1607274Y-6899231D01*
X1610992Y-6901621D01*
X1623488Y-6905290D01*
X1623488Y-6905290D01*
X1636511Y-6905290D01*
X1636512Y-6905290D01*
X1649008Y-6901621D01*
X1659964Y-6894580D01*
X1668492Y-6884737D01*
X1672063Y-6876919D01*
X2438973Y-6876919D01*
X2438973Y-6876920D01*
X2439860Y-6881379D01*
X2439860Y-6881380D01*
X2443240Y-6886437D01*
X2443240Y-6886437D01*
X2444831Y-6887501D01*
X2448297Y-6889817D01*
X2452757Y-6890704D01*
X2575769Y-6890704D01*
X2580229Y-6889817D01*
X2585287Y-6886437D01*
X2588666Y-6881380D01*
X2589553Y-6876919D01*
X2589553Y-6753908D01*
X2588666Y-6749448D01*
X2588666Y-6749448D01*
X2588666Y-6749448D01*
X2585287Y-6744390D01*
X2585286Y-6744390D01*
X2580229Y-6741011D01*
X2575769Y-6740124D01*
X2575769Y-6740124D01*
X2452758Y-6740124D01*
X2452757Y-6740124D01*
X2449412Y-6740789D01*
X2448297Y-6741011D01*
X2448297Y-6741011D01*
X2448297Y-6741011D01*
X2443240Y-6744390D01*
X2443240Y-6744390D01*
X2439860Y-6749448D01*
X2439860Y-6749448D01*
X2438973Y-6753908D01*
X2438973Y-6876919D01*
X1672063Y-6876919D01*
X1673902Y-6872891D01*
X1675457Y-6862075D01*
X1675756Y-6860000D01*
X1675756Y-6860000D01*
X1675120Y-6855579D01*
X1673902Y-6847109D01*
X1668492Y-6835263D01*
X1659964Y-6825420D01*
X1649008Y-6818379D01*
X1636512Y-6814710D01*
X1623488Y-6814710D01*
X1610992Y-6818379D01*
X1600036Y-6825420D01*
X1600036Y-6825420D01*
X1593325Y-6833165D01*
X1589917Y-6834871D01*
X1589562Y-6834884D01*
X1458972Y-6834884D01*
X1455450Y-6833425D01*
X1455450Y-6833425D01*
X1451989Y-6829963D01*
X1450530Y-6826442D01*
X1450530Y-6635783D01*
X1451746Y-6632522D01*
X1458492Y-6624737D01*
X1463902Y-6612891D01*
X1465756Y-6600000D01*
X1463902Y-6587109D01*
X1460545Y-6579758D01*
X3318724Y-6579758D01*
X3320705Y-6603670D01*
X3326595Y-6626929D01*
X3326595Y-6626930D01*
X3336233Y-6648902D01*
X3345204Y-6662633D01*
X3414919Y-6592918D01*
X3417315Y-6601079D01*
X3425213Y-6613367D01*
X3436253Y-6622934D01*
X3449541Y-6629002D01*
X3450534Y-6629145D01*
X3381032Y-6698647D01*
X3384541Y-6701379D01*
X3384541Y-6701379D01*
X3405643Y-6712798D01*
X3428337Y-6720589D01*
X3452003Y-6724538D01*
X3475997Y-6724538D01*
X3499663Y-6720589D01*
X3522357Y-6712798D01*
X3543459Y-6701379D01*
X3543459Y-6701378D01*
X3546968Y-6698647D01*
X3477465Y-6629145D01*
X3478459Y-6629002D01*
X3491747Y-6622934D01*
X3502787Y-6613367D01*
X3510684Y-6601079D01*
X3513081Y-6592918D01*
X3582796Y-6662633D01*
X3591766Y-6648902D01*
X3601404Y-6626930D01*
X3601405Y-6626929D01*
X3607295Y-6603670D01*
X3609276Y-6579758D01*
X7382724Y-6579758D01*
X7384705Y-6603670D01*
X7390595Y-6626929D01*
X7390595Y-6626930D01*
X7400233Y-6648902D01*
X7409204Y-6662633D01*
X7478919Y-6592918D01*
X7481315Y-6601079D01*
X7489213Y-6613367D01*
X7500253Y-6622934D01*
X7513541Y-6629002D01*
X7514534Y-6629145D01*
X7445032Y-6698647D01*
X7448541Y-6701379D01*
X7448541Y-6701379D01*
X7469643Y-6712798D01*
X7492337Y-6720589D01*
X7516003Y-6724538D01*
X7539997Y-6724538D01*
X7563663Y-6720589D01*
X7586357Y-6712798D01*
X7607459Y-6701379D01*
X7607459Y-6701378D01*
X7610968Y-6698647D01*
X7541465Y-6629145D01*
X7542459Y-6629002D01*
X7555747Y-6622934D01*
X7566787Y-6613367D01*
X7574684Y-6601079D01*
X7577081Y-6592918D01*
X7646796Y-6662633D01*
X7655766Y-6648902D01*
X7665404Y-6626930D01*
X7665405Y-6626929D01*
X7671295Y-6603670D01*
X7673276Y-6579758D01*
X7671295Y-6555846D01*
X7665405Y-6532588D01*
X7665404Y-6532587D01*
X7655766Y-6510615D01*
X7646796Y-6496884D01*
X7577080Y-6566599D01*
X7574684Y-6558438D01*
X7566787Y-6546149D01*
X7555747Y-6536583D01*
X7542459Y-6530515D01*
X7541465Y-6530372D01*
X7604965Y-6466872D01*
X7608486Y-6465414D01*
X7664263Y-6465414D01*
X7664263Y-5504586D01*
X8670737Y-5504586D01*
X8670737Y-6814586D01*
X8748445Y-6814586D01*
X8751966Y-6816045D01*
X8811535Y-6875614D01*
X8810541Y-6875756D01*
X8797253Y-6881825D01*
X8786213Y-6891391D01*
X8778316Y-6903680D01*
X8775919Y-6911840D01*
X8706204Y-6842125D01*
X8697234Y-6855856D01*
X8687596Y-6877828D01*
X8687595Y-6877829D01*
X8681705Y-6901088D01*
X8679724Y-6925000D01*
X8681705Y-6948912D01*
X8687595Y-6972170D01*
X8687596Y-6972172D01*
X8697233Y-6994144D01*
X8706204Y-7007874D01*
X8775919Y-6938159D01*
X8778316Y-6946320D01*
X8786213Y-6958609D01*
X8797253Y-6968175D01*
X8810541Y-6974243D01*
X8811535Y-6974386D01*
X8742032Y-7043889D01*
X8745541Y-7046620D01*
X8745541Y-7046620D01*
X8766643Y-7058040D01*
X8789337Y-7065831D01*
X8813003Y-7069780D01*
X8836997Y-7069780D01*
X8860663Y-7065831D01*
X8883357Y-7058040D01*
X8904459Y-7046620D01*
X8904459Y-7046620D01*
X8907968Y-7043889D01*
X8838465Y-6974386D01*
X8839459Y-6974243D01*
X8852747Y-6968175D01*
X8863787Y-6958609D01*
X8871685Y-6946320D01*
X8874081Y-6938159D01*
X8943796Y-7007874D01*
X8952767Y-6994144D01*
X8962404Y-6972172D01*
X8962405Y-6972170D01*
X8968295Y-6948912D01*
X8970276Y-6925000D01*
X8968295Y-6901088D01*
X8962405Y-6877829D01*
X8962404Y-6877828D01*
X8952767Y-6855856D01*
X8943796Y-6842125D01*
X8874081Y-6911840D01*
X8871685Y-6903680D01*
X8863787Y-6891391D01*
X8852747Y-6881825D01*
X8839459Y-6875756D01*
X8838465Y-6875613D01*
X8898034Y-6816045D01*
X8901556Y-6814586D01*
X8970737Y-6814586D01*
X8970737Y-6664586D01*
X9924981Y-6664586D01*
X9926821Y-6677386D01*
X9926835Y-6677477D01*
X9932245Y-6689324D01*
X9939635Y-6697852D01*
X9940615Y-6698984D01*
X9940773Y-6699166D01*
X9951729Y-6706207D01*
X9964225Y-6709876D01*
X9964225Y-6709876D01*
X9977248Y-6709876D01*
X9977249Y-6709876D01*
X9989745Y-6706207D01*
X10000701Y-6699166D01*
X10009229Y-6689324D01*
X10014639Y-6677477D01*
X10016493Y-6664586D01*
X10014639Y-6651695D01*
X10009229Y-6639849D01*
X10000701Y-6630006D01*
X9989745Y-6622965D01*
X9977249Y-6619296D01*
X9964225Y-6619296D01*
X9951729Y-6622965D01*
X9948972Y-6624737D01*
X9940773Y-6630006D01*
X9932245Y-6639849D01*
X9926835Y-6651695D01*
X9926835Y-6651696D01*
X9924981Y-6664586D01*
X9924981Y-6664586D01*
X8970737Y-6664586D01*
X8970737Y-6330400D01*
X11124200Y-6330400D01*
X11124200Y-6419360D01*
X11125755Y-6431167D01*
X11125755Y-6431168D01*
X11131841Y-6445861D01*
X11141522Y-6458478D01*
X11141522Y-6458478D01*
X11154139Y-6468159D01*
X11168832Y-6474245D01*
X11168833Y-6474245D01*
X11180640Y-6475800D01*
X11180641Y-6475800D01*
X11344600Y-6475800D01*
X11344600Y-6330400D01*
X11124200Y-6330400D01*
X8970737Y-6330400D01*
X8970737Y-6065400D01*
X10954200Y-6065400D01*
X10954200Y-6072358D01*
X10954850Y-6078409D01*
X10954851Y-6078410D01*
X10959955Y-6092096D01*
X10968710Y-6103790D01*
X10968710Y-6103790D01*
X10980404Y-6112545D01*
X10980404Y-6112545D01*
X10994090Y-6117649D01*
X10994091Y-6117649D01*
X11000142Y-6118300D01*
X11104600Y-6118300D01*
X11104600Y-6065400D01*
X10954200Y-6065400D01*
X8970737Y-6065400D01*
X8970737Y-6005000D01*
X10374244Y-6005000D01*
X10375834Y-6016059D01*
X10376098Y-6017891D01*
X10381508Y-6029737D01*
X10390036Y-6039580D01*
X10400992Y-6046621D01*
X10413488Y-6050290D01*
X10413489Y-6050290D01*
X10426512Y-6050290D01*
X10426512Y-6050290D01*
X10439008Y-6046621D01*
X10449964Y-6039580D01*
X10458492Y-6029737D01*
X10463902Y-6017891D01*
X10465756Y-6005000D01*
X10465438Y-6002790D01*
X10464164Y-5993931D01*
X10463902Y-5992109D01*
X10458492Y-5980263D01*
X10449964Y-5970420D01*
X10439008Y-5963379D01*
X10426512Y-5959710D01*
X10413488Y-5959710D01*
X10400992Y-5963379D01*
X10397817Y-5965420D01*
X10390036Y-5970420D01*
X10381508Y-5980263D01*
X10376098Y-5992109D01*
X10376098Y-5992109D01*
X10374244Y-6005000D01*
X10374244Y-6005000D01*
X8970737Y-6005000D01*
X8970737Y-5830000D01*
X10369244Y-5830000D01*
X10370942Y-5841811D01*
X10371098Y-5842891D01*
X10376508Y-5854737D01*
X10385036Y-5864580D01*
X10395992Y-5871621D01*
X10408488Y-5875290D01*
X10408489Y-5875290D01*
X10421512Y-5875290D01*
X10421512Y-5875290D01*
X10434008Y-5871621D01*
X10444964Y-5864580D01*
X10453492Y-5854737D01*
X10458902Y-5842891D01*
X10460470Y-5831989D01*
X10460756Y-5830000D01*
X10460756Y-5830000D01*
X10459834Y-5823588D01*
X10458902Y-5817109D01*
X10453492Y-5805263D01*
X10444964Y-5795420D01*
X10434008Y-5788379D01*
X10421512Y-5784710D01*
X10408488Y-5784710D01*
X10395992Y-5788379D01*
X10390514Y-5791900D01*
X10385036Y-5795420D01*
X10376508Y-5805263D01*
X10371098Y-5817109D01*
X10371098Y-5817109D01*
X10369244Y-5830000D01*
X10369244Y-5830000D01*
X8970737Y-5830000D01*
X8970737Y-5509600D01*
X11124200Y-5509600D01*
X11124200Y-5509600D01*
X11344600Y-5509600D01*
X11344600Y-5364200D01*
X11180640Y-5364200D01*
X11168833Y-5365755D01*
X11168832Y-5365755D01*
X11154139Y-5371841D01*
X11141522Y-5381522D01*
X11141522Y-5381522D01*
X11131841Y-5394139D01*
X11125755Y-5408832D01*
X11125755Y-5408833D01*
X11124200Y-5420640D01*
X11124200Y-5420641D01*
X11124200Y-5509600D01*
X8970737Y-5509600D01*
X8970737Y-5504586D01*
X8670737Y-5504586D01*
X7664263Y-5504586D01*
X7664263Y-4915414D01*
X7607797Y-4915414D01*
X7604276Y-4913955D01*
X7541465Y-4851145D01*
X7542459Y-4851002D01*
X7555747Y-4844934D01*
X7566787Y-4835368D01*
X7574684Y-4823079D01*
X7577081Y-4814918D01*
X7646796Y-4884633D01*
X7655766Y-4870902D01*
X7665404Y-4848930D01*
X7665405Y-4848929D01*
X7671295Y-4825670D01*
X7673276Y-4801759D01*
X7671295Y-4777847D01*
X7670058Y-4772964D01*
X8761469Y-4772964D01*
X8763781Y-4793977D01*
X8764513Y-4800631D01*
X8770382Y-4823079D01*
X8771553Y-4827560D01*
X8771553Y-4827561D01*
X8782439Y-4853177D01*
X8782440Y-4853178D01*
X8796939Y-4876936D01*
X8796939Y-4876937D01*
X8814744Y-4898331D01*
X8822983Y-4905713D01*
X8833810Y-4915414D01*
X8835474Y-4916906D01*
X8835475Y-4916906D01*
X8840380Y-4920151D01*
X8858688Y-4932264D01*
X8858689Y-4932264D01*
X8858689Y-4932264D01*
X8883890Y-4944078D01*
X8883891Y-4944078D01*
X8910544Y-4952097D01*
X8910545Y-4952097D01*
X8910545Y-4952097D01*
X8938083Y-4956150D01*
X8938083Y-4956150D01*
X8958950Y-4956150D01*
X8968198Y-4955473D01*
X8979760Y-4954627D01*
X9006929Y-4948575D01*
X9032926Y-4938632D01*
X9057199Y-4925009D01*
X9079230Y-4907997D01*
X9098549Y-4887959D01*
X9114745Y-4865322D01*
X9127472Y-4840568D01*
X9136459Y-4814224D01*
X9141515Y-4786853D01*
X9142022Y-4772964D01*
X11047469Y-4772964D01*
X11049781Y-4793977D01*
X11050513Y-4800631D01*
X11056382Y-4823079D01*
X11057553Y-4827560D01*
X11057553Y-4827561D01*
X11068439Y-4853177D01*
X11068440Y-4853178D01*
X11082939Y-4876936D01*
X11082939Y-4876937D01*
X11100744Y-4898331D01*
X11108983Y-4905713D01*
X11119810Y-4915414D01*
X11121474Y-4916906D01*
X11121475Y-4916906D01*
X11126380Y-4920151D01*
X11144688Y-4932264D01*
X11144689Y-4932264D01*
X11144689Y-4932264D01*
X11169890Y-4944078D01*
X11169891Y-4944078D01*
X11196544Y-4952097D01*
X11196545Y-4952097D01*
X11196545Y-4952097D01*
X11224083Y-4956150D01*
X11224083Y-4956150D01*
X11244950Y-4956150D01*
X11254198Y-4955473D01*
X11265760Y-4954627D01*
X11292929Y-4948575D01*
X11318926Y-4938632D01*
X11343199Y-4925009D01*
X11365230Y-4907997D01*
X11384549Y-4887959D01*
X11400745Y-4865322D01*
X11413472Y-4840568D01*
X11422459Y-4814224D01*
X11427515Y-4786853D01*
X11428531Y-4759037D01*
X11425487Y-4731369D01*
X11418447Y-4704440D01*
X11407561Y-4678823D01*
X11393061Y-4655064D01*
X11375256Y-4633669D01*
X11375189Y-4633609D01*
X11354525Y-4615094D01*
X11354525Y-4615094D01*
X11331311Y-4599736D01*
X11306110Y-4587922D01*
X11306108Y-4587922D01*
X11279456Y-4579903D01*
X11279455Y-4579903D01*
X11251917Y-4575850D01*
X11251917Y-4575850D01*
X11231051Y-4575850D01*
X11231050Y-4575850D01*
X11210241Y-4577373D01*
X11210240Y-4577373D01*
X11210240Y-4577373D01*
X11196122Y-4580518D01*
X11183071Y-4583425D01*
X11183071Y-4583425D01*
X11157074Y-4593368D01*
X11157073Y-4593369D01*
X11132800Y-4606991D01*
X11110770Y-4624003D01*
X11091451Y-4644041D01*
X11083565Y-4655064D01*
X11075296Y-4666621D01*
X11075255Y-4666678D01*
X11062528Y-4691433D01*
X11053541Y-4717776D01*
X11048485Y-4745147D01*
X11047469Y-4772963D01*
X11047469Y-4772964D01*
X9142022Y-4772964D01*
X9142531Y-4759037D01*
X9139487Y-4731369D01*
X9132447Y-4704440D01*
X9121561Y-4678823D01*
X9107061Y-4655064D01*
X9089256Y-4633669D01*
X9089189Y-4633609D01*
X9068526Y-4615094D01*
X9068525Y-4615094D01*
X9045311Y-4599736D01*
X9020110Y-4587922D01*
X9020109Y-4587922D01*
X8993456Y-4579903D01*
X8993455Y-4579903D01*
X8965918Y-4575850D01*
X8965917Y-4575850D01*
X8945051Y-4575850D01*
X8945050Y-4575850D01*
X8924241Y-4577373D01*
X8924240Y-4577373D01*
X8924240Y-4577373D01*
X8910122Y-4580518D01*
X8897071Y-4583425D01*
X8897071Y-4583425D01*
X8871074Y-4593368D01*
X8871073Y-4593369D01*
X8846800Y-4606991D01*
X8824770Y-4624003D01*
X8805451Y-4644041D01*
X8797565Y-4655064D01*
X8789296Y-4666621D01*
X8789255Y-4666678D01*
X8776528Y-4691433D01*
X8767541Y-4717776D01*
X8762485Y-4745147D01*
X8761469Y-4772963D01*
X8761469Y-4772964D01*
X7670058Y-4772964D01*
X7665405Y-4754588D01*
X7665404Y-4754587D01*
X7655766Y-4732615D01*
X7642643Y-4712528D01*
X7640419Y-4710111D01*
X7639107Y-4706533D01*
X7640710Y-4703075D01*
X7644082Y-4701759D01*
X7680402Y-4701759D01*
X7680402Y-4164586D01*
X8174981Y-4164586D01*
X8176671Y-4176338D01*
X8176835Y-4177477D01*
X8182245Y-4189324D01*
X8190773Y-4199166D01*
X8201729Y-4206207D01*
X8214225Y-4209876D01*
X8214225Y-4209876D01*
X8227248Y-4209876D01*
X8227249Y-4209876D01*
X8239744Y-4206207D01*
X8250700Y-4199166D01*
X8259229Y-4189324D01*
X8264639Y-4177477D01*
X8266493Y-4164586D01*
X8266359Y-4163657D01*
X8265736Y-4159324D01*
X8264639Y-4151695D01*
X8259229Y-4139849D01*
X8254669Y-4134586D01*
X10034981Y-4134586D01*
X10036815Y-4147338D01*
X10036835Y-4147477D01*
X10042245Y-4159324D01*
X10050773Y-4169166D01*
X10061729Y-4176207D01*
X10074225Y-4179876D01*
X10074225Y-4179876D01*
X10087248Y-4179876D01*
X10087249Y-4179876D01*
X10099745Y-4176207D01*
X10110701Y-4169166D01*
X10119229Y-4159324D01*
X10123487Y-4150000D01*
X10753721Y-4150000D01*
X10755634Y-4175527D01*
X10755634Y-4175528D01*
X10761330Y-4200484D01*
X10770683Y-4224315D01*
X10783483Y-4246485D01*
X10787525Y-4251554D01*
X10868557Y-4170522D01*
X10872590Y-4180259D01*
X10882208Y-4192792D01*
X10894741Y-4202410D01*
X10904478Y-4206443D01*
X10823442Y-4287479D01*
X10823442Y-4287479D01*
X10839361Y-4298332D01*
X10862424Y-4309439D01*
X10886886Y-4316984D01*
X10886887Y-4316985D01*
X10912201Y-4320800D01*
X10937799Y-4320800D01*
X10963113Y-4316985D01*
X10963114Y-4316984D01*
X10987575Y-4309439D01*
X10987576Y-4309439D01*
X11010639Y-4298332D01*
X11010639Y-4298332D01*
X11026558Y-4287479D01*
X11026558Y-4287479D01*
X10945522Y-4206443D01*
X10955259Y-4202410D01*
X10967793Y-4192792D01*
X10977410Y-4180259D01*
X10981443Y-4170522D01*
X11062475Y-4251554D01*
X11062475Y-4251554D01*
X11066517Y-4246485D01*
X11079317Y-4224315D01*
X11088670Y-4200484D01*
X11094366Y-4175528D01*
X11094366Y-4175527D01*
X11096279Y-4150000D01*
X11094366Y-4124473D01*
X11094366Y-4124472D01*
X11088670Y-4099515D01*
X11079317Y-4075685D01*
X11066517Y-4053515D01*
X11062475Y-4048446D01*
X10981443Y-4129478D01*
X10977410Y-4119741D01*
X10967793Y-4107207D01*
X10955259Y-4097590D01*
X10945522Y-4093557D01*
X11026558Y-4012521D01*
X11010639Y-4001668D01*
X10987576Y-3990561D01*
X10987575Y-3990561D01*
X10963114Y-3983015D01*
X10963113Y-3983015D01*
X10937799Y-3979200D01*
X10912201Y-3979200D01*
X10886887Y-3983015D01*
X10886886Y-3983015D01*
X10862424Y-3990561D01*
X10862424Y-3990561D01*
X10839361Y-4001668D01*
X10823442Y-4012521D01*
X10823442Y-4012521D01*
X10904478Y-4093557D01*
X10894741Y-4097590D01*
X10882208Y-4107207D01*
X10872590Y-4119741D01*
X10868557Y-4129478D01*
X10787525Y-4048446D01*
X10787525Y-4048446D01*
X10783483Y-4053515D01*
X10770683Y-4075685D01*
X10761330Y-4099515D01*
X10755634Y-4124472D01*
X10755634Y-4124473D01*
X10753721Y-4150000D01*
X10123487Y-4150000D01*
X10124639Y-4147477D01*
X10126493Y-4134586D01*
X10126203Y-4132572D01*
X10125396Y-4126956D01*
X10124639Y-4121695D01*
X10119229Y-4109849D01*
X10110701Y-4100006D01*
X10099745Y-4092965D01*
X10087249Y-4089296D01*
X10074225Y-4089296D01*
X10061729Y-4092965D01*
X10056278Y-4096468D01*
X10050773Y-4100006D01*
X10042245Y-4109849D01*
X10036835Y-4121695D01*
X10036835Y-4121696D01*
X10034981Y-4134586D01*
X10034981Y-4134586D01*
X8254669Y-4134586D01*
X8250700Y-4130006D01*
X8239744Y-4122965D01*
X8227249Y-4119296D01*
X8214225Y-4119296D01*
X8201729Y-4122965D01*
X8197553Y-4125649D01*
X8190773Y-4130006D01*
X8182245Y-4139849D01*
X8176835Y-4151695D01*
X8176834Y-4151696D01*
X8174981Y-4164586D01*
X8174981Y-4164586D01*
X7680402Y-4164586D01*
X7680402Y-4010000D01*
X8284981Y-4010000D01*
X8285915Y-4016496D01*
X8286835Y-4022891D01*
X8292245Y-4034737D01*
X8300773Y-4044580D01*
X8311729Y-4051621D01*
X8324225Y-4055290D01*
X8324225Y-4055290D01*
X8337248Y-4055290D01*
X8337249Y-4055290D01*
X8349744Y-4051621D01*
X8360700Y-4044580D01*
X8369229Y-4034737D01*
X8374639Y-4022891D01*
X8376493Y-4010000D01*
X8374639Y-3997109D01*
X8369229Y-3985263D01*
X8360700Y-3975420D01*
X8349744Y-3968379D01*
X8337249Y-3964710D01*
X8324225Y-3964710D01*
X8311729Y-3968379D01*
X8306251Y-3971900D01*
X8300773Y-3975420D01*
X8292245Y-3985263D01*
X8286835Y-3997109D01*
X8286834Y-3997109D01*
X8284981Y-4010000D01*
X8284981Y-4010000D01*
X7680402Y-4010000D01*
X7680402Y-3948728D01*
X8394781Y-3948728D01*
X8395790Y-3955748D01*
X8396634Y-3961618D01*
X8402044Y-3973465D01*
X8410573Y-3983307D01*
X8421529Y-3990348D01*
X8434025Y-3994018D01*
X8434025Y-3994018D01*
X8447048Y-3994018D01*
X8447048Y-3994018D01*
X8459544Y-3990348D01*
X8470500Y-3983307D01*
X8479028Y-3973465D01*
X8484439Y-3961618D01*
X8486292Y-3948728D01*
X8484439Y-3935837D01*
X8479028Y-3923990D01*
X8470500Y-3914148D01*
X8459544Y-3907107D01*
X8447048Y-3903438D01*
X8434025Y-3903438D01*
X8421529Y-3907107D01*
X8416051Y-3910627D01*
X8410573Y-3914148D01*
X8402044Y-3923990D01*
X8396634Y-3935837D01*
X8396634Y-3935837D01*
X8394781Y-3948727D01*
X8394781Y-3948728D01*
X7680402Y-3948728D01*
X7680402Y-3926758D01*
X7410402Y-3926758D01*
X7410402Y-4701758D01*
X7410402Y-4701759D01*
X7411917Y-4701759D01*
X7415439Y-4703217D01*
X7416897Y-4706739D01*
X7415581Y-4710111D01*
X7413357Y-4712528D01*
X7400233Y-4732615D01*
X7390595Y-4754587D01*
X7390595Y-4754588D01*
X7384705Y-4777847D01*
X7382724Y-4801758D01*
X7384705Y-4825670D01*
X7390595Y-4848929D01*
X7390595Y-4848930D01*
X7400233Y-4870902D01*
X7409204Y-4884633D01*
X7478919Y-4814918D01*
X7481315Y-4823079D01*
X7489213Y-4835368D01*
X7500253Y-4844934D01*
X7513541Y-4851002D01*
X7514535Y-4851145D01*
X7451724Y-4913955D01*
X7448203Y-4915414D01*
X7394263Y-4915414D01*
X7394263Y-6465414D01*
X7447514Y-6465414D01*
X7451035Y-6466872D01*
X7514535Y-6530372D01*
X7513541Y-6530515D01*
X7500253Y-6536583D01*
X7489213Y-6546149D01*
X7481315Y-6558438D01*
X7478919Y-6566599D01*
X7409204Y-6496884D01*
X7400234Y-6510614D01*
X7390595Y-6532587D01*
X7390595Y-6532588D01*
X7384705Y-6555846D01*
X7382724Y-6579758D01*
X3609276Y-6579758D01*
X3607295Y-6555846D01*
X3601405Y-6532588D01*
X3601404Y-6532587D01*
X3591766Y-6510615D01*
X3582796Y-6496884D01*
X3513080Y-6566599D01*
X3510684Y-6558438D01*
X3502787Y-6546149D01*
X3491747Y-6536583D01*
X3478459Y-6530515D01*
X3477465Y-6530372D01*
X3544620Y-6463217D01*
X3548142Y-6461758D01*
X3604263Y-6461758D01*
X3604263Y-6445414D01*
X7218507Y-6445414D01*
X7219167Y-6450000D01*
X7220361Y-6458305D01*
X7225771Y-6470151D01*
X7234299Y-6479994D01*
X7245255Y-6487035D01*
X7257751Y-6490704D01*
X7257752Y-6490704D01*
X7270775Y-6490704D01*
X7270775Y-6490704D01*
X7283271Y-6487035D01*
X7294227Y-6479994D01*
X7302755Y-6470151D01*
X7308165Y-6458305D01*
X7309710Y-6447562D01*
X7310019Y-6445414D01*
X7310019Y-6445414D01*
X7309401Y-6441117D01*
X7308165Y-6432523D01*
X7302755Y-6420676D01*
X7294227Y-6410834D01*
X7283271Y-6403793D01*
X7270775Y-6400124D01*
X7257751Y-6400124D01*
X7245255Y-6403793D01*
X7239777Y-6407313D01*
X7234299Y-6410834D01*
X7225771Y-6420676D01*
X7220361Y-6432523D01*
X7220361Y-6432523D01*
X7218507Y-6445414D01*
X7218507Y-6445414D01*
X3604263Y-6445414D01*
X3604263Y-6076758D01*
X6979646Y-6076758D01*
X6981499Y-6089649D01*
X6986910Y-6101496D01*
X6995438Y-6111338D01*
X7006394Y-6118379D01*
X7018890Y-6122048D01*
X7018890Y-6122048D01*
X7031913Y-6122048D01*
X7031913Y-6122048D01*
X7044409Y-6118379D01*
X7055365Y-6111338D01*
X7063894Y-6101496D01*
X7069304Y-6089649D01*
X7071157Y-6076758D01*
X7071143Y-6076658D01*
X7069444Y-6064839D01*
X7069304Y-6063868D01*
X7063894Y-6052021D01*
X7055365Y-6042179D01*
X7055365Y-6042178D01*
X7055365Y-6042178D01*
X7053139Y-6040748D01*
X7050965Y-6037617D01*
X7050852Y-6036559D01*
X7050852Y-5858511D01*
X7052310Y-5854990D01*
X7055832Y-5853531D01*
X7058524Y-5854321D01*
X7066394Y-5859379D01*
X7078890Y-5863048D01*
X7078890Y-5863048D01*
X7091913Y-5863048D01*
X7091913Y-5863048D01*
X7104409Y-5859379D01*
X7115365Y-5852338D01*
X7123894Y-5842496D01*
X7129304Y-5830649D01*
X7131020Y-5818717D01*
X7131157Y-5817759D01*
X7131157Y-5817758D01*
X7129567Y-5806698D01*
X7129304Y-5804868D01*
X7123894Y-5793021D01*
X7115365Y-5783179D01*
X7115365Y-5783178D01*
X7115365Y-5783178D01*
X7113139Y-5781748D01*
X7110965Y-5778617D01*
X7110852Y-5777559D01*
X7110852Y-4041738D01*
X7112310Y-4038217D01*
X7115832Y-4036758D01*
X7167186Y-4036758D01*
X7168589Y-4036960D01*
X7168798Y-4037021D01*
X7168890Y-4037048D01*
X7168890Y-4037048D01*
X7181913Y-4037048D01*
X7181913Y-4037048D01*
X7194409Y-4033379D01*
X7205365Y-4026338D01*
X7213894Y-4016496D01*
X7219304Y-4004649D01*
X7221157Y-3991758D01*
X7220985Y-3990561D01*
X7220223Y-3985263D01*
X7219304Y-3978868D01*
X7213894Y-3967021D01*
X7205365Y-3957179D01*
X7205365Y-3957178D01*
X7205365Y-3957178D01*
X7203139Y-3955748D01*
X7200965Y-3952617D01*
X7200852Y-3951559D01*
X7200852Y-3800000D01*
X10789246Y-3800000D01*
X10791098Y-3822344D01*
X10791098Y-3822345D01*
X10796602Y-3844079D01*
X10796602Y-3844079D01*
X10805608Y-3864611D01*
X10805608Y-3864612D01*
X10817871Y-3883382D01*
X10833057Y-3899877D01*
X10850750Y-3913648D01*
X10870468Y-3924320D01*
X10891674Y-3931600D01*
X10913790Y-3935290D01*
X10936211Y-3935290D01*
X10958326Y-3931600D01*
X10979532Y-3924320D01*
X10999250Y-3913648D01*
X11016944Y-3899877D01*
X11032129Y-3883382D01*
X11044392Y-3864612D01*
X11053398Y-3844079D01*
X11058902Y-3822344D01*
X11060754Y-3800000D01*
X11058902Y-3777656D01*
X11056792Y-3769324D01*
X11053398Y-3755921D01*
X11053398Y-3755921D01*
X11044392Y-3735389D01*
X11043718Y-3734357D01*
X11032129Y-3716618D01*
X11016944Y-3700123D01*
X10999250Y-3686352D01*
X10979532Y-3675680D01*
X10958326Y-3668400D01*
X10958325Y-3668400D01*
X10958325Y-3668400D01*
X10936211Y-3664710D01*
X10913790Y-3664710D01*
X10891675Y-3668400D01*
X10870468Y-3675680D01*
X10850750Y-3686352D01*
X10833057Y-3700123D01*
X10817871Y-3716618D01*
X10805608Y-3735389D01*
X10796602Y-3755921D01*
X10796602Y-3755921D01*
X10791098Y-3777655D01*
X10791098Y-3777656D01*
X10789246Y-3800000D01*
X7200852Y-3800000D01*
X7200852Y-3794883D01*
X8004798Y-3794883D01*
X8530737Y-3794586D01*
X8530737Y-3486777D01*
X8994579Y-3486777D01*
X8996108Y-3500676D01*
X8997541Y-3513702D01*
X9003973Y-3538305D01*
X9004393Y-3539909D01*
X9004393Y-3539909D01*
X9014987Y-3564838D01*
X9014987Y-3564839D01*
X9029098Y-3587961D01*
X9029098Y-3587961D01*
X9046426Y-3608782D01*
X9066600Y-3626858D01*
X9066600Y-3626858D01*
X9074589Y-3632144D01*
X9089191Y-3641804D01*
X9089191Y-3641804D01*
X9089191Y-3641805D01*
X9113717Y-3653302D01*
X9113718Y-3653302D01*
X9139656Y-3661106D01*
X9139657Y-3661106D01*
X9139657Y-3661106D01*
X9166456Y-3665050D01*
X9166457Y-3665050D01*
X9186764Y-3665050D01*
X9195764Y-3664391D01*
X9207016Y-3663568D01*
X9233455Y-3657678D01*
X9258756Y-3648001D01*
X9282378Y-3634744D01*
X9303818Y-3618189D01*
X9322619Y-3598688D01*
X9338380Y-3576658D01*
X9350766Y-3552567D01*
X9359512Y-3526930D01*
X9364432Y-3500293D01*
X9365421Y-3473223D01*
X9363371Y-3454586D01*
X9824981Y-3454586D01*
X9826428Y-3464649D01*
X9826835Y-3467477D01*
X9832245Y-3479324D01*
X9840773Y-3489166D01*
X9851729Y-3496207D01*
X9864225Y-3499876D01*
X9864225Y-3499876D01*
X9877248Y-3499876D01*
X9877249Y-3499876D01*
X9889745Y-3496207D01*
X9900701Y-3489166D01*
X9909229Y-3479324D01*
X9914639Y-3467477D01*
X9916493Y-3454586D01*
X9916086Y-3451758D01*
X9915833Y-3450000D01*
X10789246Y-3450000D01*
X10791098Y-3472344D01*
X10791098Y-3472345D01*
X10796602Y-3494079D01*
X10796602Y-3494079D01*
X10805608Y-3514611D01*
X10805608Y-3514612D01*
X10817871Y-3533382D01*
X10833057Y-3549877D01*
X10850750Y-3563648D01*
X10870468Y-3574320D01*
X10891674Y-3581600D01*
X10913790Y-3585290D01*
X10936211Y-3585290D01*
X10958326Y-3581600D01*
X10979532Y-3574320D01*
X10999250Y-3563648D01*
X11016944Y-3549877D01*
X11032129Y-3533382D01*
X11044392Y-3514612D01*
X11053398Y-3494079D01*
X11058902Y-3472344D01*
X11060754Y-3450000D01*
X11058902Y-3427656D01*
X11058857Y-3427477D01*
X11053398Y-3405921D01*
X11053398Y-3405921D01*
X11044392Y-3385389D01*
X11043055Y-3383342D01*
X11032129Y-3366618D01*
X11016944Y-3350123D01*
X11016786Y-3350000D01*
X11006265Y-3341811D01*
X10999250Y-3336352D01*
X10979532Y-3325680D01*
X10958326Y-3318400D01*
X10958325Y-3318400D01*
X10958325Y-3318400D01*
X10936211Y-3314710D01*
X10913790Y-3314710D01*
X10891675Y-3318400D01*
X10870468Y-3325680D01*
X10850750Y-3336352D01*
X10833057Y-3350123D01*
X10817871Y-3366618D01*
X10805608Y-3385389D01*
X10796602Y-3405921D01*
X10796602Y-3405921D01*
X10791098Y-3427655D01*
X10791098Y-3427656D01*
X10789246Y-3450000D01*
X9915833Y-3450000D01*
X9915713Y-3449166D01*
X9914639Y-3441695D01*
X9909229Y-3429849D01*
X9900701Y-3420006D01*
X9889745Y-3412965D01*
X9877249Y-3409296D01*
X9864225Y-3409296D01*
X9851729Y-3412965D01*
X9846251Y-3416486D01*
X9840773Y-3420006D01*
X9832245Y-3429849D01*
X9826835Y-3441695D01*
X9826835Y-3441696D01*
X9824981Y-3454586D01*
X9824981Y-3454586D01*
X9363371Y-3454586D01*
X9362459Y-3446298D01*
X9355607Y-3420091D01*
X9345013Y-3395161D01*
X9330902Y-3372039D01*
X9328619Y-3369296D01*
X9321975Y-3361312D01*
X9313575Y-3351218D01*
X9312215Y-3350000D01*
X9293400Y-3333142D01*
X9293400Y-3333141D01*
X9271118Y-3318400D01*
X9270809Y-3318196D01*
X9270809Y-3318195D01*
X9270809Y-3318195D01*
X9246283Y-3306698D01*
X9246282Y-3306698D01*
X9220344Y-3298894D01*
X9220343Y-3298894D01*
X9193544Y-3294950D01*
X9193544Y-3294950D01*
X9173237Y-3294950D01*
X9173236Y-3294950D01*
X9152985Y-3296432D01*
X9152985Y-3296432D01*
X9152984Y-3296432D01*
X9138542Y-3299649D01*
X9126545Y-3302322D01*
X9126544Y-3302322D01*
X9101244Y-3311998D01*
X9101244Y-3311999D01*
X9077622Y-3325256D01*
X9056182Y-3341811D01*
X9037381Y-3361312D01*
X9021620Y-3383342D01*
X9009234Y-3407432D01*
X9000488Y-3433070D01*
X8995568Y-3459707D01*
X8994579Y-3486776D01*
X8994579Y-3486777D01*
X8530737Y-3486777D01*
X8530737Y-3239586D01*
X8505058Y-3239586D01*
X8501536Y-3238128D01*
X8500078Y-3234606D01*
X8501394Y-3231233D01*
X8502269Y-3230282D01*
X8508004Y-3221505D01*
X10789710Y-3221505D01*
X10789710Y-3221506D01*
X10790597Y-3225966D01*
X10790597Y-3225966D01*
X10793976Y-3231023D01*
X10793977Y-3231023D01*
X10799034Y-3234403D01*
X10803494Y-3235290D01*
X11046506Y-3235290D01*
X11050966Y-3234403D01*
X11056023Y-3231023D01*
X11059403Y-3225966D01*
X11060290Y-3221506D01*
X11060290Y-2978494D01*
X11059403Y-2974034D01*
X11059403Y-2974034D01*
X11059403Y-2974034D01*
X11056024Y-2968977D01*
X11056023Y-2968976D01*
X11050966Y-2965597D01*
X11046506Y-2964710D01*
X11046506Y-2964710D01*
X10803495Y-2964710D01*
X10803494Y-2964710D01*
X10800149Y-2965375D01*
X10799034Y-2965597D01*
X10799034Y-2965597D01*
X10799034Y-2965597D01*
X10793977Y-2968976D01*
X10793976Y-2968977D01*
X10790597Y-2974034D01*
X10790597Y-2974034D01*
X10789710Y-2978494D01*
X10789710Y-3221505D01*
X8508004Y-3221505D01*
X8514579Y-3211441D01*
X8523619Y-3190831D01*
X8523619Y-3190831D01*
X8528391Y-3171986D01*
X8437849Y-3171986D01*
X8440686Y-3167571D01*
X8444737Y-3153775D01*
X8444737Y-3139397D01*
X8440686Y-3125602D01*
X8437849Y-3121186D01*
X8528391Y-3121186D01*
X8528391Y-3121186D01*
X8523619Y-3102341D01*
X8523619Y-3102341D01*
X8514579Y-3081731D01*
X8502269Y-3062890D01*
X8487027Y-3046332D01*
X8469267Y-3032509D01*
X8449474Y-3021798D01*
X8428188Y-3014490D01*
X8428188Y-3014490D01*
X8420137Y-3013147D01*
X8420137Y-3103219D01*
X8408968Y-3098118D01*
X8398313Y-3096586D01*
X8391161Y-3096586D01*
X8380505Y-3098118D01*
X8369337Y-3103219D01*
X8369337Y-3013147D01*
X8361286Y-3014490D01*
X8361286Y-3014490D01*
X8340000Y-3021798D01*
X8320207Y-3032509D01*
X8318776Y-3033623D01*
X8315101Y-3034635D01*
X8311787Y-3032752D01*
X8310737Y-3029693D01*
X8310737Y-3019586D01*
X8004798Y-3019586D01*
X8004798Y-3794883D01*
X7200852Y-3794883D01*
X7200852Y-3414586D01*
X7774981Y-3414586D01*
X7775597Y-3418868D01*
X7776835Y-3427477D01*
X7782245Y-3439324D01*
X7790773Y-3449166D01*
X7801729Y-3456207D01*
X7814225Y-3459876D01*
X7814225Y-3459876D01*
X7827248Y-3459876D01*
X7827249Y-3459876D01*
X7839744Y-3456207D01*
X7850700Y-3449166D01*
X7859229Y-3439324D01*
X7864639Y-3427477D01*
X7866493Y-3414586D01*
X7864639Y-3401695D01*
X7859229Y-3389849D01*
X7850700Y-3380006D01*
X7839744Y-3372965D01*
X7827249Y-3369296D01*
X7814225Y-3369296D01*
X7801729Y-3372965D01*
X7796251Y-3376486D01*
X7790773Y-3380006D01*
X7782245Y-3389849D01*
X7776835Y-3401695D01*
X7776834Y-3401696D01*
X7774981Y-3414586D01*
X7774981Y-3414586D01*
X7200852Y-3414586D01*
X7200852Y-3009363D01*
X7202310Y-3005842D01*
X7214485Y-2993667D01*
X7218006Y-2992208D01*
X7666625Y-2992208D01*
X7670147Y-2993667D01*
X7671605Y-2997188D01*
X7670389Y-3000450D01*
X7662245Y-3009849D01*
X7656835Y-3021695D01*
X7656834Y-3021696D01*
X7654981Y-3034586D01*
X7654981Y-3034586D01*
X7656835Y-3047477D01*
X7662245Y-3059324D01*
X7670773Y-3069166D01*
X7681729Y-3076207D01*
X7694225Y-3079876D01*
X7694225Y-3079876D01*
X7707248Y-3079876D01*
X7707249Y-3079876D01*
X7719744Y-3076207D01*
X7730700Y-3069166D01*
X7739229Y-3059324D01*
X7744639Y-3047477D01*
X7746493Y-3034586D01*
X7746484Y-3034527D01*
X7745532Y-3027908D01*
X7744639Y-3021695D01*
X7739229Y-3009849D01*
X7731085Y-3000450D01*
X7729881Y-2996833D01*
X7731587Y-2993425D01*
X7734848Y-2992208D01*
X8882405Y-2992208D01*
X8883376Y-2992304D01*
X8885402Y-2992707D01*
X8888713Y-2992048D01*
X8894188Y-2990959D01*
X8895159Y-2990864D01*
X9201266Y-2990864D01*
X9202237Y-2990959D01*
X9204263Y-2991362D01*
X9214193Y-2989387D01*
X9220487Y-2985182D01*
X9220487Y-2985182D01*
X9220837Y-2984948D01*
X9220838Y-2984947D01*
X9222612Y-2983762D01*
X9223759Y-2982045D01*
X9224378Y-2981291D01*
X9296377Y-2909291D01*
X9297131Y-2908673D01*
X9298848Y-2907525D01*
X9300930Y-2904410D01*
X9304473Y-2899107D01*
X9306449Y-2889177D01*
X9306046Y-2887151D01*
X9305950Y-2886180D01*
X9305950Y-2814180D01*
X9924244Y-2814180D01*
X9926098Y-2827071D01*
X9931508Y-2838917D01*
X9940036Y-2848760D01*
X9950992Y-2855801D01*
X9963488Y-2859470D01*
X9963489Y-2859470D01*
X9976512Y-2859470D01*
X9976512Y-2859470D01*
X9989008Y-2855801D01*
X9999964Y-2848760D01*
X10008492Y-2838917D01*
X10013902Y-2827071D01*
X10015756Y-2814180D01*
X10013902Y-2801289D01*
X10008492Y-2789443D01*
X9999964Y-2779600D01*
X9989008Y-2772559D01*
X9976512Y-2768890D01*
X9963488Y-2768890D01*
X9950992Y-2772559D01*
X9946541Y-2775420D01*
X9940036Y-2779600D01*
X9931508Y-2789443D01*
X9926098Y-2801289D01*
X9926098Y-2801289D01*
X9924244Y-2814180D01*
X9924244Y-2814180D01*
X9305950Y-2814180D01*
X9305950Y-2694980D01*
X9307409Y-2691459D01*
X9310930Y-2690000D01*
X9434263Y-2690000D01*
X9434263Y-2390000D01*
X7624263Y-2390000D01*
X7624263Y-2440151D01*
X7622804Y-2443672D01*
X7619283Y-2445131D01*
X7616224Y-2444081D01*
X7597755Y-2429706D01*
X7576654Y-2418286D01*
X7553960Y-2410496D01*
X7530294Y-2406547D01*
X7506300Y-2406547D01*
X7482634Y-2410496D01*
X7459940Y-2418286D01*
X7438838Y-2429706D01*
X7435329Y-2432438D01*
X7504832Y-2501940D01*
X7503838Y-2502083D01*
X7490550Y-2508151D01*
X7479510Y-2517718D01*
X7471612Y-2530006D01*
X7469216Y-2538167D01*
X7399501Y-2468452D01*
X7390531Y-2482182D01*
X7380892Y-2504155D01*
X7380892Y-2504156D01*
X7375002Y-2527415D01*
X7373021Y-2551326D01*
X7375002Y-2575238D01*
X7380892Y-2598497D01*
X7380892Y-2598498D01*
X7390530Y-2620470D01*
X7399501Y-2634201D01*
X7469216Y-2564486D01*
X7471612Y-2572647D01*
X7479510Y-2584936D01*
X7490550Y-2594502D01*
X7503838Y-2600570D01*
X7504831Y-2600713D01*
X7435329Y-2670215D01*
X7438838Y-2672947D01*
X7438838Y-2672947D01*
X7459940Y-2684367D01*
X7482634Y-2692157D01*
X7506300Y-2696107D01*
X7530294Y-2696107D01*
X7553960Y-2692157D01*
X7576654Y-2684367D01*
X7597755Y-2672947D01*
X7616224Y-2658572D01*
X7619899Y-2657560D01*
X7623213Y-2659443D01*
X7624263Y-2662502D01*
X7624263Y-2690000D01*
X9250070Y-2690000D01*
X9253591Y-2691459D01*
X9255050Y-2694980D01*
X9255050Y-2876572D01*
X9253591Y-2880094D01*
X9195180Y-2938505D01*
X9191659Y-2939964D01*
X8889744Y-2939964D01*
X8888772Y-2939868D01*
X8886746Y-2939465D01*
X8884240Y-2939964D01*
X8879986Y-2940810D01*
X8879986Y-2940810D01*
X8877960Y-2941213D01*
X8876989Y-2941308D01*
X7208399Y-2941308D01*
X7207427Y-2941213D01*
X7205402Y-2940810D01*
X7195472Y-2942785D01*
X7189525Y-2946758D01*
X7189122Y-2947028D01*
X7189122Y-2947028D01*
X7187053Y-2948410D01*
X7187053Y-2948410D01*
X7185906Y-2950127D01*
X7185287Y-2950881D01*
X7159525Y-2976644D01*
X7158770Y-2977263D01*
X7157053Y-2978410D01*
X7157053Y-2978410D01*
X7155671Y-2980479D01*
X7155671Y-2980479D01*
X7155634Y-2980535D01*
X7155633Y-2980535D01*
X7152685Y-2984947D01*
X7151756Y-2986338D01*
X7151428Y-2986828D01*
X7151428Y-2986828D01*
X7150652Y-2990732D01*
X7149595Y-2996047D01*
X7149453Y-2996758D01*
X7149775Y-2998379D01*
X7149856Y-2998784D01*
X7149952Y-2999755D01*
X7149952Y-3121778D01*
X7148493Y-3125300D01*
X7144972Y-3126758D01*
X7094718Y-3126758D01*
X7093315Y-3126557D01*
X7093309Y-3126555D01*
X7092163Y-3126218D01*
X7079140Y-3126218D01*
X7066644Y-3129888D01*
X7061166Y-3133408D01*
X7055688Y-3136929D01*
X7047160Y-3146771D01*
X7041749Y-3158618D01*
X7041749Y-3158618D01*
X7039896Y-3171508D01*
X7039896Y-3171509D01*
X7041099Y-3179876D01*
X7041749Y-3184399D01*
X7047160Y-3196246D01*
X7055688Y-3206088D01*
X7057664Y-3207358D01*
X7059838Y-3210489D01*
X7059952Y-3211548D01*
X7059952Y-3391006D01*
X7058493Y-3394527D01*
X7054972Y-3395986D01*
X7052279Y-3395195D01*
X7044409Y-3390138D01*
X7043425Y-3389849D01*
X7031913Y-3386468D01*
X7018890Y-3386468D01*
X7006394Y-3390138D01*
X7000916Y-3393658D01*
X6995438Y-3397179D01*
X6986910Y-3407021D01*
X6981499Y-3418868D01*
X6981499Y-3418868D01*
X6979646Y-3431758D01*
X6979646Y-3431759D01*
X6981075Y-3441695D01*
X6981499Y-3444649D01*
X6986910Y-3456496D01*
X6995438Y-3466338D01*
X6997664Y-3467769D01*
X6999838Y-3470900D01*
X6999952Y-3471958D01*
X6999952Y-6036559D01*
X6998493Y-6040080D01*
X6997664Y-6040748D01*
X6995438Y-6042178D01*
X6986910Y-6052021D01*
X6981499Y-6063868D01*
X6981499Y-6063868D01*
X6979646Y-6076758D01*
X6979646Y-6076758D01*
X3604263Y-6076758D01*
X3604263Y-5433759D01*
X4131765Y-5433759D01*
X4132763Y-5440704D01*
X4133618Y-5446649D01*
X4139029Y-5458496D01*
X4147557Y-5468338D01*
X4158513Y-5475379D01*
X4171009Y-5479049D01*
X4171009Y-5479049D01*
X4184032Y-5479049D01*
X4184032Y-5479049D01*
X4196528Y-5475379D01*
X4207484Y-5468338D01*
X4216013Y-5458496D01*
X4221423Y-5446649D01*
X4223276Y-5433759D01*
X4221423Y-5420868D01*
X4216013Y-5409021D01*
X4207484Y-5399179D01*
X4196528Y-5392138D01*
X4184032Y-5388469D01*
X4171009Y-5388469D01*
X4158513Y-5392138D01*
X4155399Y-5394139D01*
X4147557Y-5399179D01*
X4139029Y-5409021D01*
X4133618Y-5420868D01*
X4133618Y-5420868D01*
X4131765Y-5433758D01*
X4131765Y-5433759D01*
X3604263Y-5433759D01*
X3604263Y-5318384D01*
X3605722Y-5314862D01*
X3609243Y-5313404D01*
X4015352Y-5313404D01*
X4018874Y-5314862D01*
X4024797Y-5320785D01*
X4028277Y-5322408D01*
X4034797Y-5325449D01*
X4039354Y-5326049D01*
X4039354Y-5326049D01*
X4086187Y-5326049D01*
X4086187Y-5326049D01*
X4090744Y-5325449D01*
X4100745Y-5320785D01*
X4108547Y-5312983D01*
X4113211Y-5302982D01*
X4113811Y-5298426D01*
X4131231Y-5298426D01*
X4131830Y-5302982D01*
X4131831Y-5302982D01*
X4136494Y-5312982D01*
X4144297Y-5320785D01*
X4147777Y-5322408D01*
X4154297Y-5325449D01*
X4158854Y-5326049D01*
X4158854Y-5326049D01*
X4205687Y-5326049D01*
X4205687Y-5326049D01*
X4210244Y-5325449D01*
X4220245Y-5320785D01*
X4228047Y-5312983D01*
X4228411Y-5312203D01*
X4229707Y-5309424D01*
X4232517Y-5306849D01*
X4234220Y-5306549D01*
X4274034Y-5306549D01*
X4277556Y-5308007D01*
X4295015Y-5325466D01*
X4296473Y-5328987D01*
X4296473Y-5356718D01*
X4295015Y-5360239D01*
X4294567Y-5360599D01*
X4294569Y-5360601D01*
X4294300Y-5360834D01*
X4285771Y-5370676D01*
X4280361Y-5382523D01*
X4280361Y-5382523D01*
X4278507Y-5395414D01*
X4278507Y-5395414D01*
X4280361Y-5408305D01*
X4285771Y-5420151D01*
X4294300Y-5429994D01*
X4305256Y-5437035D01*
X4317751Y-5440704D01*
X4317752Y-5440704D01*
X4330775Y-5440704D01*
X4330775Y-5440704D01*
X4343271Y-5437035D01*
X4354227Y-5429994D01*
X4362755Y-5420151D01*
X4368165Y-5408305D01*
X4370019Y-5395414D01*
X4369836Y-5394139D01*
X4369401Y-5391117D01*
X4368165Y-5382523D01*
X4362755Y-5370676D01*
X4354227Y-5360834D01*
X4354227Y-5360834D01*
X4354226Y-5360834D01*
X4353958Y-5360601D01*
X4354052Y-5360492D01*
X4352167Y-5357776D01*
X4352053Y-5356718D01*
X4352053Y-5325000D01*
X5424244Y-5325000D01*
X5426019Y-5337344D01*
X5426098Y-5337891D01*
X5431508Y-5349737D01*
X5440036Y-5359580D01*
X5450992Y-5366621D01*
X5463488Y-5370290D01*
X5463489Y-5370290D01*
X5476512Y-5370290D01*
X5476512Y-5370290D01*
X5489008Y-5366621D01*
X5499964Y-5359580D01*
X5508492Y-5349737D01*
X5513902Y-5337891D01*
X5515756Y-5325000D01*
X5515677Y-5324453D01*
X5514939Y-5319320D01*
X5513902Y-5312109D01*
X5508492Y-5300263D01*
X5499964Y-5290420D01*
X5499964Y-5290420D01*
X5499963Y-5290420D01*
X5497738Y-5288990D01*
X5495564Y-5285859D01*
X5495450Y-5284800D01*
X5495450Y-4593409D01*
X5539261Y-4593409D01*
X5540171Y-4599736D01*
X5541114Y-4606300D01*
X5546525Y-4618146D01*
X5555053Y-4627989D01*
X5557279Y-4629419D01*
X5559453Y-4632550D01*
X5559567Y-4633609D01*
X5559567Y-5285405D01*
X5558108Y-5288927D01*
X5557279Y-5289595D01*
X5556846Y-5289873D01*
X5548318Y-5299716D01*
X5542907Y-5311562D01*
X5542907Y-5311563D01*
X5541054Y-5324453D01*
X5541054Y-5324453D01*
X5541133Y-5325000D01*
X5542907Y-5337344D01*
X5548318Y-5349190D01*
X5556846Y-5359033D01*
X5567802Y-5366074D01*
X5580298Y-5369743D01*
X5580298Y-5369743D01*
X5593321Y-5369743D01*
X5593321Y-5369743D01*
X5605817Y-5366074D01*
X5616773Y-5359033D01*
X5625302Y-5349190D01*
X5630712Y-5337344D01*
X5632422Y-5325449D01*
X5632565Y-5324453D01*
X5632565Y-5324453D01*
X5631893Y-5319777D01*
X5630712Y-5311562D01*
X5625302Y-5299716D01*
X5616773Y-5289873D01*
X5612754Y-5287290D01*
X5610580Y-5284159D01*
X5610467Y-5283102D01*
X5610467Y-4633609D01*
X5611925Y-4630087D01*
X5612754Y-4629420D01*
X5614980Y-4627989D01*
X5623509Y-4618146D01*
X5628919Y-4606300D01*
X5630772Y-4593409D01*
X5630766Y-4593368D01*
X5629983Y-4587922D01*
X5628919Y-4580518D01*
X5623509Y-4568672D01*
X5614980Y-4558829D01*
X5604024Y-4551788D01*
X5591528Y-4548119D01*
X5578505Y-4548119D01*
X5566009Y-4551788D01*
X5560531Y-4555309D01*
X5555053Y-4558829D01*
X5546525Y-4568672D01*
X5541114Y-4580518D01*
X5541114Y-4580519D01*
X5539261Y-4593409D01*
X5539261Y-4593409D01*
X5495450Y-4593409D01*
X5495450Y-4575270D01*
X5496909Y-4571749D01*
X5500430Y-4570290D01*
X5501512Y-4570290D01*
X5501512Y-4570290D01*
X5514008Y-4566621D01*
X5524964Y-4559580D01*
X5533492Y-4549737D01*
X5538902Y-4537891D01*
X5540756Y-4525000D01*
X5538902Y-4512109D01*
X5533492Y-4500263D01*
X5524964Y-4490420D01*
X5514008Y-4483379D01*
X5501512Y-4479710D01*
X5488488Y-4479710D01*
X5475992Y-4483379D01*
X5470514Y-4486900D01*
X5465036Y-4490420D01*
X5456508Y-4500263D01*
X5451098Y-4512109D01*
X5451098Y-4512110D01*
X5449244Y-4525000D01*
X5449244Y-4525000D01*
X5450186Y-4531550D01*
X5449397Y-4535025D01*
X5446027Y-4540070D01*
X5444051Y-4550000D01*
X5444454Y-4552025D01*
X5444550Y-4552997D01*
X5444550Y-5284800D01*
X5443091Y-5288322D01*
X5442262Y-5288990D01*
X5440037Y-5290420D01*
X5431508Y-5300263D01*
X5426098Y-5312109D01*
X5426098Y-5312110D01*
X5424244Y-5325000D01*
X5424244Y-5325000D01*
X4352053Y-5325000D01*
X4352053Y-5320760D01*
X4352213Y-5319779D01*
X4352200Y-5319777D01*
X4352263Y-5319320D01*
X4352263Y-5319320D01*
X4352138Y-5316612D01*
X4352056Y-5314829D01*
X4352053Y-5314714D01*
X4352053Y-5312839D01*
X4352053Y-5312839D01*
X4351966Y-5312373D01*
X4351926Y-5312030D01*
X4351784Y-5308941D01*
X4351221Y-5307667D01*
X4350881Y-5306570D01*
X4350625Y-5305201D01*
X4350625Y-5305201D01*
X4349251Y-5302982D01*
X4348997Y-5302571D01*
X4348837Y-5302267D01*
X4347587Y-5299437D01*
X4346602Y-5298452D01*
X4345889Y-5297552D01*
X4345156Y-5296368D01*
X4342687Y-5294503D01*
X4342427Y-5294277D01*
X4311038Y-5262888D01*
X4310458Y-5262081D01*
X4310447Y-5262089D01*
X4310169Y-5261721D01*
X4310169Y-5261721D01*
X4310169Y-5261721D01*
X4306846Y-5258692D01*
X4306763Y-5258613D01*
X4305437Y-5257287D01*
X4305047Y-5257020D01*
X4304777Y-5256805D01*
X4302491Y-5254722D01*
X4302491Y-5254722D01*
X4302491Y-5254722D01*
X4301192Y-5254218D01*
X4300177Y-5253683D01*
X4299027Y-5252896D01*
X4296016Y-5252188D01*
X4295687Y-5252086D01*
X4292803Y-5250969D01*
X4292803Y-5250969D01*
X4291410Y-5250969D01*
X4290269Y-5250836D01*
X4289974Y-5250767D01*
X4288913Y-5250517D01*
X4286794Y-5250813D01*
X4285850Y-5250945D01*
X4285506Y-5250969D01*
X4234220Y-5250969D01*
X4230699Y-5249510D01*
X4229707Y-5248093D01*
X4228048Y-5244535D01*
X4220245Y-5236732D01*
X4213285Y-5233486D01*
X4210244Y-5232068D01*
X4210244Y-5232068D01*
X4210244Y-5232068D01*
X4205688Y-5231469D01*
X4205687Y-5231469D01*
X4158854Y-5231469D01*
X4158853Y-5231469D01*
X4154297Y-5232068D01*
X4154297Y-5232068D01*
X4144297Y-5236732D01*
X4144297Y-5236732D01*
X4136494Y-5244534D01*
X4136494Y-5244535D01*
X4131831Y-5254535D01*
X4131830Y-5254535D01*
X4131231Y-5259091D01*
X4131231Y-5298426D01*
X4113811Y-5298426D01*
X4113811Y-5298425D01*
X4113811Y-5259092D01*
X4113211Y-5254535D01*
X4110170Y-5248014D01*
X4108547Y-5244535D01*
X4100745Y-5236732D01*
X4093785Y-5233486D01*
X4090744Y-5232068D01*
X4090744Y-5232068D01*
X4090744Y-5232068D01*
X4086188Y-5231469D01*
X4086187Y-5231469D01*
X4039354Y-5231469D01*
X4039353Y-5231469D01*
X4034797Y-5232068D01*
X4034797Y-5232068D01*
X4024797Y-5236732D01*
X4024797Y-5236732D01*
X4016994Y-5244534D01*
X4016994Y-5244535D01*
X4012324Y-5254548D01*
X4009514Y-5257124D01*
X4007811Y-5257424D01*
X3609243Y-5257424D01*
X3605722Y-5255965D01*
X3604263Y-5252444D01*
X3604263Y-5006759D01*
X4309646Y-5006759D01*
X4311064Y-5016621D01*
X4311499Y-5019649D01*
X4316910Y-5031496D01*
X4325438Y-5041338D01*
X4336394Y-5048379D01*
X4348890Y-5052049D01*
X4348890Y-5052049D01*
X4361913Y-5052049D01*
X4361913Y-5052049D01*
X4374409Y-5048379D01*
X4385365Y-5041338D01*
X4393894Y-5031496D01*
X4399304Y-5019649D01*
X4401157Y-5006759D01*
X4399304Y-4993868D01*
X4393894Y-4982021D01*
X4385365Y-4972179D01*
X4374409Y-4965138D01*
X4361913Y-4961469D01*
X4348890Y-4961469D01*
X4336394Y-4965138D01*
X4330916Y-4968658D01*
X4325438Y-4972179D01*
X4316910Y-4982021D01*
X4311499Y-4993868D01*
X4311499Y-4993868D01*
X4309646Y-5006758D01*
X4309646Y-5006759D01*
X3604263Y-5006759D01*
X3604263Y-4416759D01*
X3334263Y-4416759D01*
X3334263Y-6461758D01*
X3379858Y-6461758D01*
X3383380Y-6463217D01*
X3450535Y-6530372D01*
X3449541Y-6530515D01*
X3436253Y-6536583D01*
X3425213Y-6546149D01*
X3417315Y-6558438D01*
X3414919Y-6566599D01*
X3345204Y-6496884D01*
X3336234Y-6510614D01*
X3326595Y-6532587D01*
X3326595Y-6532588D01*
X3320705Y-6555846D01*
X3318724Y-6579758D01*
X1460545Y-6579758D01*
X1458492Y-6575263D01*
X1449964Y-6565420D01*
X1439008Y-6558379D01*
X1426512Y-6554710D01*
X1413488Y-6554710D01*
X1400992Y-6558379D01*
X1395514Y-6561900D01*
X1390036Y-6565420D01*
X1381508Y-6575263D01*
X1376098Y-6587109D01*
X1376098Y-6587109D01*
X1374244Y-6600000D01*
X1374244Y-6600000D01*
X859827Y-6600000D01*
X855617Y-6590971D01*
X842791Y-6572654D01*
X826980Y-6556843D01*
X825557Y-6555846D01*
X811708Y-6546149D01*
X808664Y-6544018D01*
X808277Y-6543837D01*
X788399Y-6534568D01*
X788398Y-6534568D01*
X766800Y-6528781D01*
X766800Y-6528781D01*
X744525Y-6526832D01*
X722249Y-6528781D01*
X700651Y-6534568D01*
X700651Y-6534568D01*
X680386Y-6544018D01*
X680386Y-6544018D01*
X662070Y-6556843D01*
X646258Y-6572655D01*
X633433Y-6590971D01*
X633433Y-6590971D01*
X623983Y-6611236D01*
X623983Y-6611236D01*
X618196Y-6632834D01*
X617221Y-6643972D01*
X616546Y-6651695D01*
X616247Y-6655110D01*
X617960Y-6674696D01*
X616814Y-6678331D01*
X613433Y-6680091D01*
X612999Y-6680110D01*
X346050Y-6680110D01*
X342529Y-6678651D01*
X341070Y-6675130D01*
X341089Y-6674696D01*
X342803Y-6655110D01*
X342803Y-6655110D01*
X340854Y-6632835D01*
X340096Y-6630006D01*
X338201Y-6622934D01*
X335067Y-6611236D01*
X325617Y-6590971D01*
X312792Y-6572654D01*
X296980Y-6556843D01*
X295557Y-6555846D01*
X281708Y-6546149D01*
X278664Y-6544018D01*
X278277Y-6543837D01*
X258399Y-6534568D01*
X258398Y-6534568D01*
X236800Y-6528781D01*
X236800Y-6528781D01*
X218980Y-6527222D01*
X214525Y-6526832D01*
X214525Y-6526832D01*
X192249Y-6528781D01*
X170740Y-6534544D01*
X166961Y-6534047D01*
X164640Y-6531023D01*
X164471Y-6529734D01*
X164475Y-6503104D01*
X2398507Y-6503104D01*
X2400361Y-6515995D01*
X2405771Y-6527841D01*
X2414300Y-6537684D01*
X2425256Y-6544725D01*
X2437751Y-6548394D01*
X2437752Y-6548394D01*
X2450775Y-6548394D01*
X2450775Y-6548394D01*
X2463271Y-6544725D01*
X2474227Y-6537684D01*
X2482755Y-6527841D01*
X2488165Y-6515995D01*
X2490019Y-6503104D01*
X2488165Y-6490213D01*
X2482755Y-6478366D01*
X2474227Y-6468524D01*
X2463271Y-6461483D01*
X2450775Y-6457814D01*
X2437751Y-6457814D01*
X2425256Y-6461483D01*
X2422557Y-6463217D01*
X2414299Y-6468524D01*
X2407995Y-6475800D01*
X2405771Y-6478366D01*
X2400361Y-6490213D01*
X2398507Y-6503104D01*
X164475Y-6503104D01*
X164483Y-6450000D01*
X2654213Y-6450000D01*
X2656197Y-6468876D01*
X2657129Y-6471745D01*
X2662062Y-6486927D01*
X2662062Y-6486927D01*
X2662124Y-6487035D01*
X2671552Y-6503363D01*
X2684251Y-6517468D01*
X2699606Y-6528624D01*
X2716945Y-6536344D01*
X2735510Y-6540290D01*
X2735510Y-6540290D01*
X2754490Y-6540290D01*
X2754490Y-6540290D01*
X2773055Y-6536344D01*
X2790394Y-6528624D01*
X2805749Y-6517468D01*
X2818448Y-6503363D01*
X2827938Y-6486926D01*
X2833803Y-6468876D01*
X2835787Y-6450000D01*
X2833803Y-6431124D01*
X2827938Y-6413073D01*
X2818448Y-6396637D01*
X2805749Y-6382532D01*
X2790394Y-6371376D01*
X2773055Y-6363656D01*
X2754490Y-6359710D01*
X2735510Y-6359710D01*
X2727618Y-6361387D01*
X2716945Y-6363656D01*
X2716945Y-6363656D01*
X2716945Y-6363656D01*
X2699606Y-6371376D01*
X2699606Y-6371376D01*
X2699606Y-6371376D01*
X2684252Y-6382532D01*
X2671552Y-6396637D01*
X2671551Y-6396637D01*
X2662062Y-6413073D01*
X2662062Y-6413073D01*
X2656197Y-6431124D01*
X2654648Y-6445861D01*
X2654213Y-6450000D01*
X164483Y-6450000D01*
X164552Y-5986777D01*
X494579Y-5986777D01*
X497452Y-6012891D01*
X497541Y-6013702D01*
X503517Y-6036559D01*
X504393Y-6039909D01*
X504393Y-6039909D01*
X514987Y-6064838D01*
X514987Y-6064839D01*
X529098Y-6087961D01*
X529098Y-6087961D01*
X546426Y-6108782D01*
X566600Y-6126858D01*
X566600Y-6126858D01*
X574286Y-6131943D01*
X589191Y-6141804D01*
X589191Y-6141804D01*
X589191Y-6141805D01*
X613717Y-6153302D01*
X613718Y-6153302D01*
X639656Y-6161106D01*
X639657Y-6161106D01*
X639657Y-6161106D01*
X666456Y-6165050D01*
X666457Y-6165050D01*
X686764Y-6165050D01*
X695764Y-6164391D01*
X707016Y-6163568D01*
X733455Y-6157678D01*
X758756Y-6148001D01*
X782378Y-6134744D01*
X803818Y-6118189D01*
X822619Y-6098688D01*
X838380Y-6076658D01*
X850766Y-6052567D01*
X859512Y-6026930D01*
X864432Y-6000293D01*
X865421Y-5973223D01*
X862459Y-5946298D01*
X855607Y-5920091D01*
X845013Y-5895161D01*
X830902Y-5872039D01*
X813574Y-5851218D01*
X801388Y-5840299D01*
X793400Y-5833142D01*
X793400Y-5833141D01*
X771597Y-5818717D01*
X770809Y-5818196D01*
X770809Y-5818195D01*
X770808Y-5818195D01*
X746283Y-5806698D01*
X746282Y-5806698D01*
X720344Y-5798894D01*
X720343Y-5798894D01*
X693544Y-5794950D01*
X693544Y-5794950D01*
X673237Y-5794950D01*
X673236Y-5794950D01*
X652985Y-5796432D01*
X652985Y-5796432D01*
X652984Y-5796432D01*
X641934Y-5798894D01*
X626545Y-5802322D01*
X626544Y-5802322D01*
X601244Y-5811998D01*
X601244Y-5811999D01*
X577622Y-5825256D01*
X556182Y-5841811D01*
X537381Y-5861312D01*
X521620Y-5883342D01*
X509234Y-5907432D01*
X500488Y-5933070D01*
X495568Y-5959707D01*
X494579Y-5986776D01*
X494579Y-5986777D01*
X164552Y-5986777D01*
X164621Y-5525120D01*
X2910801Y-5525120D01*
X2916859Y-5529362D01*
X2916860Y-5529362D01*
X2936809Y-5538665D01*
X2936810Y-5538665D01*
X2958071Y-5544362D01*
X2958072Y-5544362D01*
X2979999Y-5546281D01*
X2980001Y-5546281D01*
X3001928Y-5544362D01*
X3001929Y-5544362D01*
X3023190Y-5538665D01*
X3023191Y-5538665D01*
X3043141Y-5529362D01*
X3049199Y-5525120D01*
X3049199Y-5525120D01*
X2980000Y-5455921D01*
X2910801Y-5525120D01*
X2910801Y-5525120D01*
X164621Y-5525120D01*
X164637Y-5420001D01*
X2853719Y-5420001D01*
X2855638Y-5441928D01*
X2855638Y-5441929D01*
X2861335Y-5463190D01*
X2861335Y-5463191D01*
X2870638Y-5483140D01*
X2870638Y-5483140D01*
X2874880Y-5489199D01*
X2941148Y-5422930D01*
X2944637Y-5422930D01*
X2947505Y-5434254D01*
X2953894Y-5444033D01*
X2963111Y-5451207D01*
X2974159Y-5455000D01*
X2982900Y-5455000D01*
X2991522Y-5453561D01*
X3001795Y-5448002D01*
X3009706Y-5439408D01*
X3014398Y-5428711D01*
X3015120Y-5420000D01*
X3015921Y-5420000D01*
X3085120Y-5489199D01*
X3085120Y-5489199D01*
X3089362Y-5483141D01*
X3098665Y-5463191D01*
X3098665Y-5463190D01*
X3104362Y-5441929D01*
X3104362Y-5441928D01*
X3106280Y-5420001D01*
X3106280Y-5419999D01*
X3104362Y-5398072D01*
X3104362Y-5398071D01*
X3098665Y-5376810D01*
X3098665Y-5376809D01*
X3089362Y-5356860D01*
X3089362Y-5356860D01*
X3085120Y-5350801D01*
X3015921Y-5420000D01*
X3015120Y-5420000D01*
X3015363Y-5417070D01*
X3012495Y-5405746D01*
X3006106Y-5395967D01*
X2996888Y-5388793D01*
X2985840Y-5385000D01*
X2977099Y-5385000D01*
X2968478Y-5386439D01*
X2958205Y-5391998D01*
X2950294Y-5400592D01*
X2945602Y-5411289D01*
X2944637Y-5422930D01*
X2941148Y-5422930D01*
X2944079Y-5420000D01*
X2874880Y-5350801D01*
X2870638Y-5356860D01*
X2870638Y-5356860D01*
X2861335Y-5376809D01*
X2861335Y-5376810D01*
X2855638Y-5398071D01*
X2855638Y-5398072D01*
X2853719Y-5419999D01*
X2853719Y-5420001D01*
X164637Y-5420001D01*
X164653Y-5314880D01*
X2910801Y-5314880D01*
X2980000Y-5384079D01*
X3049199Y-5314880D01*
X3043140Y-5310638D01*
X3043140Y-5310638D01*
X3023191Y-5301335D01*
X3023190Y-5301335D01*
X3001929Y-5295638D01*
X3001928Y-5295638D01*
X2980001Y-5293720D01*
X2979999Y-5293720D01*
X2958072Y-5295638D01*
X2958071Y-5295638D01*
X2936810Y-5301335D01*
X2936809Y-5301335D01*
X2916860Y-5310638D01*
X2916860Y-5310638D01*
X2910801Y-5314880D01*
X164653Y-5314880D01*
X164704Y-4975000D01*
X1692487Y-4975000D01*
X1693497Y-4982021D01*
X1694341Y-4987891D01*
X1699751Y-4999737D01*
X1708279Y-5009580D01*
X1719235Y-5016621D01*
X1731731Y-5020290D01*
X1731732Y-5020290D01*
X1744755Y-5020290D01*
X1744755Y-5020290D01*
X1757251Y-5016621D01*
X1768207Y-5009580D01*
X1770242Y-5007231D01*
X1774628Y-5002169D01*
X1778037Y-5000463D01*
X1778392Y-5000450D01*
X2301680Y-5000450D01*
X2302651Y-5000546D01*
X2304677Y-5000949D01*
X2314607Y-4998973D01*
X2320900Y-4994768D01*
X2320900Y-4994768D01*
X2321251Y-4994534D01*
X2321252Y-4994533D01*
X2323025Y-4993348D01*
X2324173Y-4991631D01*
X2324791Y-4990877D01*
X2373553Y-4942116D01*
X2377074Y-4940658D01*
X2377720Y-4940704D01*
X2377751Y-4940704D01*
X2390775Y-4940704D01*
X2390775Y-4940704D01*
X2403271Y-4937035D01*
X2414227Y-4929994D01*
X2422755Y-4920151D01*
X2428165Y-4908305D01*
X2430019Y-4895414D01*
X2428165Y-4882523D01*
X2422755Y-4870676D01*
X2414227Y-4860834D01*
X2403271Y-4853793D01*
X2390775Y-4850124D01*
X2377751Y-4850124D01*
X2365256Y-4853793D01*
X2359777Y-4857313D01*
X2354299Y-4860834D01*
X2345771Y-4870676D01*
X2340361Y-4882523D01*
X2340361Y-4882523D01*
X2338507Y-4895414D01*
X2338507Y-4895414D01*
X2339380Y-4901483D01*
X2338437Y-4905176D01*
X2337972Y-4905713D01*
X2295594Y-4948091D01*
X2292072Y-4949550D01*
X1778392Y-4949550D01*
X1774871Y-4948091D01*
X1774628Y-4947831D01*
X1768207Y-4940420D01*
X1768207Y-4940420D01*
X1768207Y-4940420D01*
X1757251Y-4933379D01*
X1744755Y-4929710D01*
X1731731Y-4929710D01*
X1719235Y-4933379D01*
X1713757Y-4936900D01*
X1708279Y-4940420D01*
X1699751Y-4950263D01*
X1694341Y-4962109D01*
X1694341Y-4962110D01*
X1692487Y-4975000D01*
X1692487Y-4975000D01*
X164704Y-4975000D01*
X164737Y-4753414D01*
X1055974Y-4753414D01*
X1057886Y-4774047D01*
X1057886Y-4774047D01*
X1063557Y-4793977D01*
X1072793Y-4812526D01*
X1072793Y-4812527D01*
X1085281Y-4829062D01*
X1085281Y-4829063D01*
X1094733Y-4837680D01*
X1100594Y-4843022D01*
X1118212Y-4853931D01*
X1137534Y-4861416D01*
X1157902Y-4865224D01*
X1157903Y-4865224D01*
X1178623Y-4865224D01*
X1178624Y-4865224D01*
X1198992Y-4861416D01*
X1218315Y-4853931D01*
X1235932Y-4843022D01*
X1251246Y-4829062D01*
X1261113Y-4815996D01*
X1263733Y-4812527D01*
X1263733Y-4812526D01*
X1265458Y-4809062D01*
X1272970Y-4793977D01*
X1278640Y-4774047D01*
X1280552Y-4753414D01*
X1309974Y-4753414D01*
X1311886Y-4774047D01*
X1311886Y-4774047D01*
X1317557Y-4793977D01*
X1326793Y-4812526D01*
X1326793Y-4812527D01*
X1339281Y-4829062D01*
X1339281Y-4829063D01*
X1348733Y-4837680D01*
X1354594Y-4843022D01*
X1372212Y-4853931D01*
X1391534Y-4861416D01*
X1411902Y-4865224D01*
X1411903Y-4865224D01*
X1432623Y-4865224D01*
X1432624Y-4865224D01*
X1452992Y-4861416D01*
X1472315Y-4853931D01*
X1489932Y-4843022D01*
X1505246Y-4829062D01*
X1515113Y-4815996D01*
X1517733Y-4812527D01*
X1517733Y-4812526D01*
X1519458Y-4809062D01*
X1526969Y-4793977D01*
X1532640Y-4774047D01*
X1534552Y-4753414D01*
X1534552Y-4753414D01*
X1563974Y-4753414D01*
X1565886Y-4774047D01*
X1565886Y-4774047D01*
X1571557Y-4793977D01*
X1580793Y-4812526D01*
X1580793Y-4812527D01*
X1593280Y-4829062D01*
X1593280Y-4829063D01*
X1602733Y-4837680D01*
X1608594Y-4843022D01*
X1626212Y-4853931D01*
X1645534Y-4861416D01*
X1665902Y-4865224D01*
X1665903Y-4865224D01*
X1686623Y-4865224D01*
X1686624Y-4865224D01*
X1706992Y-4861416D01*
X1726315Y-4853931D01*
X1743932Y-4843022D01*
X1759246Y-4829062D01*
X1769113Y-4815996D01*
X1771733Y-4812527D01*
X1771733Y-4812526D01*
X1773458Y-4809062D01*
X1780969Y-4793977D01*
X1786640Y-4774047D01*
X1788552Y-4753414D01*
X1817974Y-4753414D01*
X1819886Y-4774047D01*
X1819886Y-4774047D01*
X1825557Y-4793977D01*
X1834793Y-4812526D01*
X1834793Y-4812527D01*
X1847280Y-4829062D01*
X1847280Y-4829063D01*
X1856733Y-4837680D01*
X1862594Y-4843022D01*
X1880212Y-4853931D01*
X1899534Y-4861416D01*
X1919902Y-4865224D01*
X1919903Y-4865224D01*
X1940623Y-4865224D01*
X1940624Y-4865224D01*
X1960992Y-4861416D01*
X1980315Y-4853931D01*
X1997932Y-4843022D01*
X2013246Y-4829062D01*
X2023113Y-4815996D01*
X2025733Y-4812527D01*
X2025733Y-4812526D01*
X2027458Y-4809062D01*
X2034969Y-4793977D01*
X2040640Y-4774047D01*
X2042552Y-4753414D01*
X2041472Y-4741759D01*
X2300402Y-4741759D01*
X2300402Y-4761759D01*
X2395402Y-4761759D01*
X2395402Y-4741759D01*
X2300402Y-4741759D01*
X2041472Y-4741759D01*
X2040640Y-4732781D01*
X2034969Y-4712850D01*
X2025733Y-4694301D01*
X2025733Y-4694301D01*
X2025733Y-4694301D01*
X2014045Y-4678823D01*
X2013246Y-4677765D01*
X2013246Y-4677765D01*
X2013246Y-4677765D01*
X1997932Y-4663805D01*
X1980315Y-4652897D01*
X1980315Y-4652897D01*
X1972159Y-4649737D01*
X1960992Y-4645411D01*
X1940624Y-4641604D01*
X1940624Y-4641604D01*
X1919902Y-4641604D01*
X1919902Y-4641604D01*
X1899534Y-4645411D01*
X1880211Y-4652897D01*
X1862594Y-4663805D01*
X1847280Y-4677765D01*
X1847280Y-4677765D01*
X1834793Y-4694301D01*
X1834793Y-4694301D01*
X1825557Y-4712851D01*
X1819886Y-4732780D01*
X1819886Y-4732781D01*
X1817974Y-4753414D01*
X1788552Y-4753414D01*
X1786640Y-4732781D01*
X1780969Y-4712850D01*
X1771733Y-4694301D01*
X1771733Y-4694301D01*
X1771733Y-4694301D01*
X1760045Y-4678823D01*
X1759246Y-4677765D01*
X1759246Y-4677765D01*
X1759246Y-4677765D01*
X1743932Y-4663805D01*
X1726315Y-4652897D01*
X1726315Y-4652897D01*
X1718159Y-4649737D01*
X1706992Y-4645411D01*
X1686624Y-4641604D01*
X1686624Y-4641604D01*
X1665902Y-4641604D01*
X1665902Y-4641604D01*
X1645534Y-4645411D01*
X1626211Y-4652897D01*
X1608594Y-4663805D01*
X1593280Y-4677765D01*
X1593280Y-4677765D01*
X1580793Y-4694301D01*
X1580793Y-4694301D01*
X1571557Y-4712851D01*
X1565886Y-4732780D01*
X1565886Y-4732781D01*
X1563974Y-4753414D01*
X1534552Y-4753414D01*
X1532640Y-4732781D01*
X1526969Y-4712850D01*
X1517733Y-4694301D01*
X1517733Y-4694301D01*
X1517733Y-4694301D01*
X1506045Y-4678823D01*
X1505246Y-4677765D01*
X1505246Y-4677765D01*
X1505246Y-4677765D01*
X1489932Y-4663805D01*
X1472315Y-4652897D01*
X1472315Y-4652897D01*
X1464159Y-4649737D01*
X1452992Y-4645411D01*
X1432624Y-4641604D01*
X1432624Y-4641604D01*
X1411902Y-4641604D01*
X1411902Y-4641604D01*
X1391534Y-4645411D01*
X1372211Y-4652897D01*
X1354594Y-4663805D01*
X1339281Y-4677765D01*
X1339281Y-4677765D01*
X1326793Y-4694301D01*
X1326793Y-4694301D01*
X1317557Y-4712851D01*
X1311886Y-4732780D01*
X1311886Y-4732781D01*
X1309974Y-4753414D01*
X1280552Y-4753414D01*
X1278640Y-4732781D01*
X1272970Y-4712850D01*
X1263733Y-4694301D01*
X1263733Y-4694301D01*
X1263733Y-4694301D01*
X1252045Y-4678823D01*
X1251246Y-4677765D01*
X1251246Y-4677765D01*
X1251246Y-4677765D01*
X1235932Y-4663805D01*
X1218315Y-4652897D01*
X1218315Y-4652897D01*
X1210159Y-4649737D01*
X1198993Y-4645411D01*
X1178624Y-4641604D01*
X1178624Y-4641604D01*
X1157902Y-4641604D01*
X1157902Y-4641604D01*
X1137534Y-4645411D01*
X1118211Y-4652897D01*
X1100594Y-4663805D01*
X1085281Y-4677765D01*
X1085281Y-4677765D01*
X1072793Y-4694301D01*
X1072793Y-4694301D01*
X1063557Y-4712851D01*
X1057886Y-4732780D01*
X1057886Y-4732781D01*
X1055974Y-4753414D01*
X164737Y-4753414D01*
X164770Y-4529954D01*
X2169612Y-4529954D01*
X2170814Y-4535996D01*
X2170814Y-4535997D01*
X2171342Y-4537273D01*
X2171343Y-4537273D01*
X2173403Y-4540841D01*
X2173403Y-4540842D01*
X2173403Y-4540842D01*
X2179887Y-4545818D01*
X2180914Y-4546243D01*
X2181163Y-4546346D01*
X2181164Y-4546346D01*
X2181164Y-4546346D01*
X2181164Y-4546346D01*
X2181165Y-4546347D01*
X2184205Y-4546951D01*
X2187207Y-4547549D01*
X2187207Y-4547549D01*
X2373596Y-4547549D01*
X2373597Y-4547549D01*
X2378078Y-4546657D01*
X2379639Y-4546347D01*
X2379639Y-4546347D01*
X2379640Y-4546346D01*
X2380916Y-4545818D01*
X2384485Y-4543757D01*
X2389461Y-4537273D01*
X2389990Y-4535997D01*
X2391192Y-4529954D01*
X2391192Y-4263564D01*
X2389990Y-4257521D01*
X2389461Y-4256244D01*
X2388021Y-4253750D01*
X2407994Y-4253750D01*
X2408536Y-4257520D01*
X2409848Y-4266641D01*
X2415258Y-4278487D01*
X2423786Y-4288330D01*
X2434742Y-4295371D01*
X2447238Y-4299040D01*
X2447239Y-4299040D01*
X2460262Y-4299040D01*
X2460262Y-4299040D01*
X2472758Y-4295371D01*
X2483714Y-4288330D01*
X2492242Y-4278487D01*
X2497652Y-4266641D01*
X2499506Y-4253750D01*
X2497652Y-4240859D01*
X2492242Y-4229013D01*
X2483714Y-4219170D01*
X2483714Y-4219170D01*
X2483713Y-4219170D01*
X2483459Y-4218949D01*
X2481753Y-4215541D01*
X2481740Y-4215186D01*
X2481740Y-4159907D01*
X2483199Y-4156385D01*
X2500427Y-4139157D01*
X2503948Y-4137698D01*
X2693811Y-4137698D01*
X2697332Y-4139157D01*
X2697574Y-4139417D01*
X2704438Y-4147338D01*
X2704438Y-4147338D01*
X2715394Y-4154379D01*
X2727890Y-4158048D01*
X2727890Y-4158048D01*
X2740913Y-4158048D01*
X2740913Y-4158048D01*
X2753409Y-4154379D01*
X2764365Y-4147338D01*
X2772894Y-4137496D01*
X2778304Y-4125649D01*
X2780157Y-4112758D01*
X2778304Y-4099868D01*
X2772894Y-4088021D01*
X2764365Y-4078179D01*
X2753409Y-4071138D01*
X2740913Y-4067468D01*
X2727890Y-4067468D01*
X2715394Y-4071138D01*
X2704438Y-4078179D01*
X2704438Y-4078179D01*
X2704438Y-4078179D01*
X2702860Y-4080000D01*
X2699452Y-4081706D01*
X2699096Y-4081718D01*
X2495670Y-4081718D01*
X2494684Y-4081558D01*
X2494683Y-4081570D01*
X2494226Y-4081507D01*
X2494226Y-4081507D01*
X2494225Y-4081507D01*
X2489702Y-4081716D01*
X2489587Y-4081718D01*
X2487698Y-4081718D01*
X2487228Y-4081806D01*
X2486886Y-4081846D01*
X2483772Y-4081990D01*
X2483772Y-4081990D01*
X2482485Y-4082558D01*
X2481389Y-4082898D01*
X2480005Y-4083156D01*
X2477356Y-4084797D01*
X2477050Y-4084958D01*
X2474199Y-4086217D01*
X2474199Y-4086217D01*
X2473204Y-4087212D01*
X2472304Y-4087925D01*
X2471108Y-4088665D01*
X2469231Y-4091151D01*
X2469004Y-4091412D01*
X2437761Y-4122655D01*
X2436951Y-4123238D01*
X2436958Y-4123249D01*
X2436590Y-4123527D01*
X2433539Y-4126873D01*
X2433460Y-4126956D01*
X2432124Y-4128292D01*
X2432124Y-4128292D01*
X2431854Y-4128686D01*
X2431640Y-4128956D01*
X2429540Y-4131260D01*
X2429032Y-4132572D01*
X2428497Y-4133587D01*
X2427701Y-4134748D01*
X2427701Y-4134748D01*
X2426988Y-4137782D01*
X2426886Y-4138112D01*
X2425760Y-4141018D01*
X2425760Y-4142425D01*
X2425628Y-4143565D01*
X2425306Y-4144935D01*
X2425306Y-4144935D01*
X2425580Y-4146900D01*
X2425736Y-4148021D01*
X2425760Y-4148365D01*
X2425760Y-4215186D01*
X2424301Y-4218707D01*
X2424041Y-4218949D01*
X2423787Y-4219170D01*
X2415258Y-4229013D01*
X2409848Y-4240859D01*
X2409848Y-4240860D01*
X2407994Y-4253750D01*
X2407994Y-4253750D01*
X2388021Y-4253750D01*
X2387401Y-4252676D01*
X2387400Y-4252675D01*
X2387400Y-4252675D01*
X2380916Y-4247699D01*
X2380491Y-4247523D01*
X2379640Y-4247171D01*
X2379639Y-4247170D01*
X2373597Y-4245969D01*
X2373597Y-4245969D01*
X2187207Y-4245969D01*
X2187206Y-4245969D01*
X2181165Y-4247170D01*
X2181164Y-4247171D01*
X2179888Y-4247699D01*
X2179887Y-4247700D01*
X2176319Y-4249760D01*
X2176319Y-4249760D01*
X2176318Y-4249760D01*
X2176318Y-4249760D01*
X2173257Y-4253750D01*
X2171343Y-4256244D01*
X2170814Y-4257520D01*
X2170814Y-4257521D01*
X2169612Y-4263563D01*
X2169612Y-4529954D01*
X164770Y-4529954D01*
X164846Y-4024586D01*
X1754981Y-4024586D01*
X1756773Y-4037048D01*
X1756835Y-4037477D01*
X1762245Y-4049324D01*
X1770773Y-4059166D01*
X1781729Y-4066207D01*
X1794225Y-4069876D01*
X1794225Y-4069876D01*
X1807248Y-4069876D01*
X1807249Y-4069876D01*
X1819744Y-4066207D01*
X1830700Y-4059166D01*
X1839229Y-4049324D01*
X1844639Y-4037477D01*
X1846493Y-4024586D01*
X1846249Y-4022891D01*
X1844758Y-4012521D01*
X1844639Y-4011695D01*
X1839229Y-3999849D01*
X1830700Y-3990006D01*
X1819744Y-3982965D01*
X1807249Y-3979296D01*
X1794225Y-3979296D01*
X1781729Y-3982965D01*
X1776251Y-3986486D01*
X1770773Y-3990006D01*
X1762245Y-3999849D01*
X1756835Y-4011695D01*
X1756834Y-4011696D01*
X1754981Y-4024586D01*
X1754981Y-4024586D01*
X164846Y-4024586D01*
X164921Y-3525414D01*
X3994981Y-3525414D01*
X3995199Y-3526930D01*
X3996835Y-3538305D01*
X4002245Y-3550151D01*
X4010773Y-3559994D01*
X4012999Y-3561424D01*
X4015173Y-3564555D01*
X4015287Y-3565614D01*
X4015287Y-4407837D01*
X4014071Y-4411098D01*
X4005771Y-4420676D01*
X4000361Y-4432523D01*
X3998507Y-4445414D01*
X4000361Y-4458305D01*
X4005771Y-4470151D01*
X4014299Y-4479994D01*
X4025255Y-4487035D01*
X4037751Y-4490704D01*
X4037752Y-4490704D01*
X4050775Y-4490704D01*
X4050775Y-4490704D01*
X4063271Y-4487035D01*
X4074227Y-4479994D01*
X4082755Y-4470151D01*
X4088165Y-4458305D01*
X4090019Y-4445414D01*
X4088165Y-4432523D01*
X4082755Y-4420676D01*
X4074227Y-4410834D01*
X4074227Y-4410834D01*
X4074226Y-4410834D01*
X4068474Y-4407137D01*
X4066301Y-4404006D01*
X4066187Y-4402948D01*
X4066187Y-4141759D01*
X4264646Y-4141759D01*
X4266461Y-4154379D01*
X4266499Y-4154649D01*
X4271910Y-4166496D01*
X4278200Y-4173755D01*
X4280324Y-4176207D01*
X4280438Y-4176338D01*
X4291394Y-4183379D01*
X4303890Y-4187048D01*
X4303890Y-4187048D01*
X4316913Y-4187048D01*
X4316913Y-4187048D01*
X4329409Y-4183379D01*
X4340365Y-4176338D01*
X4348894Y-4166496D01*
X4354304Y-4154649D01*
X4354973Y-4150000D01*
X5158507Y-4150000D01*
X5159176Y-4154649D01*
X5160361Y-4162891D01*
X5165771Y-4174737D01*
X5174300Y-4184580D01*
X5185256Y-4191621D01*
X5197751Y-4195290D01*
X5197752Y-4195290D01*
X5210775Y-4195290D01*
X5210775Y-4195290D01*
X5223271Y-4191621D01*
X5234227Y-4184580D01*
X5242755Y-4174737D01*
X5248165Y-4162891D01*
X5250019Y-4150000D01*
X5249784Y-4148365D01*
X5248834Y-4141759D01*
X5364646Y-4141759D01*
X5366461Y-4154379D01*
X5366499Y-4154649D01*
X5371910Y-4166496D01*
X5378200Y-4173755D01*
X5380324Y-4176207D01*
X5380438Y-4176338D01*
X5391394Y-4183379D01*
X5403890Y-4187048D01*
X5403890Y-4187048D01*
X5416913Y-4187048D01*
X5416913Y-4187048D01*
X5429409Y-4183379D01*
X5440365Y-4176338D01*
X5448894Y-4166496D01*
X5454304Y-4154649D01*
X5456157Y-4141758D01*
X5454304Y-4128868D01*
X5448894Y-4117021D01*
X5440365Y-4107179D01*
X5429409Y-4100138D01*
X5416913Y-4096468D01*
X5403890Y-4096468D01*
X5391394Y-4100138D01*
X5385916Y-4103658D01*
X5380438Y-4107179D01*
X5371910Y-4117021D01*
X5366499Y-4128868D01*
X5366499Y-4128868D01*
X5364646Y-4141758D01*
X5364646Y-4141759D01*
X5248834Y-4141759D01*
X5248165Y-4137109D01*
X5242755Y-4125263D01*
X5234227Y-4115420D01*
X5223271Y-4108379D01*
X5210775Y-4104710D01*
X5197751Y-4104710D01*
X5185256Y-4108379D01*
X5182743Y-4109994D01*
X5174299Y-4115420D01*
X5165771Y-4125263D01*
X5160361Y-4137109D01*
X5160361Y-4137109D01*
X5158507Y-4150000D01*
X5158507Y-4150000D01*
X4354973Y-4150000D01*
X4356157Y-4141758D01*
X4354304Y-4128868D01*
X4348894Y-4117021D01*
X4340365Y-4107179D01*
X4329409Y-4100138D01*
X4316913Y-4096468D01*
X4303890Y-4096468D01*
X4291394Y-4100138D01*
X4285916Y-4103658D01*
X4280438Y-4107179D01*
X4271910Y-4117021D01*
X4266499Y-4128868D01*
X4266499Y-4128868D01*
X4264646Y-4141758D01*
X4264646Y-4141759D01*
X4066187Y-4141759D01*
X4066187Y-4075414D01*
X4938507Y-4075414D01*
X4940306Y-4087925D01*
X4940361Y-4088305D01*
X4945771Y-4100151D01*
X4954300Y-4109994D01*
X4965256Y-4117035D01*
X4977751Y-4120704D01*
X4977752Y-4120704D01*
X4990775Y-4120704D01*
X4990775Y-4120704D01*
X5003271Y-4117035D01*
X5014227Y-4109994D01*
X5022755Y-4100151D01*
X5028165Y-4088305D01*
X5030019Y-4075414D01*
X5238507Y-4075414D01*
X5240306Y-4087925D01*
X5240361Y-4088305D01*
X5245771Y-4100151D01*
X5254300Y-4109994D01*
X5265256Y-4117035D01*
X5277751Y-4120704D01*
X5277752Y-4120704D01*
X5290775Y-4120704D01*
X5290775Y-4120704D01*
X5303271Y-4117035D01*
X5314227Y-4109994D01*
X5322755Y-4100151D01*
X5328165Y-4088305D01*
X5330019Y-4075414D01*
X5518507Y-4075414D01*
X5520306Y-4087925D01*
X5520361Y-4088305D01*
X5525771Y-4100151D01*
X5534300Y-4109994D01*
X5545256Y-4117035D01*
X5557751Y-4120704D01*
X5557752Y-4120704D01*
X5570775Y-4120704D01*
X5570775Y-4120704D01*
X5583271Y-4117035D01*
X5583926Y-4116614D01*
X5587676Y-4115937D01*
X5590139Y-4117282D01*
X5643091Y-4170234D01*
X5644550Y-4173755D01*
X5644550Y-5355214D01*
X5643091Y-5358735D01*
X5642262Y-5359403D01*
X5640036Y-5360834D01*
X5631508Y-5370676D01*
X5626098Y-5382523D01*
X5626098Y-5382523D01*
X5624244Y-5395414D01*
X5624244Y-5395414D01*
X5626098Y-5408305D01*
X5631508Y-5420151D01*
X5640036Y-5429994D01*
X5650992Y-5437035D01*
X5663488Y-5440704D01*
X5663488Y-5440704D01*
X5676511Y-5440704D01*
X5676512Y-5440704D01*
X5689008Y-5437035D01*
X5699964Y-5429994D01*
X5708492Y-5420151D01*
X5713902Y-5408305D01*
X5715756Y-5395414D01*
X5715572Y-5394139D01*
X5715138Y-5391117D01*
X5713902Y-5382523D01*
X5708492Y-5370676D01*
X5699964Y-5360834D01*
X5699963Y-5360834D01*
X5699963Y-5360834D01*
X5697738Y-5359403D01*
X5695564Y-5356273D01*
X5695450Y-5355214D01*
X5695450Y-5250000D01*
X5888507Y-5250000D01*
X5890360Y-5262888D01*
X5890361Y-5262891D01*
X5895771Y-5274737D01*
X5903018Y-5283101D01*
X5903935Y-5284159D01*
X5904299Y-5284580D01*
X5915255Y-5291621D01*
X5927751Y-5295290D01*
X5927752Y-5295290D01*
X5940775Y-5295290D01*
X5940775Y-5295290D01*
X5953271Y-5291621D01*
X5964227Y-5284580D01*
X5972755Y-5274737D01*
X5978165Y-5262891D01*
X5979944Y-5250517D01*
X5980019Y-5250000D01*
X5980019Y-5250000D01*
X5979233Y-5244534D01*
X5978165Y-5237109D01*
X5972755Y-5225263D01*
X5964227Y-5215420D01*
X5964227Y-5215420D01*
X5964226Y-5215420D01*
X5962001Y-5213990D01*
X5959827Y-5210859D01*
X5959713Y-5209800D01*
X5959713Y-4716759D01*
X6144646Y-4716759D01*
X6146499Y-4729649D01*
X6151910Y-4741496D01*
X6160438Y-4751338D01*
X6171394Y-4758379D01*
X6183890Y-4762049D01*
X6183890Y-4762049D01*
X6196913Y-4762049D01*
X6196913Y-4762049D01*
X6209409Y-4758379D01*
X6220365Y-4751338D01*
X6228894Y-4741496D01*
X6234304Y-4729649D01*
X6236157Y-4716759D01*
X6234304Y-4703868D01*
X6228894Y-4692021D01*
X6220365Y-4682179D01*
X6209409Y-4675138D01*
X6196913Y-4671469D01*
X6183890Y-4671469D01*
X6171394Y-4675138D01*
X6167306Y-4677765D01*
X6160438Y-4682179D01*
X6151910Y-4692021D01*
X6146499Y-4703868D01*
X6146499Y-4703868D01*
X6144646Y-4716758D01*
X6144646Y-4716759D01*
X5959713Y-4716759D01*
X5959713Y-4625000D01*
X6324244Y-4625000D01*
X6325491Y-4633669D01*
X6326098Y-4637891D01*
X6331508Y-4649737D01*
X6340036Y-4659580D01*
X6350992Y-4666621D01*
X6363488Y-4670290D01*
X6363488Y-4670290D01*
X6376511Y-4670290D01*
X6376512Y-4670290D01*
X6389008Y-4666621D01*
X6399964Y-4659580D01*
X6408492Y-4649737D01*
X6413902Y-4637891D01*
X6415756Y-4625000D01*
X6413902Y-4612109D01*
X6408492Y-4600263D01*
X6399964Y-4590420D01*
X6389008Y-4583379D01*
X6376512Y-4579710D01*
X6363488Y-4579710D01*
X6350992Y-4583379D01*
X6345514Y-4586900D01*
X6340036Y-4590420D01*
X6331508Y-4600263D01*
X6326098Y-4612109D01*
X6326098Y-4612110D01*
X6324244Y-4625000D01*
X6324244Y-4625000D01*
X5959713Y-4625000D01*
X5959713Y-3794856D01*
X5961172Y-3791335D01*
X5964693Y-3789876D01*
X5977248Y-3789876D01*
X5977249Y-3789876D01*
X5989744Y-3786207D01*
X6000700Y-3779166D01*
X6009229Y-3769324D01*
X6014639Y-3757477D01*
X6016493Y-3744586D01*
X6014639Y-3731695D01*
X6009229Y-3719849D01*
X6000700Y-3710006D01*
X5989744Y-3702965D01*
X5977249Y-3699296D01*
X5964225Y-3699296D01*
X5951729Y-3702965D01*
X5947910Y-3705420D01*
X5940773Y-3710006D01*
X5932245Y-3719849D01*
X5926835Y-3731695D01*
X5926834Y-3731696D01*
X5924981Y-3744586D01*
X5924981Y-3744586D01*
X5925854Y-3750655D01*
X5924911Y-3754348D01*
X5924446Y-3754885D01*
X5918386Y-3760945D01*
X5917632Y-3761564D01*
X5915914Y-3762712D01*
X5914532Y-3764780D01*
X5912158Y-3768334D01*
X5910290Y-3771130D01*
X5908992Y-3777656D01*
X5908314Y-3781060D01*
X5908717Y-3783085D01*
X5908813Y-3784057D01*
X5908813Y-5209800D01*
X5907354Y-5213322D01*
X5906525Y-5213990D01*
X5904300Y-5215420D01*
X5895771Y-5225263D01*
X5890361Y-5237109D01*
X5890361Y-5237110D01*
X5888507Y-5250000D01*
X5888507Y-5250000D01*
X5695450Y-5250000D01*
X5695450Y-4164148D01*
X5695546Y-4163176D01*
X5695949Y-4161151D01*
X5694655Y-4154649D01*
X5693973Y-4151221D01*
X5693158Y-4150000D01*
X5689693Y-4144814D01*
X5689691Y-4144812D01*
X5688348Y-4142802D01*
X5686631Y-4141655D01*
X5685877Y-4141036D01*
X5609397Y-4064556D01*
X5608368Y-4062822D01*
X5608313Y-4062847D01*
X5602755Y-4050676D01*
X5594227Y-4040834D01*
X5589003Y-4037477D01*
X5583271Y-4033793D01*
X5570775Y-4030124D01*
X5557751Y-4030124D01*
X5545256Y-4033793D01*
X5543786Y-4034737D01*
X5534299Y-4040834D01*
X5525771Y-4050676D01*
X5520361Y-4062523D01*
X5520361Y-4062523D01*
X5518507Y-4075414D01*
X5518507Y-4075414D01*
X5330019Y-4075414D01*
X5330019Y-4075414D01*
X5328165Y-4062523D01*
X5322755Y-4050676D01*
X5314227Y-4040834D01*
X5303271Y-4033793D01*
X5290775Y-4030124D01*
X5277751Y-4030124D01*
X5265256Y-4033793D01*
X5263786Y-4034737D01*
X5254299Y-4040834D01*
X5245771Y-4050676D01*
X5240361Y-4062523D01*
X5240361Y-4062523D01*
X5238507Y-4075414D01*
X5238507Y-4075414D01*
X5030019Y-4075414D01*
X5030019Y-4075414D01*
X5028165Y-4062523D01*
X5022755Y-4050676D01*
X5014227Y-4040834D01*
X5003271Y-4033793D01*
X4990775Y-4030124D01*
X4977751Y-4030124D01*
X4965256Y-4033793D01*
X4963786Y-4034737D01*
X4954299Y-4040834D01*
X4945771Y-4050676D01*
X4940361Y-4062523D01*
X4940361Y-4062523D01*
X4938507Y-4075414D01*
X4938507Y-4075414D01*
X4066187Y-4075414D01*
X4066187Y-3824586D01*
X4779646Y-3824586D01*
X4781499Y-3837477D01*
X4786910Y-3849324D01*
X4795438Y-3859166D01*
X4806394Y-3866207D01*
X4818890Y-3869876D01*
X4818890Y-3869876D01*
X4831913Y-3869876D01*
X4831913Y-3869876D01*
X4844409Y-3866207D01*
X4855365Y-3859166D01*
X4863894Y-3849324D01*
X4869304Y-3837477D01*
X4871157Y-3824586D01*
X4869304Y-3811695D01*
X4863894Y-3799849D01*
X4855365Y-3790006D01*
X4844409Y-3782965D01*
X4831913Y-3779296D01*
X4818890Y-3779296D01*
X4806394Y-3782965D01*
X4803882Y-3784580D01*
X4795438Y-3790006D01*
X4786910Y-3799849D01*
X4781499Y-3811695D01*
X4781499Y-3811696D01*
X4779646Y-3824586D01*
X4779646Y-3824586D01*
X4066187Y-3824586D01*
X4066187Y-3750000D01*
X4914244Y-3750000D01*
X4915907Y-3761564D01*
X4916098Y-3762891D01*
X4921508Y-3774737D01*
X4930036Y-3784580D01*
X4940992Y-3791621D01*
X4953488Y-3795290D01*
X4953489Y-3795290D01*
X4966512Y-3795290D01*
X4966512Y-3795290D01*
X4979008Y-3791621D01*
X4989964Y-3784580D01*
X4998492Y-3774737D01*
X5003902Y-3762891D01*
X5005756Y-3750000D01*
X5004318Y-3740000D01*
X5504244Y-3740000D01*
X5505776Y-3750655D01*
X5506098Y-3752891D01*
X5511508Y-3764737D01*
X5520036Y-3774580D01*
X5530992Y-3781621D01*
X5543488Y-3785290D01*
X5543489Y-3785290D01*
X5556512Y-3785290D01*
X5556512Y-3785290D01*
X5569008Y-3781621D01*
X5579964Y-3774580D01*
X5588492Y-3764737D01*
X5593902Y-3752891D01*
X5595756Y-3740000D01*
X5595299Y-3736824D01*
X5596241Y-3733131D01*
X5596706Y-3732595D01*
X5615871Y-3713430D01*
X5616677Y-3712850D01*
X5616669Y-3712839D01*
X5617037Y-3712561D01*
X5617037Y-3712561D01*
X5620070Y-3709234D01*
X5620142Y-3709158D01*
X5621471Y-3707829D01*
X5621739Y-3707439D01*
X5621953Y-3707169D01*
X5624037Y-3704883D01*
X5624540Y-3703583D01*
X5625074Y-3702570D01*
X5625862Y-3701419D01*
X5626571Y-3698408D01*
X5626672Y-3698080D01*
X5627790Y-3695195D01*
X5627790Y-3693802D01*
X5627922Y-3692661D01*
X5628241Y-3691306D01*
X5628241Y-3691305D01*
X5628089Y-3690219D01*
X5627814Y-3688242D01*
X5627790Y-3687898D01*
X5627790Y-3451759D01*
X6144521Y-3451759D01*
X6145664Y-3459707D01*
X6146374Y-3464649D01*
X6151785Y-3476496D01*
X6160313Y-3486338D01*
X6171269Y-3493379D01*
X6183765Y-3497048D01*
X6183765Y-3497048D01*
X6196788Y-3497048D01*
X6196788Y-3497048D01*
X6209284Y-3493379D01*
X6220240Y-3486338D01*
X6228769Y-3476496D01*
X6234179Y-3464649D01*
X6236032Y-3451758D01*
X6234179Y-3438868D01*
X6228769Y-3427021D01*
X6220240Y-3417179D01*
X6209284Y-3410138D01*
X6196788Y-3406468D01*
X6183765Y-3406468D01*
X6171269Y-3410138D01*
X6166869Y-3412965D01*
X6160313Y-3417179D01*
X6151785Y-3427021D01*
X6146374Y-3438868D01*
X6146374Y-3438868D01*
X6144521Y-3451758D01*
X6144521Y-3451759D01*
X5627790Y-3451759D01*
X5627790Y-3064586D01*
X6834981Y-3064586D01*
X6836652Y-3076207D01*
X6836835Y-3077477D01*
X6842245Y-3089324D01*
X6850773Y-3099166D01*
X6861729Y-3106207D01*
X6874225Y-3109876D01*
X6874225Y-3109876D01*
X6887248Y-3109876D01*
X6887249Y-3109876D01*
X6899744Y-3106207D01*
X6910700Y-3099166D01*
X6919229Y-3089324D01*
X6924639Y-3077477D01*
X6926493Y-3064586D01*
X6924639Y-3051695D01*
X6919229Y-3039849D01*
X6910700Y-3030006D01*
X6910700Y-3030006D01*
X6910700Y-3030006D01*
X6908474Y-3028576D01*
X6906301Y-3025445D01*
X6906187Y-3024386D01*
X6906187Y-2810000D01*
X7599244Y-2810000D01*
X7599845Y-2814180D01*
X7601098Y-2822891D01*
X7606508Y-2834737D01*
X7615036Y-2844580D01*
X7625992Y-2851621D01*
X7638488Y-2855290D01*
X7638488Y-2855290D01*
X7651511Y-2855290D01*
X7651512Y-2855290D01*
X7664008Y-2851621D01*
X7674964Y-2844580D01*
X7683492Y-2834737D01*
X7688902Y-2822891D01*
X7690756Y-2810000D01*
X7688902Y-2797109D01*
X7683492Y-2785263D01*
X7674964Y-2775420D01*
X7664008Y-2768379D01*
X7651512Y-2764710D01*
X7638488Y-2764710D01*
X7625992Y-2768379D01*
X7620514Y-2771900D01*
X7615036Y-2775420D01*
X7606508Y-2785263D01*
X7601098Y-2797109D01*
X7601098Y-2797109D01*
X7599244Y-2810000D01*
X7599244Y-2810000D01*
X6906187Y-2810000D01*
X6906187Y-1675000D01*
X7717494Y-1675000D01*
X7718213Y-1680000D01*
X7719348Y-1687891D01*
X7724758Y-1699737D01*
X7733286Y-1709580D01*
X7744242Y-1716621D01*
X7756738Y-1720290D01*
X7756738Y-1720290D01*
X7769761Y-1720290D01*
X7769762Y-1720290D01*
X7782258Y-1716621D01*
X7793214Y-1709580D01*
X7801742Y-1699737D01*
X7807152Y-1687891D01*
X7809006Y-1675000D01*
X7999244Y-1675000D01*
X7999963Y-1680000D01*
X8001098Y-1687891D01*
X8006508Y-1699737D01*
X8015036Y-1709580D01*
X8025992Y-1716621D01*
X8038488Y-1720290D01*
X8038488Y-1720290D01*
X8051511Y-1720290D01*
X8051512Y-1720290D01*
X8064008Y-1716621D01*
X8074964Y-1709580D01*
X8083492Y-1699737D01*
X8088902Y-1687891D01*
X8090756Y-1675000D01*
X8088902Y-1662109D01*
X8083492Y-1650263D01*
X8074964Y-1640420D01*
X8064008Y-1633379D01*
X8051512Y-1629710D01*
X8038488Y-1629710D01*
X8025992Y-1633379D01*
X8020514Y-1636900D01*
X8015036Y-1640420D01*
X8006508Y-1650263D01*
X8001098Y-1662109D01*
X8001098Y-1662109D01*
X7999244Y-1675000D01*
X7999244Y-1675000D01*
X7809006Y-1675000D01*
X7809006Y-1675000D01*
X7807152Y-1662109D01*
X7801742Y-1650263D01*
X7793214Y-1640420D01*
X7782258Y-1633379D01*
X7769762Y-1629710D01*
X7756738Y-1629710D01*
X7744242Y-1633379D01*
X7738764Y-1636900D01*
X7733286Y-1640420D01*
X7724758Y-1650263D01*
X7719348Y-1662109D01*
X7719348Y-1662109D01*
X7717494Y-1675000D01*
X7717494Y-1675000D01*
X6906187Y-1675000D01*
X6906187Y-1433500D01*
X9950744Y-1433500D01*
X9952598Y-1446391D01*
X9958008Y-1458237D01*
X9966536Y-1468080D01*
X9977492Y-1475121D01*
X9989988Y-1478790D01*
X9989989Y-1478790D01*
X10003012Y-1478790D01*
X10003012Y-1478790D01*
X10015508Y-1475121D01*
X10026464Y-1468080D01*
X10034992Y-1458237D01*
X10040402Y-1446391D01*
X10042256Y-1433500D01*
X10040402Y-1420609D01*
X10034992Y-1408763D01*
X10026464Y-1398920D01*
X10015508Y-1391879D01*
X10003012Y-1388210D01*
X9989988Y-1388210D01*
X9977492Y-1391879D01*
X9972014Y-1395400D01*
X9966536Y-1398920D01*
X9958008Y-1408762D01*
X9958008Y-1408763D01*
X9952598Y-1420609D01*
X9950744Y-1433500D01*
X6906187Y-1433500D01*
X6906187Y-910000D01*
X9044244Y-910000D01*
X9046098Y-922891D01*
X9051508Y-934737D01*
X9060036Y-944580D01*
X9070992Y-951621D01*
X9083488Y-955290D01*
X9083489Y-955290D01*
X9096512Y-955290D01*
X9096512Y-955290D01*
X9109008Y-951621D01*
X9119964Y-944580D01*
X9128492Y-934737D01*
X9133902Y-922891D01*
X9135756Y-910000D01*
X9133902Y-897109D01*
X9128492Y-885263D01*
X9119964Y-875420D01*
X9109008Y-868379D01*
X9096512Y-864710D01*
X9083488Y-864710D01*
X9070992Y-868379D01*
X9065514Y-871900D01*
X9060036Y-875420D01*
X9052100Y-884580D01*
X9051508Y-885263D01*
X9046098Y-897109D01*
X9044244Y-910000D01*
X6906187Y-910000D01*
X6906187Y-810000D01*
X7717494Y-810000D01*
X7718121Y-814362D01*
X7719348Y-822891D01*
X7724758Y-834737D01*
X7733286Y-844580D01*
X7744242Y-851621D01*
X7756738Y-855290D01*
X7756738Y-855290D01*
X7769761Y-855290D01*
X7769762Y-855290D01*
X7782258Y-851621D01*
X7784780Y-850000D01*
X8634244Y-850000D01*
X8636098Y-862891D01*
X8641508Y-874737D01*
X8650036Y-884580D01*
X8660992Y-891621D01*
X8673488Y-895290D01*
X8673489Y-895290D01*
X8686512Y-895290D01*
X8686512Y-895290D01*
X8699008Y-891621D01*
X8709964Y-884580D01*
X8718492Y-874737D01*
X8723902Y-862891D01*
X8725756Y-850000D01*
X8723902Y-837109D01*
X8718492Y-825263D01*
X8709964Y-815420D01*
X8699008Y-808379D01*
X8686512Y-804710D01*
X8673488Y-804710D01*
X8660992Y-808379D01*
X8655514Y-811900D01*
X8650036Y-815420D01*
X8641508Y-825263D01*
X8636098Y-837109D01*
X8636098Y-837109D01*
X8634244Y-850000D01*
X8634244Y-850000D01*
X7784780Y-850000D01*
X7793214Y-844580D01*
X7801742Y-834737D01*
X7807152Y-822891D01*
X7809006Y-810000D01*
X7808814Y-808665D01*
X7807476Y-799362D01*
X7807152Y-797109D01*
X7806244Y-795120D01*
X10790801Y-795120D01*
X10796860Y-799362D01*
X10796860Y-799362D01*
X10816809Y-808665D01*
X10816810Y-808665D01*
X10838071Y-814362D01*
X10838072Y-814362D01*
X10859999Y-816280D01*
X10860001Y-816280D01*
X10881928Y-814362D01*
X10881929Y-814362D01*
X10903190Y-808665D01*
X10903191Y-808665D01*
X10923141Y-799362D01*
X10929199Y-795120D01*
X10929199Y-795120D01*
X10860000Y-725921D01*
X10790801Y-795120D01*
X10790801Y-795120D01*
X7806244Y-795120D01*
X7801742Y-785263D01*
X7793214Y-775420D01*
X7782258Y-768379D01*
X7769762Y-764710D01*
X7756738Y-764710D01*
X7744242Y-768379D01*
X7738764Y-771900D01*
X7733286Y-775420D01*
X7724758Y-785263D01*
X7719348Y-797109D01*
X7719348Y-797109D01*
X7717494Y-810000D01*
X7717494Y-810000D01*
X6906187Y-810000D01*
X6906187Y-690001D01*
X10733720Y-690001D01*
X10735638Y-711928D01*
X10735638Y-711929D01*
X10741335Y-733190D01*
X10741335Y-733191D01*
X10750638Y-753140D01*
X10750638Y-753140D01*
X10754880Y-759199D01*
X10821149Y-692930D01*
X10824637Y-692930D01*
X10827505Y-704254D01*
X10833894Y-714033D01*
X10843112Y-721207D01*
X10854160Y-725000D01*
X10862901Y-725000D01*
X10871522Y-723561D01*
X10881795Y-718002D01*
X10889706Y-709408D01*
X10894398Y-698711D01*
X10895120Y-690000D01*
X10895921Y-690000D01*
X10965120Y-759199D01*
X10965120Y-759199D01*
X10969362Y-753141D01*
X10978665Y-733191D01*
X10978665Y-733190D01*
X10984362Y-711929D01*
X10984362Y-711928D01*
X10986281Y-690001D01*
X10986281Y-689999D01*
X10984362Y-668072D01*
X10984362Y-668071D01*
X10978665Y-646810D01*
X10978665Y-646809D01*
X10969362Y-626860D01*
X10969362Y-626860D01*
X10965120Y-620801D01*
X10895921Y-690000D01*
X10895120Y-690000D01*
X10895363Y-687070D01*
X10892495Y-675746D01*
X10886106Y-665967D01*
X10876889Y-658793D01*
X10865841Y-655000D01*
X10857100Y-655000D01*
X10848478Y-656439D01*
X10838205Y-661998D01*
X10830294Y-670592D01*
X10825602Y-681289D01*
X10824637Y-692930D01*
X10821149Y-692930D01*
X10824079Y-690000D01*
X10754880Y-620801D01*
X10750638Y-626860D01*
X10750638Y-626860D01*
X10741335Y-646809D01*
X10741335Y-646810D01*
X10735638Y-668071D01*
X10735638Y-668072D01*
X10733720Y-689999D01*
X10733720Y-690001D01*
X6906187Y-690001D01*
X6906187Y-634786D01*
X6907645Y-631265D01*
X6908474Y-630597D01*
X6910700Y-629166D01*
X6919229Y-619324D01*
X6924639Y-607477D01*
X6926493Y-594586D01*
X6925097Y-584880D01*
X10790801Y-584880D01*
X10860000Y-654079D01*
X10929199Y-584880D01*
X10923140Y-580638D01*
X10923140Y-580638D01*
X10903191Y-571335D01*
X10903190Y-571335D01*
X10881929Y-565638D01*
X10881928Y-565638D01*
X10860001Y-563720D01*
X10859999Y-563720D01*
X10838072Y-565638D01*
X10838071Y-565638D01*
X10816810Y-571335D01*
X10816809Y-571335D01*
X10796860Y-580638D01*
X10796860Y-580638D01*
X10790801Y-584880D01*
X6925097Y-584880D01*
X6924639Y-581695D01*
X6919229Y-569849D01*
X6910700Y-560006D01*
X6899744Y-552965D01*
X6887249Y-549296D01*
X6874225Y-549296D01*
X6861729Y-552965D01*
X6856251Y-556486D01*
X6850773Y-560006D01*
X6842245Y-569849D01*
X6836835Y-581695D01*
X6836834Y-581696D01*
X6834981Y-594586D01*
X6834981Y-594586D01*
X6835571Y-598688D01*
X6836835Y-607477D01*
X6842245Y-619324D01*
X6850773Y-629166D01*
X6852999Y-630597D01*
X6855173Y-633727D01*
X6855287Y-634786D01*
X6855287Y-3024386D01*
X6853828Y-3027908D01*
X6852999Y-3028576D01*
X6850773Y-3030006D01*
X6842245Y-3039849D01*
X6836835Y-3051695D01*
X6836834Y-3051696D01*
X6834981Y-3064586D01*
X6834981Y-3064586D01*
X5627790Y-3064586D01*
X5627790Y-2946759D01*
X6144646Y-2946759D01*
X6146084Y-2956759D01*
X6146499Y-2959649D01*
X6151910Y-2971496D01*
X6160438Y-2981338D01*
X6171394Y-2988379D01*
X6183890Y-2992048D01*
X6183890Y-2992048D01*
X6196913Y-2992048D01*
X6196913Y-2992048D01*
X6209409Y-2988379D01*
X6220365Y-2981338D01*
X6228894Y-2971496D01*
X6234304Y-2959649D01*
X6236157Y-2946758D01*
X6234304Y-2933868D01*
X6228894Y-2922021D01*
X6220365Y-2912179D01*
X6209409Y-2905138D01*
X6196913Y-2901468D01*
X6183890Y-2901468D01*
X6171394Y-2905138D01*
X6167679Y-2907525D01*
X6160438Y-2912179D01*
X6151910Y-2922021D01*
X6146499Y-2933868D01*
X6146499Y-2933868D01*
X6144646Y-2946758D01*
X6144646Y-2946759D01*
X5627790Y-2946759D01*
X5627790Y-2674586D01*
X6684981Y-2674586D01*
X6686387Y-2684367D01*
X6686835Y-2687477D01*
X6692245Y-2699324D01*
X6700773Y-2709166D01*
X6711729Y-2716207D01*
X6724225Y-2719876D01*
X6724225Y-2719876D01*
X6737248Y-2719876D01*
X6737249Y-2719876D01*
X6749744Y-2716207D01*
X6760700Y-2709166D01*
X6769229Y-2699324D01*
X6774639Y-2687477D01*
X6776493Y-2674586D01*
X6774639Y-2661695D01*
X6769229Y-2649849D01*
X6760700Y-2640006D01*
X6760700Y-2640006D01*
X6760700Y-2640006D01*
X6758474Y-2638576D01*
X6756301Y-2635445D01*
X6756187Y-2634386D01*
X6756187Y-504786D01*
X6757645Y-501265D01*
X6758474Y-500597D01*
X6760700Y-499166D01*
X6769229Y-489324D01*
X6774639Y-477477D01*
X6776493Y-464586D01*
X6774639Y-451695D01*
X6769229Y-439849D01*
X6760700Y-430006D01*
X6749744Y-422965D01*
X6737249Y-419296D01*
X6724225Y-419296D01*
X6711729Y-422965D01*
X6706251Y-426486D01*
X6700773Y-430006D01*
X6692245Y-439849D01*
X6686835Y-451695D01*
X6686834Y-451696D01*
X6684981Y-464586D01*
X6684981Y-464586D01*
X6685866Y-470743D01*
X6686835Y-477477D01*
X6692245Y-489324D01*
X6700773Y-499166D01*
X6702999Y-500596D01*
X6705173Y-503727D01*
X6705287Y-504786D01*
X6705287Y-2634386D01*
X6703828Y-2637908D01*
X6702999Y-2638576D01*
X6700773Y-2640006D01*
X6692245Y-2649849D01*
X6686835Y-2661695D01*
X6686834Y-2661696D01*
X6684981Y-2674586D01*
X6684981Y-2674586D01*
X5627790Y-2674586D01*
X5627790Y-2501505D01*
X6094710Y-2501505D01*
X6094710Y-2501506D01*
X6095597Y-2505966D01*
X6095597Y-2505966D01*
X6098976Y-2511023D01*
X6098977Y-2511023D01*
X6104034Y-2514403D01*
X6108494Y-2515290D01*
X6351506Y-2515290D01*
X6355966Y-2514403D01*
X6361023Y-2511023D01*
X6364403Y-2505966D01*
X6365290Y-2501506D01*
X6365290Y-2258494D01*
X6364403Y-2254034D01*
X6364403Y-2254034D01*
X6364403Y-2254034D01*
X6361023Y-2248977D01*
X6361023Y-2248976D01*
X6355966Y-2245597D01*
X6351506Y-2244710D01*
X6351505Y-2244710D01*
X6108495Y-2244710D01*
X6108494Y-2244710D01*
X6105149Y-2245375D01*
X6104034Y-2245597D01*
X6104034Y-2245597D01*
X6104034Y-2245597D01*
X6098977Y-2248976D01*
X6098976Y-2248977D01*
X6095597Y-2254034D01*
X6095597Y-2254034D01*
X6094710Y-2258494D01*
X6094710Y-2501505D01*
X5627790Y-2501505D01*
X5627790Y-2030000D01*
X6094246Y-2030000D01*
X6096098Y-2052344D01*
X6096098Y-2052345D01*
X6101602Y-2074079D01*
X6101602Y-2074079D01*
X6110608Y-2094611D01*
X6110608Y-2094612D01*
X6122871Y-2113382D01*
X6138056Y-2129877D01*
X6155750Y-2143648D01*
X6175468Y-2154320D01*
X6196674Y-2161600D01*
X6218789Y-2165290D01*
X6241210Y-2165290D01*
X6263326Y-2161600D01*
X6284532Y-2154320D01*
X6304250Y-2143648D01*
X6321943Y-2129877D01*
X6337129Y-2113382D01*
X6349392Y-2094612D01*
X6358398Y-2074079D01*
X6363902Y-2052344D01*
X6365754Y-2030000D01*
X6363902Y-2007656D01*
X6358398Y-1985921D01*
X6349392Y-1965388D01*
X6337129Y-1946618D01*
X6321943Y-1930123D01*
X6304250Y-1916352D01*
X6284532Y-1905680D01*
X6263326Y-1898400D01*
X6263325Y-1898400D01*
X6263325Y-1898400D01*
X6241210Y-1894710D01*
X6218789Y-1894710D01*
X6196675Y-1898400D01*
X6175468Y-1905680D01*
X6155750Y-1916352D01*
X6138056Y-1930123D01*
X6122871Y-1946618D01*
X6110608Y-1965389D01*
X6101602Y-1985921D01*
X6101602Y-1985921D01*
X6096098Y-2007655D01*
X6096098Y-2007656D01*
X6094246Y-2030000D01*
X5627790Y-2030000D01*
X5627790Y-1680000D01*
X6058721Y-1680000D01*
X6060634Y-1705527D01*
X6060634Y-1705528D01*
X6066330Y-1730484D01*
X6075683Y-1754315D01*
X6088483Y-1776485D01*
X6092525Y-1781554D01*
X6173557Y-1700522D01*
X6177590Y-1710259D01*
X6187207Y-1722792D01*
X6199741Y-1732410D01*
X6209478Y-1736443D01*
X6128442Y-1817479D01*
X6128442Y-1817479D01*
X6144361Y-1828332D01*
X6167424Y-1839439D01*
X6191886Y-1846984D01*
X6191886Y-1846984D01*
X6217201Y-1850800D01*
X6242799Y-1850800D01*
X6268113Y-1846984D01*
X6268114Y-1846984D01*
X6292575Y-1839439D01*
X6292576Y-1839439D01*
X6315639Y-1828332D01*
X6315639Y-1828332D01*
X6331558Y-1817479D01*
X6331558Y-1817479D01*
X6250522Y-1736443D01*
X6260259Y-1732410D01*
X6272792Y-1722792D01*
X6282410Y-1710259D01*
X6286443Y-1700522D01*
X6367475Y-1781554D01*
X6367475Y-1781554D01*
X6371517Y-1776485D01*
X6384317Y-1754315D01*
X6393670Y-1730484D01*
X6399366Y-1705528D01*
X6399366Y-1705527D01*
X6401279Y-1680000D01*
X6399366Y-1654473D01*
X6399366Y-1654472D01*
X6393670Y-1629515D01*
X6384317Y-1605685D01*
X6371517Y-1583515D01*
X6367475Y-1578446D01*
X6286443Y-1659478D01*
X6282410Y-1649741D01*
X6272792Y-1637207D01*
X6260259Y-1627590D01*
X6250522Y-1623557D01*
X6331558Y-1542521D01*
X6315639Y-1531668D01*
X6292576Y-1520561D01*
X6292575Y-1520561D01*
X6268114Y-1513015D01*
X6268113Y-1513015D01*
X6242799Y-1509200D01*
X6217201Y-1509200D01*
X6191886Y-1513015D01*
X6191886Y-1513015D01*
X6167424Y-1520561D01*
X6167424Y-1520561D01*
X6144361Y-1531668D01*
X6128442Y-1542521D01*
X6128442Y-1542521D01*
X6209478Y-1623557D01*
X6199741Y-1627590D01*
X6187207Y-1637207D01*
X6177590Y-1649741D01*
X6173557Y-1659478D01*
X6092525Y-1578446D01*
X6092525Y-1578446D01*
X6088483Y-1583515D01*
X6075683Y-1605685D01*
X6066330Y-1629515D01*
X6060634Y-1654472D01*
X6060634Y-1654473D01*
X6058721Y-1680000D01*
X5627790Y-1680000D01*
X5627790Y-1433500D01*
X6584244Y-1433500D01*
X6586098Y-1446391D01*
X6591508Y-1458237D01*
X6600036Y-1468080D01*
X6610992Y-1475121D01*
X6623488Y-1478790D01*
X6623488Y-1478790D01*
X6636511Y-1478790D01*
X6636512Y-1478790D01*
X6649008Y-1475121D01*
X6659964Y-1468080D01*
X6668492Y-1458237D01*
X6673902Y-1446391D01*
X6675756Y-1433500D01*
X6673902Y-1420609D01*
X6668492Y-1408763D01*
X6659964Y-1398920D01*
X6649008Y-1391879D01*
X6636512Y-1388210D01*
X6623488Y-1388210D01*
X6610992Y-1391879D01*
X6605514Y-1395400D01*
X6600036Y-1398920D01*
X6591508Y-1408763D01*
X6586098Y-1420609D01*
X6584244Y-1433500D01*
X5627790Y-1433500D01*
X5627790Y-1338696D01*
X5629249Y-1335175D01*
X5629696Y-1334814D01*
X5629695Y-1334813D01*
X5629963Y-1334580D01*
X5629964Y-1334580D01*
X5638492Y-1324737D01*
X5643902Y-1312891D01*
X5645756Y-1300000D01*
X5643902Y-1287109D01*
X5638492Y-1275263D01*
X5629964Y-1265420D01*
X5619008Y-1258379D01*
X5606512Y-1254710D01*
X5593488Y-1254710D01*
X5580992Y-1258379D01*
X5575514Y-1261900D01*
X5570036Y-1265420D01*
X5561508Y-1275263D01*
X5561508Y-1275263D01*
X5556098Y-1287109D01*
X5554244Y-1300000D01*
X5556098Y-1312891D01*
X5561508Y-1324737D01*
X5568898Y-1333266D01*
X5570036Y-1334580D01*
X5570305Y-1334813D01*
X5570211Y-1334922D01*
X5572096Y-1337637D01*
X5572210Y-1338696D01*
X5572210Y-3676426D01*
X5570751Y-3679947D01*
X5557448Y-3693251D01*
X5553926Y-3694710D01*
X5543488Y-3694710D01*
X5530992Y-3698379D01*
X5528279Y-3700123D01*
X5520036Y-3705420D01*
X5511508Y-3715263D01*
X5506098Y-3727109D01*
X5506098Y-3727109D01*
X5504244Y-3740000D01*
X5504244Y-3740000D01*
X5004318Y-3740000D01*
X5003902Y-3737109D01*
X4998492Y-3725263D01*
X4989964Y-3715420D01*
X4979008Y-3708379D01*
X4966512Y-3704710D01*
X4953488Y-3704710D01*
X4940992Y-3708379D01*
X4935514Y-3711900D01*
X4930036Y-3715420D01*
X4921508Y-3725263D01*
X4916098Y-3737109D01*
X4916098Y-3737109D01*
X4914244Y-3750000D01*
X4914244Y-3750000D01*
X4066187Y-3750000D01*
X4066187Y-3565614D01*
X4067645Y-3562092D01*
X4068474Y-3561424D01*
X4070700Y-3559994D01*
X4079229Y-3550151D01*
X4084639Y-3538305D01*
X4086493Y-3525414D01*
X4084639Y-3512523D01*
X4079229Y-3500676D01*
X4070700Y-3490834D01*
X4059744Y-3483793D01*
X4047249Y-3480124D01*
X4034225Y-3480124D01*
X4021729Y-3483793D01*
X4017087Y-3486776D01*
X4010773Y-3490834D01*
X4002245Y-3500676D01*
X3996835Y-3512523D01*
X3996834Y-3512523D01*
X3994981Y-3525414D01*
X3994981Y-3525414D01*
X164921Y-3525414D01*
X164928Y-3480000D01*
X5298507Y-3480000D01*
X5300065Y-3490834D01*
X5300361Y-3492891D01*
X5305771Y-3504737D01*
X5314300Y-3514580D01*
X5325256Y-3521621D01*
X5337751Y-3525290D01*
X5337752Y-3525290D01*
X5350775Y-3525290D01*
X5350775Y-3525290D01*
X5363271Y-3521621D01*
X5374227Y-3514580D01*
X5382755Y-3504737D01*
X5388165Y-3492891D01*
X5390019Y-3480000D01*
X5389922Y-3479323D01*
X5389044Y-3473223D01*
X5388165Y-3467109D01*
X5382755Y-3455263D01*
X5374227Y-3445420D01*
X5363271Y-3438379D01*
X5350775Y-3434710D01*
X5337751Y-3434710D01*
X5325256Y-3438379D01*
X5323786Y-3439324D01*
X5314299Y-3445420D01*
X5305771Y-3455263D01*
X5300361Y-3467109D01*
X5300361Y-3467109D01*
X5298507Y-3480000D01*
X5298507Y-3480000D01*
X164928Y-3480000D01*
X164947Y-3350000D01*
X1979213Y-3350000D01*
X1981197Y-3368876D01*
X1984129Y-3377901D01*
X1987062Y-3386927D01*
X1987062Y-3386927D01*
X1996037Y-3402472D01*
X1996551Y-3403363D01*
X2009251Y-3417468D01*
X2024606Y-3428624D01*
X2041945Y-3436344D01*
X2060510Y-3440290D01*
X2060510Y-3440290D01*
X2079490Y-3440290D01*
X2079490Y-3440290D01*
X2098055Y-3436344D01*
X2115394Y-3428624D01*
X2130749Y-3417468D01*
X2143449Y-3403363D01*
X2152938Y-3386926D01*
X2158803Y-3368876D01*
X2160787Y-3350000D01*
X2158803Y-3331124D01*
X2152938Y-3313073D01*
X2143449Y-3296637D01*
X2134554Y-3286759D01*
X4074646Y-3286759D01*
X4076066Y-3296637D01*
X4076499Y-3299649D01*
X4081910Y-3311496D01*
X4090438Y-3321338D01*
X4101394Y-3328379D01*
X4113890Y-3332048D01*
X4113890Y-3332048D01*
X4126913Y-3332048D01*
X4126913Y-3332048D01*
X4139409Y-3328379D01*
X4150365Y-3321338D01*
X4158894Y-3311496D01*
X4164304Y-3299649D01*
X4166157Y-3286758D01*
X4164304Y-3273868D01*
X4158894Y-3262021D01*
X4150365Y-3252179D01*
X4139409Y-3245138D01*
X4126913Y-3241468D01*
X4113890Y-3241468D01*
X4101394Y-3245138D01*
X4097210Y-3247827D01*
X4090438Y-3252179D01*
X4081910Y-3262021D01*
X4076499Y-3273868D01*
X4076499Y-3273868D01*
X4074646Y-3286758D01*
X4074646Y-3286759D01*
X2134554Y-3286759D01*
X2130749Y-3282532D01*
X2115394Y-3271376D01*
X2098055Y-3263656D01*
X2079490Y-3259710D01*
X2060510Y-3259710D01*
X2052618Y-3261387D01*
X2041945Y-3263656D01*
X2041945Y-3263656D01*
X2041945Y-3263656D01*
X2024606Y-3271376D01*
X2024606Y-3271376D01*
X2024606Y-3271376D01*
X2009252Y-3282532D01*
X2009251Y-3282532D01*
X2009251Y-3282532D01*
X2005446Y-3286758D01*
X1996551Y-3296637D01*
X1996551Y-3296637D01*
X1987062Y-3313073D01*
X1987062Y-3313073D01*
X1981197Y-3331124D01*
X1980073Y-3341811D01*
X1979213Y-3350000D01*
X164947Y-3350000D01*
X164965Y-3231779D01*
X2386997Y-3231779D01*
X2388199Y-3237820D01*
X2388199Y-3237821D01*
X2388199Y-3237821D01*
X2388199Y-3237821D01*
X2389657Y-3241341D01*
X2389658Y-3241343D01*
X2391718Y-3244912D01*
X2391718Y-3244912D01*
X2391719Y-3244912D01*
X2394736Y-3247228D01*
X2398203Y-3249888D01*
X2398203Y-3249888D01*
X2401724Y-3251347D01*
X2401725Y-3251347D01*
X2401725Y-3251347D01*
X2403793Y-3251758D01*
X2407767Y-3252548D01*
X2407767Y-3252548D01*
X2677807Y-3252548D01*
X2677807Y-3252548D01*
X2683849Y-3251347D01*
X2687371Y-3249888D01*
X2690941Y-3247827D01*
X2695916Y-3241342D01*
X2697375Y-3237821D01*
X2698577Y-3231778D01*
X2698577Y-3134586D01*
X3924981Y-3134586D01*
X3926835Y-3147477D01*
X3932245Y-3159324D01*
X3940773Y-3169166D01*
X3951729Y-3176207D01*
X3964225Y-3179876D01*
X3964225Y-3179876D01*
X3977248Y-3179876D01*
X3977249Y-3179876D01*
X3989744Y-3176207D01*
X4000700Y-3169166D01*
X4009229Y-3159324D01*
X4014639Y-3147477D01*
X4016493Y-3134586D01*
X4014639Y-3121695D01*
X4009229Y-3109849D01*
X4000700Y-3100006D01*
X3989744Y-3092965D01*
X3977249Y-3089296D01*
X3964225Y-3089296D01*
X3951729Y-3092965D01*
X3946832Y-3096113D01*
X3940773Y-3100006D01*
X3932245Y-3109849D01*
X3926835Y-3121695D01*
X3926834Y-3121696D01*
X3926136Y-3126557D01*
X3924981Y-3134586D01*
X2698577Y-3134586D01*
X2698577Y-2946759D01*
X4264646Y-2946759D01*
X4266084Y-2956759D01*
X4266499Y-2959649D01*
X4271910Y-2971496D01*
X4280438Y-2981338D01*
X4291394Y-2988379D01*
X4303890Y-2992048D01*
X4303890Y-2992048D01*
X4316913Y-2992048D01*
X4316913Y-2992048D01*
X4329409Y-2988379D01*
X4340365Y-2981338D01*
X4348894Y-2971496D01*
X4354304Y-2959649D01*
X4355439Y-2951759D01*
X4609646Y-2951759D01*
X4610365Y-2956758D01*
X4611499Y-2964649D01*
X4616910Y-2976496D01*
X4625438Y-2986338D01*
X4636394Y-2993379D01*
X4648890Y-2997048D01*
X4648890Y-2997048D01*
X4661913Y-2997048D01*
X4661913Y-2997048D01*
X4674409Y-2993379D01*
X4685365Y-2986338D01*
X4693894Y-2976496D01*
X4699304Y-2964649D01*
X4701157Y-2951759D01*
X4894646Y-2951759D01*
X4895365Y-2956758D01*
X4896499Y-2964649D01*
X4901910Y-2976496D01*
X4910438Y-2986338D01*
X4921394Y-2993379D01*
X4933890Y-2997048D01*
X4933890Y-2997048D01*
X4946913Y-2997048D01*
X4946913Y-2997048D01*
X4959409Y-2993379D01*
X4970365Y-2986338D01*
X4978894Y-2976496D01*
X4984304Y-2964649D01*
X4985439Y-2956759D01*
X5094646Y-2956759D01*
X5096403Y-2968977D01*
X5096499Y-2969649D01*
X5101910Y-2981496D01*
X5110438Y-2991338D01*
X5121394Y-2998379D01*
X5133890Y-3002048D01*
X5133890Y-3002048D01*
X5146913Y-3002048D01*
X5146913Y-3002048D01*
X5159409Y-2998379D01*
X5170365Y-2991338D01*
X5178894Y-2981496D01*
X5184304Y-2969649D01*
X5186157Y-2956758D01*
X5185873Y-2954781D01*
X5184957Y-2948410D01*
X5184304Y-2943868D01*
X5178894Y-2932021D01*
X5170365Y-2922179D01*
X5159409Y-2915138D01*
X5146913Y-2911468D01*
X5133890Y-2911468D01*
X5121394Y-2915138D01*
X5119584Y-2916301D01*
X5110438Y-2922179D01*
X5101910Y-2932021D01*
X5096499Y-2943868D01*
X5096499Y-2943868D01*
X5094646Y-2956758D01*
X5094646Y-2956759D01*
X4985439Y-2956759D01*
X4986157Y-2951758D01*
X4985981Y-2950535D01*
X4984655Y-2941308D01*
X4984304Y-2938868D01*
X4978894Y-2927021D01*
X4970365Y-2917179D01*
X4959409Y-2910138D01*
X4946913Y-2906468D01*
X4933890Y-2906468D01*
X4921394Y-2910138D01*
X4918218Y-2912179D01*
X4910438Y-2917179D01*
X4901910Y-2927021D01*
X4896499Y-2938868D01*
X4896499Y-2938868D01*
X4894646Y-2951758D01*
X4894646Y-2951759D01*
X4701157Y-2951759D01*
X4701157Y-2951758D01*
X4700981Y-2950535D01*
X4699655Y-2941308D01*
X4699304Y-2938868D01*
X4693894Y-2927021D01*
X4685365Y-2917179D01*
X4674409Y-2910138D01*
X4661913Y-2906468D01*
X4648890Y-2906468D01*
X4636394Y-2910138D01*
X4633218Y-2912179D01*
X4625438Y-2917179D01*
X4616910Y-2927021D01*
X4611499Y-2938868D01*
X4611499Y-2938868D01*
X4609646Y-2951758D01*
X4609646Y-2951759D01*
X4355439Y-2951759D01*
X4356157Y-2946758D01*
X4354304Y-2933868D01*
X4348894Y-2922021D01*
X4340365Y-2912179D01*
X4329409Y-2905138D01*
X4316913Y-2901468D01*
X4303890Y-2901468D01*
X4291394Y-2905138D01*
X4287679Y-2907525D01*
X4280438Y-2912179D01*
X4271910Y-2922021D01*
X4266499Y-2933868D01*
X4266499Y-2933868D01*
X4264646Y-2946758D01*
X4264646Y-2946759D01*
X2698577Y-2946759D01*
X2698577Y-2921738D01*
X2697375Y-2915696D01*
X2695916Y-2912175D01*
X2694252Y-2909292D01*
X2693855Y-2908605D01*
X2687371Y-2903629D01*
X2687371Y-2903629D01*
X2685150Y-2902709D01*
X2683849Y-2902170D01*
X2683849Y-2902170D01*
X2683848Y-2902170D01*
X2677807Y-2900968D01*
X2677807Y-2900968D01*
X2407767Y-2900968D01*
X2407767Y-2900968D01*
X2401725Y-2902170D01*
X2401725Y-2902170D01*
X2401724Y-2902170D01*
X2401724Y-2902170D01*
X2401724Y-2902171D01*
X2398204Y-2903629D01*
X2398203Y-2903629D01*
X2394633Y-2905690D01*
X2389657Y-2912174D01*
X2389657Y-2912175D01*
X2388199Y-2915695D01*
X2388199Y-2915697D01*
X2386997Y-2921738D01*
X2386997Y-3231779D01*
X164965Y-3231779D01*
X165003Y-2975414D01*
X801974Y-2975414D01*
X803886Y-2996047D01*
X803886Y-2996047D01*
X809389Y-3015389D01*
X809557Y-3015977D01*
X812404Y-3021695D01*
X818793Y-3034526D01*
X818793Y-3034527D01*
X831280Y-3051062D01*
X831280Y-3051062D01*
X844255Y-3062890D01*
X846594Y-3065022D01*
X864212Y-3075931D01*
X883534Y-3083416D01*
X903902Y-3087224D01*
X903903Y-3087224D01*
X924623Y-3087224D01*
X924624Y-3087224D01*
X944992Y-3083416D01*
X964315Y-3075931D01*
X981932Y-3065022D01*
X997246Y-3051062D01*
X1009733Y-3034526D01*
X1018969Y-3015977D01*
X1024640Y-2996047D01*
X1026552Y-2975414D01*
X1055974Y-2975414D01*
X1057886Y-2996047D01*
X1057886Y-2996047D01*
X1063389Y-3015389D01*
X1063557Y-3015977D01*
X1066404Y-3021695D01*
X1072793Y-3034526D01*
X1072793Y-3034527D01*
X1085281Y-3051062D01*
X1085281Y-3051062D01*
X1098255Y-3062890D01*
X1100594Y-3065022D01*
X1118212Y-3075931D01*
X1137534Y-3083416D01*
X1157902Y-3087224D01*
X1157903Y-3087224D01*
X1178623Y-3087224D01*
X1178624Y-3087224D01*
X1198992Y-3083416D01*
X1218315Y-3075931D01*
X1235932Y-3065022D01*
X1251246Y-3051062D01*
X1263733Y-3034526D01*
X1272017Y-3017891D01*
X1274892Y-3015389D01*
X1278694Y-3015653D01*
X1281196Y-3018528D01*
X1281302Y-3018888D01*
X1282448Y-3023412D01*
X1282448Y-3023413D01*
X1292255Y-3045771D01*
X1301632Y-3060123D01*
X1373827Y-2987929D01*
X1376314Y-2996398D01*
X1384087Y-3008494D01*
X1394953Y-3017909D01*
X1408032Y-3023882D01*
X1409504Y-3024093D01*
X1337485Y-3096113D01*
X1341410Y-3099168D01*
X1341410Y-3099168D01*
X1362882Y-3110788D01*
X1385975Y-3118715D01*
X1410056Y-3122734D01*
X1434470Y-3122734D01*
X1458552Y-3118715D01*
X1481644Y-3110788D01*
X1503116Y-3099168D01*
X1503116Y-3099167D01*
X1507041Y-3096113D01*
X1435022Y-3024093D01*
X1436495Y-3023882D01*
X1449573Y-3017909D01*
X1460439Y-3008494D01*
X1468212Y-2996398D01*
X1470699Y-2987929D01*
X1542894Y-3060123D01*
X1552271Y-3045771D01*
X1562078Y-3023413D01*
X1562078Y-3023412D01*
X1563224Y-3018888D01*
X1565502Y-3015833D01*
X1569274Y-3015283D01*
X1572330Y-3017561D01*
X1572509Y-3017891D01*
X1580793Y-3034526D01*
X1580793Y-3034527D01*
X1593280Y-3051062D01*
X1593280Y-3051062D01*
X1606255Y-3062890D01*
X1608594Y-3065022D01*
X1626212Y-3075931D01*
X1645534Y-3083416D01*
X1665902Y-3087224D01*
X1665903Y-3087224D01*
X1686623Y-3087224D01*
X1686624Y-3087224D01*
X1706992Y-3083416D01*
X1726315Y-3075931D01*
X1743932Y-3065022D01*
X1759246Y-3051062D01*
X1771733Y-3034526D01*
X1780969Y-3015977D01*
X1786640Y-2996047D01*
X1788552Y-2975414D01*
X1817974Y-2975414D01*
X1818858Y-2984948D01*
X1819886Y-2996047D01*
X1819886Y-2996047D01*
X1825389Y-3015389D01*
X1825557Y-3015977D01*
X1828404Y-3021695D01*
X1834793Y-3034526D01*
X1834793Y-3034527D01*
X1847280Y-3051062D01*
X1847280Y-3051062D01*
X1860255Y-3062890D01*
X1862594Y-3065022D01*
X1880212Y-3075931D01*
X1899534Y-3083416D01*
X1919902Y-3087224D01*
X1919903Y-3087224D01*
X1940623Y-3087224D01*
X1940624Y-3087224D01*
X1960992Y-3083416D01*
X1980315Y-3075931D01*
X1997932Y-3065022D01*
X2013246Y-3051062D01*
X2025733Y-3034526D01*
X2034969Y-3015977D01*
X2040640Y-2996047D01*
X2042552Y-2975414D01*
X2071974Y-2975414D01*
X2073886Y-2996047D01*
X2073886Y-2996047D01*
X2079389Y-3015389D01*
X2079557Y-3015977D01*
X2082404Y-3021695D01*
X2088793Y-3034526D01*
X2088793Y-3034527D01*
X2101281Y-3051062D01*
X2101281Y-3051062D01*
X2114255Y-3062890D01*
X2116594Y-3065022D01*
X2134212Y-3075931D01*
X2153534Y-3083416D01*
X2173902Y-3087224D01*
X2173903Y-3087224D01*
X2194623Y-3087224D01*
X2194624Y-3087224D01*
X2214992Y-3083416D01*
X2234315Y-3075931D01*
X2251932Y-3065022D01*
X2267246Y-3051062D01*
X2279733Y-3034526D01*
X2288970Y-3015977D01*
X2294640Y-2996047D01*
X2296552Y-2975414D01*
X2294640Y-2954781D01*
X2288970Y-2934850D01*
X2282440Y-2921738D01*
X2279733Y-2916301D01*
X2279733Y-2916301D01*
X2267246Y-2899765D01*
X2267246Y-2899765D01*
X2251932Y-2885805D01*
X2234315Y-2874897D01*
X2234315Y-2874897D01*
X2227212Y-2872145D01*
X2214993Y-2867411D01*
X2194624Y-2863604D01*
X2194624Y-2863604D01*
X2173902Y-2863604D01*
X2173902Y-2863604D01*
X2153534Y-2867411D01*
X2134211Y-2874897D01*
X2116594Y-2885805D01*
X2101281Y-2899765D01*
X2101281Y-2899765D01*
X2088793Y-2916301D01*
X2088793Y-2916301D01*
X2079557Y-2934850D01*
X2073886Y-2954780D01*
X2073886Y-2954781D01*
X2071974Y-2975414D01*
X2042552Y-2975414D01*
X2040640Y-2954781D01*
X2034969Y-2934850D01*
X2028440Y-2921738D01*
X2025733Y-2916301D01*
X2025733Y-2916301D01*
X2013246Y-2899765D01*
X2013246Y-2899765D01*
X1997932Y-2885805D01*
X1980315Y-2874897D01*
X1980315Y-2874897D01*
X1973212Y-2872145D01*
X1960992Y-2867411D01*
X1940624Y-2863604D01*
X1940624Y-2863604D01*
X1919902Y-2863604D01*
X1919902Y-2863604D01*
X1899534Y-2867411D01*
X1880211Y-2874897D01*
X1862594Y-2885805D01*
X1847280Y-2899765D01*
X1847280Y-2899765D01*
X1834793Y-2916301D01*
X1834793Y-2916301D01*
X1825557Y-2934850D01*
X1819886Y-2954780D01*
X1819886Y-2954781D01*
X1818102Y-2974034D01*
X1817974Y-2975414D01*
X1788552Y-2975414D01*
X1786640Y-2954781D01*
X1780969Y-2934850D01*
X1774440Y-2921738D01*
X1771733Y-2916301D01*
X1771733Y-2916301D01*
X1759246Y-2899765D01*
X1759246Y-2899765D01*
X1743932Y-2885805D01*
X1726315Y-2874897D01*
X1726315Y-2874897D01*
X1719212Y-2872145D01*
X1706992Y-2867411D01*
X1686624Y-2863604D01*
X1686624Y-2863604D01*
X1665902Y-2863604D01*
X1665902Y-2863604D01*
X1645534Y-2867411D01*
X1626211Y-2874897D01*
X1608594Y-2885805D01*
X1593280Y-2899765D01*
X1593280Y-2899765D01*
X1580793Y-2916301D01*
X1580793Y-2916301D01*
X1572509Y-2932937D01*
X1569634Y-2935439D01*
X1565832Y-2935175D01*
X1563330Y-2932299D01*
X1563224Y-2931939D01*
X1562078Y-2927416D01*
X1562078Y-2927414D01*
X1552271Y-2905057D01*
X1542894Y-2890704D01*
X1470699Y-2962899D01*
X1468212Y-2954429D01*
X1460439Y-2942334D01*
X1449573Y-2932919D01*
X1436495Y-2926946D01*
X1435022Y-2926734D01*
X1507041Y-2854715D01*
X1503116Y-2851660D01*
X1503116Y-2851660D01*
X1481644Y-2840040D01*
X1458552Y-2832112D01*
X1434470Y-2828094D01*
X1410056Y-2828094D01*
X1385975Y-2832112D01*
X1362882Y-2840040D01*
X1341411Y-2851660D01*
X1337485Y-2854715D01*
X1409504Y-2926734D01*
X1408032Y-2926946D01*
X1394953Y-2932919D01*
X1384087Y-2942334D01*
X1376314Y-2954429D01*
X1373827Y-2962899D01*
X1301632Y-2890704D01*
X1292255Y-2905056D01*
X1282448Y-2927414D01*
X1282448Y-2927415D01*
X1281302Y-2931939D01*
X1279024Y-2934995D01*
X1275252Y-2935544D01*
X1272196Y-2933266D01*
X1272017Y-2932938D01*
X1266440Y-2921738D01*
X1263733Y-2916301D01*
X1263733Y-2916301D01*
X1251246Y-2899765D01*
X1251246Y-2899765D01*
X1235932Y-2885805D01*
X1218315Y-2874897D01*
X1218315Y-2874897D01*
X1211212Y-2872145D01*
X1198993Y-2867411D01*
X1178624Y-2863604D01*
X1178624Y-2863604D01*
X1157902Y-2863604D01*
X1157902Y-2863604D01*
X1137534Y-2867411D01*
X1118211Y-2874897D01*
X1100594Y-2885805D01*
X1085281Y-2899765D01*
X1085281Y-2899765D01*
X1072793Y-2916301D01*
X1072793Y-2916301D01*
X1063557Y-2934850D01*
X1057886Y-2954780D01*
X1057886Y-2954781D01*
X1055974Y-2975414D01*
X1026552Y-2975414D01*
X1024640Y-2954781D01*
X1018969Y-2934850D01*
X1012440Y-2921738D01*
X1009733Y-2916301D01*
X1009733Y-2916301D01*
X997246Y-2899765D01*
X997246Y-2899765D01*
X981932Y-2885805D01*
X964315Y-2874897D01*
X964315Y-2874897D01*
X957212Y-2872145D01*
X944992Y-2867411D01*
X924624Y-2863604D01*
X924624Y-2863604D01*
X903902Y-2863604D01*
X903902Y-2863604D01*
X883534Y-2867411D01*
X864211Y-2874897D01*
X846594Y-2885805D01*
X831280Y-2899765D01*
X831280Y-2899765D01*
X818793Y-2916301D01*
X818793Y-2916301D01*
X809557Y-2934850D01*
X803886Y-2954780D01*
X803886Y-2954781D01*
X801974Y-2975414D01*
X165003Y-2975414D01*
X165082Y-2447414D01*
X1966673Y-2447414D01*
X1968587Y-2466843D01*
X1974254Y-2485525D01*
X1983457Y-2502743D01*
X1995843Y-2517834D01*
X2010934Y-2530220D01*
X2028152Y-2539423D01*
X2046834Y-2545090D01*
X2061467Y-2546531D01*
X2066263Y-2547003D01*
X2066263Y-2547003D01*
X2066263Y-2547003D01*
X2070695Y-2546567D01*
X2085692Y-2545090D01*
X2104374Y-2539423D01*
X2121592Y-2530220D01*
X2136684Y-2517834D01*
X2149069Y-2502743D01*
X2158272Y-2485525D01*
X2163939Y-2466843D01*
X2165853Y-2447414D01*
X2220674Y-2447414D01*
X2222587Y-2466843D01*
X2228254Y-2485525D01*
X2237457Y-2502743D01*
X2249843Y-2517834D01*
X2264934Y-2530220D01*
X2282152Y-2539423D01*
X2300834Y-2545090D01*
X2315467Y-2546531D01*
X2320263Y-2547003D01*
X2320263Y-2547003D01*
X2320263Y-2547003D01*
X2324695Y-2546567D01*
X2339692Y-2545090D01*
X2358374Y-2539423D01*
X2375592Y-2530220D01*
X2390684Y-2517834D01*
X2403069Y-2502743D01*
X2412272Y-2485525D01*
X2417939Y-2466843D01*
X2419853Y-2447414D01*
X2474674Y-2447414D01*
X2476587Y-2466843D01*
X2482254Y-2485525D01*
X2491457Y-2502743D01*
X2503843Y-2517834D01*
X2518934Y-2530220D01*
X2536152Y-2539423D01*
X2554834Y-2545090D01*
X2569467Y-2546531D01*
X2574263Y-2547003D01*
X2574263Y-2547003D01*
X2574263Y-2547003D01*
X2578695Y-2546567D01*
X2593692Y-2545090D01*
X2612374Y-2539423D01*
X2629592Y-2530220D01*
X2644684Y-2517834D01*
X2657069Y-2502743D01*
X2666272Y-2485525D01*
X2671939Y-2466843D01*
X2673853Y-2447414D01*
X2728674Y-2447414D01*
X2730587Y-2466843D01*
X2736254Y-2485525D01*
X2745457Y-2502743D01*
X2757843Y-2517834D01*
X2772934Y-2530220D01*
X2790152Y-2539423D01*
X2808834Y-2545090D01*
X2823467Y-2546531D01*
X2828263Y-2547003D01*
X2828263Y-2547003D01*
X2828263Y-2547003D01*
X2832695Y-2546567D01*
X2847692Y-2545090D01*
X2866374Y-2539423D01*
X2883592Y-2530220D01*
X2898684Y-2517834D01*
X2911069Y-2502743D01*
X2920272Y-2485525D01*
X2925939Y-2466843D01*
X2927853Y-2447414D01*
X2982673Y-2447414D01*
X2984587Y-2466843D01*
X2990254Y-2485525D01*
X2999457Y-2502743D01*
X3011843Y-2517834D01*
X3026934Y-2530220D01*
X3044152Y-2539423D01*
X3062834Y-2545090D01*
X3077467Y-2546531D01*
X3082263Y-2547003D01*
X3082263Y-2547003D01*
X3082263Y-2547003D01*
X3086695Y-2546567D01*
X3101692Y-2545090D01*
X3120374Y-2539423D01*
X3137592Y-2530220D01*
X3152684Y-2517834D01*
X3165069Y-2502743D01*
X3174272Y-2485525D01*
X3179939Y-2466843D01*
X3181853Y-2447414D01*
X3236673Y-2447414D01*
X3238587Y-2466843D01*
X3244254Y-2485525D01*
X3253457Y-2502743D01*
X3265843Y-2517834D01*
X3280934Y-2530220D01*
X3298152Y-2539423D01*
X3316834Y-2545090D01*
X3331467Y-2546531D01*
X3336263Y-2547003D01*
X3336263Y-2547003D01*
X3336263Y-2547003D01*
X3340695Y-2546567D01*
X3355692Y-2545090D01*
X3374374Y-2539423D01*
X3391592Y-2530220D01*
X3406684Y-2517834D01*
X3419069Y-2502743D01*
X3428272Y-2485525D01*
X3433939Y-2466843D01*
X3435853Y-2447414D01*
X3490673Y-2447414D01*
X3492587Y-2466843D01*
X3498254Y-2485525D01*
X3507457Y-2502743D01*
X3519843Y-2517834D01*
X3534934Y-2530220D01*
X3552152Y-2539423D01*
X3570834Y-2545090D01*
X3585467Y-2546531D01*
X3590263Y-2547003D01*
X3590263Y-2547003D01*
X3590263Y-2547003D01*
X3594695Y-2546567D01*
X3609692Y-2545090D01*
X3628374Y-2539423D01*
X3645592Y-2530220D01*
X3660684Y-2517834D01*
X3673069Y-2502743D01*
X3682272Y-2485525D01*
X3687939Y-2466843D01*
X3689853Y-2447414D01*
X3744673Y-2447414D01*
X3746587Y-2466843D01*
X3752254Y-2485525D01*
X3761457Y-2502743D01*
X3773843Y-2517834D01*
X3788934Y-2530220D01*
X3806152Y-2539423D01*
X3824834Y-2545090D01*
X3839467Y-2546531D01*
X3844263Y-2547003D01*
X3844263Y-2547003D01*
X3844263Y-2547003D01*
X3848695Y-2546567D01*
X3863692Y-2545090D01*
X3882374Y-2539423D01*
X3899592Y-2530220D01*
X3914684Y-2517834D01*
X3927069Y-2502743D01*
X3936272Y-2485525D01*
X3941939Y-2466843D01*
X3943853Y-2447414D01*
X3998673Y-2447414D01*
X4000587Y-2466843D01*
X4006254Y-2485525D01*
X4015457Y-2502743D01*
X4027843Y-2517834D01*
X4042934Y-2530220D01*
X4060152Y-2539423D01*
X4078834Y-2545090D01*
X4093467Y-2546531D01*
X4098263Y-2547003D01*
X4098263Y-2547003D01*
X4098263Y-2547003D01*
X4102695Y-2546567D01*
X4117692Y-2545090D01*
X4136374Y-2539423D01*
X4153592Y-2530220D01*
X4168684Y-2517834D01*
X4181069Y-2502743D01*
X4190272Y-2485525D01*
X4195939Y-2466843D01*
X4197853Y-2447414D01*
X4252674Y-2447414D01*
X4254587Y-2466843D01*
X4260254Y-2485525D01*
X4269457Y-2502743D01*
X4281843Y-2517834D01*
X4296934Y-2530220D01*
X4314152Y-2539423D01*
X4332834Y-2545090D01*
X4347467Y-2546531D01*
X4352263Y-2547003D01*
X4352263Y-2547003D01*
X4352263Y-2547003D01*
X4356695Y-2546567D01*
X4371692Y-2545090D01*
X4390374Y-2539423D01*
X4407592Y-2530220D01*
X4422684Y-2517834D01*
X4435069Y-2502743D01*
X4444272Y-2485525D01*
X4449939Y-2466843D01*
X4451853Y-2447414D01*
X4506674Y-2447414D01*
X4508587Y-2466843D01*
X4514254Y-2485525D01*
X4523457Y-2502743D01*
X4535843Y-2517834D01*
X4550934Y-2530220D01*
X4568152Y-2539423D01*
X4586834Y-2545090D01*
X4601467Y-2546531D01*
X4606263Y-2547003D01*
X4606263Y-2547003D01*
X4606263Y-2547003D01*
X4610695Y-2546567D01*
X4625692Y-2545090D01*
X4644374Y-2539423D01*
X4661592Y-2530220D01*
X4676684Y-2517834D01*
X4689069Y-2502743D01*
X4698272Y-2485525D01*
X4703939Y-2466843D01*
X4705853Y-2447414D01*
X4760674Y-2447414D01*
X4762587Y-2466843D01*
X4768254Y-2485525D01*
X4777457Y-2502743D01*
X4789843Y-2517834D01*
X4804934Y-2530220D01*
X4822152Y-2539423D01*
X4840834Y-2545090D01*
X4855467Y-2546531D01*
X4860263Y-2547003D01*
X4860263Y-2547003D01*
X4860263Y-2547003D01*
X4864695Y-2546567D01*
X4879692Y-2545090D01*
X4898374Y-2539423D01*
X4915592Y-2530220D01*
X4930684Y-2517834D01*
X4943069Y-2502743D01*
X4952272Y-2485525D01*
X4957939Y-2466843D01*
X4959853Y-2447414D01*
X4957939Y-2427985D01*
X4952272Y-2409303D01*
X4943069Y-2392085D01*
X4930684Y-2376993D01*
X4915592Y-2364608D01*
X4898374Y-2355405D01*
X4879692Y-2349738D01*
X4879692Y-2349738D01*
X4860263Y-2347824D01*
X4860263Y-2347824D01*
X4840834Y-2349738D01*
X4832699Y-2352206D01*
X4822152Y-2355405D01*
X4804934Y-2364608D01*
X4804934Y-2364608D01*
X4804934Y-2364608D01*
X4789843Y-2376993D01*
X4777458Y-2392084D01*
X4777457Y-2392085D01*
X4777457Y-2392085D01*
X4768254Y-2409303D01*
X4765529Y-2418286D01*
X4762587Y-2427985D01*
X4761002Y-2444081D01*
X4760674Y-2447414D01*
X4705853Y-2447414D01*
X4703939Y-2427985D01*
X4698272Y-2409303D01*
X4689069Y-2392085D01*
X4676684Y-2376993D01*
X4661592Y-2364608D01*
X4644374Y-2355405D01*
X4625692Y-2349738D01*
X4625692Y-2349738D01*
X4606263Y-2347824D01*
X4606263Y-2347824D01*
X4586834Y-2349738D01*
X4578699Y-2352206D01*
X4568152Y-2355405D01*
X4550934Y-2364608D01*
X4550934Y-2364608D01*
X4550934Y-2364608D01*
X4535843Y-2376993D01*
X4523458Y-2392084D01*
X4523457Y-2392085D01*
X4523457Y-2392085D01*
X4514254Y-2409303D01*
X4511529Y-2418286D01*
X4508587Y-2427985D01*
X4507002Y-2444081D01*
X4506674Y-2447414D01*
X4451853Y-2447414D01*
X4449939Y-2427985D01*
X4444272Y-2409303D01*
X4435069Y-2392085D01*
X4422684Y-2376993D01*
X4407592Y-2364608D01*
X4390374Y-2355405D01*
X4371692Y-2349738D01*
X4371692Y-2349738D01*
X4352263Y-2347824D01*
X4352263Y-2347824D01*
X4332834Y-2349738D01*
X4324699Y-2352206D01*
X4314152Y-2355405D01*
X4296934Y-2364608D01*
X4296934Y-2364608D01*
X4296934Y-2364608D01*
X4281843Y-2376993D01*
X4269458Y-2392084D01*
X4269457Y-2392085D01*
X4269457Y-2392085D01*
X4260254Y-2409303D01*
X4257529Y-2418286D01*
X4254587Y-2427985D01*
X4253002Y-2444081D01*
X4252674Y-2447414D01*
X4197853Y-2447414D01*
X4195939Y-2427985D01*
X4190272Y-2409303D01*
X4181069Y-2392085D01*
X4168684Y-2376993D01*
X4153592Y-2364608D01*
X4136374Y-2355405D01*
X4117692Y-2349738D01*
X4117692Y-2349738D01*
X4098263Y-2347824D01*
X4098263Y-2347824D01*
X4078834Y-2349738D01*
X4070699Y-2352206D01*
X4060152Y-2355405D01*
X4042934Y-2364608D01*
X4042934Y-2364608D01*
X4042934Y-2364608D01*
X4027843Y-2376993D01*
X4015458Y-2392084D01*
X4015457Y-2392085D01*
X4015457Y-2392085D01*
X4006254Y-2409303D01*
X4003529Y-2418286D01*
X4000587Y-2427985D01*
X3999002Y-2444081D01*
X3998673Y-2447414D01*
X3943853Y-2447414D01*
X3941939Y-2427985D01*
X3936272Y-2409303D01*
X3927069Y-2392085D01*
X3914684Y-2376993D01*
X3899592Y-2364608D01*
X3882374Y-2355405D01*
X3863692Y-2349738D01*
X3863692Y-2349738D01*
X3844263Y-2347824D01*
X3844263Y-2347824D01*
X3824834Y-2349738D01*
X3816699Y-2352206D01*
X3806152Y-2355405D01*
X3788934Y-2364608D01*
X3788934Y-2364608D01*
X3788934Y-2364608D01*
X3773843Y-2376993D01*
X3761458Y-2392084D01*
X3761457Y-2392085D01*
X3761457Y-2392085D01*
X3752254Y-2409303D01*
X3749529Y-2418286D01*
X3746587Y-2427985D01*
X3745002Y-2444081D01*
X3744673Y-2447414D01*
X3689853Y-2447414D01*
X3687939Y-2427985D01*
X3682272Y-2409303D01*
X3673069Y-2392085D01*
X3660684Y-2376993D01*
X3645592Y-2364608D01*
X3628374Y-2355405D01*
X3609692Y-2349738D01*
X3609692Y-2349738D01*
X3590263Y-2347824D01*
X3590263Y-2347824D01*
X3570834Y-2349738D01*
X3562699Y-2352206D01*
X3552152Y-2355405D01*
X3534934Y-2364608D01*
X3534934Y-2364608D01*
X3534934Y-2364608D01*
X3519843Y-2376993D01*
X3507458Y-2392084D01*
X3507457Y-2392085D01*
X3507457Y-2392085D01*
X3498254Y-2409303D01*
X3495529Y-2418286D01*
X3492587Y-2427985D01*
X3491002Y-2444081D01*
X3490673Y-2447414D01*
X3435853Y-2447414D01*
X3433939Y-2427985D01*
X3428272Y-2409303D01*
X3419069Y-2392085D01*
X3406684Y-2376993D01*
X3391592Y-2364608D01*
X3374374Y-2355405D01*
X3355692Y-2349738D01*
X3355692Y-2349738D01*
X3336263Y-2347824D01*
X3336263Y-2347824D01*
X3316834Y-2349738D01*
X3308699Y-2352206D01*
X3298152Y-2355405D01*
X3280934Y-2364608D01*
X3280934Y-2364608D01*
X3280934Y-2364608D01*
X3265843Y-2376993D01*
X3253458Y-2392084D01*
X3253457Y-2392085D01*
X3253457Y-2392085D01*
X3244254Y-2409303D01*
X3241529Y-2418286D01*
X3238587Y-2427985D01*
X3237002Y-2444081D01*
X3236673Y-2447414D01*
X3181853Y-2447414D01*
X3179939Y-2427985D01*
X3174272Y-2409303D01*
X3165069Y-2392085D01*
X3152684Y-2376993D01*
X3137592Y-2364608D01*
X3120374Y-2355405D01*
X3101692Y-2349738D01*
X3101692Y-2349738D01*
X3082263Y-2347824D01*
X3082263Y-2347824D01*
X3062834Y-2349738D01*
X3054699Y-2352206D01*
X3044152Y-2355405D01*
X3026934Y-2364608D01*
X3026934Y-2364608D01*
X3026934Y-2364608D01*
X3011843Y-2376993D01*
X2999458Y-2392084D01*
X2999457Y-2392085D01*
X2999457Y-2392085D01*
X2990254Y-2409303D01*
X2987529Y-2418286D01*
X2984587Y-2427985D01*
X2983002Y-2444081D01*
X2982673Y-2447414D01*
X2927853Y-2447414D01*
X2925939Y-2427985D01*
X2920272Y-2409303D01*
X2911069Y-2392085D01*
X2898684Y-2376993D01*
X2883592Y-2364608D01*
X2866374Y-2355405D01*
X2847692Y-2349738D01*
X2847692Y-2349738D01*
X2828263Y-2347824D01*
X2828263Y-2347824D01*
X2808834Y-2349738D01*
X2800699Y-2352206D01*
X2790152Y-2355405D01*
X2772934Y-2364608D01*
X2772934Y-2364608D01*
X2772934Y-2364608D01*
X2757843Y-2376993D01*
X2745458Y-2392084D01*
X2745457Y-2392085D01*
X2745457Y-2392085D01*
X2736254Y-2409303D01*
X2733529Y-2418286D01*
X2730587Y-2427985D01*
X2729002Y-2444081D01*
X2728674Y-2447414D01*
X2673853Y-2447414D01*
X2671939Y-2427985D01*
X2666272Y-2409303D01*
X2657069Y-2392085D01*
X2644684Y-2376993D01*
X2629592Y-2364608D01*
X2612374Y-2355405D01*
X2593692Y-2349738D01*
X2593692Y-2349738D01*
X2574263Y-2347824D01*
X2574263Y-2347824D01*
X2554834Y-2349738D01*
X2546699Y-2352206D01*
X2536152Y-2355405D01*
X2518934Y-2364608D01*
X2518934Y-2364608D01*
X2518934Y-2364608D01*
X2503843Y-2376993D01*
X2491458Y-2392084D01*
X2491457Y-2392085D01*
X2491457Y-2392085D01*
X2482254Y-2409303D01*
X2479529Y-2418286D01*
X2476587Y-2427985D01*
X2475002Y-2444081D01*
X2474674Y-2447414D01*
X2419853Y-2447414D01*
X2417939Y-2427985D01*
X2412272Y-2409303D01*
X2403069Y-2392085D01*
X2390684Y-2376993D01*
X2375592Y-2364608D01*
X2358374Y-2355405D01*
X2339692Y-2349738D01*
X2339692Y-2349738D01*
X2320263Y-2347824D01*
X2320263Y-2347824D01*
X2300834Y-2349738D01*
X2292699Y-2352206D01*
X2282152Y-2355405D01*
X2264934Y-2364608D01*
X2264934Y-2364608D01*
X2264934Y-2364608D01*
X2249843Y-2376993D01*
X2237458Y-2392084D01*
X2237457Y-2392085D01*
X2237457Y-2392085D01*
X2228254Y-2409303D01*
X2225529Y-2418286D01*
X2222587Y-2427985D01*
X2221002Y-2444081D01*
X2220674Y-2447414D01*
X2165853Y-2447414D01*
X2163939Y-2427985D01*
X2158272Y-2409303D01*
X2149069Y-2392085D01*
X2136684Y-2376993D01*
X2121592Y-2364608D01*
X2104374Y-2355405D01*
X2085692Y-2349738D01*
X2085692Y-2349738D01*
X2066263Y-2347824D01*
X2066263Y-2347824D01*
X2046834Y-2349738D01*
X2038699Y-2352206D01*
X2028152Y-2355405D01*
X2010934Y-2364608D01*
X2010934Y-2364608D01*
X2010934Y-2364608D01*
X1995843Y-2376993D01*
X1983458Y-2392084D01*
X1983457Y-2392085D01*
X1983457Y-2392085D01*
X1974254Y-2409303D01*
X1971529Y-2418286D01*
X1968587Y-2427985D01*
X1967002Y-2444081D01*
X1966673Y-2447414D01*
X165082Y-2447414D01*
X165178Y-1810000D01*
X1759244Y-1810000D01*
X1760319Y-1817479D01*
X1761098Y-1822891D01*
X1766508Y-1834737D01*
X1775036Y-1844580D01*
X1785992Y-1851621D01*
X1798488Y-1855290D01*
X1798488Y-1855290D01*
X1811511Y-1855290D01*
X1811512Y-1855290D01*
X1824008Y-1851621D01*
X1834964Y-1844580D01*
X1843492Y-1834737D01*
X1848902Y-1822891D01*
X1850756Y-1810000D01*
X1848902Y-1797109D01*
X1843492Y-1785263D01*
X1834964Y-1775420D01*
X1824008Y-1768379D01*
X1811512Y-1764710D01*
X1798488Y-1764710D01*
X1785992Y-1768379D01*
X1780514Y-1771900D01*
X1775036Y-1775420D01*
X1766508Y-1785263D01*
X1761098Y-1797109D01*
X1761098Y-1797109D01*
X1759244Y-1810000D01*
X1759244Y-1810000D01*
X165178Y-1810000D01*
X165188Y-1740000D01*
X2084244Y-1740000D01*
X2086098Y-1752891D01*
X2091508Y-1764737D01*
X2100036Y-1774580D01*
X2110992Y-1781621D01*
X2123488Y-1785290D01*
X2123489Y-1785290D01*
X2136512Y-1785290D01*
X2136512Y-1785290D01*
X2149008Y-1781621D01*
X2159964Y-1774580D01*
X2168492Y-1764737D01*
X2173902Y-1752891D01*
X2175756Y-1740000D01*
X2173902Y-1727109D01*
X2168492Y-1715263D01*
X2159964Y-1705420D01*
X2149008Y-1698379D01*
X2136512Y-1694710D01*
X2123488Y-1694710D01*
X2110992Y-1698379D01*
X2108879Y-1699737D01*
X2100036Y-1705420D01*
X2091508Y-1715263D01*
X2086098Y-1727109D01*
X2086098Y-1727109D01*
X2084466Y-1738456D01*
X2084244Y-1740000D01*
X165188Y-1740000D01*
X165313Y-910000D01*
X2394981Y-910000D01*
X2396835Y-922891D01*
X2402245Y-934737D01*
X2410773Y-944580D01*
X2421729Y-951621D01*
X2434225Y-955290D01*
X2434225Y-955290D01*
X2447248Y-955290D01*
X2447249Y-955290D01*
X2459745Y-951621D01*
X2470701Y-944580D01*
X2479229Y-934737D01*
X2484639Y-922891D01*
X2486493Y-910000D01*
X2484639Y-897109D01*
X2479229Y-885263D01*
X2470701Y-875420D01*
X2459745Y-868379D01*
X2447249Y-864710D01*
X2434225Y-864710D01*
X2421729Y-868379D01*
X2416251Y-871900D01*
X2410773Y-875420D01*
X2402836Y-884580D01*
X2402245Y-885263D01*
X2396835Y-897109D01*
X2394981Y-910000D01*
X165313Y-910000D01*
X165387Y-415414D01*
X950673Y-415414D01*
X952587Y-434843D01*
X958254Y-453525D01*
X967457Y-470743D01*
X979843Y-485834D01*
X994934Y-498219D01*
X1012152Y-507423D01*
X1030834Y-513090D01*
X1045467Y-514531D01*
X1050263Y-515003D01*
X1050263Y-515003D01*
X1050263Y-515003D01*
X1054695Y-514567D01*
X1069692Y-513090D01*
X1088374Y-507423D01*
X1105592Y-498219D01*
X1120684Y-485834D01*
X1133069Y-470743D01*
X1142272Y-453525D01*
X1147939Y-434843D01*
X1149853Y-415414D01*
X1204674Y-415414D01*
X1206587Y-434843D01*
X1212254Y-453525D01*
X1221457Y-470743D01*
X1233843Y-485834D01*
X1248934Y-498219D01*
X1266152Y-507423D01*
X1284834Y-513090D01*
X1299467Y-514531D01*
X1304263Y-515003D01*
X1304263Y-515003D01*
X1304263Y-515003D01*
X1308695Y-514567D01*
X1323692Y-513090D01*
X1342374Y-507423D01*
X1359592Y-498219D01*
X1374684Y-485834D01*
X1387069Y-470743D01*
X1396272Y-453525D01*
X1401939Y-434843D01*
X1403853Y-415414D01*
X1458673Y-415414D01*
X1460587Y-434843D01*
X1466254Y-453525D01*
X1475457Y-470743D01*
X1487843Y-485834D01*
X1502934Y-498219D01*
X1520152Y-507423D01*
X1538834Y-513090D01*
X1553467Y-514531D01*
X1558263Y-515003D01*
X1558263Y-515003D01*
X1558263Y-515003D01*
X1562695Y-514567D01*
X1577692Y-513090D01*
X1596374Y-507423D01*
X1613592Y-498219D01*
X1628684Y-485834D01*
X1641069Y-470743D01*
X1650272Y-453525D01*
X1655939Y-434843D01*
X1657853Y-415414D01*
X1712673Y-415414D01*
X1714587Y-434843D01*
X1720254Y-453525D01*
X1729457Y-470743D01*
X1741843Y-485834D01*
X1756934Y-498219D01*
X1774152Y-507423D01*
X1792834Y-513090D01*
X1807467Y-514531D01*
X1812263Y-515003D01*
X1812263Y-515003D01*
X1812263Y-515003D01*
X1816695Y-514567D01*
X1831692Y-513090D01*
X1850374Y-507423D01*
X1867592Y-498219D01*
X1882684Y-485834D01*
X1895069Y-470743D01*
X1904272Y-453525D01*
X1909939Y-434843D01*
X1911853Y-415414D01*
X1966673Y-415414D01*
X1968587Y-434843D01*
X1974254Y-453525D01*
X1983457Y-470743D01*
X1995843Y-485834D01*
X2010934Y-498219D01*
X2028152Y-507423D01*
X2046834Y-513090D01*
X2061467Y-514531D01*
X2066263Y-515003D01*
X2066263Y-515003D01*
X2066263Y-515003D01*
X2070695Y-514567D01*
X2085692Y-513090D01*
X2104374Y-507423D01*
X2121592Y-498219D01*
X2136684Y-485834D01*
X2149069Y-470743D01*
X2158272Y-453525D01*
X2163939Y-434843D01*
X2165853Y-415414D01*
X2220674Y-415414D01*
X2222587Y-434843D01*
X2228254Y-453525D01*
X2237457Y-470743D01*
X2249843Y-485834D01*
X2264934Y-498219D01*
X2282152Y-507423D01*
X2300834Y-513090D01*
X2315467Y-514531D01*
X2320263Y-515003D01*
X2320263Y-515003D01*
X2320263Y-515003D01*
X2324695Y-514567D01*
X2339692Y-513090D01*
X2358374Y-507423D01*
X2375592Y-498219D01*
X2390684Y-485834D01*
X2403069Y-470743D01*
X2412272Y-453525D01*
X2417939Y-434843D01*
X2419853Y-415414D01*
X2474674Y-415414D01*
X2476587Y-434843D01*
X2482254Y-453525D01*
X2491457Y-470743D01*
X2503843Y-485834D01*
X2518934Y-498219D01*
X2536152Y-507423D01*
X2554834Y-513090D01*
X2569467Y-514531D01*
X2574263Y-515003D01*
X2574263Y-515003D01*
X2574263Y-515003D01*
X2578695Y-514567D01*
X2593692Y-513090D01*
X2612374Y-507423D01*
X2629592Y-498219D01*
X2644684Y-485834D01*
X2657069Y-470743D01*
X2666272Y-453525D01*
X2671939Y-434843D01*
X2673853Y-415414D01*
X2728674Y-415414D01*
X2730587Y-434843D01*
X2736254Y-453525D01*
X2745457Y-470743D01*
X2757843Y-485834D01*
X2772934Y-498219D01*
X2790152Y-507423D01*
X2808834Y-513090D01*
X2823467Y-514531D01*
X2828263Y-515003D01*
X2828263Y-515003D01*
X2828263Y-515003D01*
X2832695Y-514567D01*
X2847692Y-513090D01*
X2866374Y-507423D01*
X2883592Y-498219D01*
X2898684Y-485834D01*
X2911069Y-470743D01*
X2920272Y-453525D01*
X2925939Y-434843D01*
X2927853Y-415414D01*
X2982673Y-415414D01*
X2984587Y-434843D01*
X2990254Y-453525D01*
X2999457Y-470743D01*
X3011843Y-485834D01*
X3026934Y-498219D01*
X3044152Y-507423D01*
X3062834Y-513090D01*
X3077467Y-514531D01*
X3082263Y-515003D01*
X3082263Y-515003D01*
X3082263Y-515003D01*
X3086695Y-514567D01*
X3101692Y-513090D01*
X3120374Y-507423D01*
X3137592Y-498219D01*
X3152684Y-485834D01*
X3165069Y-470743D01*
X3174272Y-453525D01*
X3179939Y-434843D01*
X3181853Y-415414D01*
X3236673Y-415414D01*
X3238587Y-434843D01*
X3244254Y-453525D01*
X3253457Y-470743D01*
X3265843Y-485834D01*
X3280934Y-498219D01*
X3298152Y-507423D01*
X3316834Y-513090D01*
X3331467Y-514531D01*
X3336263Y-515003D01*
X3336263Y-515003D01*
X3336263Y-515003D01*
X3340695Y-514567D01*
X3355692Y-513090D01*
X3374374Y-507423D01*
X3391592Y-498219D01*
X3406684Y-485834D01*
X3419069Y-470743D01*
X3428272Y-453525D01*
X3433939Y-434843D01*
X3435853Y-415414D01*
X3490673Y-415414D01*
X3492587Y-434843D01*
X3498254Y-453525D01*
X3507457Y-470743D01*
X3519843Y-485834D01*
X3534934Y-498219D01*
X3552152Y-507423D01*
X3570834Y-513090D01*
X3585467Y-514531D01*
X3590263Y-515003D01*
X3590263Y-515003D01*
X3590263Y-515003D01*
X3594695Y-514567D01*
X3609692Y-513090D01*
X3628374Y-507423D01*
X3645592Y-498219D01*
X3660684Y-485834D01*
X3673069Y-470743D01*
X3682272Y-453525D01*
X3687939Y-434843D01*
X3689853Y-415414D01*
X3744673Y-415414D01*
X3746587Y-434843D01*
X3752254Y-453525D01*
X3761457Y-470743D01*
X3773843Y-485834D01*
X3788934Y-498219D01*
X3806152Y-507423D01*
X3824834Y-513090D01*
X3839467Y-514531D01*
X3844263Y-515003D01*
X3844263Y-515003D01*
X3844263Y-515003D01*
X3848695Y-514567D01*
X3863692Y-513090D01*
X3882374Y-507423D01*
X3899592Y-498219D01*
X3914684Y-485834D01*
X3927069Y-470743D01*
X3936272Y-453525D01*
X3941939Y-434843D01*
X3943853Y-415414D01*
X3998673Y-415414D01*
X4000587Y-434843D01*
X4006254Y-453525D01*
X4015457Y-470743D01*
X4027843Y-485834D01*
X4042934Y-498219D01*
X4060152Y-507423D01*
X4078834Y-513090D01*
X4093467Y-514531D01*
X4098263Y-515003D01*
X4098263Y-515003D01*
X4098263Y-515003D01*
X4102695Y-514567D01*
X4117692Y-513090D01*
X4136374Y-507423D01*
X4153592Y-498219D01*
X4168684Y-485834D01*
X4181069Y-470743D01*
X4190272Y-453525D01*
X4195939Y-434843D01*
X4197853Y-415414D01*
X4252674Y-415414D01*
X4254587Y-434843D01*
X4260254Y-453525D01*
X4269457Y-470743D01*
X4281843Y-485834D01*
X4296934Y-498219D01*
X4314152Y-507423D01*
X4332834Y-513090D01*
X4347467Y-514531D01*
X4352263Y-515003D01*
X4352263Y-515003D01*
X4352263Y-515003D01*
X4356695Y-514567D01*
X4371692Y-513090D01*
X4390374Y-507423D01*
X4407592Y-498219D01*
X4422684Y-485834D01*
X4435069Y-470743D01*
X4444272Y-453525D01*
X4449939Y-434843D01*
X4451853Y-415414D01*
X4506674Y-415414D01*
X4508587Y-434843D01*
X4514254Y-453525D01*
X4523457Y-470743D01*
X4535843Y-485834D01*
X4550934Y-498219D01*
X4568152Y-507423D01*
X4586834Y-513090D01*
X4601467Y-514531D01*
X4606263Y-515003D01*
X4606263Y-515003D01*
X4606263Y-515003D01*
X4610695Y-514567D01*
X4625692Y-513090D01*
X4644374Y-507423D01*
X4661592Y-498219D01*
X4676684Y-485834D01*
X4689069Y-470743D01*
X4698272Y-453525D01*
X4703939Y-434843D01*
X4705853Y-415414D01*
X4725129Y-415414D01*
X4727182Y-438879D01*
X4727182Y-438880D01*
X4733278Y-461632D01*
X4733279Y-461633D01*
X4743233Y-482980D01*
X4743234Y-482981D01*
X4748810Y-490945D01*
X4811827Y-427929D01*
X4814314Y-436398D01*
X4822087Y-448494D01*
X4832953Y-457909D01*
X4846032Y-463882D01*
X4847504Y-464093D01*
X4784731Y-526867D01*
X4792696Y-532443D01*
X4792696Y-532444D01*
X4814044Y-542398D01*
X4814045Y-542398D01*
X4836797Y-548495D01*
X4836798Y-548495D01*
X4860263Y-550548D01*
X4860264Y-550548D01*
X4883728Y-548495D01*
X4883729Y-548495D01*
X4906481Y-542398D01*
X4906483Y-542398D01*
X4927830Y-532444D01*
X4927830Y-532443D01*
X4935795Y-526867D01*
X4873022Y-464093D01*
X4874495Y-463882D01*
X4887573Y-457909D01*
X4898439Y-448494D01*
X4906212Y-436398D01*
X4908699Y-427929D01*
X4971716Y-490945D01*
X4974635Y-486777D01*
X5994579Y-486777D01*
X5997541Y-513701D01*
X5997541Y-513702D01*
X6002441Y-532444D01*
X6004393Y-539909D01*
X6004393Y-539909D01*
X6014987Y-564838D01*
X6014987Y-564839D01*
X6018951Y-571335D01*
X6029098Y-587961D01*
X6029098Y-587961D01*
X6034611Y-594586D01*
X6045339Y-607477D01*
X6046426Y-608782D01*
X6066600Y-626858D01*
X6066600Y-626859D01*
X6070088Y-629166D01*
X6089191Y-641804D01*
X6089191Y-641805D01*
X6089191Y-641805D01*
X6113717Y-653302D01*
X6113718Y-653302D01*
X6139656Y-661106D01*
X6139657Y-661106D01*
X6139657Y-661106D01*
X6166456Y-665050D01*
X6166456Y-665050D01*
X6186764Y-665050D01*
X6195764Y-664391D01*
X6207016Y-663568D01*
X6233455Y-657678D01*
X6258756Y-648001D01*
X6282378Y-634744D01*
X6303818Y-618189D01*
X6322619Y-598688D01*
X6338380Y-576658D01*
X6350766Y-552568D01*
X6359512Y-526931D01*
X6364432Y-500293D01*
X6365421Y-473223D01*
X6362459Y-446298D01*
X6355607Y-420091D01*
X6345013Y-395161D01*
X6330902Y-372039D01*
X6328535Y-369195D01*
X6320953Y-360084D01*
X6313574Y-351218D01*
X6309812Y-347847D01*
X6293400Y-333142D01*
X6293400Y-333141D01*
X6270808Y-318195D01*
X6246283Y-306698D01*
X6246282Y-306698D01*
X6220344Y-298894D01*
X6220343Y-298894D01*
X6193544Y-294950D01*
X6193544Y-294950D01*
X6173237Y-294950D01*
X6173236Y-294950D01*
X6152985Y-296432D01*
X6152985Y-296432D01*
X6152984Y-296432D01*
X6141933Y-298894D01*
X6126545Y-302322D01*
X6126544Y-302322D01*
X6101244Y-311998D01*
X6101244Y-311999D01*
X6077622Y-325256D01*
X6056182Y-341811D01*
X6037381Y-361312D01*
X6029077Y-372919D01*
X6022341Y-382334D01*
X6021620Y-383342D01*
X6009234Y-407432D01*
X6000488Y-433070D01*
X5995568Y-459707D01*
X5994579Y-486776D01*
X5994579Y-486777D01*
X4974635Y-486777D01*
X4977293Y-482981D01*
X4977293Y-482980D01*
X4987247Y-461633D01*
X4987248Y-461632D01*
X4993344Y-438880D01*
X4993344Y-438879D01*
X4995397Y-415414D01*
X4995397Y-415413D01*
X4993344Y-391949D01*
X4993344Y-391948D01*
X4987248Y-369195D01*
X4987247Y-369194D01*
X4977293Y-347847D01*
X4977293Y-347847D01*
X4971716Y-339882D01*
X4908699Y-402899D01*
X4906212Y-394429D01*
X4898439Y-382334D01*
X4887573Y-372919D01*
X4874495Y-366946D01*
X4873022Y-366734D01*
X4935795Y-303961D01*
X4927830Y-298384D01*
X4927830Y-298384D01*
X4906483Y-288430D01*
X4906481Y-288429D01*
X4883729Y-282333D01*
X4883728Y-282332D01*
X4860264Y-280280D01*
X4860263Y-280280D01*
X4836798Y-282332D01*
X4836797Y-282333D01*
X4814045Y-288429D01*
X4814044Y-288430D01*
X4792696Y-298384D01*
X4792696Y-298384D01*
X4784731Y-303961D01*
X4847504Y-366734D01*
X4846032Y-366946D01*
X4832953Y-372919D01*
X4822087Y-382334D01*
X4814314Y-394429D01*
X4811827Y-402899D01*
X4748810Y-339882D01*
X4743234Y-347847D01*
X4743233Y-347847D01*
X4733279Y-369194D01*
X4733278Y-369195D01*
X4727182Y-391948D01*
X4727182Y-391949D01*
X4725129Y-415413D01*
X4725129Y-415414D01*
X4705853Y-415414D01*
X4705853Y-415414D01*
X4705853Y-415413D01*
X4705330Y-410106D01*
X4703939Y-395985D01*
X4698272Y-377302D01*
X4689069Y-360085D01*
X4676684Y-344993D01*
X4662242Y-333142D01*
X4661593Y-332608D01*
X4661592Y-332608D01*
X4661592Y-332608D01*
X4644374Y-323405D01*
X4625692Y-317738D01*
X4625692Y-317738D01*
X4606263Y-315824D01*
X4606263Y-315824D01*
X4586834Y-317738D01*
X4585325Y-318196D01*
X4568152Y-323405D01*
X4550934Y-332608D01*
X4550934Y-332608D01*
X4550934Y-332608D01*
X4535843Y-344993D01*
X4523458Y-360084D01*
X4523457Y-360085D01*
X4523457Y-360085D01*
X4514254Y-377302D01*
X4512728Y-382334D01*
X4508587Y-395985D01*
X4506674Y-415413D01*
X4506674Y-415414D01*
X4451853Y-415414D01*
X4451853Y-415413D01*
X4451330Y-410106D01*
X4449939Y-395985D01*
X4444272Y-377302D01*
X4435069Y-360085D01*
X4422684Y-344993D01*
X4408242Y-333142D01*
X4407593Y-332608D01*
X4407592Y-332608D01*
X4407592Y-332608D01*
X4390374Y-323405D01*
X4371692Y-317738D01*
X4371692Y-317738D01*
X4352263Y-315824D01*
X4352263Y-315824D01*
X4332834Y-317738D01*
X4331325Y-318196D01*
X4314152Y-323405D01*
X4296934Y-332608D01*
X4296934Y-332608D01*
X4296934Y-332608D01*
X4281843Y-344993D01*
X4269458Y-360084D01*
X4269457Y-360085D01*
X4269457Y-360085D01*
X4260254Y-377302D01*
X4258728Y-382334D01*
X4254587Y-395985D01*
X4252674Y-415413D01*
X4252674Y-415414D01*
X4197853Y-415414D01*
X4197853Y-415413D01*
X4197330Y-410106D01*
X4195939Y-395985D01*
X4190272Y-377302D01*
X4181069Y-360085D01*
X4168684Y-344993D01*
X4154242Y-333142D01*
X4153592Y-332608D01*
X4153592Y-332608D01*
X4153592Y-332608D01*
X4136374Y-323405D01*
X4117692Y-317738D01*
X4117692Y-317738D01*
X4098263Y-315824D01*
X4098263Y-315824D01*
X4078834Y-317738D01*
X4077325Y-318196D01*
X4060152Y-323405D01*
X4042934Y-332608D01*
X4042934Y-332608D01*
X4042934Y-332608D01*
X4027843Y-344993D01*
X4015458Y-360084D01*
X4015457Y-360085D01*
X4015457Y-360085D01*
X4006254Y-377302D01*
X4004728Y-382334D01*
X4000587Y-395985D01*
X3998674Y-415413D01*
X3998673Y-415414D01*
X3943853Y-415414D01*
X3943853Y-415413D01*
X3943330Y-410106D01*
X3941939Y-395985D01*
X3936272Y-377302D01*
X3927069Y-360085D01*
X3914684Y-344993D01*
X3900242Y-333142D01*
X3899592Y-332608D01*
X3899592Y-332608D01*
X3899592Y-332608D01*
X3882374Y-323405D01*
X3863692Y-317738D01*
X3863692Y-317738D01*
X3844263Y-315824D01*
X3844263Y-315824D01*
X3824834Y-317738D01*
X3823325Y-318196D01*
X3806152Y-323405D01*
X3788934Y-332608D01*
X3788934Y-332608D01*
X3788934Y-332608D01*
X3773843Y-344993D01*
X3761458Y-360084D01*
X3761457Y-360085D01*
X3761457Y-360085D01*
X3752254Y-377302D01*
X3750728Y-382334D01*
X3746587Y-395985D01*
X3744674Y-415413D01*
X3744673Y-415414D01*
X3689853Y-415414D01*
X3689853Y-415413D01*
X3689330Y-410106D01*
X3687939Y-395985D01*
X3682272Y-377302D01*
X3673069Y-360085D01*
X3660684Y-344993D01*
X3646242Y-333142D01*
X3645592Y-332608D01*
X3645592Y-332608D01*
X3645592Y-332608D01*
X3628374Y-323405D01*
X3609692Y-317738D01*
X3609692Y-317738D01*
X3590263Y-315824D01*
X3590263Y-315824D01*
X3570834Y-317738D01*
X3569325Y-318196D01*
X3552152Y-323405D01*
X3534934Y-332608D01*
X3534934Y-332608D01*
X3534934Y-332608D01*
X3519843Y-344993D01*
X3507458Y-360084D01*
X3507457Y-360085D01*
X3507457Y-360085D01*
X3498254Y-377302D01*
X3496728Y-382334D01*
X3492587Y-395985D01*
X3490674Y-415413D01*
X3490673Y-415414D01*
X3435853Y-415414D01*
X3435853Y-415413D01*
X3435330Y-410106D01*
X3433939Y-395985D01*
X3428272Y-377302D01*
X3419069Y-360085D01*
X3406684Y-344993D01*
X3392242Y-333142D01*
X3391592Y-332608D01*
X3391592Y-332608D01*
X3391592Y-332608D01*
X3374374Y-323405D01*
X3355692Y-317738D01*
X3355692Y-317738D01*
X3336263Y-315824D01*
X3336263Y-315824D01*
X3316834Y-317738D01*
X3315325Y-318196D01*
X3298152Y-323405D01*
X3280934Y-332608D01*
X3280934Y-332608D01*
X3280934Y-332608D01*
X3265843Y-344993D01*
X3253458Y-360084D01*
X3253457Y-360085D01*
X3253457Y-360085D01*
X3244254Y-377302D01*
X3242728Y-382334D01*
X3238587Y-395985D01*
X3236674Y-415413D01*
X3236673Y-415414D01*
X3181853Y-415414D01*
X3181853Y-415413D01*
X3181330Y-410106D01*
X3179939Y-395985D01*
X3174272Y-377302D01*
X3165069Y-360085D01*
X3152684Y-344993D01*
X3138242Y-333142D01*
X3137592Y-332608D01*
X3137592Y-332608D01*
X3137592Y-332608D01*
X3120374Y-323405D01*
X3101692Y-317738D01*
X3101692Y-317738D01*
X3082263Y-315824D01*
X3082263Y-315824D01*
X3062834Y-317738D01*
X3061325Y-318196D01*
X3044152Y-323405D01*
X3026934Y-332608D01*
X3026934Y-332608D01*
X3026934Y-332608D01*
X3011843Y-344993D01*
X2999458Y-360084D01*
X2999457Y-360085D01*
X2999457Y-360085D01*
X2990254Y-377302D01*
X2988728Y-382334D01*
X2984587Y-395985D01*
X2982674Y-415413D01*
X2982673Y-415414D01*
X2927853Y-415414D01*
X2927853Y-415413D01*
X2927330Y-410106D01*
X2925939Y-395985D01*
X2920272Y-377302D01*
X2911069Y-360085D01*
X2898684Y-344993D01*
X2884242Y-333142D01*
X2883592Y-332608D01*
X2883592Y-332608D01*
X2883592Y-332608D01*
X2866374Y-323405D01*
X2847692Y-317738D01*
X2847692Y-317738D01*
X2828263Y-315824D01*
X2828263Y-315824D01*
X2808834Y-317738D01*
X2807325Y-318196D01*
X2790152Y-323405D01*
X2772934Y-332608D01*
X2772934Y-332608D01*
X2772934Y-332608D01*
X2757843Y-344993D01*
X2745458Y-360084D01*
X2745457Y-360085D01*
X2745457Y-360085D01*
X2736254Y-377302D01*
X2734728Y-382334D01*
X2730587Y-395985D01*
X2728674Y-415413D01*
X2728674Y-415414D01*
X2673853Y-415414D01*
X2673853Y-415413D01*
X2673330Y-410106D01*
X2671939Y-395985D01*
X2666272Y-377302D01*
X2657069Y-360085D01*
X2644684Y-344993D01*
X2630242Y-333142D01*
X2629593Y-332608D01*
X2629592Y-332608D01*
X2629592Y-332608D01*
X2612374Y-323405D01*
X2593692Y-317738D01*
X2593692Y-317738D01*
X2574263Y-315824D01*
X2574263Y-315824D01*
X2554834Y-317738D01*
X2553325Y-318196D01*
X2536152Y-323405D01*
X2518934Y-332608D01*
X2518934Y-332608D01*
X2518934Y-332608D01*
X2503843Y-344993D01*
X2491458Y-360084D01*
X2491457Y-360085D01*
X2491457Y-360085D01*
X2482254Y-377302D01*
X2480728Y-382334D01*
X2476587Y-395985D01*
X2474674Y-415413D01*
X2474674Y-415414D01*
X2419853Y-415414D01*
X2419853Y-415413D01*
X2419330Y-410106D01*
X2417939Y-395985D01*
X2412272Y-377302D01*
X2403069Y-360085D01*
X2390684Y-344993D01*
X2376242Y-333142D01*
X2375593Y-332608D01*
X2375592Y-332608D01*
X2375592Y-332608D01*
X2358374Y-323405D01*
X2339692Y-317738D01*
X2339692Y-317738D01*
X2320263Y-315824D01*
X2320263Y-315824D01*
X2300834Y-317738D01*
X2299325Y-318196D01*
X2282152Y-323405D01*
X2264934Y-332608D01*
X2264934Y-332608D01*
X2264934Y-332608D01*
X2249843Y-344993D01*
X2237458Y-360084D01*
X2237457Y-360085D01*
X2237457Y-360085D01*
X2228254Y-377302D01*
X2226728Y-382334D01*
X2222587Y-395985D01*
X2220674Y-415413D01*
X2220674Y-415414D01*
X2165853Y-415414D01*
X2165853Y-415413D01*
X2165330Y-410106D01*
X2163939Y-395985D01*
X2158272Y-377302D01*
X2149069Y-360085D01*
X2136684Y-344993D01*
X2122242Y-333142D01*
X2121593Y-332608D01*
X2121592Y-332608D01*
X2121592Y-332608D01*
X2104374Y-323405D01*
X2085692Y-317738D01*
X2085692Y-317738D01*
X2066263Y-315824D01*
X2066263Y-315824D01*
X2046834Y-317738D01*
X2045325Y-318196D01*
X2028152Y-323405D01*
X2010934Y-332608D01*
X2010934Y-332608D01*
X2010934Y-332608D01*
X1995843Y-344993D01*
X1983458Y-360084D01*
X1983457Y-360085D01*
X1983457Y-360085D01*
X1974254Y-377302D01*
X1972728Y-382334D01*
X1968587Y-395985D01*
X1966674Y-415413D01*
X1966673Y-415414D01*
X1911853Y-415414D01*
X1911853Y-415413D01*
X1911330Y-410106D01*
X1909939Y-395985D01*
X1904272Y-377302D01*
X1895069Y-360085D01*
X1882684Y-344993D01*
X1868242Y-333142D01*
X1867592Y-332608D01*
X1867592Y-332608D01*
X1867592Y-332608D01*
X1850374Y-323405D01*
X1831692Y-317738D01*
X1831692Y-317738D01*
X1812263Y-315824D01*
X1812263Y-315824D01*
X1792834Y-317738D01*
X1791325Y-318196D01*
X1774152Y-323405D01*
X1756934Y-332608D01*
X1756934Y-332608D01*
X1756934Y-332608D01*
X1741843Y-344993D01*
X1729458Y-360084D01*
X1729457Y-360085D01*
X1729457Y-360085D01*
X1720254Y-377302D01*
X1718728Y-382334D01*
X1714587Y-395985D01*
X1712674Y-415413D01*
X1712673Y-415414D01*
X1657853Y-415414D01*
X1657853Y-415413D01*
X1657330Y-410106D01*
X1655939Y-395985D01*
X1650272Y-377302D01*
X1641069Y-360085D01*
X1628684Y-344993D01*
X1614242Y-333142D01*
X1613592Y-332608D01*
X1613592Y-332608D01*
X1613592Y-332608D01*
X1596374Y-323405D01*
X1577692Y-317738D01*
X1577692Y-317738D01*
X1558263Y-315824D01*
X1558263Y-315824D01*
X1538834Y-317738D01*
X1537325Y-318196D01*
X1520152Y-323405D01*
X1502934Y-332608D01*
X1502934Y-332608D01*
X1502934Y-332608D01*
X1487843Y-344993D01*
X1475458Y-360084D01*
X1475457Y-360085D01*
X1475457Y-360085D01*
X1466254Y-377302D01*
X1464728Y-382334D01*
X1460587Y-395985D01*
X1458674Y-415413D01*
X1458673Y-415414D01*
X1403853Y-415414D01*
X1403853Y-415413D01*
X1403330Y-410106D01*
X1401939Y-395985D01*
X1396272Y-377302D01*
X1387069Y-360085D01*
X1374684Y-344993D01*
X1360242Y-333142D01*
X1359593Y-332608D01*
X1359592Y-332608D01*
X1359592Y-332608D01*
X1342374Y-323405D01*
X1323692Y-317738D01*
X1323692Y-317738D01*
X1304263Y-315824D01*
X1304263Y-315824D01*
X1284834Y-317738D01*
X1283325Y-318196D01*
X1266152Y-323405D01*
X1248934Y-332608D01*
X1248934Y-332608D01*
X1248934Y-332608D01*
X1233843Y-344993D01*
X1221458Y-360084D01*
X1221457Y-360085D01*
X1221457Y-360085D01*
X1212254Y-377302D01*
X1210728Y-382334D01*
X1206587Y-395985D01*
X1204674Y-415413D01*
X1204674Y-415414D01*
X1149853Y-415414D01*
X1149853Y-415413D01*
X1149330Y-410106D01*
X1147939Y-395985D01*
X1142272Y-377302D01*
X1133069Y-360085D01*
X1120684Y-344993D01*
X1106242Y-333142D01*
X1105593Y-332608D01*
X1105592Y-332608D01*
X1105592Y-332608D01*
X1088374Y-323405D01*
X1069692Y-317738D01*
X1069692Y-317738D01*
X1050263Y-315824D01*
X1050263Y-315824D01*
X1030834Y-317738D01*
X1029325Y-318196D01*
X1012152Y-323405D01*
X994934Y-332608D01*
X994934Y-332608D01*
X994934Y-332608D01*
X979843Y-344993D01*
X967458Y-360084D01*
X967457Y-360085D01*
X967457Y-360085D01*
X958254Y-377302D01*
X956728Y-382334D01*
X952587Y-395985D01*
X950674Y-415413D01*
X950673Y-415414D01*
X165387Y-415414D01*
X165401Y-317315D01*
X166669Y-313996D01*
X210195Y-265326D01*
X7373021Y-265326D01*
X7375002Y-289238D01*
X7380892Y-312497D01*
X7380892Y-312498D01*
X7390530Y-334470D01*
X7399501Y-348201D01*
X7469216Y-278486D01*
X7471612Y-286647D01*
X7479510Y-298936D01*
X7490550Y-308502D01*
X7503838Y-314570D01*
X7504831Y-314713D01*
X7435329Y-384215D01*
X7438838Y-386947D01*
X7438838Y-386947D01*
X7459940Y-398366D01*
X7482634Y-406157D01*
X7506300Y-410106D01*
X7530294Y-410106D01*
X7553960Y-406157D01*
X7576654Y-398366D01*
X7597755Y-386947D01*
X7616852Y-372083D01*
X7616907Y-372154D01*
X7620225Y-370937D01*
X7623683Y-372539D01*
X7625000Y-375913D01*
X7625000Y-400000D01*
X9415000Y-400000D01*
X9415000Y-150000D01*
X7625000Y-150000D01*
X7625000Y-154740D01*
X7623541Y-158261D01*
X7620020Y-159720D01*
X7616903Y-158504D01*
X7616852Y-158570D01*
X7597755Y-143706D01*
X7576654Y-132286D01*
X7553960Y-124496D01*
X7530294Y-120546D01*
X7506300Y-120546D01*
X7482634Y-124496D01*
X7459940Y-132286D01*
X7438838Y-143706D01*
X7435329Y-146438D01*
X7504832Y-215940D01*
X7503838Y-216083D01*
X7490550Y-222151D01*
X7479510Y-231717D01*
X7471612Y-244006D01*
X7469216Y-252167D01*
X7399501Y-182452D01*
X7390531Y-196182D01*
X7380892Y-218155D01*
X7380892Y-218156D01*
X7375002Y-241414D01*
X7373021Y-265326D01*
X210195Y-265326D01*
X342782Y-117070D01*
X346216Y-115418D01*
X346485Y-115410D01*
X11342394Y-97172D01*
X11345673Y-98396D01*
G37*
%TD.AperFunction*%
%TD*%
%TA.AperFunction,Conductor*%
%TO.N,+3V3*%
G36*
X2681328Y-2918217D02*
G01*
X2682787Y-2921738D01*
X2682787Y-3231778D01*
X2681328Y-3235300D01*
X2677807Y-3236758D01*
X2407767Y-3236758D01*
X2404246Y-3235300D01*
X2402787Y-3231778D01*
X2402787Y-2921738D01*
X2404246Y-2918217D01*
X2407767Y-2916758D01*
X2677807Y-2916758D01*
X2681328Y-2918217D01*
G37*
%TD.AperFunction*%
%TD*%
D30*
X200000Y0D02*
X11500000Y0D01*
X200000Y-8200000D02*
X11500000Y-8200000D01*
X0Y-8000000D02*
X0Y-200000D01*
X11500000Y0D02*
X11700000Y-200000D01*
X11700000Y-200000D02*
X11700000Y-8000000D01*
X11700000Y-8000000D02*
X11500000Y-8200000D01*
X200000Y0D02*
X0Y-200000D01*
X0Y-8000000D02*
X200000Y-8200000D01*
M02*
