%TF.GenerationSoftware,KiCad,Pcbnew,7.0.5*%
%TF.CreationDate,2023-07-20T14:33:04+01:00*%
%TF.ProjectId,EmotionalCities_v.1.1,456d6f74-696f-46e6-916c-436974696573,rev?*%
%TF.SameCoordinates,PX76109c0PY3c14dc0*%
%TF.FileFunction,Legend,Top*%
%TF.FilePolarity,Positive*%
%FSLAX45Y45*%
G04 Gerber Fmt 4.5, Leading zero omitted, Abs format (unit mm)*
G04 Created by KiCad (PCBNEW 7.0.5) date 2023-07-20 14:33:04*
%MOMM*%
%LPD*%
G01*
G04 APERTURE LIST*
%ADD10C,0.200000*%
%ADD11C,0.150000*%
%ADD12C,0.120000*%
%TA.AperFunction,Profile*%
%ADD13C,0.076200*%
%TD*%
G04 APERTURE END LIST*
D10*
X4318271Y-6847531D02*
X4368271Y-6847531D01*
X4389699Y-6926103D02*
X4318271Y-6926103D01*
X4318271Y-6926103D02*
X4318271Y-6776103D01*
X4318271Y-6776103D02*
X4389699Y-6776103D01*
X4453985Y-6926103D02*
X4453985Y-6826103D01*
X4453985Y-6840388D02*
X4461128Y-6833246D01*
X4461128Y-6833246D02*
X4475414Y-6826103D01*
X4475414Y-6826103D02*
X4496842Y-6826103D01*
X4496842Y-6826103D02*
X4511128Y-6833246D01*
X4511128Y-6833246D02*
X4518271Y-6847531D01*
X4518271Y-6847531D02*
X4518271Y-6926103D01*
X4518271Y-6847531D02*
X4525414Y-6833246D01*
X4525414Y-6833246D02*
X4539699Y-6826103D01*
X4539699Y-6826103D02*
X4561128Y-6826103D01*
X4561128Y-6826103D02*
X4575414Y-6833246D01*
X4575414Y-6833246D02*
X4582556Y-6847531D01*
X4582556Y-6847531D02*
X4582556Y-6926103D01*
X4675414Y-6926103D02*
X4661128Y-6918960D01*
X4661128Y-6918960D02*
X4653985Y-6911817D01*
X4653985Y-6911817D02*
X4646842Y-6897531D01*
X4646842Y-6897531D02*
X4646842Y-6854674D01*
X4646842Y-6854674D02*
X4653985Y-6840388D01*
X4653985Y-6840388D02*
X4661128Y-6833246D01*
X4661128Y-6833246D02*
X4675414Y-6826103D01*
X4675414Y-6826103D02*
X4696842Y-6826103D01*
X4696842Y-6826103D02*
X4711128Y-6833246D01*
X4711128Y-6833246D02*
X4718271Y-6840388D01*
X4718271Y-6840388D02*
X4725414Y-6854674D01*
X4725414Y-6854674D02*
X4725414Y-6897531D01*
X4725414Y-6897531D02*
X4718271Y-6911817D01*
X4718271Y-6911817D02*
X4711128Y-6918960D01*
X4711128Y-6918960D02*
X4696842Y-6926103D01*
X4696842Y-6926103D02*
X4675414Y-6926103D01*
X4768271Y-6826103D02*
X4825414Y-6826103D01*
X4789699Y-6776103D02*
X4789699Y-6904674D01*
X4789699Y-6904674D02*
X4796842Y-6918960D01*
X4796842Y-6918960D02*
X4811128Y-6926103D01*
X4811128Y-6926103D02*
X4825414Y-6926103D01*
X4875414Y-6926103D02*
X4875414Y-6826103D01*
X4875414Y-6776103D02*
X4868271Y-6783246D01*
X4868271Y-6783246D02*
X4875414Y-6790388D01*
X4875414Y-6790388D02*
X4882556Y-6783246D01*
X4882556Y-6783246D02*
X4875414Y-6776103D01*
X4875414Y-6776103D02*
X4875414Y-6790388D01*
X4968271Y-6926103D02*
X4953985Y-6918960D01*
X4953985Y-6918960D02*
X4946842Y-6911817D01*
X4946842Y-6911817D02*
X4939699Y-6897531D01*
X4939699Y-6897531D02*
X4939699Y-6854674D01*
X4939699Y-6854674D02*
X4946842Y-6840388D01*
X4946842Y-6840388D02*
X4953985Y-6833246D01*
X4953985Y-6833246D02*
X4968271Y-6826103D01*
X4968271Y-6826103D02*
X4989699Y-6826103D01*
X4989699Y-6826103D02*
X5003985Y-6833246D01*
X5003985Y-6833246D02*
X5011128Y-6840388D01*
X5011128Y-6840388D02*
X5018271Y-6854674D01*
X5018271Y-6854674D02*
X5018271Y-6897531D01*
X5018271Y-6897531D02*
X5011128Y-6911817D01*
X5011128Y-6911817D02*
X5003985Y-6918960D01*
X5003985Y-6918960D02*
X4989699Y-6926103D01*
X4989699Y-6926103D02*
X4968271Y-6926103D01*
X5082556Y-6826103D02*
X5082556Y-6926103D01*
X5082556Y-6840388D02*
X5089699Y-6833246D01*
X5089699Y-6833246D02*
X5103985Y-6826103D01*
X5103985Y-6826103D02*
X5125414Y-6826103D01*
X5125414Y-6826103D02*
X5139699Y-6833246D01*
X5139699Y-6833246D02*
X5146842Y-6847531D01*
X5146842Y-6847531D02*
X5146842Y-6926103D01*
X5282557Y-6926103D02*
X5282557Y-6847531D01*
X5282557Y-6847531D02*
X5275414Y-6833246D01*
X5275414Y-6833246D02*
X5261128Y-6826103D01*
X5261128Y-6826103D02*
X5232557Y-6826103D01*
X5232557Y-6826103D02*
X5218271Y-6833246D01*
X5282557Y-6918960D02*
X5268271Y-6926103D01*
X5268271Y-6926103D02*
X5232557Y-6926103D01*
X5232557Y-6926103D02*
X5218271Y-6918960D01*
X5218271Y-6918960D02*
X5211128Y-6904674D01*
X5211128Y-6904674D02*
X5211128Y-6890388D01*
X5211128Y-6890388D02*
X5218271Y-6876103D01*
X5218271Y-6876103D02*
X5232557Y-6868960D01*
X5232557Y-6868960D02*
X5268271Y-6868960D01*
X5268271Y-6868960D02*
X5282557Y-6861817D01*
X5375414Y-6926103D02*
X5361128Y-6918960D01*
X5361128Y-6918960D02*
X5353985Y-6904674D01*
X5353985Y-6904674D02*
X5353985Y-6776103D01*
X5632556Y-6911817D02*
X5625414Y-6918960D01*
X5625414Y-6918960D02*
X5603985Y-6926103D01*
X5603985Y-6926103D02*
X5589699Y-6926103D01*
X5589699Y-6926103D02*
X5568271Y-6918960D01*
X5568271Y-6918960D02*
X5553985Y-6904674D01*
X5553985Y-6904674D02*
X5546842Y-6890388D01*
X5546842Y-6890388D02*
X5539699Y-6861817D01*
X5539699Y-6861817D02*
X5539699Y-6840388D01*
X5539699Y-6840388D02*
X5546842Y-6811817D01*
X5546842Y-6811817D02*
X5553985Y-6797531D01*
X5553985Y-6797531D02*
X5568271Y-6783246D01*
X5568271Y-6783246D02*
X5589699Y-6776103D01*
X5589699Y-6776103D02*
X5603985Y-6776103D01*
X5603985Y-6776103D02*
X5625414Y-6783246D01*
X5625414Y-6783246D02*
X5632556Y-6790388D01*
X5696842Y-6926103D02*
X5696842Y-6826103D01*
X5696842Y-6776103D02*
X5689699Y-6783246D01*
X5689699Y-6783246D02*
X5696842Y-6790388D01*
X5696842Y-6790388D02*
X5703985Y-6783246D01*
X5703985Y-6783246D02*
X5696842Y-6776103D01*
X5696842Y-6776103D02*
X5696842Y-6790388D01*
X5746842Y-6826103D02*
X5803985Y-6826103D01*
X5768271Y-6776103D02*
X5768271Y-6904674D01*
X5768271Y-6904674D02*
X5775414Y-6918960D01*
X5775414Y-6918960D02*
X5789699Y-6926103D01*
X5789699Y-6926103D02*
X5803985Y-6926103D01*
X5853985Y-6926103D02*
X5853985Y-6826103D01*
X5853985Y-6776103D02*
X5846842Y-6783246D01*
X5846842Y-6783246D02*
X5853985Y-6790388D01*
X5853985Y-6790388D02*
X5861128Y-6783246D01*
X5861128Y-6783246D02*
X5853985Y-6776103D01*
X5853985Y-6776103D02*
X5853985Y-6790388D01*
X5982556Y-6918960D02*
X5968271Y-6926103D01*
X5968271Y-6926103D02*
X5939699Y-6926103D01*
X5939699Y-6926103D02*
X5925414Y-6918960D01*
X5925414Y-6918960D02*
X5918271Y-6904674D01*
X5918271Y-6904674D02*
X5918271Y-6847531D01*
X5918271Y-6847531D02*
X5925414Y-6833246D01*
X5925414Y-6833246D02*
X5939699Y-6826103D01*
X5939699Y-6826103D02*
X5968271Y-6826103D01*
X5968271Y-6826103D02*
X5982556Y-6833246D01*
X5982556Y-6833246D02*
X5989699Y-6847531D01*
X5989699Y-6847531D02*
X5989699Y-6861817D01*
X5989699Y-6861817D02*
X5918271Y-6876103D01*
X6046842Y-6918960D02*
X6061128Y-6926103D01*
X6061128Y-6926103D02*
X6089699Y-6926103D01*
X6089699Y-6926103D02*
X6103985Y-6918960D01*
X6103985Y-6918960D02*
X6111128Y-6904674D01*
X6111128Y-6904674D02*
X6111128Y-6897531D01*
X6111128Y-6897531D02*
X6103985Y-6883246D01*
X6103985Y-6883246D02*
X6089699Y-6876103D01*
X6089699Y-6876103D02*
X6068271Y-6876103D01*
X6068271Y-6876103D02*
X6053985Y-6868960D01*
X6053985Y-6868960D02*
X6046842Y-6854674D01*
X6046842Y-6854674D02*
X6046842Y-6847531D01*
X6046842Y-6847531D02*
X6053985Y-6833246D01*
X6053985Y-6833246D02*
X6068271Y-6826103D01*
X6068271Y-6826103D02*
X6089699Y-6826103D01*
X6089699Y-6826103D02*
X6103985Y-6833246D01*
X6275414Y-6826103D02*
X6311128Y-6926103D01*
X6311128Y-6926103D02*
X6346842Y-6826103D01*
X6403985Y-6911817D02*
X6411128Y-6918960D01*
X6411128Y-6918960D02*
X6403985Y-6926103D01*
X6403985Y-6926103D02*
X6396842Y-6918960D01*
X6396842Y-6918960D02*
X6403985Y-6911817D01*
X6403985Y-6911817D02*
X6403985Y-6926103D01*
X6553985Y-6926103D02*
X6468271Y-6926103D01*
X6511128Y-6926103D02*
X6511128Y-6776103D01*
X6511128Y-6776103D02*
X6496842Y-6797531D01*
X6496842Y-6797531D02*
X6482556Y-6811817D01*
X6482556Y-6811817D02*
X6468271Y-6818960D01*
X6618271Y-6911817D02*
X6625414Y-6918960D01*
X6625414Y-6918960D02*
X6618271Y-6926103D01*
X6618271Y-6926103D02*
X6611128Y-6918960D01*
X6611128Y-6918960D02*
X6618271Y-6911817D01*
X6618271Y-6911817D02*
X6618271Y-6926103D01*
X6768271Y-6926103D02*
X6682556Y-6926103D01*
X6725414Y-6926103D02*
X6725414Y-6776103D01*
X6725414Y-6776103D02*
X6711128Y-6797531D01*
X6711128Y-6797531D02*
X6696842Y-6811817D01*
X6696842Y-6811817D02*
X6682556Y-6818960D01*
D11*
X2850952Y-6215482D02*
X2803333Y-6215482D01*
X2803333Y-6215482D02*
X2798571Y-6263101D01*
X2798571Y-6263101D02*
X2803333Y-6258339D01*
X2803333Y-6258339D02*
X2812857Y-6253577D01*
X2812857Y-6253577D02*
X2836667Y-6253577D01*
X2836667Y-6253577D02*
X2846190Y-6258339D01*
X2846190Y-6258339D02*
X2850952Y-6263101D01*
X2850952Y-6263101D02*
X2855714Y-6272625D01*
X2855714Y-6272625D02*
X2855714Y-6296434D01*
X2855714Y-6296434D02*
X2850952Y-6305958D01*
X2850952Y-6305958D02*
X2846190Y-6310720D01*
X2846190Y-6310720D02*
X2836667Y-6315482D01*
X2836667Y-6315482D02*
X2812857Y-6315482D01*
X2812857Y-6315482D02*
X2803333Y-6310720D01*
X2803333Y-6310720D02*
X2798571Y-6305958D01*
X2884286Y-6215482D02*
X2917619Y-6315482D01*
X2917619Y-6315482D02*
X2950952Y-6215482D01*
X2973809Y-5590244D02*
X2964286Y-5585482D01*
X2964286Y-5585482D02*
X2950000Y-5585482D01*
X2950000Y-5585482D02*
X2935714Y-5590244D01*
X2935714Y-5590244D02*
X2926190Y-5599768D01*
X2926190Y-5599768D02*
X2921429Y-5609291D01*
X2921429Y-5609291D02*
X2916667Y-5628339D01*
X2916667Y-5628339D02*
X2916667Y-5642625D01*
X2916667Y-5642625D02*
X2921429Y-5661672D01*
X2921429Y-5661672D02*
X2926190Y-5671196D01*
X2926190Y-5671196D02*
X2935714Y-5680720D01*
X2935714Y-5680720D02*
X2950000Y-5685482D01*
X2950000Y-5685482D02*
X2959524Y-5685482D01*
X2959524Y-5685482D02*
X2973809Y-5680720D01*
X2973809Y-5680720D02*
X2978571Y-5675958D01*
X2978571Y-5675958D02*
X2978571Y-5642625D01*
X2978571Y-5642625D02*
X2959524Y-5642625D01*
X3021429Y-5685482D02*
X3021429Y-5585482D01*
X3021429Y-5585482D02*
X3078571Y-5685482D01*
X3078571Y-5685482D02*
X3078571Y-5585482D01*
X3126190Y-5685482D02*
X3126190Y-5585482D01*
X3126190Y-5585482D02*
X3150000Y-5585482D01*
X3150000Y-5585482D02*
X3164286Y-5590244D01*
X3164286Y-5590244D02*
X3173809Y-5599768D01*
X3173809Y-5599768D02*
X3178571Y-5609291D01*
X3178571Y-5609291D02*
X3183333Y-5628339D01*
X3183333Y-5628339D02*
X3183333Y-5642625D01*
X3183333Y-5642625D02*
X3178571Y-5661672D01*
X3178571Y-5661672D02*
X3173809Y-5671196D01*
X3173809Y-5671196D02*
X3164286Y-5680720D01*
X3164286Y-5680720D02*
X3150000Y-5685482D01*
X3150000Y-5685482D02*
X3126190Y-5685482D01*
X1606190Y-3315482D02*
X1668095Y-3315482D01*
X1668095Y-3315482D02*
X1634762Y-3353577D01*
X1634762Y-3353577D02*
X1649048Y-3353577D01*
X1649048Y-3353577D02*
X1658571Y-3358339D01*
X1658571Y-3358339D02*
X1663333Y-3363101D01*
X1663333Y-3363101D02*
X1668095Y-3372625D01*
X1668095Y-3372625D02*
X1668095Y-3396434D01*
X1668095Y-3396434D02*
X1663333Y-3405958D01*
X1663333Y-3405958D02*
X1658571Y-3410720D01*
X1658571Y-3410720D02*
X1649048Y-3415482D01*
X1649048Y-3415482D02*
X1620476Y-3415482D01*
X1620476Y-3415482D02*
X1610952Y-3410720D01*
X1610952Y-3410720D02*
X1606190Y-3405958D01*
X1696667Y-3315482D02*
X1730000Y-3415482D01*
X1730000Y-3415482D02*
X1763333Y-3315482D01*
X1787143Y-3315482D02*
X1849048Y-3315482D01*
X1849048Y-3315482D02*
X1815714Y-3353577D01*
X1815714Y-3353577D02*
X1830000Y-3353577D01*
X1830000Y-3353577D02*
X1839524Y-3358339D01*
X1839524Y-3358339D02*
X1844286Y-3363101D01*
X1844286Y-3363101D02*
X1849048Y-3372625D01*
X1849048Y-3372625D02*
X1849048Y-3396434D01*
X1849048Y-3396434D02*
X1844286Y-3405958D01*
X1844286Y-3405958D02*
X1839524Y-3410720D01*
X1839524Y-3410720D02*
X1830000Y-3415482D01*
X1830000Y-3415482D02*
X1801429Y-3415482D01*
X1801429Y-3415482D02*
X1791905Y-3410720D01*
X1791905Y-3410720D02*
X1787143Y-3405958D01*
X10713810Y-390244D02*
X10704286Y-385482D01*
X10704286Y-385482D02*
X10690000Y-385482D01*
X10690000Y-385482D02*
X10675714Y-390244D01*
X10675714Y-390244D02*
X10666191Y-399768D01*
X10666191Y-399768D02*
X10661429Y-409291D01*
X10661429Y-409291D02*
X10656667Y-428339D01*
X10656667Y-428339D02*
X10656667Y-442625D01*
X10656667Y-442625D02*
X10661429Y-461672D01*
X10661429Y-461672D02*
X10666191Y-471196D01*
X10666191Y-471196D02*
X10675714Y-480720D01*
X10675714Y-480720D02*
X10690000Y-485482D01*
X10690000Y-485482D02*
X10699524Y-485482D01*
X10699524Y-485482D02*
X10713810Y-480720D01*
X10713810Y-480720D02*
X10718571Y-475958D01*
X10718571Y-475958D02*
X10718571Y-442625D01*
X10718571Y-442625D02*
X10699524Y-442625D01*
X10761429Y-485482D02*
X10761429Y-385482D01*
X10761429Y-385482D02*
X10818571Y-485482D01*
X10818571Y-485482D02*
X10818571Y-385482D01*
X10866191Y-485482D02*
X10866191Y-385482D01*
X10866191Y-385482D02*
X10890000Y-385482D01*
X10890000Y-385482D02*
X10904286Y-390244D01*
X10904286Y-390244D02*
X10913810Y-399768D01*
X10913810Y-399768D02*
X10918571Y-409291D01*
X10918571Y-409291D02*
X10923333Y-428339D01*
X10923333Y-428339D02*
X10923333Y-442625D01*
X10923333Y-442625D02*
X10918571Y-461672D01*
X10918571Y-461672D02*
X10913810Y-471196D01*
X10913810Y-471196D02*
X10904286Y-480720D01*
X10904286Y-480720D02*
X10890000Y-485482D01*
X10890000Y-485482D02*
X10866191Y-485482D01*
%TO.C,R10*%
X3675714Y-3705482D02*
X3642381Y-3657863D01*
X3618571Y-3705482D02*
X3618571Y-3605482D01*
X3618571Y-3605482D02*
X3656667Y-3605482D01*
X3656667Y-3605482D02*
X3666190Y-3610244D01*
X3666190Y-3610244D02*
X3670952Y-3615006D01*
X3670952Y-3615006D02*
X3675714Y-3624529D01*
X3675714Y-3624529D02*
X3675714Y-3638815D01*
X3675714Y-3638815D02*
X3670952Y-3648339D01*
X3670952Y-3648339D02*
X3666190Y-3653101D01*
X3666190Y-3653101D02*
X3656667Y-3657863D01*
X3656667Y-3657863D02*
X3618571Y-3657863D01*
X3770952Y-3705482D02*
X3713809Y-3705482D01*
X3742381Y-3705482D02*
X3742381Y-3605482D01*
X3742381Y-3605482D02*
X3732857Y-3619768D01*
X3732857Y-3619768D02*
X3723333Y-3629291D01*
X3723333Y-3629291D02*
X3713809Y-3634053D01*
X3832857Y-3605482D02*
X3842381Y-3605482D01*
X3842381Y-3605482D02*
X3851905Y-3610244D01*
X3851905Y-3610244D02*
X3856667Y-3615006D01*
X3856667Y-3615006D02*
X3861428Y-3624529D01*
X3861428Y-3624529D02*
X3866190Y-3643577D01*
X3866190Y-3643577D02*
X3866190Y-3667387D01*
X3866190Y-3667387D02*
X3861428Y-3686434D01*
X3861428Y-3686434D02*
X3856667Y-3695958D01*
X3856667Y-3695958D02*
X3851905Y-3700720D01*
X3851905Y-3700720D02*
X3842381Y-3705482D01*
X3842381Y-3705482D02*
X3832857Y-3705482D01*
X3832857Y-3705482D02*
X3823333Y-3700720D01*
X3823333Y-3700720D02*
X3818571Y-3695958D01*
X3818571Y-3695958D02*
X3813809Y-3686434D01*
X3813809Y-3686434D02*
X3809048Y-3667387D01*
X3809048Y-3667387D02*
X3809048Y-3643577D01*
X3809048Y-3643577D02*
X3813809Y-3624529D01*
X3813809Y-3624529D02*
X3818571Y-3615006D01*
X3818571Y-3615006D02*
X3823333Y-3610244D01*
X3823333Y-3610244D02*
X3832857Y-3605482D01*
%TO.C,R8*%
X6563333Y-3675482D02*
X6530000Y-3627863D01*
X6506190Y-3675482D02*
X6506190Y-3575482D01*
X6506190Y-3575482D02*
X6544286Y-3575482D01*
X6544286Y-3575482D02*
X6553809Y-3580244D01*
X6553809Y-3580244D02*
X6558571Y-3585006D01*
X6558571Y-3585006D02*
X6563333Y-3594529D01*
X6563333Y-3594529D02*
X6563333Y-3608815D01*
X6563333Y-3608815D02*
X6558571Y-3618339D01*
X6558571Y-3618339D02*
X6553809Y-3623101D01*
X6553809Y-3623101D02*
X6544286Y-3627863D01*
X6544286Y-3627863D02*
X6506190Y-3627863D01*
X6620476Y-3618339D02*
X6610952Y-3613577D01*
X6610952Y-3613577D02*
X6606190Y-3608815D01*
X6606190Y-3608815D02*
X6601429Y-3599291D01*
X6601429Y-3599291D02*
X6601429Y-3594529D01*
X6601429Y-3594529D02*
X6606190Y-3585006D01*
X6606190Y-3585006D02*
X6610952Y-3580244D01*
X6610952Y-3580244D02*
X6620476Y-3575482D01*
X6620476Y-3575482D02*
X6639524Y-3575482D01*
X6639524Y-3575482D02*
X6649048Y-3580244D01*
X6649048Y-3580244D02*
X6653809Y-3585006D01*
X6653809Y-3585006D02*
X6658571Y-3594529D01*
X6658571Y-3594529D02*
X6658571Y-3599291D01*
X6658571Y-3599291D02*
X6653809Y-3608815D01*
X6653809Y-3608815D02*
X6649048Y-3613577D01*
X6649048Y-3613577D02*
X6639524Y-3618339D01*
X6639524Y-3618339D02*
X6620476Y-3618339D01*
X6620476Y-3618339D02*
X6610952Y-3623101D01*
X6610952Y-3623101D02*
X6606190Y-3627863D01*
X6606190Y-3627863D02*
X6601429Y-3637387D01*
X6601429Y-3637387D02*
X6601429Y-3656434D01*
X6601429Y-3656434D02*
X6606190Y-3665958D01*
X6606190Y-3665958D02*
X6610952Y-3670720D01*
X6610952Y-3670720D02*
X6620476Y-3675482D01*
X6620476Y-3675482D02*
X6639524Y-3675482D01*
X6639524Y-3675482D02*
X6649048Y-3670720D01*
X6649048Y-3670720D02*
X6653809Y-3665958D01*
X6653809Y-3665958D02*
X6658571Y-3656434D01*
X6658571Y-3656434D02*
X6658571Y-3637387D01*
X6658571Y-3637387D02*
X6653809Y-3627863D01*
X6653809Y-3627863D02*
X6649048Y-3623101D01*
X6649048Y-3623101D02*
X6639524Y-3618339D01*
%TO.C,IC4*%
X2762381Y-3955482D02*
X2762381Y-3855482D01*
X2867143Y-3945958D02*
X2862381Y-3950720D01*
X2862381Y-3950720D02*
X2848095Y-3955482D01*
X2848095Y-3955482D02*
X2838571Y-3955482D01*
X2838571Y-3955482D02*
X2824286Y-3950720D01*
X2824286Y-3950720D02*
X2814762Y-3941196D01*
X2814762Y-3941196D02*
X2810000Y-3931672D01*
X2810000Y-3931672D02*
X2805238Y-3912625D01*
X2805238Y-3912625D02*
X2805238Y-3898339D01*
X2805238Y-3898339D02*
X2810000Y-3879291D01*
X2810000Y-3879291D02*
X2814762Y-3869768D01*
X2814762Y-3869768D02*
X2824286Y-3860244D01*
X2824286Y-3860244D02*
X2838571Y-3855482D01*
X2838571Y-3855482D02*
X2848095Y-3855482D01*
X2848095Y-3855482D02*
X2862381Y-3860244D01*
X2862381Y-3860244D02*
X2867143Y-3865006D01*
X2952857Y-3888815D02*
X2952857Y-3955482D01*
X2929048Y-3850720D02*
X2905238Y-3922148D01*
X2905238Y-3922148D02*
X2967143Y-3922148D01*
%TO.C,R7*%
X6013735Y-3197240D02*
X5980402Y-3149621D01*
X5956592Y-3197240D02*
X5956592Y-3097240D01*
X5956592Y-3097240D02*
X5994687Y-3097240D01*
X5994687Y-3097240D02*
X6004211Y-3102002D01*
X6004211Y-3102002D02*
X6008973Y-3106764D01*
X6008973Y-3106764D02*
X6013735Y-3116288D01*
X6013735Y-3116288D02*
X6013735Y-3130574D01*
X6013735Y-3130574D02*
X6008973Y-3140097D01*
X6008973Y-3140097D02*
X6004211Y-3144859D01*
X6004211Y-3144859D02*
X5994687Y-3149621D01*
X5994687Y-3149621D02*
X5956592Y-3149621D01*
X6047068Y-3097240D02*
X6113735Y-3097240D01*
X6113735Y-3097240D02*
X6070878Y-3197240D01*
%TO.C,C12*%
X2715714Y-3455958D02*
X2710952Y-3460720D01*
X2710952Y-3460720D02*
X2696667Y-3465482D01*
X2696667Y-3465482D02*
X2687143Y-3465482D01*
X2687143Y-3465482D02*
X2672857Y-3460720D01*
X2672857Y-3460720D02*
X2663333Y-3451196D01*
X2663333Y-3451196D02*
X2658571Y-3441672D01*
X2658571Y-3441672D02*
X2653810Y-3422625D01*
X2653810Y-3422625D02*
X2653810Y-3408339D01*
X2653810Y-3408339D02*
X2658571Y-3389291D01*
X2658571Y-3389291D02*
X2663333Y-3379768D01*
X2663333Y-3379768D02*
X2672857Y-3370244D01*
X2672857Y-3370244D02*
X2687143Y-3365482D01*
X2687143Y-3365482D02*
X2696667Y-3365482D01*
X2696667Y-3365482D02*
X2710952Y-3370244D01*
X2710952Y-3370244D02*
X2715714Y-3375006D01*
X2810952Y-3465482D02*
X2753810Y-3465482D01*
X2782381Y-3465482D02*
X2782381Y-3365482D01*
X2782381Y-3365482D02*
X2772857Y-3379768D01*
X2772857Y-3379768D02*
X2763333Y-3389291D01*
X2763333Y-3389291D02*
X2753810Y-3394053D01*
X2849048Y-3375006D02*
X2853809Y-3370244D01*
X2853809Y-3370244D02*
X2863333Y-3365482D01*
X2863333Y-3365482D02*
X2887143Y-3365482D01*
X2887143Y-3365482D02*
X2896667Y-3370244D01*
X2896667Y-3370244D02*
X2901428Y-3375006D01*
X2901428Y-3375006D02*
X2906190Y-3384529D01*
X2906190Y-3384529D02*
X2906190Y-3394053D01*
X2906190Y-3394053D02*
X2901428Y-3408339D01*
X2901428Y-3408339D02*
X2844286Y-3465482D01*
X2844286Y-3465482D02*
X2906190Y-3465482D01*
%TO.C,C1*%
X4377596Y-4651372D02*
X4372835Y-4656134D01*
X4372835Y-4656134D02*
X4358549Y-4660896D01*
X4358549Y-4660896D02*
X4349025Y-4660896D01*
X4349025Y-4660896D02*
X4334739Y-4656134D01*
X4334739Y-4656134D02*
X4325216Y-4646610D01*
X4325216Y-4646610D02*
X4320454Y-4637086D01*
X4320454Y-4637086D02*
X4315692Y-4618039D01*
X4315692Y-4618039D02*
X4315692Y-4603753D01*
X4315692Y-4603753D02*
X4320454Y-4584705D01*
X4320454Y-4584705D02*
X4325216Y-4575181D01*
X4325216Y-4575181D02*
X4334739Y-4565658D01*
X4334739Y-4565658D02*
X4349025Y-4560896D01*
X4349025Y-4560896D02*
X4358549Y-4560896D01*
X4358549Y-4560896D02*
X4372835Y-4565658D01*
X4372835Y-4565658D02*
X4377596Y-4570420D01*
X4472835Y-4660896D02*
X4415692Y-4660896D01*
X4444263Y-4660896D02*
X4444263Y-4560896D01*
X4444263Y-4560896D02*
X4434739Y-4575181D01*
X4434739Y-4575181D02*
X4425216Y-4584705D01*
X4425216Y-4584705D02*
X4415692Y-4589467D01*
%TO.C,C52*%
X2305714Y-6460958D02*
X2300952Y-6465720D01*
X2300952Y-6465720D02*
X2286667Y-6470482D01*
X2286667Y-6470482D02*
X2277143Y-6470482D01*
X2277143Y-6470482D02*
X2262857Y-6465720D01*
X2262857Y-6465720D02*
X2253333Y-6456196D01*
X2253333Y-6456196D02*
X2248571Y-6446672D01*
X2248571Y-6446672D02*
X2243810Y-6427625D01*
X2243810Y-6427625D02*
X2243810Y-6413339D01*
X2243810Y-6413339D02*
X2248571Y-6394291D01*
X2248571Y-6394291D02*
X2253333Y-6384768D01*
X2253333Y-6384768D02*
X2262857Y-6375244D01*
X2262857Y-6375244D02*
X2277143Y-6370482D01*
X2277143Y-6370482D02*
X2286667Y-6370482D01*
X2286667Y-6370482D02*
X2300952Y-6375244D01*
X2300952Y-6375244D02*
X2305714Y-6380006D01*
X2396190Y-6370482D02*
X2348571Y-6370482D01*
X2348571Y-6370482D02*
X2343810Y-6418101D01*
X2343810Y-6418101D02*
X2348571Y-6413339D01*
X2348571Y-6413339D02*
X2358095Y-6408577D01*
X2358095Y-6408577D02*
X2381905Y-6408577D01*
X2381905Y-6408577D02*
X2391429Y-6413339D01*
X2391429Y-6413339D02*
X2396190Y-6418101D01*
X2396190Y-6418101D02*
X2400952Y-6427625D01*
X2400952Y-6427625D02*
X2400952Y-6451434D01*
X2400952Y-6451434D02*
X2396190Y-6460958D01*
X2396190Y-6460958D02*
X2391429Y-6465720D01*
X2391429Y-6465720D02*
X2381905Y-6470482D01*
X2381905Y-6470482D02*
X2358095Y-6470482D01*
X2358095Y-6470482D02*
X2348571Y-6465720D01*
X2348571Y-6465720D02*
X2343810Y-6460958D01*
X2439048Y-6380006D02*
X2443810Y-6375244D01*
X2443810Y-6375244D02*
X2453333Y-6370482D01*
X2453333Y-6370482D02*
X2477143Y-6370482D01*
X2477143Y-6370482D02*
X2486667Y-6375244D01*
X2486667Y-6375244D02*
X2491429Y-6380006D01*
X2491429Y-6380006D02*
X2496190Y-6389529D01*
X2496190Y-6389529D02*
X2496190Y-6399053D01*
X2496190Y-6399053D02*
X2491429Y-6413339D01*
X2491429Y-6413339D02*
X2434286Y-6470482D01*
X2434286Y-6470482D02*
X2496190Y-6470482D01*
%TO.C,R19*%
X7296116Y-3460482D02*
X7262783Y-3412863D01*
X7238973Y-3460482D02*
X7238973Y-3360482D01*
X7238973Y-3360482D02*
X7277068Y-3360482D01*
X7277068Y-3360482D02*
X7286592Y-3365244D01*
X7286592Y-3365244D02*
X7291354Y-3370006D01*
X7291354Y-3370006D02*
X7296116Y-3379529D01*
X7296116Y-3379529D02*
X7296116Y-3393815D01*
X7296116Y-3393815D02*
X7291354Y-3403339D01*
X7291354Y-3403339D02*
X7286592Y-3408101D01*
X7286592Y-3408101D02*
X7277068Y-3412863D01*
X7277068Y-3412863D02*
X7238973Y-3412863D01*
X7391354Y-3460482D02*
X7334211Y-3460482D01*
X7362783Y-3460482D02*
X7362783Y-3360482D01*
X7362783Y-3360482D02*
X7353259Y-3374768D01*
X7353259Y-3374768D02*
X7343735Y-3384291D01*
X7343735Y-3384291D02*
X7334211Y-3389053D01*
X7438973Y-3460482D02*
X7458021Y-3460482D01*
X7458021Y-3460482D02*
X7467544Y-3455720D01*
X7467544Y-3455720D02*
X7472306Y-3450958D01*
X7472306Y-3450958D02*
X7481830Y-3436672D01*
X7481830Y-3436672D02*
X7486592Y-3417625D01*
X7486592Y-3417625D02*
X7486592Y-3379529D01*
X7486592Y-3379529D02*
X7481830Y-3370006D01*
X7481830Y-3370006D02*
X7477068Y-3365244D01*
X7477068Y-3365244D02*
X7467544Y-3360482D01*
X7467544Y-3360482D02*
X7448497Y-3360482D01*
X7448497Y-3360482D02*
X7438973Y-3365244D01*
X7438973Y-3365244D02*
X7434211Y-3370006D01*
X7434211Y-3370006D02*
X7429449Y-3379529D01*
X7429449Y-3379529D02*
X7429449Y-3403339D01*
X7429449Y-3403339D02*
X7434211Y-3412863D01*
X7434211Y-3412863D02*
X7438973Y-3417625D01*
X7438973Y-3417625D02*
X7448497Y-3422387D01*
X7448497Y-3422387D02*
X7467544Y-3422387D01*
X7467544Y-3422387D02*
X7477068Y-3417625D01*
X7477068Y-3417625D02*
X7481830Y-3412863D01*
X7481830Y-3412863D02*
X7486592Y-3403339D01*
%TO.C,R20*%
X7146116Y-3112240D02*
X7112783Y-3064621D01*
X7088973Y-3112240D02*
X7088973Y-3012240D01*
X7088973Y-3012240D02*
X7127068Y-3012240D01*
X7127068Y-3012240D02*
X7136592Y-3017002D01*
X7136592Y-3017002D02*
X7141354Y-3021764D01*
X7141354Y-3021764D02*
X7146116Y-3031288D01*
X7146116Y-3031288D02*
X7146116Y-3045574D01*
X7146116Y-3045574D02*
X7141354Y-3055097D01*
X7141354Y-3055097D02*
X7136592Y-3059859D01*
X7136592Y-3059859D02*
X7127068Y-3064621D01*
X7127068Y-3064621D02*
X7088973Y-3064621D01*
X7184211Y-3021764D02*
X7188973Y-3017002D01*
X7188973Y-3017002D02*
X7198497Y-3012240D01*
X7198497Y-3012240D02*
X7222306Y-3012240D01*
X7222306Y-3012240D02*
X7231830Y-3017002D01*
X7231830Y-3017002D02*
X7236592Y-3021764D01*
X7236592Y-3021764D02*
X7241354Y-3031288D01*
X7241354Y-3031288D02*
X7241354Y-3040812D01*
X7241354Y-3040812D02*
X7236592Y-3055097D01*
X7236592Y-3055097D02*
X7179449Y-3112240D01*
X7179449Y-3112240D02*
X7241354Y-3112240D01*
X7303259Y-3012240D02*
X7312783Y-3012240D01*
X7312783Y-3012240D02*
X7322306Y-3017002D01*
X7322306Y-3017002D02*
X7327068Y-3021764D01*
X7327068Y-3021764D02*
X7331830Y-3031288D01*
X7331830Y-3031288D02*
X7336592Y-3050336D01*
X7336592Y-3050336D02*
X7336592Y-3074145D01*
X7336592Y-3074145D02*
X7331830Y-3093193D01*
X7331830Y-3093193D02*
X7327068Y-3102716D01*
X7327068Y-3102716D02*
X7322306Y-3107478D01*
X7322306Y-3107478D02*
X7312783Y-3112240D01*
X7312783Y-3112240D02*
X7303259Y-3112240D01*
X7303259Y-3112240D02*
X7293735Y-3107478D01*
X7293735Y-3107478D02*
X7288973Y-3102716D01*
X7288973Y-3102716D02*
X7284211Y-3093193D01*
X7284211Y-3093193D02*
X7279449Y-3074145D01*
X7279449Y-3074145D02*
X7279449Y-3050336D01*
X7279449Y-3050336D02*
X7284211Y-3031288D01*
X7284211Y-3031288D02*
X7288973Y-3021764D01*
X7288973Y-3021764D02*
X7293735Y-3017002D01*
X7293735Y-3017002D02*
X7303259Y-3012240D01*
%TO.C,R24*%
X6799977Y-5547240D02*
X6766644Y-5499621D01*
X6742834Y-5547240D02*
X6742834Y-5447240D01*
X6742834Y-5447240D02*
X6780930Y-5447240D01*
X6780930Y-5447240D02*
X6790453Y-5452002D01*
X6790453Y-5452002D02*
X6795215Y-5456764D01*
X6795215Y-5456764D02*
X6799977Y-5466288D01*
X6799977Y-5466288D02*
X6799977Y-5480574D01*
X6799977Y-5480574D02*
X6795215Y-5490098D01*
X6795215Y-5490098D02*
X6790453Y-5494859D01*
X6790453Y-5494859D02*
X6780930Y-5499621D01*
X6780930Y-5499621D02*
X6742834Y-5499621D01*
X6838073Y-5456764D02*
X6842834Y-5452002D01*
X6842834Y-5452002D02*
X6852358Y-5447240D01*
X6852358Y-5447240D02*
X6876168Y-5447240D01*
X6876168Y-5447240D02*
X6885692Y-5452002D01*
X6885692Y-5452002D02*
X6890453Y-5456764D01*
X6890453Y-5456764D02*
X6895215Y-5466288D01*
X6895215Y-5466288D02*
X6895215Y-5475812D01*
X6895215Y-5475812D02*
X6890453Y-5490098D01*
X6890453Y-5490098D02*
X6833311Y-5547240D01*
X6833311Y-5547240D02*
X6895215Y-5547240D01*
X6980930Y-5480574D02*
X6980930Y-5547240D01*
X6957120Y-5442479D02*
X6933311Y-5513907D01*
X6933311Y-5513907D02*
X6995215Y-5513907D01*
%TO.C,R26*%
X6784977Y-5337240D02*
X6751644Y-5289621D01*
X6727834Y-5337240D02*
X6727834Y-5237240D01*
X6727834Y-5237240D02*
X6765930Y-5237240D01*
X6765930Y-5237240D02*
X6775453Y-5242002D01*
X6775453Y-5242002D02*
X6780215Y-5246764D01*
X6780215Y-5246764D02*
X6784977Y-5256288D01*
X6784977Y-5256288D02*
X6784977Y-5270574D01*
X6784977Y-5270574D02*
X6780215Y-5280098D01*
X6780215Y-5280098D02*
X6775453Y-5284859D01*
X6775453Y-5284859D02*
X6765930Y-5289621D01*
X6765930Y-5289621D02*
X6727834Y-5289621D01*
X6823073Y-5246764D02*
X6827834Y-5242002D01*
X6827834Y-5242002D02*
X6837358Y-5237240D01*
X6837358Y-5237240D02*
X6861168Y-5237240D01*
X6861168Y-5237240D02*
X6870692Y-5242002D01*
X6870692Y-5242002D02*
X6875453Y-5246764D01*
X6875453Y-5246764D02*
X6880215Y-5256288D01*
X6880215Y-5256288D02*
X6880215Y-5265812D01*
X6880215Y-5265812D02*
X6875453Y-5280098D01*
X6875453Y-5280098D02*
X6818311Y-5337240D01*
X6818311Y-5337240D02*
X6880215Y-5337240D01*
X6965930Y-5237240D02*
X6946882Y-5237240D01*
X6946882Y-5237240D02*
X6937358Y-5242002D01*
X6937358Y-5242002D02*
X6932596Y-5246764D01*
X6932596Y-5246764D02*
X6923073Y-5261050D01*
X6923073Y-5261050D02*
X6918311Y-5280098D01*
X6918311Y-5280098D02*
X6918311Y-5318193D01*
X6918311Y-5318193D02*
X6923073Y-5327717D01*
X6923073Y-5327717D02*
X6927834Y-5332479D01*
X6927834Y-5332479D02*
X6937358Y-5337240D01*
X6937358Y-5337240D02*
X6956406Y-5337240D01*
X6956406Y-5337240D02*
X6965930Y-5332479D01*
X6965930Y-5332479D02*
X6970692Y-5327717D01*
X6970692Y-5327717D02*
X6975453Y-5318193D01*
X6975453Y-5318193D02*
X6975453Y-5294383D01*
X6975453Y-5294383D02*
X6970692Y-5284859D01*
X6970692Y-5284859D02*
X6965930Y-5280098D01*
X6965930Y-5280098D02*
X6956406Y-5275336D01*
X6956406Y-5275336D02*
X6937358Y-5275336D01*
X6937358Y-5275336D02*
X6927834Y-5280098D01*
X6927834Y-5280098D02*
X6923073Y-5284859D01*
X6923073Y-5284859D02*
X6918311Y-5294383D01*
%TO.C,R4*%
X10851333Y-6045482D02*
X10818000Y-5997863D01*
X10794191Y-6045482D02*
X10794191Y-5945482D01*
X10794191Y-5945482D02*
X10832286Y-5945482D01*
X10832286Y-5945482D02*
X10841810Y-5950244D01*
X10841810Y-5950244D02*
X10846571Y-5955006D01*
X10846571Y-5955006D02*
X10851333Y-5964529D01*
X10851333Y-5964529D02*
X10851333Y-5978815D01*
X10851333Y-5978815D02*
X10846571Y-5988339D01*
X10846571Y-5988339D02*
X10841810Y-5993101D01*
X10841810Y-5993101D02*
X10832286Y-5997863D01*
X10832286Y-5997863D02*
X10794191Y-5997863D01*
X10937048Y-5978815D02*
X10937048Y-6045482D01*
X10913238Y-5940720D02*
X10889429Y-6012148D01*
X10889429Y-6012148D02*
X10951333Y-6012148D01*
%TO.C,R5*%
X10847333Y-5855482D02*
X10814000Y-5807863D01*
X10790191Y-5855482D02*
X10790191Y-5755482D01*
X10790191Y-5755482D02*
X10828286Y-5755482D01*
X10828286Y-5755482D02*
X10837810Y-5760244D01*
X10837810Y-5760244D02*
X10842571Y-5765006D01*
X10842571Y-5765006D02*
X10847333Y-5774529D01*
X10847333Y-5774529D02*
X10847333Y-5788815D01*
X10847333Y-5788815D02*
X10842571Y-5798339D01*
X10842571Y-5798339D02*
X10837810Y-5803101D01*
X10837810Y-5803101D02*
X10828286Y-5807863D01*
X10828286Y-5807863D02*
X10790191Y-5807863D01*
X10937810Y-5755482D02*
X10890191Y-5755482D01*
X10890191Y-5755482D02*
X10885429Y-5803101D01*
X10885429Y-5803101D02*
X10890191Y-5798339D01*
X10890191Y-5798339D02*
X10899714Y-5793577D01*
X10899714Y-5793577D02*
X10923524Y-5793577D01*
X10923524Y-5793577D02*
X10933048Y-5798339D01*
X10933048Y-5798339D02*
X10937810Y-5803101D01*
X10937810Y-5803101D02*
X10942571Y-5812625D01*
X10942571Y-5812625D02*
X10942571Y-5836434D01*
X10942571Y-5836434D02*
X10937810Y-5845958D01*
X10937810Y-5845958D02*
X10933048Y-5850720D01*
X10933048Y-5850720D02*
X10923524Y-5855482D01*
X10923524Y-5855482D02*
X10899714Y-5855482D01*
X10899714Y-5855482D02*
X10890191Y-5850720D01*
X10890191Y-5850720D02*
X10885429Y-5845958D01*
%TO.C,R6*%
X4023333Y-895482D02*
X3990000Y-847863D01*
X3966190Y-895482D02*
X3966190Y-795482D01*
X3966190Y-795482D02*
X4004286Y-795482D01*
X4004286Y-795482D02*
X4013809Y-800244D01*
X4013809Y-800244D02*
X4018571Y-805006D01*
X4018571Y-805006D02*
X4023333Y-814529D01*
X4023333Y-814529D02*
X4023333Y-828815D01*
X4023333Y-828815D02*
X4018571Y-838339D01*
X4018571Y-838339D02*
X4013809Y-843101D01*
X4013809Y-843101D02*
X4004286Y-847863D01*
X4004286Y-847863D02*
X3966190Y-847863D01*
X4109048Y-795482D02*
X4090000Y-795482D01*
X4090000Y-795482D02*
X4080476Y-800244D01*
X4080476Y-800244D02*
X4075714Y-805006D01*
X4075714Y-805006D02*
X4066190Y-819291D01*
X4066190Y-819291D02*
X4061429Y-838339D01*
X4061429Y-838339D02*
X4061429Y-876434D01*
X4061429Y-876434D02*
X4066190Y-885958D01*
X4066190Y-885958D02*
X4070952Y-890720D01*
X4070952Y-890720D02*
X4080476Y-895482D01*
X4080476Y-895482D02*
X4099524Y-895482D01*
X4099524Y-895482D02*
X4109048Y-890720D01*
X4109048Y-890720D02*
X4113809Y-885958D01*
X4113809Y-885958D02*
X4118571Y-876434D01*
X4118571Y-876434D02*
X4118571Y-852625D01*
X4118571Y-852625D02*
X4113809Y-843101D01*
X4113809Y-843101D02*
X4109048Y-838339D01*
X4109048Y-838339D02*
X4099524Y-833577D01*
X4099524Y-833577D02*
X4080476Y-833577D01*
X4080476Y-833577D02*
X4070952Y-838339D01*
X4070952Y-838339D02*
X4066190Y-843101D01*
X4066190Y-843101D02*
X4061429Y-852625D01*
%TO.C,R18*%
X4045714Y-5205482D02*
X4012381Y-5157863D01*
X3988571Y-5205482D02*
X3988571Y-5105482D01*
X3988571Y-5105482D02*
X4026667Y-5105482D01*
X4026667Y-5105482D02*
X4036190Y-5110244D01*
X4036190Y-5110244D02*
X4040952Y-5115006D01*
X4040952Y-5115006D02*
X4045714Y-5124530D01*
X4045714Y-5124530D02*
X4045714Y-5138815D01*
X4045714Y-5138815D02*
X4040952Y-5148339D01*
X4040952Y-5148339D02*
X4036190Y-5153101D01*
X4036190Y-5153101D02*
X4026667Y-5157863D01*
X4026667Y-5157863D02*
X3988571Y-5157863D01*
X4140952Y-5205482D02*
X4083809Y-5205482D01*
X4112381Y-5205482D02*
X4112381Y-5105482D01*
X4112381Y-5105482D02*
X4102857Y-5119768D01*
X4102857Y-5119768D02*
X4093333Y-5129291D01*
X4093333Y-5129291D02*
X4083809Y-5134053D01*
X4198095Y-5148339D02*
X4188571Y-5143577D01*
X4188571Y-5143577D02*
X4183809Y-5138815D01*
X4183809Y-5138815D02*
X4179048Y-5129291D01*
X4179048Y-5129291D02*
X4179048Y-5124530D01*
X4179048Y-5124530D02*
X4183809Y-5115006D01*
X4183809Y-5115006D02*
X4188571Y-5110244D01*
X4188571Y-5110244D02*
X4198095Y-5105482D01*
X4198095Y-5105482D02*
X4217143Y-5105482D01*
X4217143Y-5105482D02*
X4226667Y-5110244D01*
X4226667Y-5110244D02*
X4231429Y-5115006D01*
X4231429Y-5115006D02*
X4236190Y-5124530D01*
X4236190Y-5124530D02*
X4236190Y-5129291D01*
X4236190Y-5129291D02*
X4231429Y-5138815D01*
X4231429Y-5138815D02*
X4226667Y-5143577D01*
X4226667Y-5143577D02*
X4217143Y-5148339D01*
X4217143Y-5148339D02*
X4198095Y-5148339D01*
X4198095Y-5148339D02*
X4188571Y-5153101D01*
X4188571Y-5153101D02*
X4183809Y-5157863D01*
X4183809Y-5157863D02*
X4179048Y-5167387D01*
X4179048Y-5167387D02*
X4179048Y-5186434D01*
X4179048Y-5186434D02*
X4183809Y-5195958D01*
X4183809Y-5195958D02*
X4188571Y-5200720D01*
X4188571Y-5200720D02*
X4198095Y-5205482D01*
X4198095Y-5205482D02*
X4217143Y-5205482D01*
X4217143Y-5205482D02*
X4226667Y-5200720D01*
X4226667Y-5200720D02*
X4231429Y-5195958D01*
X4231429Y-5195958D02*
X4236190Y-5186434D01*
X4236190Y-5186434D02*
X4236190Y-5167387D01*
X4236190Y-5167387D02*
X4231429Y-5157863D01*
X4231429Y-5157863D02*
X4226667Y-5153101D01*
X4226667Y-5153101D02*
X4217143Y-5148339D01*
%TO.C,U10*%
X9546191Y-925482D02*
X9546191Y-1006434D01*
X9546191Y-1006434D02*
X9550952Y-1015958D01*
X9550952Y-1015958D02*
X9555714Y-1020720D01*
X9555714Y-1020720D02*
X9565238Y-1025482D01*
X9565238Y-1025482D02*
X9584286Y-1025482D01*
X9584286Y-1025482D02*
X9593810Y-1020720D01*
X9593810Y-1020720D02*
X9598571Y-1015958D01*
X9598571Y-1015958D02*
X9603333Y-1006434D01*
X9603333Y-1006434D02*
X9603333Y-925482D01*
X9703333Y-1025482D02*
X9646191Y-1025482D01*
X9674762Y-1025482D02*
X9674762Y-925482D01*
X9674762Y-925482D02*
X9665238Y-939768D01*
X9665238Y-939768D02*
X9655714Y-949291D01*
X9655714Y-949291D02*
X9646191Y-954053D01*
X9765238Y-925482D02*
X9774762Y-925482D01*
X9774762Y-925482D02*
X9784286Y-930244D01*
X9784286Y-930244D02*
X9789048Y-935006D01*
X9789048Y-935006D02*
X9793810Y-944529D01*
X9793810Y-944529D02*
X9798571Y-963577D01*
X9798571Y-963577D02*
X9798571Y-987387D01*
X9798571Y-987387D02*
X9793810Y-1006434D01*
X9793810Y-1006434D02*
X9789048Y-1015958D01*
X9789048Y-1015958D02*
X9784286Y-1020720D01*
X9784286Y-1020720D02*
X9774762Y-1025482D01*
X9774762Y-1025482D02*
X9765238Y-1025482D01*
X9765238Y-1025482D02*
X9755714Y-1020720D01*
X9755714Y-1020720D02*
X9750952Y-1015958D01*
X9750952Y-1015958D02*
X9746191Y-1006434D01*
X9746191Y-1006434D02*
X9741429Y-987387D01*
X9741429Y-987387D02*
X9741429Y-963577D01*
X9741429Y-963577D02*
X9746191Y-944529D01*
X9746191Y-944529D02*
X9750952Y-935006D01*
X9750952Y-935006D02*
X9755714Y-930244D01*
X9755714Y-930244D02*
X9765238Y-925482D01*
%TO.C,D1*%
X1856190Y-1485482D02*
X1856190Y-1385482D01*
X1856190Y-1385482D02*
X1880000Y-1385482D01*
X1880000Y-1385482D02*
X1894286Y-1390244D01*
X1894286Y-1390244D02*
X1903809Y-1399768D01*
X1903809Y-1399768D02*
X1908571Y-1409291D01*
X1908571Y-1409291D02*
X1913333Y-1428339D01*
X1913333Y-1428339D02*
X1913333Y-1442625D01*
X1913333Y-1442625D02*
X1908571Y-1461672D01*
X1908571Y-1461672D02*
X1903809Y-1471196D01*
X1903809Y-1471196D02*
X1894286Y-1480720D01*
X1894286Y-1480720D02*
X1880000Y-1485482D01*
X1880000Y-1485482D02*
X1856190Y-1485482D01*
X2008571Y-1485482D02*
X1951429Y-1485482D01*
X1980000Y-1485482D02*
X1980000Y-1385482D01*
X1980000Y-1385482D02*
X1970476Y-1399768D01*
X1970476Y-1399768D02*
X1960952Y-1409291D01*
X1960952Y-1409291D02*
X1951429Y-1414053D01*
%TO.C,R30*%
X9835482Y-2314286D02*
X9787863Y-2347619D01*
X9835482Y-2371429D02*
X9735482Y-2371429D01*
X9735482Y-2371429D02*
X9735482Y-2333333D01*
X9735482Y-2333333D02*
X9740244Y-2323810D01*
X9740244Y-2323810D02*
X9745006Y-2319048D01*
X9745006Y-2319048D02*
X9754530Y-2314286D01*
X9754530Y-2314286D02*
X9768815Y-2314286D01*
X9768815Y-2314286D02*
X9778339Y-2319048D01*
X9778339Y-2319048D02*
X9783101Y-2323810D01*
X9783101Y-2323810D02*
X9787863Y-2333333D01*
X9787863Y-2333333D02*
X9787863Y-2371429D01*
X9735482Y-2280952D02*
X9735482Y-2219048D01*
X9735482Y-2219048D02*
X9773577Y-2252381D01*
X9773577Y-2252381D02*
X9773577Y-2238095D01*
X9773577Y-2238095D02*
X9778339Y-2228571D01*
X9778339Y-2228571D02*
X9783101Y-2223810D01*
X9783101Y-2223810D02*
X9792625Y-2219048D01*
X9792625Y-2219048D02*
X9816434Y-2219048D01*
X9816434Y-2219048D02*
X9825958Y-2223810D01*
X9825958Y-2223810D02*
X9830720Y-2228571D01*
X9830720Y-2228571D02*
X9835482Y-2238095D01*
X9835482Y-2238095D02*
X9835482Y-2266667D01*
X9835482Y-2266667D02*
X9830720Y-2276190D01*
X9830720Y-2276190D02*
X9825958Y-2280952D01*
X9735482Y-2157143D02*
X9735482Y-2147619D01*
X9735482Y-2147619D02*
X9740244Y-2138095D01*
X9740244Y-2138095D02*
X9745006Y-2133333D01*
X9745006Y-2133333D02*
X9754530Y-2128571D01*
X9754530Y-2128571D02*
X9773577Y-2123810D01*
X9773577Y-2123810D02*
X9797387Y-2123810D01*
X9797387Y-2123810D02*
X9816434Y-2128571D01*
X9816434Y-2128571D02*
X9825958Y-2133333D01*
X9825958Y-2133333D02*
X9830720Y-2138095D01*
X9830720Y-2138095D02*
X9835482Y-2147619D01*
X9835482Y-2147619D02*
X9835482Y-2157143D01*
X9835482Y-2157143D02*
X9830720Y-2166667D01*
X9830720Y-2166667D02*
X9825958Y-2171429D01*
X9825958Y-2171429D02*
X9816434Y-2176190D01*
X9816434Y-2176190D02*
X9797387Y-2180952D01*
X9797387Y-2180952D02*
X9773577Y-2180952D01*
X9773577Y-2180952D02*
X9754530Y-2176190D01*
X9754530Y-2176190D02*
X9745006Y-2171429D01*
X9745006Y-2171429D02*
X9740244Y-2166667D01*
X9740244Y-2166667D02*
X9735482Y-2157143D01*
%TO.C,U8*%
X8113809Y-1375482D02*
X8113809Y-1456434D01*
X8113809Y-1456434D02*
X8118571Y-1465958D01*
X8118571Y-1465958D02*
X8123333Y-1470720D01*
X8123333Y-1470720D02*
X8132857Y-1475482D01*
X8132857Y-1475482D02*
X8151905Y-1475482D01*
X8151905Y-1475482D02*
X8161428Y-1470720D01*
X8161428Y-1470720D02*
X8166190Y-1465958D01*
X8166190Y-1465958D02*
X8170952Y-1456434D01*
X8170952Y-1456434D02*
X8170952Y-1375482D01*
X8232857Y-1418339D02*
X8223333Y-1413577D01*
X8223333Y-1413577D02*
X8218571Y-1408815D01*
X8218571Y-1408815D02*
X8213809Y-1399291D01*
X8213809Y-1399291D02*
X8213809Y-1394530D01*
X8213809Y-1394530D02*
X8218571Y-1385006D01*
X8218571Y-1385006D02*
X8223333Y-1380244D01*
X8223333Y-1380244D02*
X8232857Y-1375482D01*
X8232857Y-1375482D02*
X8251905Y-1375482D01*
X8251905Y-1375482D02*
X8261428Y-1380244D01*
X8261428Y-1380244D02*
X8266190Y-1385006D01*
X8266190Y-1385006D02*
X8270952Y-1394530D01*
X8270952Y-1394530D02*
X8270952Y-1399291D01*
X8270952Y-1399291D02*
X8266190Y-1408815D01*
X8266190Y-1408815D02*
X8261428Y-1413577D01*
X8261428Y-1413577D02*
X8251905Y-1418339D01*
X8251905Y-1418339D02*
X8232857Y-1418339D01*
X8232857Y-1418339D02*
X8223333Y-1423101D01*
X8223333Y-1423101D02*
X8218571Y-1427863D01*
X8218571Y-1427863D02*
X8213809Y-1437387D01*
X8213809Y-1437387D02*
X8213809Y-1456434D01*
X8213809Y-1456434D02*
X8218571Y-1465958D01*
X8218571Y-1465958D02*
X8223333Y-1470720D01*
X8223333Y-1470720D02*
X8232857Y-1475482D01*
X8232857Y-1475482D02*
X8251905Y-1475482D01*
X8251905Y-1475482D02*
X8261428Y-1470720D01*
X8261428Y-1470720D02*
X8266190Y-1465958D01*
X8266190Y-1465958D02*
X8270952Y-1456434D01*
X8270952Y-1456434D02*
X8270952Y-1437387D01*
X8270952Y-1437387D02*
X8266190Y-1427863D01*
X8266190Y-1427863D02*
X8261428Y-1423101D01*
X8261428Y-1423101D02*
X8251905Y-1418339D01*
%TO.C,C16*%
X10630714Y-5430958D02*
X10625952Y-5435720D01*
X10625952Y-5435720D02*
X10611667Y-5440482D01*
X10611667Y-5440482D02*
X10602143Y-5440482D01*
X10602143Y-5440482D02*
X10587857Y-5435720D01*
X10587857Y-5435720D02*
X10578333Y-5426196D01*
X10578333Y-5426196D02*
X10573571Y-5416672D01*
X10573571Y-5416672D02*
X10568810Y-5397625D01*
X10568810Y-5397625D02*
X10568810Y-5383339D01*
X10568810Y-5383339D02*
X10573571Y-5364291D01*
X10573571Y-5364291D02*
X10578333Y-5354768D01*
X10578333Y-5354768D02*
X10587857Y-5345244D01*
X10587857Y-5345244D02*
X10602143Y-5340482D01*
X10602143Y-5340482D02*
X10611667Y-5340482D01*
X10611667Y-5340482D02*
X10625952Y-5345244D01*
X10625952Y-5345244D02*
X10630714Y-5350006D01*
X10725952Y-5440482D02*
X10668810Y-5440482D01*
X10697381Y-5440482D02*
X10697381Y-5340482D01*
X10697381Y-5340482D02*
X10687857Y-5354768D01*
X10687857Y-5354768D02*
X10678333Y-5364291D01*
X10678333Y-5364291D02*
X10668810Y-5369053D01*
X10811667Y-5340482D02*
X10792619Y-5340482D01*
X10792619Y-5340482D02*
X10783095Y-5345244D01*
X10783095Y-5345244D02*
X10778333Y-5350006D01*
X10778333Y-5350006D02*
X10768810Y-5364291D01*
X10768810Y-5364291D02*
X10764048Y-5383339D01*
X10764048Y-5383339D02*
X10764048Y-5421434D01*
X10764048Y-5421434D02*
X10768810Y-5430958D01*
X10768810Y-5430958D02*
X10773571Y-5435720D01*
X10773571Y-5435720D02*
X10783095Y-5440482D01*
X10783095Y-5440482D02*
X10802143Y-5440482D01*
X10802143Y-5440482D02*
X10811667Y-5435720D01*
X10811667Y-5435720D02*
X10816429Y-5430958D01*
X10816429Y-5430958D02*
X10821190Y-5421434D01*
X10821190Y-5421434D02*
X10821190Y-5397625D01*
X10821190Y-5397625D02*
X10816429Y-5388101D01*
X10816429Y-5388101D02*
X10811667Y-5383339D01*
X10811667Y-5383339D02*
X10802143Y-5378577D01*
X10802143Y-5378577D02*
X10783095Y-5378577D01*
X10783095Y-5378577D02*
X10773571Y-5383339D01*
X10773571Y-5383339D02*
X10768810Y-5388101D01*
X10768810Y-5388101D02*
X10764048Y-5397625D01*
%TO.C,R2*%
X4253333Y-1965068D02*
X4220000Y-1917449D01*
X4196191Y-1965068D02*
X4196191Y-1865068D01*
X4196191Y-1865068D02*
X4234286Y-1865068D01*
X4234286Y-1865068D02*
X4243810Y-1869830D01*
X4243810Y-1869830D02*
X4248571Y-1874592D01*
X4248571Y-1874592D02*
X4253333Y-1884116D01*
X4253333Y-1884116D02*
X4253333Y-1898401D01*
X4253333Y-1898401D02*
X4248571Y-1907925D01*
X4248571Y-1907925D02*
X4243810Y-1912687D01*
X4243810Y-1912687D02*
X4234286Y-1917449D01*
X4234286Y-1917449D02*
X4196191Y-1917449D01*
X4291429Y-1874592D02*
X4296191Y-1869830D01*
X4296191Y-1869830D02*
X4305714Y-1865068D01*
X4305714Y-1865068D02*
X4329524Y-1865068D01*
X4329524Y-1865068D02*
X4339048Y-1869830D01*
X4339048Y-1869830D02*
X4343810Y-1874592D01*
X4343810Y-1874592D02*
X4348571Y-1884116D01*
X4348571Y-1884116D02*
X4348571Y-1893639D01*
X4348571Y-1893639D02*
X4343810Y-1907925D01*
X4343810Y-1907925D02*
X4286667Y-1965068D01*
X4286667Y-1965068D02*
X4348571Y-1965068D01*
%TO.C,X1*%
X4759048Y-5295482D02*
X4825714Y-5395482D01*
X4825714Y-5295482D02*
X4759048Y-5395482D01*
X4916190Y-5395482D02*
X4859048Y-5395482D01*
X4887619Y-5395482D02*
X4887619Y-5295482D01*
X4887619Y-5295482D02*
X4878095Y-5309768D01*
X4878095Y-5309768D02*
X4868571Y-5319291D01*
X4868571Y-5319291D02*
X4859048Y-5324053D01*
%TO.C,R3*%
X4254070Y-2150068D02*
X4220737Y-2102449D01*
X4196927Y-2150068D02*
X4196927Y-2050068D01*
X4196927Y-2050068D02*
X4235023Y-2050068D01*
X4235023Y-2050068D02*
X4244546Y-2054830D01*
X4244546Y-2054830D02*
X4249308Y-2059592D01*
X4249308Y-2059592D02*
X4254070Y-2069116D01*
X4254070Y-2069116D02*
X4254070Y-2083401D01*
X4254070Y-2083401D02*
X4249308Y-2092925D01*
X4249308Y-2092925D02*
X4244546Y-2097687D01*
X4244546Y-2097687D02*
X4235023Y-2102449D01*
X4235023Y-2102449D02*
X4196927Y-2102449D01*
X4287404Y-2050068D02*
X4349308Y-2050068D01*
X4349308Y-2050068D02*
X4315975Y-2088163D01*
X4315975Y-2088163D02*
X4330261Y-2088163D01*
X4330261Y-2088163D02*
X4339785Y-2092925D01*
X4339785Y-2092925D02*
X4344546Y-2097687D01*
X4344546Y-2097687D02*
X4349308Y-2107211D01*
X4349308Y-2107211D02*
X4349308Y-2131020D01*
X4349308Y-2131020D02*
X4344546Y-2140544D01*
X4344546Y-2140544D02*
X4339785Y-2145306D01*
X4339785Y-2145306D02*
X4330261Y-2150068D01*
X4330261Y-2150068D02*
X4301689Y-2150068D01*
X4301689Y-2150068D02*
X4292166Y-2145306D01*
X4292166Y-2145306D02*
X4287404Y-2140544D01*
%TO.C,U6*%
X5969211Y-4302240D02*
X5969211Y-4383193D01*
X5969211Y-4383193D02*
X5973973Y-4392717D01*
X5973973Y-4392717D02*
X5978735Y-4397479D01*
X5978735Y-4397479D02*
X5988259Y-4402240D01*
X5988259Y-4402240D02*
X6007306Y-4402240D01*
X6007306Y-4402240D02*
X6016830Y-4397479D01*
X6016830Y-4397479D02*
X6021592Y-4392717D01*
X6021592Y-4392717D02*
X6026354Y-4383193D01*
X6026354Y-4383193D02*
X6026354Y-4302240D01*
X6116830Y-4302240D02*
X6097783Y-4302240D01*
X6097783Y-4302240D02*
X6088259Y-4307002D01*
X6088259Y-4307002D02*
X6083497Y-4311764D01*
X6083497Y-4311764D02*
X6073973Y-4326050D01*
X6073973Y-4326050D02*
X6069211Y-4345098D01*
X6069211Y-4345098D02*
X6069211Y-4383193D01*
X6069211Y-4383193D02*
X6073973Y-4392717D01*
X6073973Y-4392717D02*
X6078735Y-4397479D01*
X6078735Y-4397479D02*
X6088259Y-4402240D01*
X6088259Y-4402240D02*
X6107306Y-4402240D01*
X6107306Y-4402240D02*
X6116830Y-4397479D01*
X6116830Y-4397479D02*
X6121592Y-4392717D01*
X6121592Y-4392717D02*
X6126354Y-4383193D01*
X6126354Y-4383193D02*
X6126354Y-4359383D01*
X6126354Y-4359383D02*
X6121592Y-4349859D01*
X6121592Y-4349859D02*
X6116830Y-4345098D01*
X6116830Y-4345098D02*
X6107306Y-4340336D01*
X6107306Y-4340336D02*
X6088259Y-4340336D01*
X6088259Y-4340336D02*
X6078735Y-4345098D01*
X6078735Y-4345098D02*
X6073973Y-4349859D01*
X6073973Y-4349859D02*
X6069211Y-4359383D01*
%TO.C,R14*%
X4565482Y-2834286D02*
X4517863Y-2867619D01*
X4565482Y-2891428D02*
X4465482Y-2891428D01*
X4465482Y-2891428D02*
X4465482Y-2853333D01*
X4465482Y-2853333D02*
X4470244Y-2843809D01*
X4470244Y-2843809D02*
X4475006Y-2839048D01*
X4475006Y-2839048D02*
X4484530Y-2834286D01*
X4484530Y-2834286D02*
X4498815Y-2834286D01*
X4498815Y-2834286D02*
X4508339Y-2839048D01*
X4508339Y-2839048D02*
X4513101Y-2843809D01*
X4513101Y-2843809D02*
X4517863Y-2853333D01*
X4517863Y-2853333D02*
X4517863Y-2891428D01*
X4565482Y-2739048D02*
X4565482Y-2796190D01*
X4565482Y-2767619D02*
X4465482Y-2767619D01*
X4465482Y-2767619D02*
X4479768Y-2777143D01*
X4479768Y-2777143D02*
X4489291Y-2786667D01*
X4489291Y-2786667D02*
X4494053Y-2796190D01*
X4498815Y-2653333D02*
X4565482Y-2653333D01*
X4460720Y-2677143D02*
X4532149Y-2700952D01*
X4532149Y-2700952D02*
X4532149Y-2639048D01*
%TO.C,C19*%
X7575714Y-2720958D02*
X7570952Y-2725720D01*
X7570952Y-2725720D02*
X7556667Y-2730482D01*
X7556667Y-2730482D02*
X7547143Y-2730482D01*
X7547143Y-2730482D02*
X7532857Y-2725720D01*
X7532857Y-2725720D02*
X7523333Y-2716196D01*
X7523333Y-2716196D02*
X7518571Y-2706672D01*
X7518571Y-2706672D02*
X7513809Y-2687625D01*
X7513809Y-2687625D02*
X7513809Y-2673339D01*
X7513809Y-2673339D02*
X7518571Y-2654291D01*
X7518571Y-2654291D02*
X7523333Y-2644768D01*
X7523333Y-2644768D02*
X7532857Y-2635244D01*
X7532857Y-2635244D02*
X7547143Y-2630482D01*
X7547143Y-2630482D02*
X7556667Y-2630482D01*
X7556667Y-2630482D02*
X7570952Y-2635244D01*
X7570952Y-2635244D02*
X7575714Y-2640006D01*
X7670952Y-2730482D02*
X7613809Y-2730482D01*
X7642381Y-2730482D02*
X7642381Y-2630482D01*
X7642381Y-2630482D02*
X7632857Y-2644768D01*
X7632857Y-2644768D02*
X7623333Y-2654291D01*
X7623333Y-2654291D02*
X7613809Y-2659053D01*
X7718571Y-2730482D02*
X7737619Y-2730482D01*
X7737619Y-2730482D02*
X7747143Y-2725720D01*
X7747143Y-2725720D02*
X7751905Y-2720958D01*
X7751905Y-2720958D02*
X7761428Y-2706672D01*
X7761428Y-2706672D02*
X7766190Y-2687625D01*
X7766190Y-2687625D02*
X7766190Y-2649530D01*
X7766190Y-2649530D02*
X7761428Y-2640006D01*
X7761428Y-2640006D02*
X7756667Y-2635244D01*
X7756667Y-2635244D02*
X7747143Y-2630482D01*
X7747143Y-2630482D02*
X7728095Y-2630482D01*
X7728095Y-2630482D02*
X7718571Y-2635244D01*
X7718571Y-2635244D02*
X7713809Y-2640006D01*
X7713809Y-2640006D02*
X7709048Y-2649530D01*
X7709048Y-2649530D02*
X7709048Y-2673339D01*
X7709048Y-2673339D02*
X7713809Y-2682863D01*
X7713809Y-2682863D02*
X7718571Y-2687625D01*
X7718571Y-2687625D02*
X7728095Y-2692387D01*
X7728095Y-2692387D02*
X7747143Y-2692387D01*
X7747143Y-2692387D02*
X7756667Y-2687625D01*
X7756667Y-2687625D02*
X7761428Y-2682863D01*
X7761428Y-2682863D02*
X7766190Y-2673339D01*
%TO.C,C20*%
X7755714Y-905958D02*
X7750952Y-910720D01*
X7750952Y-910720D02*
X7736667Y-915482D01*
X7736667Y-915482D02*
X7727143Y-915482D01*
X7727143Y-915482D02*
X7712857Y-910720D01*
X7712857Y-910720D02*
X7703333Y-901196D01*
X7703333Y-901196D02*
X7698571Y-891672D01*
X7698571Y-891672D02*
X7693809Y-872625D01*
X7693809Y-872625D02*
X7693809Y-858339D01*
X7693809Y-858339D02*
X7698571Y-839291D01*
X7698571Y-839291D02*
X7703333Y-829768D01*
X7703333Y-829768D02*
X7712857Y-820244D01*
X7712857Y-820244D02*
X7727143Y-815482D01*
X7727143Y-815482D02*
X7736667Y-815482D01*
X7736667Y-815482D02*
X7750952Y-820244D01*
X7750952Y-820244D02*
X7755714Y-825006D01*
X7793809Y-825006D02*
X7798571Y-820244D01*
X7798571Y-820244D02*
X7808095Y-815482D01*
X7808095Y-815482D02*
X7831905Y-815482D01*
X7831905Y-815482D02*
X7841428Y-820244D01*
X7841428Y-820244D02*
X7846190Y-825006D01*
X7846190Y-825006D02*
X7850952Y-834529D01*
X7850952Y-834529D02*
X7850952Y-844053D01*
X7850952Y-844053D02*
X7846190Y-858339D01*
X7846190Y-858339D02*
X7789048Y-915482D01*
X7789048Y-915482D02*
X7850952Y-915482D01*
X7912857Y-815482D02*
X7922381Y-815482D01*
X7922381Y-815482D02*
X7931905Y-820244D01*
X7931905Y-820244D02*
X7936667Y-825006D01*
X7936667Y-825006D02*
X7941428Y-834529D01*
X7941428Y-834529D02*
X7946190Y-853577D01*
X7946190Y-853577D02*
X7946190Y-877387D01*
X7946190Y-877387D02*
X7941428Y-896434D01*
X7941428Y-896434D02*
X7936667Y-905958D01*
X7936667Y-905958D02*
X7931905Y-910720D01*
X7931905Y-910720D02*
X7922381Y-915482D01*
X7922381Y-915482D02*
X7912857Y-915482D01*
X7912857Y-915482D02*
X7903333Y-910720D01*
X7903333Y-910720D02*
X7898571Y-905958D01*
X7898571Y-905958D02*
X7893809Y-896434D01*
X7893809Y-896434D02*
X7889048Y-877387D01*
X7889048Y-877387D02*
X7889048Y-853577D01*
X7889048Y-853577D02*
X7893809Y-834529D01*
X7893809Y-834529D02*
X7898571Y-825006D01*
X7898571Y-825006D02*
X7903333Y-820244D01*
X7903333Y-820244D02*
X7912857Y-815482D01*
%TO.C,R11*%
X6526116Y-3182240D02*
X6492783Y-3134621D01*
X6468973Y-3182240D02*
X6468973Y-3082240D01*
X6468973Y-3082240D02*
X6507068Y-3082240D01*
X6507068Y-3082240D02*
X6516592Y-3087002D01*
X6516592Y-3087002D02*
X6521354Y-3091764D01*
X6521354Y-3091764D02*
X6526116Y-3101288D01*
X6526116Y-3101288D02*
X6526116Y-3115574D01*
X6526116Y-3115574D02*
X6521354Y-3125097D01*
X6521354Y-3125097D02*
X6516592Y-3129859D01*
X6516592Y-3129859D02*
X6507068Y-3134621D01*
X6507068Y-3134621D02*
X6468973Y-3134621D01*
X6621354Y-3182240D02*
X6564211Y-3182240D01*
X6592783Y-3182240D02*
X6592783Y-3082240D01*
X6592783Y-3082240D02*
X6583259Y-3096526D01*
X6583259Y-3096526D02*
X6573735Y-3106050D01*
X6573735Y-3106050D02*
X6564211Y-3110812D01*
X6716592Y-3182240D02*
X6659449Y-3182240D01*
X6688021Y-3182240D02*
X6688021Y-3082240D01*
X6688021Y-3082240D02*
X6678497Y-3096526D01*
X6678497Y-3096526D02*
X6668973Y-3106050D01*
X6668973Y-3106050D02*
X6659449Y-3110812D01*
%TO.C,R12*%
X6925714Y-2795482D02*
X6892381Y-2747863D01*
X6868571Y-2795482D02*
X6868571Y-2695482D01*
X6868571Y-2695482D02*
X6906667Y-2695482D01*
X6906667Y-2695482D02*
X6916190Y-2700244D01*
X6916190Y-2700244D02*
X6920952Y-2705006D01*
X6920952Y-2705006D02*
X6925714Y-2714530D01*
X6925714Y-2714530D02*
X6925714Y-2728815D01*
X6925714Y-2728815D02*
X6920952Y-2738339D01*
X6920952Y-2738339D02*
X6916190Y-2743101D01*
X6916190Y-2743101D02*
X6906667Y-2747863D01*
X6906667Y-2747863D02*
X6868571Y-2747863D01*
X7020952Y-2795482D02*
X6963809Y-2795482D01*
X6992381Y-2795482D02*
X6992381Y-2695482D01*
X6992381Y-2695482D02*
X6982857Y-2709768D01*
X6982857Y-2709768D02*
X6973333Y-2719291D01*
X6973333Y-2719291D02*
X6963809Y-2724053D01*
X7059048Y-2705006D02*
X7063809Y-2700244D01*
X7063809Y-2700244D02*
X7073333Y-2695482D01*
X7073333Y-2695482D02*
X7097143Y-2695482D01*
X7097143Y-2695482D02*
X7106667Y-2700244D01*
X7106667Y-2700244D02*
X7111428Y-2705006D01*
X7111428Y-2705006D02*
X7116190Y-2714530D01*
X7116190Y-2714530D02*
X7116190Y-2724053D01*
X7116190Y-2724053D02*
X7111428Y-2738339D01*
X7111428Y-2738339D02*
X7054286Y-2795482D01*
X7054286Y-2795482D02*
X7116190Y-2795482D01*
%TO.C,C18*%
X9113451Y-6975544D02*
X9108689Y-6980306D01*
X9108689Y-6980306D02*
X9094404Y-6985068D01*
X9094404Y-6985068D02*
X9084880Y-6985068D01*
X9084880Y-6985068D02*
X9070594Y-6980306D01*
X9070594Y-6980306D02*
X9061070Y-6970782D01*
X9061070Y-6970782D02*
X9056308Y-6961258D01*
X9056308Y-6961258D02*
X9051546Y-6942211D01*
X9051546Y-6942211D02*
X9051546Y-6927925D01*
X9051546Y-6927925D02*
X9056308Y-6908878D01*
X9056308Y-6908878D02*
X9061070Y-6899354D01*
X9061070Y-6899354D02*
X9070594Y-6889830D01*
X9070594Y-6889830D02*
X9084880Y-6885068D01*
X9084880Y-6885068D02*
X9094404Y-6885068D01*
X9094404Y-6885068D02*
X9108689Y-6889830D01*
X9108689Y-6889830D02*
X9113451Y-6894592D01*
X9208689Y-6985068D02*
X9151546Y-6985068D01*
X9180118Y-6985068D02*
X9180118Y-6885068D01*
X9180118Y-6885068D02*
X9170594Y-6899354D01*
X9170594Y-6899354D02*
X9161070Y-6908878D01*
X9161070Y-6908878D02*
X9151546Y-6913639D01*
X9265832Y-6927925D02*
X9256308Y-6923163D01*
X9256308Y-6923163D02*
X9251546Y-6918401D01*
X9251546Y-6918401D02*
X9246785Y-6908878D01*
X9246785Y-6908878D02*
X9246785Y-6904116D01*
X9246785Y-6904116D02*
X9251546Y-6894592D01*
X9251546Y-6894592D02*
X9256308Y-6889830D01*
X9256308Y-6889830D02*
X9265832Y-6885068D01*
X9265832Y-6885068D02*
X9284880Y-6885068D01*
X9284880Y-6885068D02*
X9294404Y-6889830D01*
X9294404Y-6889830D02*
X9299165Y-6894592D01*
X9299165Y-6894592D02*
X9303927Y-6904116D01*
X9303927Y-6904116D02*
X9303927Y-6908878D01*
X9303927Y-6908878D02*
X9299165Y-6918401D01*
X9299165Y-6918401D02*
X9294404Y-6923163D01*
X9294404Y-6923163D02*
X9284880Y-6927925D01*
X9284880Y-6927925D02*
X9265832Y-6927925D01*
X9265832Y-6927925D02*
X9256308Y-6932687D01*
X9256308Y-6932687D02*
X9251546Y-6937449D01*
X9251546Y-6937449D02*
X9246785Y-6946973D01*
X9246785Y-6946973D02*
X9246785Y-6966020D01*
X9246785Y-6966020D02*
X9251546Y-6975544D01*
X9251546Y-6975544D02*
X9256308Y-6980306D01*
X9256308Y-6980306D02*
X9265832Y-6985068D01*
X9265832Y-6985068D02*
X9284880Y-6985068D01*
X9284880Y-6985068D02*
X9294404Y-6980306D01*
X9294404Y-6980306D02*
X9299165Y-6975544D01*
X9299165Y-6975544D02*
X9303927Y-6966020D01*
X9303927Y-6966020D02*
X9303927Y-6946973D01*
X9303927Y-6946973D02*
X9299165Y-6937449D01*
X9299165Y-6937449D02*
X9294404Y-6932687D01*
X9294404Y-6932687D02*
X9284880Y-6927925D01*
%TO.C,R13*%
X4865482Y-2834286D02*
X4817863Y-2867619D01*
X4865482Y-2891428D02*
X4765482Y-2891428D01*
X4765482Y-2891428D02*
X4765482Y-2853333D01*
X4765482Y-2853333D02*
X4770244Y-2843809D01*
X4770244Y-2843809D02*
X4775006Y-2839048D01*
X4775006Y-2839048D02*
X4784530Y-2834286D01*
X4784530Y-2834286D02*
X4798815Y-2834286D01*
X4798815Y-2834286D02*
X4808339Y-2839048D01*
X4808339Y-2839048D02*
X4813101Y-2843809D01*
X4813101Y-2843809D02*
X4817863Y-2853333D01*
X4817863Y-2853333D02*
X4817863Y-2891428D01*
X4865482Y-2739048D02*
X4865482Y-2796190D01*
X4865482Y-2767619D02*
X4765482Y-2767619D01*
X4765482Y-2767619D02*
X4779768Y-2777143D01*
X4779768Y-2777143D02*
X4789291Y-2786667D01*
X4789291Y-2786667D02*
X4794053Y-2796190D01*
X4765482Y-2705714D02*
X4765482Y-2643810D01*
X4765482Y-2643810D02*
X4803577Y-2677143D01*
X4803577Y-2677143D02*
X4803577Y-2662857D01*
X4803577Y-2662857D02*
X4808339Y-2653333D01*
X4808339Y-2653333D02*
X4813101Y-2648571D01*
X4813101Y-2648571D02*
X4822625Y-2643810D01*
X4822625Y-2643810D02*
X4846434Y-2643810D01*
X4846434Y-2643810D02*
X4855958Y-2648571D01*
X4855958Y-2648571D02*
X4860720Y-2653333D01*
X4860720Y-2653333D02*
X4865482Y-2662857D01*
X4865482Y-2662857D02*
X4865482Y-2691429D01*
X4865482Y-2691429D02*
X4860720Y-2700952D01*
X4860720Y-2700952D02*
X4855958Y-2705714D01*
%TO.C,GPS_RXI1*%
X6691428Y-5930244D02*
X6681905Y-5925482D01*
X6681905Y-5925482D02*
X6667619Y-5925482D01*
X6667619Y-5925482D02*
X6653333Y-5930244D01*
X6653333Y-5930244D02*
X6643809Y-5939768D01*
X6643809Y-5939768D02*
X6639048Y-5949291D01*
X6639048Y-5949291D02*
X6634286Y-5968339D01*
X6634286Y-5968339D02*
X6634286Y-5982625D01*
X6634286Y-5982625D02*
X6639048Y-6001672D01*
X6639048Y-6001672D02*
X6643809Y-6011196D01*
X6643809Y-6011196D02*
X6653333Y-6020720D01*
X6653333Y-6020720D02*
X6667619Y-6025482D01*
X6667619Y-6025482D02*
X6677143Y-6025482D01*
X6677143Y-6025482D02*
X6691428Y-6020720D01*
X6691428Y-6020720D02*
X6696190Y-6015958D01*
X6696190Y-6015958D02*
X6696190Y-5982625D01*
X6696190Y-5982625D02*
X6677143Y-5982625D01*
X6739048Y-6025482D02*
X6739048Y-5925482D01*
X6739048Y-5925482D02*
X6777143Y-5925482D01*
X6777143Y-5925482D02*
X6786667Y-5930244D01*
X6786667Y-5930244D02*
X6791428Y-5935006D01*
X6791428Y-5935006D02*
X6796190Y-5944529D01*
X6796190Y-5944529D02*
X6796190Y-5958815D01*
X6796190Y-5958815D02*
X6791428Y-5968339D01*
X6791428Y-5968339D02*
X6786667Y-5973101D01*
X6786667Y-5973101D02*
X6777143Y-5977863D01*
X6777143Y-5977863D02*
X6739048Y-5977863D01*
X6834286Y-6020720D02*
X6848571Y-6025482D01*
X6848571Y-6025482D02*
X6872381Y-6025482D01*
X6872381Y-6025482D02*
X6881905Y-6020720D01*
X6881905Y-6020720D02*
X6886667Y-6015958D01*
X6886667Y-6015958D02*
X6891428Y-6006434D01*
X6891428Y-6006434D02*
X6891428Y-5996910D01*
X6891428Y-5996910D02*
X6886667Y-5987387D01*
X6886667Y-5987387D02*
X6881905Y-5982625D01*
X6881905Y-5982625D02*
X6872381Y-5977863D01*
X6872381Y-5977863D02*
X6853333Y-5973101D01*
X6853333Y-5973101D02*
X6843809Y-5968339D01*
X6843809Y-5968339D02*
X6839048Y-5963577D01*
X6839048Y-5963577D02*
X6834286Y-5954053D01*
X6834286Y-5954053D02*
X6834286Y-5944529D01*
X6834286Y-5944529D02*
X6839048Y-5935006D01*
X6839048Y-5935006D02*
X6843809Y-5930244D01*
X6843809Y-5930244D02*
X6853333Y-5925482D01*
X6853333Y-5925482D02*
X6877143Y-5925482D01*
X6877143Y-5925482D02*
X6891428Y-5930244D01*
X6910476Y-6035006D02*
X6986667Y-6035006D01*
X7067619Y-6025482D02*
X7034286Y-5977863D01*
X7010476Y-6025482D02*
X7010476Y-5925482D01*
X7010476Y-5925482D02*
X7048571Y-5925482D01*
X7048571Y-5925482D02*
X7058095Y-5930244D01*
X7058095Y-5930244D02*
X7062857Y-5935006D01*
X7062857Y-5935006D02*
X7067619Y-5944529D01*
X7067619Y-5944529D02*
X7067619Y-5958815D01*
X7067619Y-5958815D02*
X7062857Y-5968339D01*
X7062857Y-5968339D02*
X7058095Y-5973101D01*
X7058095Y-5973101D02*
X7048571Y-5977863D01*
X7048571Y-5977863D02*
X7010476Y-5977863D01*
X7100952Y-5925482D02*
X7167619Y-6025482D01*
X7167619Y-5925482D02*
X7100952Y-6025482D01*
X7205714Y-6025482D02*
X7205714Y-5925482D01*
X7305714Y-6025482D02*
X7248571Y-6025482D01*
X7277143Y-6025482D02*
X7277143Y-5925482D01*
X7277143Y-5925482D02*
X7267619Y-5939768D01*
X7267619Y-5939768D02*
X7258095Y-5949291D01*
X7258095Y-5949291D02*
X7248571Y-5954053D01*
%TO.C,C27*%
X9205714Y-824699D02*
X9200952Y-829461D01*
X9200952Y-829461D02*
X9186667Y-834223D01*
X9186667Y-834223D02*
X9177143Y-834223D01*
X9177143Y-834223D02*
X9162857Y-829461D01*
X9162857Y-829461D02*
X9153333Y-819938D01*
X9153333Y-819938D02*
X9148571Y-810414D01*
X9148571Y-810414D02*
X9143810Y-791366D01*
X9143810Y-791366D02*
X9143810Y-777080D01*
X9143810Y-777080D02*
X9148571Y-758033D01*
X9148571Y-758033D02*
X9153333Y-748509D01*
X9153333Y-748509D02*
X9162857Y-738985D01*
X9162857Y-738985D02*
X9177143Y-734223D01*
X9177143Y-734223D02*
X9186667Y-734223D01*
X9186667Y-734223D02*
X9200952Y-738985D01*
X9200952Y-738985D02*
X9205714Y-743747D01*
X9243810Y-743747D02*
X9248571Y-738985D01*
X9248571Y-738985D02*
X9258095Y-734223D01*
X9258095Y-734223D02*
X9281905Y-734223D01*
X9281905Y-734223D02*
X9291429Y-738985D01*
X9291429Y-738985D02*
X9296190Y-743747D01*
X9296190Y-743747D02*
X9300952Y-753271D01*
X9300952Y-753271D02*
X9300952Y-762795D01*
X9300952Y-762795D02*
X9296190Y-777080D01*
X9296190Y-777080D02*
X9239048Y-834223D01*
X9239048Y-834223D02*
X9300952Y-834223D01*
X9334286Y-734223D02*
X9400952Y-734223D01*
X9400952Y-734223D02*
X9358095Y-834223D01*
%TO.C,C28*%
X9025958Y-2384286D02*
X9030720Y-2389048D01*
X9030720Y-2389048D02*
X9035482Y-2403333D01*
X9035482Y-2403333D02*
X9035482Y-2412857D01*
X9035482Y-2412857D02*
X9030720Y-2427143D01*
X9030720Y-2427143D02*
X9021196Y-2436667D01*
X9021196Y-2436667D02*
X9011672Y-2441429D01*
X9011672Y-2441429D02*
X8992625Y-2446190D01*
X8992625Y-2446190D02*
X8978339Y-2446190D01*
X8978339Y-2446190D02*
X8959291Y-2441429D01*
X8959291Y-2441429D02*
X8949768Y-2436667D01*
X8949768Y-2436667D02*
X8940244Y-2427143D01*
X8940244Y-2427143D02*
X8935482Y-2412857D01*
X8935482Y-2412857D02*
X8935482Y-2403333D01*
X8935482Y-2403333D02*
X8940244Y-2389048D01*
X8940244Y-2389048D02*
X8945006Y-2384286D01*
X8945006Y-2346190D02*
X8940244Y-2341429D01*
X8940244Y-2341429D02*
X8935482Y-2331905D01*
X8935482Y-2331905D02*
X8935482Y-2308095D01*
X8935482Y-2308095D02*
X8940244Y-2298571D01*
X8940244Y-2298571D02*
X8945006Y-2293810D01*
X8945006Y-2293810D02*
X8954530Y-2289048D01*
X8954530Y-2289048D02*
X8964053Y-2289048D01*
X8964053Y-2289048D02*
X8978339Y-2293810D01*
X8978339Y-2293810D02*
X9035482Y-2350952D01*
X9035482Y-2350952D02*
X9035482Y-2289048D01*
X8978339Y-2231905D02*
X8973577Y-2241429D01*
X8973577Y-2241429D02*
X8968815Y-2246190D01*
X8968815Y-2246190D02*
X8959291Y-2250952D01*
X8959291Y-2250952D02*
X8954530Y-2250952D01*
X8954530Y-2250952D02*
X8945006Y-2246190D01*
X8945006Y-2246190D02*
X8940244Y-2241429D01*
X8940244Y-2241429D02*
X8935482Y-2231905D01*
X8935482Y-2231905D02*
X8935482Y-2212857D01*
X8935482Y-2212857D02*
X8940244Y-2203333D01*
X8940244Y-2203333D02*
X8945006Y-2198571D01*
X8945006Y-2198571D02*
X8954530Y-2193810D01*
X8954530Y-2193810D02*
X8959291Y-2193810D01*
X8959291Y-2193810D02*
X8968815Y-2198571D01*
X8968815Y-2198571D02*
X8973577Y-2203333D01*
X8973577Y-2203333D02*
X8978339Y-2212857D01*
X8978339Y-2212857D02*
X8978339Y-2231905D01*
X8978339Y-2231905D02*
X8983101Y-2241429D01*
X8983101Y-2241429D02*
X8987863Y-2246190D01*
X8987863Y-2246190D02*
X8997387Y-2250952D01*
X8997387Y-2250952D02*
X9016434Y-2250952D01*
X9016434Y-2250952D02*
X9025958Y-2246190D01*
X9025958Y-2246190D02*
X9030720Y-2241429D01*
X9030720Y-2241429D02*
X9035482Y-2231905D01*
X9035482Y-2231905D02*
X9035482Y-2212857D01*
X9035482Y-2212857D02*
X9030720Y-2203333D01*
X9030720Y-2203333D02*
X9025958Y-2198571D01*
X9025958Y-2198571D02*
X9016434Y-2193810D01*
X9016434Y-2193810D02*
X8997387Y-2193810D01*
X8997387Y-2193810D02*
X8987863Y-2198571D01*
X8987863Y-2198571D02*
X8983101Y-2203333D01*
X8983101Y-2203333D02*
X8978339Y-2212857D01*
%TO.C,C23*%
X6855714Y-6360958D02*
X6850952Y-6365720D01*
X6850952Y-6365720D02*
X6836667Y-6370482D01*
X6836667Y-6370482D02*
X6827143Y-6370482D01*
X6827143Y-6370482D02*
X6812857Y-6365720D01*
X6812857Y-6365720D02*
X6803333Y-6356196D01*
X6803333Y-6356196D02*
X6798571Y-6346672D01*
X6798571Y-6346672D02*
X6793809Y-6327625D01*
X6793809Y-6327625D02*
X6793809Y-6313339D01*
X6793809Y-6313339D02*
X6798571Y-6294291D01*
X6798571Y-6294291D02*
X6803333Y-6284768D01*
X6803333Y-6284768D02*
X6812857Y-6275244D01*
X6812857Y-6275244D02*
X6827143Y-6270482D01*
X6827143Y-6270482D02*
X6836667Y-6270482D01*
X6836667Y-6270482D02*
X6850952Y-6275244D01*
X6850952Y-6275244D02*
X6855714Y-6280006D01*
X6893809Y-6280006D02*
X6898571Y-6275244D01*
X6898571Y-6275244D02*
X6908095Y-6270482D01*
X6908095Y-6270482D02*
X6931905Y-6270482D01*
X6931905Y-6270482D02*
X6941428Y-6275244D01*
X6941428Y-6275244D02*
X6946190Y-6280006D01*
X6946190Y-6280006D02*
X6950952Y-6289529D01*
X6950952Y-6289529D02*
X6950952Y-6299053D01*
X6950952Y-6299053D02*
X6946190Y-6313339D01*
X6946190Y-6313339D02*
X6889048Y-6370482D01*
X6889048Y-6370482D02*
X6950952Y-6370482D01*
X6984286Y-6270482D02*
X7046190Y-6270482D01*
X7046190Y-6270482D02*
X7012857Y-6308577D01*
X7012857Y-6308577D02*
X7027143Y-6308577D01*
X7027143Y-6308577D02*
X7036667Y-6313339D01*
X7036667Y-6313339D02*
X7041428Y-6318101D01*
X7041428Y-6318101D02*
X7046190Y-6327625D01*
X7046190Y-6327625D02*
X7046190Y-6351434D01*
X7046190Y-6351434D02*
X7041428Y-6360958D01*
X7041428Y-6360958D02*
X7036667Y-6365720D01*
X7036667Y-6365720D02*
X7027143Y-6370482D01*
X7027143Y-6370482D02*
X6998571Y-6370482D01*
X6998571Y-6370482D02*
X6989048Y-6365720D01*
X6989048Y-6365720D02*
X6984286Y-6360958D01*
%TO.C,IC1*%
X8482381Y-2295482D02*
X8482381Y-2195482D01*
X8587143Y-2285958D02*
X8582381Y-2290720D01*
X8582381Y-2290720D02*
X8568095Y-2295482D01*
X8568095Y-2295482D02*
X8558571Y-2295482D01*
X8558571Y-2295482D02*
X8544286Y-2290720D01*
X8544286Y-2290720D02*
X8534762Y-2281196D01*
X8534762Y-2281196D02*
X8530000Y-2271672D01*
X8530000Y-2271672D02*
X8525238Y-2252625D01*
X8525238Y-2252625D02*
X8525238Y-2238339D01*
X8525238Y-2238339D02*
X8530000Y-2219291D01*
X8530000Y-2219291D02*
X8534762Y-2209768D01*
X8534762Y-2209768D02*
X8544286Y-2200244D01*
X8544286Y-2200244D02*
X8558571Y-2195482D01*
X8558571Y-2195482D02*
X8568095Y-2195482D01*
X8568095Y-2195482D02*
X8582381Y-2200244D01*
X8582381Y-2200244D02*
X8587143Y-2205006D01*
X8682381Y-2295482D02*
X8625238Y-2295482D01*
X8653810Y-2295482D02*
X8653810Y-2195482D01*
X8653810Y-2195482D02*
X8644286Y-2209768D01*
X8644286Y-2209768D02*
X8634762Y-2219291D01*
X8634762Y-2219291D02*
X8625238Y-2224053D01*
%TO.C,C29*%
X9305958Y-2324286D02*
X9310720Y-2329048D01*
X9310720Y-2329048D02*
X9315482Y-2343333D01*
X9315482Y-2343333D02*
X9315482Y-2352857D01*
X9315482Y-2352857D02*
X9310720Y-2367143D01*
X9310720Y-2367143D02*
X9301196Y-2376667D01*
X9301196Y-2376667D02*
X9291672Y-2381429D01*
X9291672Y-2381429D02*
X9272625Y-2386190D01*
X9272625Y-2386190D02*
X9258339Y-2386190D01*
X9258339Y-2386190D02*
X9239291Y-2381429D01*
X9239291Y-2381429D02*
X9229768Y-2376667D01*
X9229768Y-2376667D02*
X9220244Y-2367143D01*
X9220244Y-2367143D02*
X9215482Y-2352857D01*
X9215482Y-2352857D02*
X9215482Y-2343333D01*
X9215482Y-2343333D02*
X9220244Y-2329048D01*
X9220244Y-2329048D02*
X9225006Y-2324286D01*
X9225006Y-2286190D02*
X9220244Y-2281429D01*
X9220244Y-2281429D02*
X9215482Y-2271905D01*
X9215482Y-2271905D02*
X9215482Y-2248095D01*
X9215482Y-2248095D02*
X9220244Y-2238571D01*
X9220244Y-2238571D02*
X9225006Y-2233810D01*
X9225006Y-2233810D02*
X9234530Y-2229048D01*
X9234530Y-2229048D02*
X9244053Y-2229048D01*
X9244053Y-2229048D02*
X9258339Y-2233810D01*
X9258339Y-2233810D02*
X9315482Y-2290952D01*
X9315482Y-2290952D02*
X9315482Y-2229048D01*
X9315482Y-2181429D02*
X9315482Y-2162381D01*
X9315482Y-2162381D02*
X9310720Y-2152857D01*
X9310720Y-2152857D02*
X9305958Y-2148095D01*
X9305958Y-2148095D02*
X9291672Y-2138571D01*
X9291672Y-2138571D02*
X9272625Y-2133810D01*
X9272625Y-2133810D02*
X9234530Y-2133810D01*
X9234530Y-2133810D02*
X9225006Y-2138571D01*
X9225006Y-2138571D02*
X9220244Y-2143333D01*
X9220244Y-2143333D02*
X9215482Y-2152857D01*
X9215482Y-2152857D02*
X9215482Y-2171905D01*
X9215482Y-2171905D02*
X9220244Y-2181429D01*
X9220244Y-2181429D02*
X9225006Y-2186190D01*
X9225006Y-2186190D02*
X9234530Y-2190952D01*
X9234530Y-2190952D02*
X9258339Y-2190952D01*
X9258339Y-2190952D02*
X9267863Y-2186190D01*
X9267863Y-2186190D02*
X9272625Y-2181429D01*
X9272625Y-2181429D02*
X9277387Y-2171905D01*
X9277387Y-2171905D02*
X9277387Y-2152857D01*
X9277387Y-2152857D02*
X9272625Y-2143333D01*
X9272625Y-2143333D02*
X9267863Y-2138571D01*
X9267863Y-2138571D02*
X9258339Y-2133810D01*
%TO.C,C24*%
X8565714Y-885958D02*
X8560952Y-890720D01*
X8560952Y-890720D02*
X8546667Y-895482D01*
X8546667Y-895482D02*
X8537143Y-895482D01*
X8537143Y-895482D02*
X8522857Y-890720D01*
X8522857Y-890720D02*
X8513333Y-881196D01*
X8513333Y-881196D02*
X8508571Y-871672D01*
X8508571Y-871672D02*
X8503810Y-852625D01*
X8503810Y-852625D02*
X8503810Y-838339D01*
X8503810Y-838339D02*
X8508571Y-819291D01*
X8508571Y-819291D02*
X8513333Y-809768D01*
X8513333Y-809768D02*
X8522857Y-800244D01*
X8522857Y-800244D02*
X8537143Y-795482D01*
X8537143Y-795482D02*
X8546667Y-795482D01*
X8546667Y-795482D02*
X8560952Y-800244D01*
X8560952Y-800244D02*
X8565714Y-805006D01*
X8603810Y-805006D02*
X8608571Y-800244D01*
X8608571Y-800244D02*
X8618095Y-795482D01*
X8618095Y-795482D02*
X8641905Y-795482D01*
X8641905Y-795482D02*
X8651429Y-800244D01*
X8651429Y-800244D02*
X8656190Y-805006D01*
X8656190Y-805006D02*
X8660952Y-814529D01*
X8660952Y-814529D02*
X8660952Y-824053D01*
X8660952Y-824053D02*
X8656190Y-838339D01*
X8656190Y-838339D02*
X8599048Y-895482D01*
X8599048Y-895482D02*
X8660952Y-895482D01*
X8746667Y-828815D02*
X8746667Y-895482D01*
X8722857Y-790720D02*
X8699048Y-862148D01*
X8699048Y-862148D02*
X8760952Y-862148D01*
%TO.C,C32*%
X6885714Y-2385958D02*
X6880952Y-2390720D01*
X6880952Y-2390720D02*
X6866667Y-2395482D01*
X6866667Y-2395482D02*
X6857143Y-2395482D01*
X6857143Y-2395482D02*
X6842857Y-2390720D01*
X6842857Y-2390720D02*
X6833333Y-2381196D01*
X6833333Y-2381196D02*
X6828571Y-2371672D01*
X6828571Y-2371672D02*
X6823809Y-2352625D01*
X6823809Y-2352625D02*
X6823809Y-2338339D01*
X6823809Y-2338339D02*
X6828571Y-2319291D01*
X6828571Y-2319291D02*
X6833333Y-2309768D01*
X6833333Y-2309768D02*
X6842857Y-2300244D01*
X6842857Y-2300244D02*
X6857143Y-2295482D01*
X6857143Y-2295482D02*
X6866667Y-2295482D01*
X6866667Y-2295482D02*
X6880952Y-2300244D01*
X6880952Y-2300244D02*
X6885714Y-2305006D01*
X6919048Y-2295482D02*
X6980952Y-2295482D01*
X6980952Y-2295482D02*
X6947619Y-2333577D01*
X6947619Y-2333577D02*
X6961905Y-2333577D01*
X6961905Y-2333577D02*
X6971428Y-2338339D01*
X6971428Y-2338339D02*
X6976190Y-2343101D01*
X6976190Y-2343101D02*
X6980952Y-2352625D01*
X6980952Y-2352625D02*
X6980952Y-2376434D01*
X6980952Y-2376434D02*
X6976190Y-2385958D01*
X6976190Y-2385958D02*
X6971428Y-2390720D01*
X6971428Y-2390720D02*
X6961905Y-2395482D01*
X6961905Y-2395482D02*
X6933333Y-2395482D01*
X6933333Y-2395482D02*
X6923809Y-2390720D01*
X6923809Y-2390720D02*
X6919048Y-2385958D01*
X7019048Y-2305006D02*
X7023809Y-2300244D01*
X7023809Y-2300244D02*
X7033333Y-2295482D01*
X7033333Y-2295482D02*
X7057143Y-2295482D01*
X7057143Y-2295482D02*
X7066667Y-2300244D01*
X7066667Y-2300244D02*
X7071428Y-2305006D01*
X7071428Y-2305006D02*
X7076190Y-2314530D01*
X7076190Y-2314530D02*
X7076190Y-2324053D01*
X7076190Y-2324053D02*
X7071428Y-2338339D01*
X7071428Y-2338339D02*
X7014286Y-2395482D01*
X7014286Y-2395482D02*
X7076190Y-2395482D01*
%TO.C,C26*%
X7705714Y-1910958D02*
X7700952Y-1915720D01*
X7700952Y-1915720D02*
X7686667Y-1920482D01*
X7686667Y-1920482D02*
X7677143Y-1920482D01*
X7677143Y-1920482D02*
X7662857Y-1915720D01*
X7662857Y-1915720D02*
X7653333Y-1906196D01*
X7653333Y-1906196D02*
X7648571Y-1896672D01*
X7648571Y-1896672D02*
X7643809Y-1877625D01*
X7643809Y-1877625D02*
X7643809Y-1863339D01*
X7643809Y-1863339D02*
X7648571Y-1844291D01*
X7648571Y-1844291D02*
X7653333Y-1834768D01*
X7653333Y-1834768D02*
X7662857Y-1825244D01*
X7662857Y-1825244D02*
X7677143Y-1820482D01*
X7677143Y-1820482D02*
X7686667Y-1820482D01*
X7686667Y-1820482D02*
X7700952Y-1825244D01*
X7700952Y-1825244D02*
X7705714Y-1830006D01*
X7743809Y-1830006D02*
X7748571Y-1825244D01*
X7748571Y-1825244D02*
X7758095Y-1820482D01*
X7758095Y-1820482D02*
X7781905Y-1820482D01*
X7781905Y-1820482D02*
X7791428Y-1825244D01*
X7791428Y-1825244D02*
X7796190Y-1830006D01*
X7796190Y-1830006D02*
X7800952Y-1839529D01*
X7800952Y-1839529D02*
X7800952Y-1849053D01*
X7800952Y-1849053D02*
X7796190Y-1863339D01*
X7796190Y-1863339D02*
X7739048Y-1920482D01*
X7739048Y-1920482D02*
X7800952Y-1920482D01*
X7886667Y-1820482D02*
X7867619Y-1820482D01*
X7867619Y-1820482D02*
X7858095Y-1825244D01*
X7858095Y-1825244D02*
X7853333Y-1830006D01*
X7853333Y-1830006D02*
X7843809Y-1844291D01*
X7843809Y-1844291D02*
X7839048Y-1863339D01*
X7839048Y-1863339D02*
X7839048Y-1901434D01*
X7839048Y-1901434D02*
X7843809Y-1910958D01*
X7843809Y-1910958D02*
X7848571Y-1915720D01*
X7848571Y-1915720D02*
X7858095Y-1920482D01*
X7858095Y-1920482D02*
X7877143Y-1920482D01*
X7877143Y-1920482D02*
X7886667Y-1915720D01*
X7886667Y-1915720D02*
X7891428Y-1910958D01*
X7891428Y-1910958D02*
X7896190Y-1901434D01*
X7896190Y-1901434D02*
X7896190Y-1877625D01*
X7896190Y-1877625D02*
X7891428Y-1868101D01*
X7891428Y-1868101D02*
X7886667Y-1863339D01*
X7886667Y-1863339D02*
X7877143Y-1858577D01*
X7877143Y-1858577D02*
X7858095Y-1858577D01*
X7858095Y-1858577D02*
X7848571Y-1863339D01*
X7848571Y-1863339D02*
X7843809Y-1868101D01*
X7843809Y-1868101D02*
X7839048Y-1877625D01*
%TO.C,R29*%
X9575482Y-2314286D02*
X9527863Y-2347619D01*
X9575482Y-2371429D02*
X9475482Y-2371429D01*
X9475482Y-2371429D02*
X9475482Y-2333333D01*
X9475482Y-2333333D02*
X9480244Y-2323810D01*
X9480244Y-2323810D02*
X9485006Y-2319048D01*
X9485006Y-2319048D02*
X9494530Y-2314286D01*
X9494530Y-2314286D02*
X9508815Y-2314286D01*
X9508815Y-2314286D02*
X9518339Y-2319048D01*
X9518339Y-2319048D02*
X9523101Y-2323810D01*
X9523101Y-2323810D02*
X9527863Y-2333333D01*
X9527863Y-2333333D02*
X9527863Y-2371429D01*
X9485006Y-2276190D02*
X9480244Y-2271429D01*
X9480244Y-2271429D02*
X9475482Y-2261905D01*
X9475482Y-2261905D02*
X9475482Y-2238095D01*
X9475482Y-2238095D02*
X9480244Y-2228571D01*
X9480244Y-2228571D02*
X9485006Y-2223810D01*
X9485006Y-2223810D02*
X9494530Y-2219048D01*
X9494530Y-2219048D02*
X9504053Y-2219048D01*
X9504053Y-2219048D02*
X9518339Y-2223810D01*
X9518339Y-2223810D02*
X9575482Y-2280952D01*
X9575482Y-2280952D02*
X9575482Y-2219048D01*
X9575482Y-2171429D02*
X9575482Y-2152381D01*
X9575482Y-2152381D02*
X9570720Y-2142857D01*
X9570720Y-2142857D02*
X9565958Y-2138095D01*
X9565958Y-2138095D02*
X9551672Y-2128571D01*
X9551672Y-2128571D02*
X9532625Y-2123810D01*
X9532625Y-2123810D02*
X9494530Y-2123810D01*
X9494530Y-2123810D02*
X9485006Y-2128571D01*
X9485006Y-2128571D02*
X9480244Y-2133333D01*
X9480244Y-2133333D02*
X9475482Y-2142857D01*
X9475482Y-2142857D02*
X9475482Y-2161905D01*
X9475482Y-2161905D02*
X9480244Y-2171429D01*
X9480244Y-2171429D02*
X9485006Y-2176190D01*
X9485006Y-2176190D02*
X9494530Y-2180952D01*
X9494530Y-2180952D02*
X9518339Y-2180952D01*
X9518339Y-2180952D02*
X9527863Y-2176190D01*
X9527863Y-2176190D02*
X9532625Y-2171429D01*
X9532625Y-2171429D02*
X9537387Y-2161905D01*
X9537387Y-2161905D02*
X9537387Y-2142857D01*
X9537387Y-2142857D02*
X9532625Y-2133333D01*
X9532625Y-2133333D02*
X9527863Y-2128571D01*
X9527863Y-2128571D02*
X9518339Y-2123810D01*
%TO.C,R1*%
X7943333Y-1185482D02*
X7910000Y-1137863D01*
X7886190Y-1185482D02*
X7886190Y-1085482D01*
X7886190Y-1085482D02*
X7924286Y-1085482D01*
X7924286Y-1085482D02*
X7933809Y-1090244D01*
X7933809Y-1090244D02*
X7938571Y-1095006D01*
X7938571Y-1095006D02*
X7943333Y-1104530D01*
X7943333Y-1104530D02*
X7943333Y-1118815D01*
X7943333Y-1118815D02*
X7938571Y-1128339D01*
X7938571Y-1128339D02*
X7933809Y-1133101D01*
X7933809Y-1133101D02*
X7924286Y-1137863D01*
X7924286Y-1137863D02*
X7886190Y-1137863D01*
X8038571Y-1185482D02*
X7981429Y-1185482D01*
X8010000Y-1185482D02*
X8010000Y-1085482D01*
X8010000Y-1085482D02*
X8000476Y-1099768D01*
X8000476Y-1099768D02*
X7990952Y-1109291D01*
X7990952Y-1109291D02*
X7981429Y-1114053D01*
%TO.C,GPS_TXO1*%
X6679762Y-4725244D02*
X6670238Y-4720482D01*
X6670238Y-4720482D02*
X6655952Y-4720482D01*
X6655952Y-4720482D02*
X6641667Y-4725244D01*
X6641667Y-4725244D02*
X6632143Y-4734768D01*
X6632143Y-4734768D02*
X6627381Y-4744291D01*
X6627381Y-4744291D02*
X6622619Y-4763339D01*
X6622619Y-4763339D02*
X6622619Y-4777625D01*
X6622619Y-4777625D02*
X6627381Y-4796672D01*
X6627381Y-4796672D02*
X6632143Y-4806196D01*
X6632143Y-4806196D02*
X6641667Y-4815720D01*
X6641667Y-4815720D02*
X6655952Y-4820482D01*
X6655952Y-4820482D02*
X6665476Y-4820482D01*
X6665476Y-4820482D02*
X6679762Y-4815720D01*
X6679762Y-4815720D02*
X6684524Y-4810958D01*
X6684524Y-4810958D02*
X6684524Y-4777625D01*
X6684524Y-4777625D02*
X6665476Y-4777625D01*
X6727381Y-4820482D02*
X6727381Y-4720482D01*
X6727381Y-4720482D02*
X6765476Y-4720482D01*
X6765476Y-4720482D02*
X6775000Y-4725244D01*
X6775000Y-4725244D02*
X6779762Y-4730006D01*
X6779762Y-4730006D02*
X6784524Y-4739530D01*
X6784524Y-4739530D02*
X6784524Y-4753815D01*
X6784524Y-4753815D02*
X6779762Y-4763339D01*
X6779762Y-4763339D02*
X6775000Y-4768101D01*
X6775000Y-4768101D02*
X6765476Y-4772863D01*
X6765476Y-4772863D02*
X6727381Y-4772863D01*
X6822619Y-4815720D02*
X6836905Y-4820482D01*
X6836905Y-4820482D02*
X6860714Y-4820482D01*
X6860714Y-4820482D02*
X6870238Y-4815720D01*
X6870238Y-4815720D02*
X6875000Y-4810958D01*
X6875000Y-4810958D02*
X6879762Y-4801434D01*
X6879762Y-4801434D02*
X6879762Y-4791910D01*
X6879762Y-4791910D02*
X6875000Y-4782387D01*
X6875000Y-4782387D02*
X6870238Y-4777625D01*
X6870238Y-4777625D02*
X6860714Y-4772863D01*
X6860714Y-4772863D02*
X6841667Y-4768101D01*
X6841667Y-4768101D02*
X6832143Y-4763339D01*
X6832143Y-4763339D02*
X6827381Y-4758577D01*
X6827381Y-4758577D02*
X6822619Y-4749053D01*
X6822619Y-4749053D02*
X6822619Y-4739530D01*
X6822619Y-4739530D02*
X6827381Y-4730006D01*
X6827381Y-4730006D02*
X6832143Y-4725244D01*
X6832143Y-4725244D02*
X6841667Y-4720482D01*
X6841667Y-4720482D02*
X6865476Y-4720482D01*
X6865476Y-4720482D02*
X6879762Y-4725244D01*
X6898809Y-4830006D02*
X6975000Y-4830006D01*
X6984524Y-4720482D02*
X7041667Y-4720482D01*
X7013095Y-4820482D02*
X7013095Y-4720482D01*
X7065476Y-4720482D02*
X7132143Y-4820482D01*
X7132143Y-4720482D02*
X7065476Y-4820482D01*
X7189286Y-4720482D02*
X7208333Y-4720482D01*
X7208333Y-4720482D02*
X7217857Y-4725244D01*
X7217857Y-4725244D02*
X7227381Y-4734768D01*
X7227381Y-4734768D02*
X7232143Y-4753815D01*
X7232143Y-4753815D02*
X7232143Y-4787149D01*
X7232143Y-4787149D02*
X7227381Y-4806196D01*
X7227381Y-4806196D02*
X7217857Y-4815720D01*
X7217857Y-4815720D02*
X7208333Y-4820482D01*
X7208333Y-4820482D02*
X7189286Y-4820482D01*
X7189286Y-4820482D02*
X7179762Y-4815720D01*
X7179762Y-4815720D02*
X7170238Y-4806196D01*
X7170238Y-4806196D02*
X7165476Y-4787149D01*
X7165476Y-4787149D02*
X7165476Y-4753815D01*
X7165476Y-4753815D02*
X7170238Y-4734768D01*
X7170238Y-4734768D02*
X7179762Y-4725244D01*
X7179762Y-4725244D02*
X7189286Y-4720482D01*
X7327381Y-4820482D02*
X7270238Y-4820482D01*
X7298809Y-4820482D02*
X7298809Y-4720482D01*
X7298809Y-4720482D02*
X7289286Y-4734768D01*
X7289286Y-4734768D02*
X7279762Y-4744291D01*
X7279762Y-4744291D02*
X7270238Y-4749053D01*
%TO.C,C4*%
X1603333Y-6460958D02*
X1598571Y-6465720D01*
X1598571Y-6465720D02*
X1584286Y-6470482D01*
X1584286Y-6470482D02*
X1574762Y-6470482D01*
X1574762Y-6470482D02*
X1560476Y-6465720D01*
X1560476Y-6465720D02*
X1550952Y-6456196D01*
X1550952Y-6456196D02*
X1546190Y-6446672D01*
X1546190Y-6446672D02*
X1541429Y-6427625D01*
X1541429Y-6427625D02*
X1541429Y-6413339D01*
X1541429Y-6413339D02*
X1546190Y-6394291D01*
X1546190Y-6394291D02*
X1550952Y-6384768D01*
X1550952Y-6384768D02*
X1560476Y-6375244D01*
X1560476Y-6375244D02*
X1574762Y-6370482D01*
X1574762Y-6370482D02*
X1584286Y-6370482D01*
X1584286Y-6370482D02*
X1598571Y-6375244D01*
X1598571Y-6375244D02*
X1603333Y-6380006D01*
X1689048Y-6403815D02*
X1689048Y-6470482D01*
X1665238Y-6365720D02*
X1641429Y-6437148D01*
X1641429Y-6437148D02*
X1703333Y-6437148D01*
%TO.C,R37*%
X2425714Y-1745482D02*
X2392381Y-1697863D01*
X2368571Y-1745482D02*
X2368571Y-1645482D01*
X2368571Y-1645482D02*
X2406667Y-1645482D01*
X2406667Y-1645482D02*
X2416190Y-1650244D01*
X2416190Y-1650244D02*
X2420952Y-1655006D01*
X2420952Y-1655006D02*
X2425714Y-1664529D01*
X2425714Y-1664529D02*
X2425714Y-1678815D01*
X2425714Y-1678815D02*
X2420952Y-1688339D01*
X2420952Y-1688339D02*
X2416190Y-1693101D01*
X2416190Y-1693101D02*
X2406667Y-1697863D01*
X2406667Y-1697863D02*
X2368571Y-1697863D01*
X2459048Y-1645482D02*
X2520952Y-1645482D01*
X2520952Y-1645482D02*
X2487619Y-1683577D01*
X2487619Y-1683577D02*
X2501905Y-1683577D01*
X2501905Y-1683577D02*
X2511429Y-1688339D01*
X2511429Y-1688339D02*
X2516190Y-1693101D01*
X2516190Y-1693101D02*
X2520952Y-1702625D01*
X2520952Y-1702625D02*
X2520952Y-1726434D01*
X2520952Y-1726434D02*
X2516190Y-1735958D01*
X2516190Y-1735958D02*
X2511429Y-1740720D01*
X2511429Y-1740720D02*
X2501905Y-1745482D01*
X2501905Y-1745482D02*
X2473333Y-1745482D01*
X2473333Y-1745482D02*
X2463810Y-1740720D01*
X2463810Y-1740720D02*
X2459048Y-1735958D01*
X2554286Y-1645482D02*
X2620952Y-1645482D01*
X2620952Y-1645482D02*
X2578095Y-1745482D01*
%TO.C,C3*%
X2028333Y-6865544D02*
X2023571Y-6870306D01*
X2023571Y-6870306D02*
X2009286Y-6875068D01*
X2009286Y-6875068D02*
X1999762Y-6875068D01*
X1999762Y-6875068D02*
X1985476Y-6870306D01*
X1985476Y-6870306D02*
X1975952Y-6860782D01*
X1975952Y-6860782D02*
X1971190Y-6851258D01*
X1971190Y-6851258D02*
X1966429Y-6832211D01*
X1966429Y-6832211D02*
X1966429Y-6817925D01*
X1966429Y-6817925D02*
X1971190Y-6798878D01*
X1971190Y-6798878D02*
X1975952Y-6789354D01*
X1975952Y-6789354D02*
X1985476Y-6779830D01*
X1985476Y-6779830D02*
X1999762Y-6775068D01*
X1999762Y-6775068D02*
X2009286Y-6775068D01*
X2009286Y-6775068D02*
X2023571Y-6779830D01*
X2023571Y-6779830D02*
X2028333Y-6784592D01*
X2061667Y-6775068D02*
X2123571Y-6775068D01*
X2123571Y-6775068D02*
X2090238Y-6813163D01*
X2090238Y-6813163D02*
X2104524Y-6813163D01*
X2104524Y-6813163D02*
X2114048Y-6817925D01*
X2114048Y-6817925D02*
X2118810Y-6822687D01*
X2118810Y-6822687D02*
X2123571Y-6832211D01*
X2123571Y-6832211D02*
X2123571Y-6856020D01*
X2123571Y-6856020D02*
X2118810Y-6865544D01*
X2118810Y-6865544D02*
X2114048Y-6870306D01*
X2114048Y-6870306D02*
X2104524Y-6875068D01*
X2104524Y-6875068D02*
X2075952Y-6875068D01*
X2075952Y-6875068D02*
X2066429Y-6870306D01*
X2066429Y-6870306D02*
X2061667Y-6865544D01*
%TO.C,C9*%
X1853333Y-5035958D02*
X1848571Y-5040720D01*
X1848571Y-5040720D02*
X1834286Y-5045482D01*
X1834286Y-5045482D02*
X1824762Y-5045482D01*
X1824762Y-5045482D02*
X1810476Y-5040720D01*
X1810476Y-5040720D02*
X1800952Y-5031196D01*
X1800952Y-5031196D02*
X1796190Y-5021672D01*
X1796190Y-5021672D02*
X1791429Y-5002625D01*
X1791429Y-5002625D02*
X1791429Y-4988339D01*
X1791429Y-4988339D02*
X1796190Y-4969291D01*
X1796190Y-4969291D02*
X1800952Y-4959768D01*
X1800952Y-4959768D02*
X1810476Y-4950244D01*
X1810476Y-4950244D02*
X1824762Y-4945482D01*
X1824762Y-4945482D02*
X1834286Y-4945482D01*
X1834286Y-4945482D02*
X1848571Y-4950244D01*
X1848571Y-4950244D02*
X1853333Y-4955006D01*
X1900952Y-5045482D02*
X1920000Y-5045482D01*
X1920000Y-5045482D02*
X1929524Y-5040720D01*
X1929524Y-5040720D02*
X1934286Y-5035958D01*
X1934286Y-5035958D02*
X1943809Y-5021672D01*
X1943809Y-5021672D02*
X1948571Y-5002625D01*
X1948571Y-5002625D02*
X1948571Y-4964530D01*
X1948571Y-4964530D02*
X1943809Y-4955006D01*
X1943809Y-4955006D02*
X1939048Y-4950244D01*
X1939048Y-4950244D02*
X1929524Y-4945482D01*
X1929524Y-4945482D02*
X1910476Y-4945482D01*
X1910476Y-4945482D02*
X1900952Y-4950244D01*
X1900952Y-4950244D02*
X1896190Y-4955006D01*
X1896190Y-4955006D02*
X1891429Y-4964530D01*
X1891429Y-4964530D02*
X1891429Y-4988339D01*
X1891429Y-4988339D02*
X1896190Y-4997863D01*
X1896190Y-4997863D02*
X1900952Y-5002625D01*
X1900952Y-5002625D02*
X1910476Y-5007387D01*
X1910476Y-5007387D02*
X1929524Y-5007387D01*
X1929524Y-5007387D02*
X1939048Y-5002625D01*
X1939048Y-5002625D02*
X1943809Y-4997863D01*
X1943809Y-4997863D02*
X1948571Y-4988339D01*
%TO.C,C14*%
X6196116Y-3817716D02*
X6191354Y-3822478D01*
X6191354Y-3822478D02*
X6177068Y-3827240D01*
X6177068Y-3827240D02*
X6167544Y-3827240D01*
X6167544Y-3827240D02*
X6153259Y-3822478D01*
X6153259Y-3822478D02*
X6143735Y-3812955D01*
X6143735Y-3812955D02*
X6138973Y-3803431D01*
X6138973Y-3803431D02*
X6134211Y-3784383D01*
X6134211Y-3784383D02*
X6134211Y-3770097D01*
X6134211Y-3770097D02*
X6138973Y-3751050D01*
X6138973Y-3751050D02*
X6143735Y-3741526D01*
X6143735Y-3741526D02*
X6153259Y-3732002D01*
X6153259Y-3732002D02*
X6167544Y-3727240D01*
X6167544Y-3727240D02*
X6177068Y-3727240D01*
X6177068Y-3727240D02*
X6191354Y-3732002D01*
X6191354Y-3732002D02*
X6196116Y-3736764D01*
X6291354Y-3827240D02*
X6234211Y-3827240D01*
X6262783Y-3827240D02*
X6262783Y-3727240D01*
X6262783Y-3727240D02*
X6253259Y-3741526D01*
X6253259Y-3741526D02*
X6243735Y-3751050D01*
X6243735Y-3751050D02*
X6234211Y-3755812D01*
X6377068Y-3760574D02*
X6377068Y-3827240D01*
X6353259Y-3722478D02*
X6329449Y-3793907D01*
X6329449Y-3793907D02*
X6391354Y-3793907D01*
%TO.C,C15*%
X4179366Y-3916716D02*
X4174604Y-3921478D01*
X4174604Y-3921478D02*
X4160318Y-3926240D01*
X4160318Y-3926240D02*
X4150794Y-3926240D01*
X4150794Y-3926240D02*
X4136509Y-3921478D01*
X4136509Y-3921478D02*
X4126985Y-3911955D01*
X4126985Y-3911955D02*
X4122223Y-3902431D01*
X4122223Y-3902431D02*
X4117461Y-3883383D01*
X4117461Y-3883383D02*
X4117461Y-3869097D01*
X4117461Y-3869097D02*
X4122223Y-3850050D01*
X4122223Y-3850050D02*
X4126985Y-3840526D01*
X4126985Y-3840526D02*
X4136509Y-3831002D01*
X4136509Y-3831002D02*
X4150794Y-3826240D01*
X4150794Y-3826240D02*
X4160318Y-3826240D01*
X4160318Y-3826240D02*
X4174604Y-3831002D01*
X4174604Y-3831002D02*
X4179366Y-3835764D01*
X4274604Y-3926240D02*
X4217461Y-3926240D01*
X4246033Y-3926240D02*
X4246033Y-3826240D01*
X4246033Y-3826240D02*
X4236509Y-3840526D01*
X4236509Y-3840526D02*
X4226985Y-3850050D01*
X4226985Y-3850050D02*
X4217461Y-3854812D01*
X4365080Y-3826240D02*
X4317461Y-3826240D01*
X4317461Y-3826240D02*
X4312699Y-3873859D01*
X4312699Y-3873859D02*
X4317461Y-3869097D01*
X4317461Y-3869097D02*
X4326985Y-3864336D01*
X4326985Y-3864336D02*
X4350795Y-3864336D01*
X4350795Y-3864336D02*
X4360318Y-3869097D01*
X4360318Y-3869097D02*
X4365080Y-3873859D01*
X4365080Y-3873859D02*
X4369842Y-3883383D01*
X4369842Y-3883383D02*
X4369842Y-3907193D01*
X4369842Y-3907193D02*
X4365080Y-3916716D01*
X4365080Y-3916716D02*
X4360318Y-3921478D01*
X4360318Y-3921478D02*
X4350795Y-3926240D01*
X4350795Y-3926240D02*
X4326985Y-3926240D01*
X4326985Y-3926240D02*
X4317461Y-3921478D01*
X4317461Y-3921478D02*
X4312699Y-3916716D01*
%TO.C,C21*%
X5426116Y-4762717D02*
X5421354Y-4767479D01*
X5421354Y-4767479D02*
X5407068Y-4772240D01*
X5407068Y-4772240D02*
X5397545Y-4772240D01*
X5397545Y-4772240D02*
X5383259Y-4767479D01*
X5383259Y-4767479D02*
X5373735Y-4757955D01*
X5373735Y-4757955D02*
X5368973Y-4748431D01*
X5368973Y-4748431D02*
X5364211Y-4729383D01*
X5364211Y-4729383D02*
X5364211Y-4715098D01*
X5364211Y-4715098D02*
X5368973Y-4696050D01*
X5368973Y-4696050D02*
X5373735Y-4686526D01*
X5373735Y-4686526D02*
X5383259Y-4677002D01*
X5383259Y-4677002D02*
X5397545Y-4672240D01*
X5397545Y-4672240D02*
X5407068Y-4672240D01*
X5407068Y-4672240D02*
X5421354Y-4677002D01*
X5421354Y-4677002D02*
X5426116Y-4681764D01*
X5464211Y-4681764D02*
X5468973Y-4677002D01*
X5468973Y-4677002D02*
X5478497Y-4672240D01*
X5478497Y-4672240D02*
X5502306Y-4672240D01*
X5502306Y-4672240D02*
X5511830Y-4677002D01*
X5511830Y-4677002D02*
X5516592Y-4681764D01*
X5516592Y-4681764D02*
X5521354Y-4691288D01*
X5521354Y-4691288D02*
X5521354Y-4700812D01*
X5521354Y-4700812D02*
X5516592Y-4715098D01*
X5516592Y-4715098D02*
X5459449Y-4772240D01*
X5459449Y-4772240D02*
X5521354Y-4772240D01*
X5616592Y-4772240D02*
X5559449Y-4772240D01*
X5588021Y-4772240D02*
X5588021Y-4672240D01*
X5588021Y-4672240D02*
X5578497Y-4686526D01*
X5578497Y-4686526D02*
X5568973Y-4696050D01*
X5568973Y-4696050D02*
X5559449Y-4700812D01*
%TO.C,C51*%
X7715714Y-3465958D02*
X7710952Y-3470720D01*
X7710952Y-3470720D02*
X7696667Y-3475482D01*
X7696667Y-3475482D02*
X7687143Y-3475482D01*
X7687143Y-3475482D02*
X7672857Y-3470720D01*
X7672857Y-3470720D02*
X7663333Y-3461196D01*
X7663333Y-3461196D02*
X7658571Y-3451672D01*
X7658571Y-3451672D02*
X7653809Y-3432625D01*
X7653809Y-3432625D02*
X7653809Y-3418339D01*
X7653809Y-3418339D02*
X7658571Y-3399291D01*
X7658571Y-3399291D02*
X7663333Y-3389768D01*
X7663333Y-3389768D02*
X7672857Y-3380244D01*
X7672857Y-3380244D02*
X7687143Y-3375482D01*
X7687143Y-3375482D02*
X7696667Y-3375482D01*
X7696667Y-3375482D02*
X7710952Y-3380244D01*
X7710952Y-3380244D02*
X7715714Y-3385006D01*
X7806190Y-3375482D02*
X7758571Y-3375482D01*
X7758571Y-3375482D02*
X7753809Y-3423101D01*
X7753809Y-3423101D02*
X7758571Y-3418339D01*
X7758571Y-3418339D02*
X7768095Y-3413577D01*
X7768095Y-3413577D02*
X7791905Y-3413577D01*
X7791905Y-3413577D02*
X7801428Y-3418339D01*
X7801428Y-3418339D02*
X7806190Y-3423101D01*
X7806190Y-3423101D02*
X7810952Y-3432625D01*
X7810952Y-3432625D02*
X7810952Y-3456434D01*
X7810952Y-3456434D02*
X7806190Y-3465958D01*
X7806190Y-3465958D02*
X7801428Y-3470720D01*
X7801428Y-3470720D02*
X7791905Y-3475482D01*
X7791905Y-3475482D02*
X7768095Y-3475482D01*
X7768095Y-3475482D02*
X7758571Y-3470720D01*
X7758571Y-3470720D02*
X7753809Y-3465958D01*
X7906190Y-3475482D02*
X7849048Y-3475482D01*
X7877619Y-3475482D02*
X7877619Y-3375482D01*
X7877619Y-3375482D02*
X7868095Y-3389768D01*
X7868095Y-3389768D02*
X7858571Y-3399291D01*
X7858571Y-3399291D02*
X7849048Y-3404053D01*
%TO.C,R68*%
X7696451Y-3050068D02*
X7663118Y-3002449D01*
X7639308Y-3050068D02*
X7639308Y-2950068D01*
X7639308Y-2950068D02*
X7677403Y-2950068D01*
X7677403Y-2950068D02*
X7686927Y-2954830D01*
X7686927Y-2954830D02*
X7691689Y-2959592D01*
X7691689Y-2959592D02*
X7696451Y-2969116D01*
X7696451Y-2969116D02*
X7696451Y-2983401D01*
X7696451Y-2983401D02*
X7691689Y-2992925D01*
X7691689Y-2992925D02*
X7686927Y-2997687D01*
X7686927Y-2997687D02*
X7677403Y-3002449D01*
X7677403Y-3002449D02*
X7639308Y-3002449D01*
X7782165Y-2950068D02*
X7763118Y-2950068D01*
X7763118Y-2950068D02*
X7753594Y-2954830D01*
X7753594Y-2954830D02*
X7748832Y-2959592D01*
X7748832Y-2959592D02*
X7739308Y-2973878D01*
X7739308Y-2973878D02*
X7734546Y-2992925D01*
X7734546Y-2992925D02*
X7734546Y-3031020D01*
X7734546Y-3031020D02*
X7739308Y-3040544D01*
X7739308Y-3040544D02*
X7744070Y-3045306D01*
X7744070Y-3045306D02*
X7753594Y-3050068D01*
X7753594Y-3050068D02*
X7772642Y-3050068D01*
X7772642Y-3050068D02*
X7782165Y-3045306D01*
X7782165Y-3045306D02*
X7786927Y-3040544D01*
X7786927Y-3040544D02*
X7791689Y-3031020D01*
X7791689Y-3031020D02*
X7791689Y-3007211D01*
X7791689Y-3007211D02*
X7786927Y-2997687D01*
X7786927Y-2997687D02*
X7782165Y-2992925D01*
X7782165Y-2992925D02*
X7772642Y-2988163D01*
X7772642Y-2988163D02*
X7753594Y-2988163D01*
X7753594Y-2988163D02*
X7744070Y-2992925D01*
X7744070Y-2992925D02*
X7739308Y-2997687D01*
X7739308Y-2997687D02*
X7734546Y-3007211D01*
X7848832Y-2992925D02*
X7839308Y-2988163D01*
X7839308Y-2988163D02*
X7834546Y-2983401D01*
X7834546Y-2983401D02*
X7829784Y-2973878D01*
X7829784Y-2973878D02*
X7829784Y-2969116D01*
X7829784Y-2969116D02*
X7834546Y-2959592D01*
X7834546Y-2959592D02*
X7839308Y-2954830D01*
X7839308Y-2954830D02*
X7848832Y-2950068D01*
X7848832Y-2950068D02*
X7867880Y-2950068D01*
X7867880Y-2950068D02*
X7877403Y-2954830D01*
X7877403Y-2954830D02*
X7882165Y-2959592D01*
X7882165Y-2959592D02*
X7886927Y-2969116D01*
X7886927Y-2969116D02*
X7886927Y-2973878D01*
X7886927Y-2973878D02*
X7882165Y-2983401D01*
X7882165Y-2983401D02*
X7877403Y-2988163D01*
X7877403Y-2988163D02*
X7867880Y-2992925D01*
X7867880Y-2992925D02*
X7848832Y-2992925D01*
X7848832Y-2992925D02*
X7839308Y-2997687D01*
X7839308Y-2997687D02*
X7834546Y-3002449D01*
X7834546Y-3002449D02*
X7829784Y-3011973D01*
X7829784Y-3011973D02*
X7829784Y-3031020D01*
X7829784Y-3031020D02*
X7834546Y-3040544D01*
X7834546Y-3040544D02*
X7839308Y-3045306D01*
X7839308Y-3045306D02*
X7848832Y-3050068D01*
X7848832Y-3050068D02*
X7867880Y-3050068D01*
X7867880Y-3050068D02*
X7877403Y-3045306D01*
X7877403Y-3045306D02*
X7882165Y-3040544D01*
X7882165Y-3040544D02*
X7886927Y-3031020D01*
X7886927Y-3031020D02*
X7886927Y-3011973D01*
X7886927Y-3011973D02*
X7882165Y-3002449D01*
X7882165Y-3002449D02*
X7877403Y-2997687D01*
X7877403Y-2997687D02*
X7867880Y-2992925D01*
%TO.C,L1*%
X1728333Y-7275068D02*
X1680714Y-7275068D01*
X1680714Y-7275068D02*
X1680714Y-7175068D01*
X1814048Y-7275068D02*
X1756905Y-7275068D01*
X1785476Y-7275068D02*
X1785476Y-7175068D01*
X1785476Y-7175068D02*
X1775952Y-7189354D01*
X1775952Y-7189354D02*
X1766429Y-7198878D01*
X1766429Y-7198878D02*
X1756905Y-7203639D01*
%TO.C,C13*%
X5106116Y-2567717D02*
X5101354Y-2572479D01*
X5101354Y-2572479D02*
X5087068Y-2577240D01*
X5087068Y-2577240D02*
X5077545Y-2577240D01*
X5077545Y-2577240D02*
X5063259Y-2572479D01*
X5063259Y-2572479D02*
X5053735Y-2562955D01*
X5053735Y-2562955D02*
X5048973Y-2553431D01*
X5048973Y-2553431D02*
X5044211Y-2534383D01*
X5044211Y-2534383D02*
X5044211Y-2520098D01*
X5044211Y-2520098D02*
X5048973Y-2501050D01*
X5048973Y-2501050D02*
X5053735Y-2491526D01*
X5053735Y-2491526D02*
X5063259Y-2482002D01*
X5063259Y-2482002D02*
X5077545Y-2477240D01*
X5077545Y-2477240D02*
X5087068Y-2477240D01*
X5087068Y-2477240D02*
X5101354Y-2482002D01*
X5101354Y-2482002D02*
X5106116Y-2486764D01*
X5201354Y-2577240D02*
X5144211Y-2577240D01*
X5172783Y-2577240D02*
X5172783Y-2477240D01*
X5172783Y-2477240D02*
X5163259Y-2491526D01*
X5163259Y-2491526D02*
X5153735Y-2501050D01*
X5153735Y-2501050D02*
X5144211Y-2505812D01*
X5234687Y-2477240D02*
X5296592Y-2477240D01*
X5296592Y-2477240D02*
X5263259Y-2515336D01*
X5263259Y-2515336D02*
X5277545Y-2515336D01*
X5277545Y-2515336D02*
X5287068Y-2520098D01*
X5287068Y-2520098D02*
X5291830Y-2524859D01*
X5291830Y-2524859D02*
X5296592Y-2534383D01*
X5296592Y-2534383D02*
X5296592Y-2558193D01*
X5296592Y-2558193D02*
X5291830Y-2567717D01*
X5291830Y-2567717D02*
X5287068Y-2572479D01*
X5287068Y-2572479D02*
X5277545Y-2577240D01*
X5277545Y-2577240D02*
X5248973Y-2577240D01*
X5248973Y-2577240D02*
X5239449Y-2572479D01*
X5239449Y-2572479D02*
X5234687Y-2567717D01*
%TO.C,IC3*%
X2576644Y-5550896D02*
X2576644Y-5450896D01*
X2681406Y-5541372D02*
X2676644Y-5546134D01*
X2676644Y-5546134D02*
X2662358Y-5550896D01*
X2662358Y-5550896D02*
X2652835Y-5550896D01*
X2652835Y-5550896D02*
X2638549Y-5546134D01*
X2638549Y-5546134D02*
X2629025Y-5536610D01*
X2629025Y-5536610D02*
X2624263Y-5527086D01*
X2624263Y-5527086D02*
X2619501Y-5508039D01*
X2619501Y-5508039D02*
X2619501Y-5493753D01*
X2619501Y-5493753D02*
X2624263Y-5474705D01*
X2624263Y-5474705D02*
X2629025Y-5465181D01*
X2629025Y-5465181D02*
X2638549Y-5455658D01*
X2638549Y-5455658D02*
X2652835Y-5450896D01*
X2652835Y-5450896D02*
X2662358Y-5450896D01*
X2662358Y-5450896D02*
X2676644Y-5455658D01*
X2676644Y-5455658D02*
X2681406Y-5460420D01*
X2714739Y-5450896D02*
X2776644Y-5450896D01*
X2776644Y-5450896D02*
X2743311Y-5488991D01*
X2743311Y-5488991D02*
X2757596Y-5488991D01*
X2757596Y-5488991D02*
X2767120Y-5493753D01*
X2767120Y-5493753D02*
X2771882Y-5498515D01*
X2771882Y-5498515D02*
X2776644Y-5508039D01*
X2776644Y-5508039D02*
X2776644Y-5531848D01*
X2776644Y-5531848D02*
X2771882Y-5541372D01*
X2771882Y-5541372D02*
X2767120Y-5546134D01*
X2767120Y-5546134D02*
X2757596Y-5550896D01*
X2757596Y-5550896D02*
X2729025Y-5550896D01*
X2729025Y-5550896D02*
X2719501Y-5546134D01*
X2719501Y-5546134D02*
X2714739Y-5541372D01*
%TO.C,C6*%
X1103333Y-6460958D02*
X1098571Y-6465720D01*
X1098571Y-6465720D02*
X1084286Y-6470482D01*
X1084286Y-6470482D02*
X1074762Y-6470482D01*
X1074762Y-6470482D02*
X1060476Y-6465720D01*
X1060476Y-6465720D02*
X1050952Y-6456196D01*
X1050952Y-6456196D02*
X1046190Y-6446672D01*
X1046190Y-6446672D02*
X1041429Y-6427625D01*
X1041429Y-6427625D02*
X1041429Y-6413339D01*
X1041429Y-6413339D02*
X1046190Y-6394291D01*
X1046190Y-6394291D02*
X1050952Y-6384768D01*
X1050952Y-6384768D02*
X1060476Y-6375244D01*
X1060476Y-6375244D02*
X1074762Y-6370482D01*
X1074762Y-6370482D02*
X1084286Y-6370482D01*
X1084286Y-6370482D02*
X1098571Y-6375244D01*
X1098571Y-6375244D02*
X1103333Y-6380006D01*
X1189048Y-6370482D02*
X1170000Y-6370482D01*
X1170000Y-6370482D02*
X1160476Y-6375244D01*
X1160476Y-6375244D02*
X1155714Y-6380006D01*
X1155714Y-6380006D02*
X1146191Y-6394291D01*
X1146191Y-6394291D02*
X1141429Y-6413339D01*
X1141429Y-6413339D02*
X1141429Y-6451434D01*
X1141429Y-6451434D02*
X1146191Y-6460958D01*
X1146191Y-6460958D02*
X1150952Y-6465720D01*
X1150952Y-6465720D02*
X1160476Y-6470482D01*
X1160476Y-6470482D02*
X1179524Y-6470482D01*
X1179524Y-6470482D02*
X1189048Y-6465720D01*
X1189048Y-6465720D02*
X1193810Y-6460958D01*
X1193810Y-6460958D02*
X1198571Y-6451434D01*
X1198571Y-6451434D02*
X1198571Y-6427625D01*
X1198571Y-6427625D02*
X1193810Y-6418101D01*
X1193810Y-6418101D02*
X1189048Y-6413339D01*
X1189048Y-6413339D02*
X1179524Y-6408577D01*
X1179524Y-6408577D02*
X1160476Y-6408577D01*
X1160476Y-6408577D02*
X1150952Y-6413339D01*
X1150952Y-6413339D02*
X1146191Y-6418101D01*
X1146191Y-6418101D02*
X1141429Y-6427625D01*
%TO.C,C10*%
X2117343Y-4429850D02*
X2112581Y-4434612D01*
X2112581Y-4434612D02*
X2098295Y-4439373D01*
X2098295Y-4439373D02*
X2088771Y-4439373D01*
X2088771Y-4439373D02*
X2074485Y-4434612D01*
X2074485Y-4434612D02*
X2064962Y-4425088D01*
X2064962Y-4425088D02*
X2060200Y-4415564D01*
X2060200Y-4415564D02*
X2055438Y-4396516D01*
X2055438Y-4396516D02*
X2055438Y-4382231D01*
X2055438Y-4382231D02*
X2060200Y-4363183D01*
X2060200Y-4363183D02*
X2064962Y-4353659D01*
X2064962Y-4353659D02*
X2074485Y-4344135D01*
X2074485Y-4344135D02*
X2088771Y-4339373D01*
X2088771Y-4339373D02*
X2098295Y-4339373D01*
X2098295Y-4339373D02*
X2112581Y-4344135D01*
X2112581Y-4344135D02*
X2117343Y-4348897D01*
X2212581Y-4439373D02*
X2155438Y-4439373D01*
X2184009Y-4439373D02*
X2184009Y-4339373D01*
X2184009Y-4339373D02*
X2174485Y-4353659D01*
X2174485Y-4353659D02*
X2164962Y-4363183D01*
X2164962Y-4363183D02*
X2155438Y-4367945D01*
X2274485Y-4339373D02*
X2284009Y-4339373D01*
X2284009Y-4339373D02*
X2293533Y-4344135D01*
X2293533Y-4344135D02*
X2298295Y-4348897D01*
X2298295Y-4348897D02*
X2303057Y-4358421D01*
X2303057Y-4358421D02*
X2307819Y-4377469D01*
X2307819Y-4377469D02*
X2307819Y-4401278D01*
X2307819Y-4401278D02*
X2303057Y-4420326D01*
X2303057Y-4420326D02*
X2298295Y-4429850D01*
X2298295Y-4429850D02*
X2293533Y-4434612D01*
X2293533Y-4434612D02*
X2284009Y-4439373D01*
X2284009Y-4439373D02*
X2274485Y-4439373D01*
X2274485Y-4439373D02*
X2264962Y-4434612D01*
X2264962Y-4434612D02*
X2260200Y-4429850D01*
X2260200Y-4429850D02*
X2255438Y-4420326D01*
X2255438Y-4420326D02*
X2250676Y-4401278D01*
X2250676Y-4401278D02*
X2250676Y-4377469D01*
X2250676Y-4377469D02*
X2255438Y-4358421D01*
X2255438Y-4358421D02*
X2260200Y-4348897D01*
X2260200Y-4348897D02*
X2264962Y-4344135D01*
X2264962Y-4344135D02*
X2274485Y-4339373D01*
%TO.C,C2*%
X1428333Y-7435958D02*
X1423571Y-7440720D01*
X1423571Y-7440720D02*
X1409286Y-7445482D01*
X1409286Y-7445482D02*
X1399762Y-7445482D01*
X1399762Y-7445482D02*
X1385476Y-7440720D01*
X1385476Y-7440720D02*
X1375952Y-7431196D01*
X1375952Y-7431196D02*
X1371191Y-7421672D01*
X1371191Y-7421672D02*
X1366429Y-7402625D01*
X1366429Y-7402625D02*
X1366429Y-7388339D01*
X1366429Y-7388339D02*
X1371191Y-7369291D01*
X1371191Y-7369291D02*
X1375952Y-7359768D01*
X1375952Y-7359768D02*
X1385476Y-7350244D01*
X1385476Y-7350244D02*
X1399762Y-7345482D01*
X1399762Y-7345482D02*
X1409286Y-7345482D01*
X1409286Y-7345482D02*
X1423571Y-7350244D01*
X1423571Y-7350244D02*
X1428333Y-7355006D01*
X1466429Y-7355006D02*
X1471190Y-7350244D01*
X1471190Y-7350244D02*
X1480714Y-7345482D01*
X1480714Y-7345482D02*
X1504524Y-7345482D01*
X1504524Y-7345482D02*
X1514048Y-7350244D01*
X1514048Y-7350244D02*
X1518809Y-7355006D01*
X1518809Y-7355006D02*
X1523571Y-7364529D01*
X1523571Y-7364529D02*
X1523571Y-7374053D01*
X1523571Y-7374053D02*
X1518809Y-7388339D01*
X1518809Y-7388339D02*
X1461667Y-7445482D01*
X1461667Y-7445482D02*
X1523571Y-7445482D01*
%TO.C,C5*%
X1903333Y-6410958D02*
X1898571Y-6415720D01*
X1898571Y-6415720D02*
X1884286Y-6420482D01*
X1884286Y-6420482D02*
X1874762Y-6420482D01*
X1874762Y-6420482D02*
X1860476Y-6415720D01*
X1860476Y-6415720D02*
X1850952Y-6406196D01*
X1850952Y-6406196D02*
X1846190Y-6396672D01*
X1846190Y-6396672D02*
X1841429Y-6377625D01*
X1841429Y-6377625D02*
X1841429Y-6363339D01*
X1841429Y-6363339D02*
X1846190Y-6344291D01*
X1846190Y-6344291D02*
X1850952Y-6334768D01*
X1850952Y-6334768D02*
X1860476Y-6325244D01*
X1860476Y-6325244D02*
X1874762Y-6320482D01*
X1874762Y-6320482D02*
X1884286Y-6320482D01*
X1884286Y-6320482D02*
X1898571Y-6325244D01*
X1898571Y-6325244D02*
X1903333Y-6330006D01*
X1993809Y-6320482D02*
X1946190Y-6320482D01*
X1946190Y-6320482D02*
X1941429Y-6368101D01*
X1941429Y-6368101D02*
X1946190Y-6363339D01*
X1946190Y-6363339D02*
X1955714Y-6358577D01*
X1955714Y-6358577D02*
X1979524Y-6358577D01*
X1979524Y-6358577D02*
X1989048Y-6363339D01*
X1989048Y-6363339D02*
X1993809Y-6368101D01*
X1993809Y-6368101D02*
X1998571Y-6377625D01*
X1998571Y-6377625D02*
X1998571Y-6401434D01*
X1998571Y-6401434D02*
X1993809Y-6410958D01*
X1993809Y-6410958D02*
X1989048Y-6415720D01*
X1989048Y-6415720D02*
X1979524Y-6420482D01*
X1979524Y-6420482D02*
X1955714Y-6420482D01*
X1955714Y-6420482D02*
X1946190Y-6415720D01*
X1946190Y-6415720D02*
X1941429Y-6410958D01*
%TO.C,C11*%
X2815714Y-3675958D02*
X2810952Y-3680720D01*
X2810952Y-3680720D02*
X2796667Y-3685482D01*
X2796667Y-3685482D02*
X2787143Y-3685482D01*
X2787143Y-3685482D02*
X2772857Y-3680720D01*
X2772857Y-3680720D02*
X2763333Y-3671196D01*
X2763333Y-3671196D02*
X2758571Y-3661672D01*
X2758571Y-3661672D02*
X2753810Y-3642625D01*
X2753810Y-3642625D02*
X2753810Y-3628339D01*
X2753810Y-3628339D02*
X2758571Y-3609291D01*
X2758571Y-3609291D02*
X2763333Y-3599768D01*
X2763333Y-3599768D02*
X2772857Y-3590244D01*
X2772857Y-3590244D02*
X2787143Y-3585482D01*
X2787143Y-3585482D02*
X2796667Y-3585482D01*
X2796667Y-3585482D02*
X2810952Y-3590244D01*
X2810952Y-3590244D02*
X2815714Y-3595006D01*
X2910952Y-3685482D02*
X2853809Y-3685482D01*
X2882381Y-3685482D02*
X2882381Y-3585482D01*
X2882381Y-3585482D02*
X2872857Y-3599768D01*
X2872857Y-3599768D02*
X2863333Y-3609291D01*
X2863333Y-3609291D02*
X2853809Y-3614053D01*
X3006190Y-3685482D02*
X2949048Y-3685482D01*
X2977619Y-3685482D02*
X2977619Y-3585482D01*
X2977619Y-3585482D02*
X2968095Y-3599768D01*
X2968095Y-3599768D02*
X2958571Y-3609291D01*
X2958571Y-3609291D02*
X2949048Y-3614053D01*
%TO.C,IC2*%
X996644Y-6895482D02*
X996644Y-6795482D01*
X1101406Y-6885958D02*
X1096644Y-6890720D01*
X1096644Y-6890720D02*
X1082358Y-6895482D01*
X1082358Y-6895482D02*
X1072835Y-6895482D01*
X1072835Y-6895482D02*
X1058549Y-6890720D01*
X1058549Y-6890720D02*
X1049025Y-6881196D01*
X1049025Y-6881196D02*
X1044263Y-6871672D01*
X1044263Y-6871672D02*
X1039501Y-6852625D01*
X1039501Y-6852625D02*
X1039501Y-6838339D01*
X1039501Y-6838339D02*
X1044263Y-6819291D01*
X1044263Y-6819291D02*
X1049025Y-6809768D01*
X1049025Y-6809768D02*
X1058549Y-6800244D01*
X1058549Y-6800244D02*
X1072835Y-6795482D01*
X1072835Y-6795482D02*
X1082358Y-6795482D01*
X1082358Y-6795482D02*
X1096644Y-6800244D01*
X1096644Y-6800244D02*
X1101406Y-6805006D01*
X1139501Y-6805006D02*
X1144263Y-6800244D01*
X1144263Y-6800244D02*
X1153787Y-6795482D01*
X1153787Y-6795482D02*
X1177596Y-6795482D01*
X1177596Y-6795482D02*
X1187120Y-6800244D01*
X1187120Y-6800244D02*
X1191882Y-6805006D01*
X1191882Y-6805006D02*
X1196644Y-6814529D01*
X1196644Y-6814529D02*
X1196644Y-6824053D01*
X1196644Y-6824053D02*
X1191882Y-6838339D01*
X1191882Y-6838339D02*
X1134739Y-6895482D01*
X1134739Y-6895482D02*
X1196644Y-6895482D01*
%TO.C,C7*%
X1227596Y-5701372D02*
X1222835Y-5706134D01*
X1222835Y-5706134D02*
X1208549Y-5710896D01*
X1208549Y-5710896D02*
X1199025Y-5710896D01*
X1199025Y-5710896D02*
X1184739Y-5706134D01*
X1184739Y-5706134D02*
X1175216Y-5696610D01*
X1175216Y-5696610D02*
X1170454Y-5687086D01*
X1170454Y-5687086D02*
X1165692Y-5668038D01*
X1165692Y-5668038D02*
X1165692Y-5653753D01*
X1165692Y-5653753D02*
X1170454Y-5634705D01*
X1170454Y-5634705D02*
X1175216Y-5625181D01*
X1175216Y-5625181D02*
X1184739Y-5615658D01*
X1184739Y-5615658D02*
X1199025Y-5610896D01*
X1199025Y-5610896D02*
X1208549Y-5610896D01*
X1208549Y-5610896D02*
X1222835Y-5615658D01*
X1222835Y-5615658D02*
X1227596Y-5620419D01*
X1260930Y-5610896D02*
X1327596Y-5610896D01*
X1327596Y-5610896D02*
X1284739Y-5710896D01*
%TO.C,R69*%
X1430714Y-7670482D02*
X1397381Y-7622863D01*
X1373571Y-7670482D02*
X1373571Y-7570482D01*
X1373571Y-7570482D02*
X1411667Y-7570482D01*
X1411667Y-7570482D02*
X1421190Y-7575244D01*
X1421190Y-7575244D02*
X1425952Y-7580006D01*
X1425952Y-7580006D02*
X1430714Y-7589529D01*
X1430714Y-7589529D02*
X1430714Y-7603815D01*
X1430714Y-7603815D02*
X1425952Y-7613339D01*
X1425952Y-7613339D02*
X1421190Y-7618101D01*
X1421190Y-7618101D02*
X1411667Y-7622863D01*
X1411667Y-7622863D02*
X1373571Y-7622863D01*
X1516428Y-7570482D02*
X1497381Y-7570482D01*
X1497381Y-7570482D02*
X1487857Y-7575244D01*
X1487857Y-7575244D02*
X1483095Y-7580006D01*
X1483095Y-7580006D02*
X1473571Y-7594291D01*
X1473571Y-7594291D02*
X1468809Y-7613339D01*
X1468809Y-7613339D02*
X1468809Y-7651434D01*
X1468809Y-7651434D02*
X1473571Y-7660958D01*
X1473571Y-7660958D02*
X1478333Y-7665720D01*
X1478333Y-7665720D02*
X1487857Y-7670482D01*
X1487857Y-7670482D02*
X1506905Y-7670482D01*
X1506905Y-7670482D02*
X1516428Y-7665720D01*
X1516428Y-7665720D02*
X1521190Y-7660958D01*
X1521190Y-7660958D02*
X1525952Y-7651434D01*
X1525952Y-7651434D02*
X1525952Y-7627625D01*
X1525952Y-7627625D02*
X1521190Y-7618101D01*
X1521190Y-7618101D02*
X1516428Y-7613339D01*
X1516428Y-7613339D02*
X1506905Y-7608577D01*
X1506905Y-7608577D02*
X1487857Y-7608577D01*
X1487857Y-7608577D02*
X1478333Y-7613339D01*
X1478333Y-7613339D02*
X1473571Y-7618101D01*
X1473571Y-7618101D02*
X1468809Y-7627625D01*
X1573571Y-7670482D02*
X1592619Y-7670482D01*
X1592619Y-7670482D02*
X1602143Y-7665720D01*
X1602143Y-7665720D02*
X1606905Y-7660958D01*
X1606905Y-7660958D02*
X1616428Y-7646672D01*
X1616428Y-7646672D02*
X1621190Y-7627625D01*
X1621190Y-7627625D02*
X1621190Y-7589529D01*
X1621190Y-7589529D02*
X1616428Y-7580006D01*
X1616428Y-7580006D02*
X1611667Y-7575244D01*
X1611667Y-7575244D02*
X1602143Y-7570482D01*
X1602143Y-7570482D02*
X1583095Y-7570482D01*
X1583095Y-7570482D02*
X1573571Y-7575244D01*
X1573571Y-7575244D02*
X1568809Y-7580006D01*
X1568809Y-7580006D02*
X1564048Y-7589529D01*
X1564048Y-7589529D02*
X1564048Y-7613339D01*
X1564048Y-7613339D02*
X1568809Y-7622863D01*
X1568809Y-7622863D02*
X1573571Y-7627625D01*
X1573571Y-7627625D02*
X1583095Y-7632387D01*
X1583095Y-7632387D02*
X1602143Y-7632387D01*
X1602143Y-7632387D02*
X1611667Y-7627625D01*
X1611667Y-7627625D02*
X1616428Y-7622863D01*
X1616428Y-7622863D02*
X1621190Y-7613339D01*
%TO.C,R22*%
X4029977Y-4990896D02*
X3996644Y-4943277D01*
X3972834Y-4990896D02*
X3972834Y-4890896D01*
X3972834Y-4890896D02*
X4010930Y-4890896D01*
X4010930Y-4890896D02*
X4020453Y-4895658D01*
X4020453Y-4895658D02*
X4025215Y-4900420D01*
X4025215Y-4900420D02*
X4029977Y-4909943D01*
X4029977Y-4909943D02*
X4029977Y-4924229D01*
X4029977Y-4924229D02*
X4025215Y-4933753D01*
X4025215Y-4933753D02*
X4020453Y-4938515D01*
X4020453Y-4938515D02*
X4010930Y-4943277D01*
X4010930Y-4943277D02*
X3972834Y-4943277D01*
X4068073Y-4900420D02*
X4072834Y-4895658D01*
X4072834Y-4895658D02*
X4082358Y-4890896D01*
X4082358Y-4890896D02*
X4106168Y-4890896D01*
X4106168Y-4890896D02*
X4115692Y-4895658D01*
X4115692Y-4895658D02*
X4120453Y-4900420D01*
X4120453Y-4900420D02*
X4125215Y-4909943D01*
X4125215Y-4909943D02*
X4125215Y-4919467D01*
X4125215Y-4919467D02*
X4120453Y-4933753D01*
X4120453Y-4933753D02*
X4063311Y-4990896D01*
X4063311Y-4990896D02*
X4125215Y-4990896D01*
X4163311Y-4900420D02*
X4168073Y-4895658D01*
X4168073Y-4895658D02*
X4177596Y-4890896D01*
X4177596Y-4890896D02*
X4201406Y-4890896D01*
X4201406Y-4890896D02*
X4210930Y-4895658D01*
X4210930Y-4895658D02*
X4215692Y-4900420D01*
X4215692Y-4900420D02*
X4220454Y-4909943D01*
X4220454Y-4909943D02*
X4220454Y-4919467D01*
X4220454Y-4919467D02*
X4215692Y-4933753D01*
X4215692Y-4933753D02*
X4158549Y-4990896D01*
X4158549Y-4990896D02*
X4220454Y-4990896D01*
%TO.C,R27*%
X10025714Y-3595482D02*
X9992381Y-3547863D01*
X9968571Y-3595482D02*
X9968571Y-3495482D01*
X9968571Y-3495482D02*
X10006667Y-3495482D01*
X10006667Y-3495482D02*
X10016190Y-3500244D01*
X10016190Y-3500244D02*
X10020952Y-3505006D01*
X10020952Y-3505006D02*
X10025714Y-3514529D01*
X10025714Y-3514529D02*
X10025714Y-3528815D01*
X10025714Y-3528815D02*
X10020952Y-3538339D01*
X10020952Y-3538339D02*
X10016190Y-3543101D01*
X10016190Y-3543101D02*
X10006667Y-3547863D01*
X10006667Y-3547863D02*
X9968571Y-3547863D01*
X10063810Y-3505006D02*
X10068571Y-3500244D01*
X10068571Y-3500244D02*
X10078095Y-3495482D01*
X10078095Y-3495482D02*
X10101905Y-3495482D01*
X10101905Y-3495482D02*
X10111429Y-3500244D01*
X10111429Y-3500244D02*
X10116190Y-3505006D01*
X10116190Y-3505006D02*
X10120952Y-3514529D01*
X10120952Y-3514529D02*
X10120952Y-3524053D01*
X10120952Y-3524053D02*
X10116190Y-3538339D01*
X10116190Y-3538339D02*
X10059048Y-3595482D01*
X10059048Y-3595482D02*
X10120952Y-3595482D01*
X10154286Y-3495482D02*
X10220952Y-3495482D01*
X10220952Y-3495482D02*
X10178095Y-3595482D01*
%TO.C,H5*%
X603810Y-5650482D02*
X603810Y-5550482D01*
X603810Y-5598101D02*
X660952Y-5598101D01*
X660952Y-5650482D02*
X660952Y-5550482D01*
X756190Y-5550482D02*
X708571Y-5550482D01*
X708571Y-5550482D02*
X703809Y-5598101D01*
X703809Y-5598101D02*
X708571Y-5593339D01*
X708571Y-5593339D02*
X718095Y-5588577D01*
X718095Y-5588577D02*
X741905Y-5588577D01*
X741905Y-5588577D02*
X751428Y-5593339D01*
X751428Y-5593339D02*
X756190Y-5598101D01*
X756190Y-5598101D02*
X760952Y-5607625D01*
X760952Y-5607625D02*
X760952Y-5631434D01*
X760952Y-5631434D02*
X756190Y-5640958D01*
X756190Y-5640958D02*
X751428Y-5645720D01*
X751428Y-5645720D02*
X741905Y-5650482D01*
X741905Y-5650482D02*
X718095Y-5650482D01*
X718095Y-5650482D02*
X708571Y-5645720D01*
X708571Y-5645720D02*
X703809Y-5640958D01*
%TO.C,R25*%
X10025714Y-3925482D02*
X9992381Y-3877863D01*
X9968571Y-3925482D02*
X9968571Y-3825482D01*
X9968571Y-3825482D02*
X10006667Y-3825482D01*
X10006667Y-3825482D02*
X10016190Y-3830244D01*
X10016190Y-3830244D02*
X10020952Y-3835006D01*
X10020952Y-3835006D02*
X10025714Y-3844529D01*
X10025714Y-3844529D02*
X10025714Y-3858815D01*
X10025714Y-3858815D02*
X10020952Y-3868339D01*
X10020952Y-3868339D02*
X10016190Y-3873101D01*
X10016190Y-3873101D02*
X10006667Y-3877863D01*
X10006667Y-3877863D02*
X9968571Y-3877863D01*
X10063810Y-3835006D02*
X10068571Y-3830244D01*
X10068571Y-3830244D02*
X10078095Y-3825482D01*
X10078095Y-3825482D02*
X10101905Y-3825482D01*
X10101905Y-3825482D02*
X10111429Y-3830244D01*
X10111429Y-3830244D02*
X10116190Y-3835006D01*
X10116190Y-3835006D02*
X10120952Y-3844529D01*
X10120952Y-3844529D02*
X10120952Y-3854053D01*
X10120952Y-3854053D02*
X10116190Y-3868339D01*
X10116190Y-3868339D02*
X10059048Y-3925482D01*
X10059048Y-3925482D02*
X10120952Y-3925482D01*
X10211429Y-3825482D02*
X10163810Y-3825482D01*
X10163810Y-3825482D02*
X10159048Y-3873101D01*
X10159048Y-3873101D02*
X10163810Y-3868339D01*
X10163810Y-3868339D02*
X10173333Y-3863577D01*
X10173333Y-3863577D02*
X10197143Y-3863577D01*
X10197143Y-3863577D02*
X10206667Y-3868339D01*
X10206667Y-3868339D02*
X10211429Y-3873101D01*
X10211429Y-3873101D02*
X10216190Y-3882625D01*
X10216190Y-3882625D02*
X10216190Y-3906434D01*
X10216190Y-3906434D02*
X10211429Y-3915958D01*
X10211429Y-3915958D02*
X10206667Y-3920720D01*
X10206667Y-3920720D02*
X10197143Y-3925482D01*
X10197143Y-3925482D02*
X10173333Y-3925482D01*
X10173333Y-3925482D02*
X10163810Y-3920720D01*
X10163810Y-3920720D02*
X10159048Y-3915958D01*
%TO.C,R9*%
X4083333Y-4445482D02*
X4050000Y-4397863D01*
X4026190Y-4445482D02*
X4026190Y-4345482D01*
X4026190Y-4345482D02*
X4064286Y-4345482D01*
X4064286Y-4345482D02*
X4073809Y-4350244D01*
X4073809Y-4350244D02*
X4078571Y-4355006D01*
X4078571Y-4355006D02*
X4083333Y-4364530D01*
X4083333Y-4364530D02*
X4083333Y-4378815D01*
X4083333Y-4378815D02*
X4078571Y-4388339D01*
X4078571Y-4388339D02*
X4073809Y-4393101D01*
X4073809Y-4393101D02*
X4064286Y-4397863D01*
X4064286Y-4397863D02*
X4026190Y-4397863D01*
X4130952Y-4445482D02*
X4150000Y-4445482D01*
X4150000Y-4445482D02*
X4159524Y-4440720D01*
X4159524Y-4440720D02*
X4164286Y-4435958D01*
X4164286Y-4435958D02*
X4173809Y-4421672D01*
X4173809Y-4421672D02*
X4178571Y-4402625D01*
X4178571Y-4402625D02*
X4178571Y-4364530D01*
X4178571Y-4364530D02*
X4173809Y-4355006D01*
X4173809Y-4355006D02*
X4169048Y-4350244D01*
X4169048Y-4350244D02*
X4159524Y-4345482D01*
X4159524Y-4345482D02*
X4140476Y-4345482D01*
X4140476Y-4345482D02*
X4130952Y-4350244D01*
X4130952Y-4350244D02*
X4126190Y-4355006D01*
X4126190Y-4355006D02*
X4121429Y-4364530D01*
X4121429Y-4364530D02*
X4121429Y-4388339D01*
X4121429Y-4388339D02*
X4126190Y-4397863D01*
X4126190Y-4397863D02*
X4130952Y-4402625D01*
X4130952Y-4402625D02*
X4140476Y-4407387D01*
X4140476Y-4407387D02*
X4159524Y-4407387D01*
X4159524Y-4407387D02*
X4169048Y-4402625D01*
X4169048Y-4402625D02*
X4173809Y-4397863D01*
X4173809Y-4397863D02*
X4178571Y-4388339D01*
D12*
%TO.C,R10*%
X3736512Y-3568000D02*
X3702988Y-3568000D01*
X3736512Y-3492000D02*
X3702988Y-3492000D01*
%TO.C,+3V3_tp1*%
X2165000Y-3350000D02*
G75*
G03*
X2165000Y-3350000I-95000J0D01*
G01*
%TO.C,R8*%
X6382402Y-3478521D02*
X6382402Y-3444996D01*
X6458402Y-3478521D02*
X6458402Y-3444996D01*
%TO.C,+5V_tp1*%
X2840000Y-6450000D02*
G75*
G03*
X2840000Y-6450000I-95000J0D01*
G01*
%TO.C,IC4*%
X2347372Y-3999708D02*
X2347372Y-4179708D01*
X2347372Y-3999708D02*
X2347372Y-3919708D01*
X2659372Y-3999708D02*
X2659372Y-4079708D01*
X2659372Y-3999708D02*
X2659372Y-3919708D01*
%TO.C,R7*%
X6238402Y-3099996D02*
X6238402Y-3133521D01*
X6162402Y-3099996D02*
X6162402Y-3133521D01*
%TO.C,GND_tp1*%
X3075000Y-5420000D02*
G75*
G03*
X3075000Y-5420000I-95000J0D01*
G01*
%TO.C,C12*%
X2514955Y-3426108D02*
X2491788Y-3426108D01*
X2514955Y-3354108D02*
X2491788Y-3354108D01*
%TO.C,C1*%
X4396402Y-4795175D02*
X4396402Y-4818342D01*
X4324402Y-4795175D02*
X4324402Y-4818342D01*
%TO.C,C52*%
X2185523Y-6574727D02*
X2185523Y-6603980D01*
X2083523Y-6574727D02*
X2083523Y-6603980D01*
%TO.C,GND_tp2*%
X10955000Y-690000D02*
G75*
G03*
X10955000Y-690000I-95000J0D01*
G01*
%TO.C,R19*%
X7188402Y-3343238D02*
X7188402Y-3376762D01*
X7112402Y-3343238D02*
X7112402Y-3376762D01*
%TO.C,R20*%
X7033402Y-3094996D02*
X7033402Y-3128521D01*
X6957402Y-3094996D02*
X6957402Y-3128521D01*
%TO.C,R24*%
X7181025Y-5599758D02*
X7147501Y-5599758D01*
X7181025Y-5523759D02*
X7147501Y-5523759D01*
%TO.C,R26*%
X7181025Y-5344759D02*
X7147501Y-5344759D01*
X7181025Y-5268759D02*
X7147501Y-5268759D01*
%TO.C,R4*%
X10636762Y-6043000D02*
X10603238Y-6043000D01*
X10636762Y-5967000D02*
X10603238Y-5967000D01*
%TO.C,R5*%
X10603238Y-5792000D02*
X10636762Y-5792000D01*
X10603238Y-5868000D02*
X10636762Y-5868000D01*
%TO.C,SDA_portE1*%
X10340000Y-5685000D02*
X10340000Y-5825000D01*
X10200000Y-5685000D02*
X10340000Y-5685000D01*
X10340000Y-5825000D02*
X10200000Y-5825000D01*
X10200000Y-5825000D02*
X10200000Y-5685000D01*
%TO.C,R6*%
X3802737Y-871348D02*
X3802737Y-837824D01*
X3878737Y-871348D02*
X3878737Y-837824D01*
%TO.C,SCL_portE1*%
X10340000Y-5930000D02*
X10340000Y-6070000D01*
X10200000Y-5930000D02*
X10340000Y-5930000D01*
X10340000Y-6070000D02*
X10200000Y-6070000D01*
X10200000Y-6070000D02*
X10200000Y-5930000D01*
%TO.C,R18*%
X4105759Y-5285759D02*
X4139283Y-5285759D01*
X4105759Y-5361759D02*
X4139283Y-5361759D01*
%TO.C,TP17*%
X3240402Y-3256758D02*
X3000402Y-3256758D01*
X3240402Y-2916758D02*
X3240402Y-3256758D01*
X3000402Y-3256758D02*
X3000402Y-2916758D01*
X3000402Y-2916758D02*
X3240402Y-2916758D01*
%TO.C,U10*%
X9510000Y-1114000D02*
X9165000Y-1114000D01*
X9510000Y-1114000D02*
X9705000Y-1114000D01*
X9510000Y-1626000D02*
X9315000Y-1626000D01*
X9510000Y-1626000D02*
X9705000Y-1626000D01*
%TO.C,D1*%
X2066021Y-1557758D02*
X1919021Y-1557758D01*
X1919021Y-1557758D02*
X1919021Y-1803758D01*
X2066021Y-1803758D02*
X2066021Y-1557758D01*
%TO.C,TP16*%
X6560000Y-4980000D02*
X6560000Y-5220000D01*
X6220000Y-4980000D02*
X6560000Y-4980000D01*
X6560000Y-5220000D02*
X6220000Y-5220000D01*
X6220000Y-5220000D02*
X6220000Y-4980000D01*
%TO.C,TP13*%
X5570000Y-5695000D02*
X5370000Y-5695000D01*
X5570000Y-5455000D02*
X5570000Y-5695000D01*
X5370000Y-5695000D02*
X5370000Y-5455000D01*
X5370000Y-5455000D02*
X5570000Y-5455000D01*
%TO.C,R30*%
X9783000Y-1933238D02*
X9783000Y-1966762D01*
X9707000Y-1933238D02*
X9707000Y-1966762D01*
%TO.C,U8*%
X8460000Y-1461000D02*
X8640000Y-1461000D01*
X8640000Y-1139000D02*
X8395000Y-1139000D01*
%TO.C,TP9*%
X3364598Y-2995414D02*
X3564598Y-2995414D01*
X3364598Y-3235414D02*
X3364598Y-2995414D01*
X3564598Y-2995414D02*
X3564598Y-3235414D01*
X3564598Y-3235414D02*
X3364598Y-3235414D01*
%TO.C,C16*%
X10721000Y-5593416D02*
X10721000Y-5616583D01*
X10649000Y-5593416D02*
X10649000Y-5616583D01*
%TO.C,R2*%
X4533975Y-1896586D02*
X4567499Y-1896586D01*
X4533975Y-1972586D02*
X4567499Y-1972586D01*
%TO.C,X1*%
X4579272Y-4781509D02*
X4579272Y-5151509D01*
X4579272Y-5151509D02*
X5109272Y-5151509D01*
%TO.C,R3*%
X4562499Y-2142586D02*
X4528975Y-2142586D01*
X4562499Y-2066586D02*
X4528975Y-2066586D01*
D11*
%TO.C,U6*%
X5697902Y-4266759D02*
X5697902Y-4209259D01*
X5697902Y-4266759D02*
X5630402Y-4266759D01*
X5697902Y-4209259D02*
X5825402Y-4209259D01*
X5697902Y-3231758D02*
X5697902Y-3299258D01*
X5697902Y-3231758D02*
X5630402Y-3231758D01*
X4662902Y-4266759D02*
X4730402Y-4266759D01*
X4662902Y-4266759D02*
X4662902Y-4199259D01*
X4662902Y-3231758D02*
X4730402Y-3231758D01*
X4662902Y-3231758D02*
X4662902Y-3299258D01*
D12*
%TO.C,R14*%
X4617402Y-2783521D02*
X4617402Y-2749996D01*
X4693402Y-2783521D02*
X4693402Y-2749996D01*
%TO.C,C19*%
X7831583Y-2846000D02*
X7808416Y-2846000D01*
X7831583Y-2774000D02*
X7808416Y-2774000D01*
%TO.C,C20*%
X7831583Y-737758D02*
X7808416Y-737758D01*
X7831583Y-665759D02*
X7808416Y-665759D01*
%TO.C,R11*%
X6752402Y-3133521D02*
X6752402Y-3099996D01*
X6828402Y-3133521D02*
X6828402Y-3099996D01*
%TO.C,R12*%
X6697402Y-2843521D02*
X6697402Y-2809996D01*
X6773402Y-2843521D02*
X6773402Y-2809996D01*
%TO.C,C18*%
X9254737Y-6736170D02*
X9254737Y-6713003D01*
X9326737Y-6736170D02*
X9326737Y-6713003D01*
%TO.C,R13*%
X4902402Y-2783521D02*
X4902402Y-2749996D01*
X4978402Y-2783521D02*
X4978402Y-2749996D01*
%TO.C,GPS_RXI1*%
X7154263Y-5716758D02*
X7294263Y-5716758D01*
X7154263Y-5856758D02*
X7154263Y-5716758D01*
X7294263Y-5716758D02*
X7294263Y-5856758D01*
X7294263Y-5856758D02*
X7154263Y-5856758D01*
%TO.C,C27*%
X9291584Y-974741D02*
X9268417Y-974741D01*
X9291584Y-902741D02*
X9268417Y-902741D01*
%TO.C,C28*%
X9031000Y-1972132D02*
X9031000Y-2001385D01*
X8929000Y-1972132D02*
X8929000Y-2001385D01*
%TO.C,C23*%
X7192680Y-6289414D02*
X7215847Y-6289414D01*
X7192680Y-6361414D02*
X7215847Y-6361414D01*
%TO.C,IC1*%
X8560000Y-1800758D02*
X8380000Y-1800758D01*
X8560000Y-1800758D02*
X8640000Y-1800758D01*
X8560000Y-2112759D02*
X8480000Y-2112759D01*
X8560000Y-2112759D02*
X8640000Y-2112759D01*
%TO.C,C29*%
X9224000Y-1963342D02*
X9224000Y-1940175D01*
X9296000Y-1963342D02*
X9296000Y-1940175D01*
%TO.C,C24*%
X8608417Y-974000D02*
X8631584Y-974000D01*
X8608417Y-1046000D02*
X8631584Y-1046000D01*
%TO.C,C32*%
X6726000Y-2308417D02*
X6726000Y-2331584D01*
X6654000Y-2308417D02*
X6654000Y-2331584D01*
%TO.C,C26*%
X8096000Y-1937132D02*
X8096000Y-1966385D01*
X7994000Y-1937132D02*
X7994000Y-1966385D01*
%TO.C,R29*%
X9482000Y-1966762D02*
X9482000Y-1933238D01*
X9558000Y-1966762D02*
X9558000Y-1933238D01*
%TO.C,R1*%
X8178000Y-1113238D02*
X8178000Y-1146762D01*
X8102000Y-1113238D02*
X8102000Y-1146762D01*
%TO.C,GPS_TXO1*%
X7154263Y-4986759D02*
X7294263Y-4986759D01*
X7154263Y-5126759D02*
X7154263Y-4986759D01*
X7294263Y-4986759D02*
X7294263Y-5126759D01*
X7294263Y-5126759D02*
X7154263Y-5126759D01*
%TO.C,TP15*%
X5720000Y-5455000D02*
X5920000Y-5455000D01*
X5720000Y-5695000D02*
X5720000Y-5455000D01*
X5920000Y-5455000D02*
X5920000Y-5695000D01*
X5920000Y-5695000D02*
X5720000Y-5695000D01*
%TO.C,C4*%
X1657680Y-6529414D02*
X1680847Y-6529414D01*
X1657680Y-6601414D02*
X1680847Y-6601414D01*
%TO.C,R37*%
X2268402Y-1678652D02*
X2268402Y-1712176D01*
X2192402Y-1678652D02*
X2192402Y-1712176D01*
%TO.C,C3*%
X1772680Y-6784000D02*
X1795847Y-6784000D01*
X1772680Y-6856000D02*
X1795847Y-6856000D01*
%TO.C,C9*%
X2115847Y-5031414D02*
X2092680Y-5031414D01*
X2115847Y-4959414D02*
X2092680Y-4959414D01*
%TO.C,C14*%
X6154402Y-3608342D02*
X6154402Y-3585175D01*
X6226402Y-3608342D02*
X6226402Y-3585175D01*
%TO.C,C15*%
X4232068Y-3960758D02*
X4255235Y-3960758D01*
X4232068Y-4032758D02*
X4255235Y-4032758D01*
%TO.C,C21*%
X5258402Y-4784342D02*
X5258402Y-4761175D01*
X5330402Y-4784342D02*
X5330402Y-4761175D01*
%TO.C,C51*%
X7749153Y-3238586D02*
X7772320Y-3238586D01*
X7749153Y-3310586D02*
X7772320Y-3310586D01*
%TO.C,R68*%
X7743975Y-3096586D02*
X7777499Y-3096586D01*
X7743975Y-3172586D02*
X7777499Y-3172586D01*
%TO.C,L1*%
X1831557Y-6946500D02*
X1876969Y-6946500D01*
X1831557Y-7093500D02*
X1876969Y-7093500D01*
%TO.C,C13*%
X5171985Y-2742759D02*
X5148818Y-2742759D01*
X5171985Y-2670759D02*
X5148818Y-2670759D01*
D11*
%TO.C,IC3*%
X2494263Y-5467914D02*
X2436763Y-5467914D01*
X2494263Y-5467914D02*
X2494263Y-6042914D01*
X2436763Y-5467914D02*
X2436763Y-5307914D01*
X1429263Y-5467914D02*
X1494263Y-5467914D01*
X1429263Y-5467914D02*
X1429263Y-6042914D01*
X2494263Y-6042914D02*
X2429263Y-6042914D01*
X1429263Y-6042914D02*
X1494263Y-6042914D01*
D12*
%TO.C,C6*%
X1180847Y-6601414D02*
X1157680Y-6601414D01*
X1180847Y-6529414D02*
X1157680Y-6529414D01*
%TO.C,C10*%
X2525373Y-4349000D02*
X2554627Y-4349000D01*
X2525373Y-4451000D02*
X2554627Y-4451000D01*
%TO.C,C2*%
X1192680Y-7359414D02*
X1215847Y-7359414D01*
X1192680Y-7431414D02*
X1215847Y-7431414D01*
%TO.C,C5*%
X1980263Y-6553830D02*
X1980263Y-6576997D01*
X1908263Y-6553830D02*
X1908263Y-6576997D01*
%TO.C,C11*%
X2488745Y-3582948D02*
X2517998Y-3582948D01*
X2488745Y-3684948D02*
X2517998Y-3684948D01*
%TO.C,IC2*%
X1263263Y-6865414D02*
X1263263Y-7045414D01*
X1263263Y-6865414D02*
X1263263Y-6785414D01*
X1575263Y-6865414D02*
X1575263Y-6945414D01*
X1575263Y-6865414D02*
X1575263Y-6785414D01*
%TO.C,C7*%
X1232680Y-5779414D02*
X1255847Y-5779414D01*
X1232680Y-5851414D02*
X1255847Y-5851414D01*
%TO.C,R69*%
X1187501Y-7537414D02*
X1221025Y-7537414D01*
X1187501Y-7613414D02*
X1221025Y-7613414D01*
%TO.C,SCL_portC1*%
X6470000Y-2800000D02*
X6610000Y-2800000D01*
X6470000Y-2940000D02*
X6470000Y-2800000D01*
X6610000Y-2800000D02*
X6610000Y-2940000D01*
X6610000Y-2940000D02*
X6470000Y-2940000D01*
%TO.C,R22*%
X4085759Y-4765759D02*
X4119283Y-4765759D01*
X4085759Y-4841759D02*
X4119283Y-4841759D01*
%TO.C,R27*%
X10368000Y-3503238D02*
X10368000Y-3536762D01*
X10292000Y-3503238D02*
X10292000Y-3536762D01*
%TO.C,SDA_portC1*%
X6630000Y-3310000D02*
X6770000Y-3310000D01*
X6630000Y-3450000D02*
X6630000Y-3310000D01*
X6770000Y-3310000D02*
X6770000Y-3450000D01*
X6770000Y-3450000D02*
X6630000Y-3450000D01*
%TO.C,R25*%
X10368000Y-3833238D02*
X10368000Y-3866762D01*
X10292000Y-3833238D02*
X10292000Y-3866762D01*
%TO.C,R9*%
X4117499Y-4582586D02*
X4083975Y-4582586D01*
X4117499Y-4506586D02*
X4083975Y-4506586D01*
%TD*%
D13*
X200000Y0D02*
X11500000Y0D01*
X200000Y-8200000D02*
X11500000Y-8200000D01*
X0Y-8000000D02*
X0Y-200000D01*
X11500000Y0D02*
X11700000Y-200000D01*
X11700000Y-200000D02*
X11700000Y-8000000D01*
X11700000Y-8000000D02*
X11500000Y-8200000D01*
X200000Y0D02*
X0Y-200000D01*
X0Y-8000000D02*
X200000Y-8200000D01*
M02*
