%TF.GenerationSoftware,KiCad,Pcbnew,7.0.5*%
%TF.CreationDate,2023-07-20T14:33:04+01:00*%
%TF.ProjectId,EmotionalCities_v.1.1,456d6f74-696f-46e6-916c-436974696573,rev?*%
%TF.SameCoordinates,PX76109c0PY3c14dc0*%
%TF.FileFunction,Copper,L3,Inr*%
%TF.FilePolarity,Positive*%
%FSLAX45Y45*%
G04 Gerber Fmt 4.5, Leading zero omitted, Abs format (unit mm)*
G04 Created by KiCad (PCBNEW 7.0.5) date 2023-07-20 14:33:04*
%MOMM*%
%LPD*%
G01*
G04 APERTURE LIST*
%TA.AperFunction,ComponentPad*%
%ADD10C,1.500000*%
%TD*%
%TA.AperFunction,ComponentPad*%
%ADD11R,1.200000X1.200000*%
%TD*%
%TA.AperFunction,ComponentPad*%
%ADD12C,1.200000*%
%TD*%
%TA.AperFunction,ComponentPad*%
%ADD13C,2.250000*%
%TD*%
%TA.AperFunction,ComponentPad*%
%ADD14C,1.879600*%
%TD*%
%TA.AperFunction,ComponentPad*%
%ADD15C,1.930400*%
%TD*%
%TA.AperFunction,ComponentPad*%
%ADD16R,1.700000X1.700000*%
%TD*%
%TA.AperFunction,ComponentPad*%
%ADD17O,1.700000X1.700000*%
%TD*%
%TA.AperFunction,ComponentPad*%
%ADD18R,2.400000X2.400000*%
%TD*%
%TA.AperFunction,ComponentPad*%
%ADD19C,2.400000*%
%TD*%
%TA.AperFunction,ComponentPad*%
%ADD20C,1.676400*%
%TD*%
%TA.AperFunction,ViaPad*%
%ADD21C,0.600000*%
%TD*%
%TA.AperFunction,Conductor*%
%ADD22C,0.304800*%
%TD*%
%TA.AperFunction,Conductor*%
%ADD23C,0.254000*%
%TD*%
%TA.AperFunction,Conductor*%
%ADD24C,0.203200*%
%TD*%
%TA.AperFunction,Conductor*%
%ADD25C,0.250000*%
%TD*%
%TA.AperFunction,Profile*%
%ADD26C,0.076200*%
%TD*%
G04 APERTURE END LIST*
D10*
%TO.N,+3V3*%
%TO.C,+3V3_tp1*%
X2070000Y-3350000D03*
%TD*%
%TO.N,+5V*%
%TO.C,+5V_tp1*%
X2745000Y-6450000D03*
%TD*%
%TO.N,GND*%
%TO.C,GND_tp1*%
X2980000Y-5420000D03*
%TD*%
%TO.N,GND*%
%TO.C,GND_tp2*%
X10860000Y-690000D03*
%TD*%
D11*
%TO.N,+5V*%
%TO.C,C39*%
X2514263Y-6815414D03*
D12*
%TO.N,GND*%
X2514263Y-7015414D03*
%TD*%
D13*
%TO.N,Net-(J1-Shield)*%
%TO.C,J1*%
X214525Y-7385110D03*
X744525Y-7385110D03*
X214525Y-6655110D03*
X744525Y-6655110D03*
%TD*%
D14*
%TO.N,unconnected-(U1-RA-Pad1)*%
%TO.C,U1*%
X10730000Y-7941000D03*
%TO.N,unconnected-(U1-LA-Pad2)*%
X10476000Y-7941000D03*
%TO.N,unconnected-(U1-RL-Pad3)*%
X10222000Y-7941000D03*
%TO.N,GND*%
X8825000Y-6925000D03*
%TO.N,+3V3*%
X8825000Y-6671000D03*
%TO.N,/HR_out*%
X8825000Y-6417000D03*
%TO.N,/HR_LO-*%
X8825000Y-6163000D03*
%TO.N,/HR_LO+*%
X8825000Y-5909000D03*
%TO.N,unconnected-(U1-~{SDN}-Pad9)*%
X8825000Y-5655000D03*
%TD*%
%TO.N,GND*%
%TO.C,U4*%
X3464000Y-6579758D03*
%TO.N,unconnected-(U4-3.3V-Pad2)*%
X3464000Y-6325758D03*
%TO.N,Net-(R19-Pad2)*%
X3464000Y-6071758D03*
%TO.N,Net-(U4-SCL\u005CCLK)*%
X3464000Y-5817758D03*
%TO.N,unconnected-(U4-TX_READY-Pad5)*%
X3464000Y-5563759D03*
%TO.N,/GNSS_RESET*%
X3464000Y-5309759D03*
%TO.N,unconnected-(U4-~{SAFEBOOT}-Pad7)*%
X3464000Y-5055759D03*
%TO.N,/GNSS_INT*%
X3464000Y-4801759D03*
%TO.N,/GNSS_PPS*%
X3464000Y-4547759D03*
%TO.N,unconnected-(U4-WT+-Pad10)*%
X7528000Y-4039758D03*
%TO.N,unconnected-(U4-GND-Pad11)*%
X7528000Y-4293759D03*
%TO.N,unconnected-(U4-DIR+-Pad12)*%
X7528000Y-4547759D03*
%TO.N,GND*%
X7528000Y-4801759D03*
%TO.N,unconnected-(U4-SCL\u005CCLL-Pad14)*%
X7528000Y-5055759D03*
%TO.N,/GPS_TXO*%
X7528000Y-5309759D03*
%TO.N,/GPS_RXI*%
X7528000Y-5563759D03*
%TO.N,unconnected-(U4-SDA\u005C~{CS}-Pad17)*%
X7528000Y-5817758D03*
%TO.N,unconnected-(U4-3.3V-Pad18)*%
X7528000Y-6071758D03*
%TO.N,+5V*%
X7528000Y-6325758D03*
%TO.N,GND*%
X7528000Y-6579758D03*
X6766000Y-7847218D03*
%TO.N,unconnected-(U4-n.c-Pad22)*%
X6512000Y-7847218D03*
%TO.N,unconnected-(U4-3V3_out-Pad23)*%
X6258000Y-7847218D03*
%TO.N,unconnected-(U4-RXI2-Pad24)*%
X6004000Y-7847218D03*
%TO.N,unconnected-(U4-TXO2-Pad25)*%
X5750000Y-7847218D03*
%TO.N,unconnected-(U4-n.c.-Pad26)*%
X5496000Y-7847218D03*
%TD*%
%TO.N,/EDA_out*%
%TO.C,U2*%
X9296297Y-2551327D03*
%TO.N,unconnected-(U2-nc-Pad2)*%
X9042297Y-2551327D03*
%TO.N,unconnected-(U2-CS-Pad3)*%
X8788297Y-2551327D03*
%TO.N,unconnected-(U2-SCK-Pad4)*%
X8534297Y-2551327D03*
%TO.N,unconnected-(U2-SDO-Pad5)*%
X8280297Y-2551327D03*
%TO.N,unconnected-(U2-nc-Pad6)*%
X8026297Y-2551327D03*
%TO.N,+3V3*%
X7772297Y-2551327D03*
%TO.N,GND*%
X7518297Y-2551327D03*
X7518297Y-265327D03*
%TO.N,+5V*%
X7772297Y-265327D03*
%TO.N,Net-(R12-Pad2)*%
X8026297Y-265327D03*
%TO.N,Net-(R11-Pad2)*%
X8280297Y-265327D03*
%TO.N,unconnected-(U2-nc-Pad13)*%
X8534297Y-265327D03*
%TO.N,unconnected-(U2-nc-Pad14)*%
X8788297Y-265327D03*
%TO.N,unconnected-(U2-nc-Pad15)*%
X9042297Y-265327D03*
%TO.N,unconnected-(U2-nc-Pad16)*%
X9296297Y-265327D03*
%TD*%
D15*
%TO.N,unconnected-(U3-PS0-Pad1)*%
%TO.C,U3*%
X1168263Y-4753414D03*
%TO.N,unconnected-(U3-PS1-Pad2)*%
X1422263Y-4753414D03*
%TO.N,unconnected-(U3-INT-Pad3)*%
X1676263Y-4753414D03*
%TO.N,unconnected-(U3-ADDR-Pad4)*%
X1930263Y-4753414D03*
%TO.N,/Adafruit_3V3_out*%
X914263Y-2975414D03*
%TO.N,unconnected-(U3-3Vout-Pad6)*%
X1168263Y-2975414D03*
%TO.N,GND*%
X1422263Y-2975414D03*
%TO.N,Net-(U3-SDA)*%
X1676263Y-2975414D03*
%TO.N,Net-(U3-SCL)*%
X1930263Y-2975414D03*
%TO.N,unconnected-(U3-RST-Pad10)*%
X2184263Y-2975414D03*
%TD*%
D16*
%TO.N,/PDI_DATA*%
%TO.C,PDI1*%
X8140737Y-3654586D03*
D17*
%TO.N,+3V3*%
X8394737Y-3654586D03*
%TO.N,unconnected-(PDI1-Pin_3-Pad3)*%
X8140737Y-3400586D03*
%TO.N,unconnected-(PDI1-Pin_4-Pad4)*%
X8394737Y-3400586D03*
%TO.N,/PDI_CLK*%
X8140737Y-3146586D03*
%TO.N,GND*%
X8394737Y-3146586D03*
%TD*%
D18*
%TO.N,/EXTERNAL_3V3*%
%TO.C,J4*%
X6230000Y-2380000D03*
D19*
%TO.N,/EXTERNAL_SYNC_SIGNAL*%
X6230000Y-2030000D03*
%TO.N,GND*%
X6230000Y-1680000D03*
%TD*%
D18*
%TO.N,/EXTERNAL_3V3*%
%TO.C,J3*%
X10925000Y-3100000D03*
D19*
%TO.N,/External_EDA_1*%
X10925000Y-3450000D03*
%TO.N,/External_EDA_2*%
X10925000Y-3800000D03*
%TO.N,GND*%
X10925000Y-4150000D03*
%TD*%
D20*
%TO.N,unconnected-(U5-RST-Pad1)*%
%TO.C,U5*%
X1050263Y-415414D03*
%TO.N,/Adafruit_3V3_out*%
X1304263Y-415414D03*
%TO.N,unconnected-(U5-ARf-Pad3)*%
X1558263Y-415414D03*
%TO.N,unconnected-(U5-GND-Pad4)*%
X1812263Y-415414D03*
%TO.N,unconnected-(U5-A0-Pad5)*%
X2066263Y-415414D03*
%TO.N,unconnected-(U5-A1-Pad6)*%
X2320263Y-415414D03*
%TO.N,unconnected-(U5-A2-Pad7)*%
X2574263Y-415414D03*
%TO.N,unconnected-(U5-A3-Pad8)*%
X2828263Y-415414D03*
%TO.N,unconnected-(U5-A4-Pad9)*%
X3082263Y-415414D03*
%TO.N,unconnected-(U5-A5-Pad10)*%
X3336263Y-415414D03*
%TO.N,unconnected-(U5-SCK-Pad11)*%
X3590263Y-415414D03*
%TO.N,/MotionSensor_out*%
X3844263Y-415414D03*
%TO.N,unconnected-(U5-MISO-Pad13)*%
X4098263Y-415414D03*
%TO.N,unconnected-(U5-RX0-Pad14)*%
X4352263Y-415414D03*
%TO.N,unconnected-(U5-TX1-Pad15)*%
X4606263Y-415414D03*
%TO.N,GND*%
X4860263Y-415414D03*
%TO.N,/MotionSensor_SDA*%
X4860263Y-2447414D03*
%TO.N,/MotionSensor_SCL*%
X4606263Y-2447414D03*
%TO.N,unconnected-(U5-D5-Pad19)*%
X4352263Y-2447414D03*
%TO.N,unconnected-(U5-D6-Pad20)*%
X4098263Y-2447414D03*
%TO.N,unconnected-(U5-D9-Pad21)*%
X3844263Y-2447414D03*
%TO.N,unconnected-(U5-D10-Pad22)*%
X3590263Y-2447414D03*
%TO.N,unconnected-(U5-D11-Pad23)*%
X3336263Y-2447414D03*
%TO.N,unconnected-(U5-D12-Pad24)*%
X3082263Y-2447414D03*
%TO.N,unconnected-(U5-D13-Pad25)*%
X2828263Y-2447414D03*
%TO.N,unconnected-(U5-VBUS-Pad26)*%
X2574263Y-2447414D03*
%TO.N,unconnected-(U5-EN-Pad27)*%
X2320263Y-2447414D03*
%TO.N,unconnected-(U5-VBAT-Pad28)*%
X2066263Y-2447414D03*
%TD*%
D21*
%TO.N,GND*%
X7995402Y-4551759D03*
X5820000Y-4800000D03*
X7510402Y-7431758D03*
X3050402Y-3346758D03*
X3580737Y-3674586D03*
X7750000Y-4080000D03*
X4230402Y-3631758D03*
X4650402Y-3066758D03*
X8005402Y-4301759D03*
X4175402Y-2881758D03*
X6942424Y-4737402D03*
X5697521Y-2673759D03*
X9740000Y-1050000D03*
X2272791Y-1299499D03*
X1660737Y-174586D03*
X1094263Y-6340414D03*
X4955402Y-661759D03*
X5280000Y-3030000D03*
X3310402Y-2886758D03*
X5345000Y-5075000D03*
X3930000Y-3650000D03*
X6590402Y-5521759D03*
X7155402Y-5436759D03*
X2340000Y-2020000D03*
X3440737Y-3384586D03*
X9075402Y-2891758D03*
X4345402Y-2726759D03*
X2830402Y-1121759D03*
X4660291Y-1104499D03*
X7100402Y-2884586D03*
X10060000Y-3050000D03*
X3000402Y-2731759D03*
X3830737Y-2721759D03*
X7810000Y-2900000D03*
X3330402Y-1471758D03*
X5820000Y-1010000D03*
X1745402Y-1311759D03*
X8310000Y-2890000D03*
X3520402Y-656759D03*
X4310402Y-661759D03*
X3240000Y-4380000D03*
X7670000Y-3590000D03*
X5645402Y-656759D03*
X10245000Y-1046758D03*
X4940402Y-1471758D03*
X4065402Y-2691759D03*
X10850000Y-1531758D03*
X5515402Y-3884586D03*
X7290737Y-534586D03*
X5100000Y-3740000D03*
X9520000Y-1730000D03*
X6970000Y-1550000D03*
X10780000Y-2130000D03*
X7650000Y-820000D03*
X4464263Y-5495414D03*
X4190737Y-2274586D03*
X9820737Y-5804586D03*
X7185402Y-4241759D03*
X5060000Y-3900000D03*
X8990000Y-1681758D03*
X10510000Y-200000D03*
X5845000Y-4500000D03*
X8550000Y-1726758D03*
X5115402Y-5586759D03*
X2570000Y-1590000D03*
X3460737Y-2334586D03*
X9730000Y-4190000D03*
X9520000Y-2660000D03*
X7295000Y-4500000D03*
X6795000Y-4350000D03*
X10760000Y-2626759D03*
X3754263Y-4395414D03*
X5100402Y-4506759D03*
X2775402Y-3006758D03*
X7670000Y-1550000D03*
X5170000Y-8050000D03*
X4044263Y-985414D03*
X8010000Y-1071759D03*
X6930402Y-4246759D03*
X5745402Y-3166758D03*
X6810737Y-2574586D03*
X7020000Y-2100000D03*
X11510000Y-2260000D03*
X10430000Y-1886758D03*
X6290402Y-4236759D03*
X5354263Y-3975414D03*
X6280402Y-4501759D03*
X6630000Y-2090000D03*
X4010000Y-7390000D03*
X4634263Y-4505414D03*
X4874263Y-4645414D03*
X5360000Y-3730000D03*
X6995000Y-2325000D03*
X10225000Y-5255000D03*
X10410402Y-7146758D03*
X6730402Y-5186759D03*
X9615402Y-4526759D03*
X10625402Y-7521758D03*
X8840402Y-5016759D03*
X9540402Y-7171758D03*
X9400000Y-2330000D03*
X11055000Y-6400000D03*
X11480737Y-2991758D03*
X5495402Y-5941758D03*
X8650000Y-546759D03*
X7255402Y-3091758D03*
X7880737Y-3044586D03*
X8555402Y-5241759D03*
X9515402Y-5011759D03*
X10700000Y-4250000D03*
X5015402Y-5321759D03*
X9634263Y-3235414D03*
X8800000Y-2160000D03*
X4590402Y-5951758D03*
X7820737Y-524586D03*
X3670737Y-154586D03*
X9000402Y-3061758D03*
X9495000Y-776758D03*
X6144263Y-5941758D03*
X10070737Y-4516759D03*
X10440000Y-3190000D03*
X11090000Y-5465000D03*
X9165402Y-5251759D03*
X10240000Y-1560000D03*
X8290000Y-691759D03*
X10095000Y-6370000D03*
X4982521Y-253758D03*
X7590000Y-990000D03*
X8070000Y-2325000D03*
X5925402Y-236758D03*
X5820402Y-6146758D03*
X5095402Y-6656758D03*
X5070402Y-4146758D03*
X6320402Y-6661758D03*
X8860737Y-4234586D03*
X2995402Y-4351759D03*
X5860402Y-6656758D03*
X4425402Y-3901758D03*
X6974263Y-6655414D03*
X3924263Y-3935414D03*
X5490402Y-3566758D03*
X4620000Y-1580000D03*
X8390000Y-1581758D03*
X3650000Y-6330000D03*
X4090000Y-1560000D03*
X3357521Y-4113758D03*
X4290402Y-6151758D03*
X8135000Y-536759D03*
X5140000Y-3400000D03*
X3342791Y-3649498D03*
X6370402Y-6141758D03*
X3660000Y-5550000D03*
X7840000Y-2160000D03*
X4005402Y-5931758D03*
X3765402Y-4136758D03*
X3280000Y-5670000D03*
X6070402Y-6426758D03*
X4395402Y-6666758D03*
X5410737Y-1464586D03*
X5220402Y-2886758D03*
X3522521Y-3878758D03*
X11414263Y-245414D03*
X6925402Y-5931758D03*
X4910402Y-6391758D03*
X4860402Y-6151758D03*
X6905402Y-6141758D03*
X5215402Y-5135414D03*
X5460402Y-6141758D03*
X5620402Y-6356758D03*
X5775402Y-2881758D03*
X11536890Y-992048D03*
X270000Y-4900000D03*
X9510000Y-170000D03*
X3170000Y-6880000D03*
X254263Y-3775414D03*
X2630000Y-4260000D03*
X2509402Y-3767758D03*
X3020000Y-3920000D03*
X2960000Y-8040000D03*
X1904263Y-5185414D03*
X264263Y-7895414D03*
X1769263Y-5865414D03*
X6675402Y-6416758D03*
X11197692Y-7390848D03*
X3224263Y-4945414D03*
X2155402Y-791758D03*
X11210000Y-4300000D03*
X9750000Y-7850000D03*
X11177692Y-6689648D03*
X11224263Y-5115414D03*
X230737Y-2654586D03*
X1995000Y-5600000D03*
X945000Y-5000000D03*
X2749402Y-3602758D03*
X8620000Y-6300000D03*
X6280000Y-3760000D03*
X2274263Y-4685414D03*
X4080000Y-5040000D03*
X2880000Y-7420000D03*
X6810000Y-1530000D03*
X10114263Y-5025414D03*
X4440000Y-3430000D03*
X5795000Y-5050000D03*
X2770000Y-5190000D03*
X6550000Y-3590000D03*
X5560000Y-7340000D03*
X6000000Y-3590000D03*
X1445000Y-7475000D03*
X4500000Y-4650000D03*
X1010000Y-6860000D03*
X1630000Y-7180000D03*
X860000Y-590000D03*
X7120000Y-8060000D03*
X7100000Y-170000D03*
X1720000Y-3275000D03*
X8970000Y-840000D03*
X1710000Y-6710000D03*
X2260000Y-4100000D03*
X8570000Y-3860000D03*
X920000Y-6550000D03*
X1895000Y-4150000D03*
X6580000Y-6900000D03*
X1210000Y-6870000D03*
X4770000Y-3350000D03*
X820000Y-3450000D03*
X7176760Y-4741160D03*
X6270000Y-3300000D03*
X2645000Y-6225000D03*
X7670000Y-3760000D03*
X2420000Y-5825000D03*
X7720000Y-6140000D03*
X2070000Y-6850000D03*
X1730000Y-6370000D03*
X2364274Y-5023569D03*
X1234263Y-8015414D03*
X6400000Y-2880000D03*
X2270000Y-3950000D03*
X8130000Y-4880000D03*
X5510000Y-6890000D03*
X220000Y-5850000D03*
X6910000Y-3360000D03*
X9070000Y-6560000D03*
X1895000Y-3950000D03*
X3977337Y-3283166D03*
X320737Y-244586D03*
X1970000Y-3550000D03*
X830000Y-1970000D03*
X845000Y-4475000D03*
X7940000Y-5270000D03*
X1240000Y-780000D03*
X8020536Y-3885229D03*
X9050000Y-6040000D03*
X4450000Y-3640000D03*
X6650000Y-1090000D03*
X4240000Y-5140000D03*
X1600000Y-2290000D03*
X6810000Y-710000D03*
X8620000Y-6060000D03*
X8150000Y-5740000D03*
X2970000Y-4950000D03*
X1145000Y-2725000D03*
X245000Y-1325000D03*
X930000Y-5550000D03*
X2603045Y-5509156D03*
X1030000Y-1540000D03*
X8200000Y-6460000D03*
X9420000Y-2150000D03*
X8960000Y-1000000D03*
X6620000Y-3125000D03*
X4770000Y-3610000D03*
X1420000Y-7130000D03*
X4620000Y-6880000D03*
X2597319Y-5111230D03*
X4230000Y-4370000D03*
%TO.N,+5V*%
X2310737Y-4304586D03*
X2453750Y-4253750D03*
X2305983Y-4479340D03*
X7264263Y-6445414D03*
X8045000Y-1675000D03*
X2734402Y-4112758D03*
X2220737Y-4394586D03*
X2444263Y-6503104D03*
X7763250Y-1675000D03*
X2130000Y-1740000D03*
X7763250Y-810000D03*
%TO.N,+3V3*%
X4310402Y-4141758D03*
X8680000Y-850000D03*
X9090000Y-910000D03*
X6190277Y-3451758D03*
X4120402Y-3286758D03*
X2466858Y-3180707D03*
X2640737Y-3191758D03*
X6190402Y-2946758D03*
X10583250Y-5661750D03*
X4940402Y-2951758D03*
X4655402Y-2951758D03*
X2440737Y-2974586D03*
X4355402Y-5006759D03*
X5140402Y-2956758D03*
X9970000Y-2814180D03*
X4310402Y-2946758D03*
X2570737Y-3076828D03*
X4177521Y-5433759D03*
X2640737Y-2954586D03*
X6190402Y-4716759D03*
X2440737Y-910000D03*
X7700737Y-3034586D03*
X7645000Y-2810000D03*
X9970737Y-6664586D03*
%TO.N,/GNSS_PPS*%
X4044263Y-4445414D03*
X5344263Y-3480000D03*
X4040737Y-3525414D03*
%TO.N,/5VUSB*%
X1740000Y-7275000D03*
X1630000Y-6860000D03*
X1420000Y-6600000D03*
%TO.N,/USBD_plug+*%
X1070000Y-7030000D03*
%TO.N,/USBD_plug-*%
X1070000Y-7110000D03*
%TO.N,/FTDI_CTS*%
X2384263Y-4895414D03*
X1738243Y-4975000D03*
%TO.N,/PDI_CLK*%
X4960000Y-3750000D03*
X7820737Y-3414586D03*
%TO.N,/PDI_DATA*%
X4825402Y-3824586D03*
%TO.N,/u_GNSS_RESET*%
X5670000Y-5395414D03*
X5564263Y-4075414D03*
X4324263Y-5395414D03*
%TO.N,/HR_out*%
X8220737Y-4164586D03*
%TO.N,/HR_LO+*%
X8440536Y-3948728D03*
%TO.N,/HR_LO-*%
X8330737Y-4010000D03*
%TO.N,/EDA_out*%
X7175402Y-3991758D03*
%TO.N,/EXTERNAL_SYNC_SIGNAL*%
X9996500Y-1433500D03*
X6630000Y-1433500D03*
%TO.N,/LED_AUX*%
X1805000Y-1810000D03*
X1800737Y-4024586D03*
X4984263Y-4075414D03*
%TO.N,Net-(R11-Pad2)*%
X6880737Y-3064586D03*
X6880737Y-594586D03*
%TO.N,Net-(R12-Pad2)*%
X6730737Y-2674586D03*
X6730737Y-464586D03*
%TO.N,/I2C_SDA_port_E*%
X10415000Y-5830000D03*
X5284263Y-4075414D03*
%TO.N,/I2C_SCL_port_E*%
X5204263Y-4150000D03*
X10420000Y-6005000D03*
%TO.N,/GNSS_INT*%
X5970737Y-3744586D03*
X5934263Y-5250000D03*
%TO.N,Net-(R19-Pad2)*%
X7025402Y-3431758D03*
X7025402Y-6076758D03*
%TO.N,/External_EDA_1*%
X9870737Y-3454586D03*
X5410402Y-4141758D03*
%TO.N,/External_EDA_2*%
X6370000Y-4625000D03*
X10080737Y-4134586D03*
%TO.N,/PA3*%
X5495000Y-4525000D03*
X5470000Y-5325000D03*
%TO.N,/u_SYNC_SIGNAL*%
X5550000Y-3740000D03*
X5600000Y-1300000D03*
%TO.N,Net-(U7-SCL)*%
X10795000Y-6000000D03*
%TO.N,Net-(U7-SDA)*%
X10790000Y-5830000D03*
%TO.N,Net-(U4-SCL\u005CCLK)*%
X7085652Y-3171508D03*
X7085402Y-5817758D03*
%TO.N,/MotionSensor_out*%
X3970737Y-3134586D03*
%TO.N,/PA4*%
X5586810Y-5324453D03*
X5585017Y-4593409D03*
%TD*%
D22*
%TO.N,+5V*%
X2130000Y-1740000D02*
X2204667Y-1665333D01*
X2204667Y-1665333D02*
X5664666Y-1665333D01*
X5710000Y-1620000D02*
X5710000Y-1460000D01*
X6500000Y-1590000D02*
X6575333Y-1665333D01*
D23*
X7264263Y-6445414D02*
X7264263Y-6705414D01*
D22*
X6500000Y-1440000D02*
X6500000Y-1590000D01*
X5664666Y-1665333D02*
X5710000Y-1620000D01*
X6575333Y-1665333D02*
X7753583Y-1665333D01*
X7753583Y-1665333D02*
X7763250Y-1675000D01*
X7763250Y-1675000D02*
X8045000Y-1675000D01*
D23*
X7184263Y-6785414D02*
X2514263Y-6785414D01*
X7264263Y-6705414D02*
X7184263Y-6785414D01*
D22*
X5770000Y-1400000D02*
X6460000Y-1400000D01*
X6460000Y-1400000D02*
X6500000Y-1440000D01*
X5710000Y-1460000D02*
X5770000Y-1400000D01*
D23*
%TO.N,+3V3*%
X4945402Y-2956758D02*
X4940402Y-2951758D01*
X6190402Y-2946758D02*
X6180402Y-2956758D01*
X6180402Y-2956758D02*
X4945402Y-2956758D01*
X4935402Y-2946758D02*
X4940402Y-2951758D01*
X4660402Y-2946758D02*
X4935402Y-2946758D01*
X4655402Y-2951758D02*
X4660402Y-2946758D01*
D22*
X7649180Y-2814180D02*
X9970000Y-2814180D01*
X9090000Y-910000D02*
X8600000Y-910000D01*
X8680000Y-880000D02*
X8680000Y-850000D01*
X8600000Y-910000D02*
X2440737Y-910000D01*
D24*
X7700737Y-2974586D02*
X7672909Y-2946758D01*
D22*
X2781143Y-2814180D02*
X7640820Y-2814180D01*
X2640737Y-3191758D02*
X2660737Y-3211758D01*
D23*
X3010402Y-3151758D02*
X3050402Y-3111758D01*
D22*
X8600000Y-910000D02*
X8650000Y-910000D01*
X7640820Y-2814180D02*
X7645000Y-2810000D01*
D24*
X7700737Y-3034586D02*
X7700737Y-2974586D01*
D23*
X3085402Y-2946758D02*
X4650402Y-2946758D01*
D24*
X7672909Y-2946758D02*
X6190402Y-2946758D01*
D23*
X2680737Y-3151758D02*
X3010402Y-3151758D01*
D22*
X4045402Y-3211758D02*
X4120402Y-3286758D01*
D23*
X3050402Y-2981758D02*
X3085402Y-2946758D01*
D22*
X2640737Y-2954586D02*
X2781143Y-2814180D01*
X8650000Y-910000D02*
X8680000Y-880000D01*
X2660737Y-3211758D02*
X4045402Y-3211758D01*
D23*
X3050402Y-3111758D02*
X3050402Y-2981758D01*
D22*
X7645000Y-2810000D02*
X7649180Y-2814180D01*
D23*
X4650402Y-2946758D02*
X4655402Y-2951758D01*
X2640737Y-3191758D02*
X2680737Y-3151758D01*
D24*
%TO.N,/GNSS_PPS*%
X4040737Y-3525414D02*
X5298849Y-3525414D01*
X5298849Y-3525414D02*
X5344263Y-3480000D01*
%TO.N,/PDI_CLK*%
X4960000Y-3750000D02*
X5053242Y-3656758D01*
X7778565Y-3656758D02*
X7820737Y-3614586D01*
X5053242Y-3656758D02*
X7778565Y-3656758D01*
X7820737Y-3614586D02*
X7820737Y-3414586D01*
%TO.N,/PDI_DATA*%
X4825402Y-3824586D02*
X7970737Y-3824586D01*
X7970737Y-3824586D02*
X8140737Y-3654586D01*
D25*
%TO.N,/u_GNSS_RESET*%
X5670000Y-5395414D02*
X4324263Y-5395414D01*
D24*
%TO.N,/EXTERNAL_SYNC_SIGNAL*%
X6630000Y-1433500D02*
X9996500Y-1433500D01*
D23*
%TO.N,/LED_AUX*%
X1800737Y-4024586D02*
X1801564Y-4025414D01*
X1801564Y-4025414D02*
X4934263Y-4025414D01*
X4934263Y-4025414D02*
X4984263Y-4075414D01*
D24*
%TO.N,Net-(R11-Pad2)*%
X6880737Y-594586D02*
X8230737Y-594586D01*
X8230737Y-594586D02*
X8280297Y-545026D01*
X8280297Y-545026D02*
X8280297Y-265327D01*
%TO.N,Net-(R12-Pad2)*%
X6735337Y-469186D02*
X7822437Y-469186D01*
X6730737Y-464586D02*
X6735337Y-469186D01*
X7822437Y-469186D02*
X8026297Y-265327D01*
%TO.N,/I2C_SDA_port_E*%
X5284263Y-4775620D02*
X5383643Y-4875000D01*
X5284263Y-4075414D02*
X5284263Y-4775620D01*
X7888849Y-5090000D02*
X10348849Y-5090000D01*
X10348849Y-5090000D02*
X10415000Y-5156151D01*
X7725608Y-4926759D02*
X7888849Y-5090000D01*
X5383643Y-4875000D02*
X7328746Y-4875000D01*
X10415000Y-5156151D02*
X10415000Y-5830000D01*
X7328746Y-4875000D02*
X7380505Y-4926759D01*
X7380505Y-4926759D02*
X7725608Y-4926759D01*
%TO.N,/I2C_SCL_port_E*%
X7155608Y-4956759D02*
X7381293Y-5182444D01*
X10282327Y-5182327D02*
X10330000Y-5230000D01*
X5204263Y-4150000D02*
X5204263Y-4895620D01*
X10330000Y-5915000D02*
X10420000Y-6005000D01*
X7872556Y-5182444D02*
X7872673Y-5182327D01*
X7381293Y-5182444D02*
X7872556Y-5182444D01*
X10330000Y-5230000D02*
X10330000Y-5915000D01*
X7872673Y-5182327D02*
X10282327Y-5182327D01*
X5265402Y-4956759D02*
X7155608Y-4956759D01*
X5204263Y-4895620D02*
X5265402Y-4956759D01*
%TO.N,/GNSS_INT*%
X3870608Y-4801759D02*
X3464000Y-4801759D01*
X4038849Y-5250000D02*
X3934263Y-5145414D01*
X5934263Y-5250000D02*
X4038849Y-5250000D01*
X3934263Y-5145414D02*
X3934263Y-4865414D01*
X3934263Y-4865414D02*
X3870608Y-4801759D01*
%TO.N,Net-(R19-Pad2)*%
X3464000Y-6071758D02*
X7020402Y-6071758D01*
X7020402Y-6071758D02*
X7025402Y-6076758D01*
%TO.N,/External_EDA_1*%
X9870737Y-3454586D02*
X9870737Y-4194586D01*
X9750737Y-4314586D02*
X8350737Y-4314586D01*
X9870737Y-4194586D02*
X9750737Y-4314586D01*
X5470435Y-4420435D02*
X5410402Y-4360402D01*
X8350737Y-4314586D02*
X8244888Y-4420435D01*
X5410402Y-4360402D02*
X5410402Y-4141758D01*
X8244888Y-4420435D02*
X5470435Y-4420435D01*
%TO.N,/External_EDA_2*%
X8400737Y-4394586D02*
X10020737Y-4394586D01*
X10020737Y-4394586D02*
X10080737Y-4334586D01*
X8118565Y-4676759D02*
X8400737Y-4394586D01*
X6370000Y-4625000D02*
X6421758Y-4676759D01*
X10080737Y-4334586D02*
X10080737Y-4134586D01*
X6421758Y-4676759D02*
X8118565Y-4676759D01*
%TO.N,Net-(U4-SCL\u005CCLK)*%
X3464000Y-5817758D02*
X7085402Y-5817758D01*
%TD*%
%TA.AperFunction,Conductor*%
%TO.N,+5V*%
G36*
X2374873Y-4262287D02*
G01*
X2375402Y-4263564D01*
X2375402Y-4529954D01*
X2374873Y-4531230D01*
X2373597Y-4531759D01*
X2187207Y-4531759D01*
X2185930Y-4531230D01*
X2185402Y-4529954D01*
X2185402Y-4263564D01*
X2185930Y-4262287D01*
X2187207Y-4261759D01*
X2373597Y-4261759D01*
X2374873Y-4262287D01*
G37*
%TD.AperFunction*%
%TD*%
%TA.AperFunction,Conductor*%
%TO.N,+3V3*%
G36*
X2681328Y-2918217D02*
G01*
X2682787Y-2921738D01*
X2682787Y-3231778D01*
X2681328Y-3235300D01*
X2677807Y-3236758D01*
X2407767Y-3236758D01*
X2404246Y-3235300D01*
X2402787Y-3231778D01*
X2402787Y-2921738D01*
X2404246Y-2918217D01*
X2407767Y-2916758D01*
X2677807Y-2916758D01*
X2681328Y-2918217D01*
G37*
%TD.AperFunction*%
%TD*%
%TA.AperFunction,Conductor*%
%TO.N,GND*%
G36*
X3189000Y-2846169D02*
G01*
X3190459Y-2849654D01*
X3190530Y-2859470D01*
X3190912Y-2912175D01*
X3190923Y-2913752D01*
X3189490Y-2917284D01*
X3185980Y-2918768D01*
X3185943Y-2918768D01*
X3090780Y-2918768D01*
X3089794Y-2918608D01*
X3089793Y-2918620D01*
X3089336Y-2918557D01*
X3089336Y-2918557D01*
X3089335Y-2918557D01*
X3084812Y-2918766D01*
X3084697Y-2918768D01*
X3082808Y-2918768D01*
X3082338Y-2918856D01*
X3081996Y-2918896D01*
X3078883Y-2919040D01*
X3078882Y-2919040D01*
X3077595Y-2919608D01*
X3076499Y-2919948D01*
X3075115Y-2920206D01*
X3072466Y-2921847D01*
X3072160Y-2922008D01*
X3069310Y-2923267D01*
X3069309Y-2923267D01*
X3068314Y-2924262D01*
X3067415Y-2924975D01*
X3066218Y-2925715D01*
X3064341Y-2928201D01*
X3064114Y-2928462D01*
X3034412Y-2958164D01*
X3033602Y-2958747D01*
X3033610Y-2958757D01*
X3033241Y-2959035D01*
X3030191Y-2962382D01*
X3030111Y-2962465D01*
X3028776Y-2963800D01*
X3028776Y-2963801D01*
X3028506Y-2964194D01*
X3028292Y-2964465D01*
X3026192Y-2966768D01*
X3025683Y-2968081D01*
X3025148Y-2969096D01*
X3024353Y-2970257D01*
X3024353Y-2970257D01*
X3023639Y-2973290D01*
X3023537Y-2973620D01*
X3022412Y-2976526D01*
X3022412Y-2977934D01*
X3022279Y-2979074D01*
X3021957Y-2980443D01*
X3021957Y-2980443D01*
X3022082Y-2981338D01*
X3022388Y-2983530D01*
X3022412Y-2983874D01*
X3022412Y-3098102D01*
X3020953Y-3101623D01*
X3000266Y-3122310D01*
X2996745Y-3123768D01*
X2703557Y-3123768D01*
X2700036Y-3122310D01*
X2698577Y-3118788D01*
X2698577Y-2941985D01*
X2700036Y-2938463D01*
X2792330Y-2846169D01*
X2795852Y-2844710D01*
X3185479Y-2844710D01*
X3189000Y-2846169D01*
G37*
%TD.AperFunction*%
%TA.AperFunction,Conductor*%
G36*
X11345673Y-98396D02*
G01*
X11581663Y-303925D01*
X11583360Y-307338D01*
X11583372Y-307680D01*
X11584263Y-7973351D01*
X11582805Y-7976872D01*
X11435723Y-8123953D01*
X11432202Y-8125412D01*
X11432198Y-8125412D01*
X445921Y-8115415D01*
X442937Y-8114419D01*
X257045Y-7975000D01*
X5345402Y-7975000D01*
X6696665Y-7975000D01*
X6699035Y-7975600D01*
X6707643Y-7980258D01*
X6730337Y-7988049D01*
X6754003Y-7991998D01*
X6777997Y-7991998D01*
X6801663Y-7988049D01*
X6824357Y-7980258D01*
X6845459Y-7968839D01*
X6845459Y-7968838D01*
X6848968Y-7966107D01*
X6779465Y-7896605D01*
X6780459Y-7896462D01*
X6793747Y-7890394D01*
X6804787Y-7880827D01*
X6812684Y-7868539D01*
X6815081Y-7860378D01*
X6884796Y-7930093D01*
X6893766Y-7916362D01*
X6903404Y-7894390D01*
X6903405Y-7894389D01*
X6909295Y-7871130D01*
X6911276Y-7847218D01*
X6909295Y-7823306D01*
X6908701Y-7820964D01*
X8761469Y-7820964D01*
X8764513Y-7848630D01*
X8764513Y-7848631D01*
X8771553Y-7875560D01*
X8771553Y-7875560D01*
X8782439Y-7901177D01*
X8782439Y-7901177D01*
X8789689Y-7913057D01*
X8796939Y-7924936D01*
X8796939Y-7924937D01*
X8814744Y-7946331D01*
X8835474Y-7964905D01*
X8835475Y-7964906D01*
X8837291Y-7966107D01*
X8858688Y-7980264D01*
X8858689Y-7980264D01*
X8858689Y-7980264D01*
X8883890Y-7992078D01*
X8883891Y-7992078D01*
X8910544Y-8000097D01*
X8910545Y-8000097D01*
X8910545Y-8000097D01*
X8938083Y-8004150D01*
X8938083Y-8004150D01*
X8958950Y-8004150D01*
X8968198Y-8003473D01*
X8979760Y-8002627D01*
X9006929Y-7996575D01*
X9032926Y-7986631D01*
X9057199Y-7973009D01*
X9079230Y-7955997D01*
X9093689Y-7941000D01*
X10112262Y-7941000D01*
X10114130Y-7961165D01*
X10119565Y-7980264D01*
X10119672Y-7980642D01*
X10119880Y-7981058D01*
X10120402Y-7983278D01*
X10120402Y-8050000D01*
X10209969Y-8050000D01*
X10210884Y-8050085D01*
X10211875Y-8050270D01*
X10232125Y-8050270D01*
X10233116Y-8050085D01*
X10234031Y-8050000D01*
X10463969Y-8050000D01*
X10464884Y-8050085D01*
X10465875Y-8050270D01*
X10486125Y-8050270D01*
X10487116Y-8050085D01*
X10488031Y-8050000D01*
X10717969Y-8050000D01*
X10718884Y-8050085D01*
X10719875Y-8050270D01*
X10740125Y-8050270D01*
X10741116Y-8050085D01*
X10742031Y-8050000D01*
X10845402Y-8050000D01*
X10845402Y-7830000D01*
X10120402Y-7830000D01*
X10120402Y-7898722D01*
X10119880Y-7900941D01*
X10119673Y-7901357D01*
X10119672Y-7901358D01*
X10114130Y-7920835D01*
X10112262Y-7941000D01*
X9093689Y-7941000D01*
X9098549Y-7935959D01*
X9114745Y-7913322D01*
X9127472Y-7888567D01*
X9136459Y-7862224D01*
X9141515Y-7834853D01*
X9142022Y-7820964D01*
X11047469Y-7820964D01*
X11050513Y-7848630D01*
X11050513Y-7848631D01*
X11057553Y-7875560D01*
X11057553Y-7875560D01*
X11068439Y-7901177D01*
X11068439Y-7901177D01*
X11075689Y-7913057D01*
X11082939Y-7924936D01*
X11082939Y-7924937D01*
X11100744Y-7946331D01*
X11121474Y-7964905D01*
X11121475Y-7964906D01*
X11123291Y-7966107D01*
X11144688Y-7980264D01*
X11144689Y-7980264D01*
X11144689Y-7980264D01*
X11169890Y-7992078D01*
X11169891Y-7992078D01*
X11196544Y-8000097D01*
X11196545Y-8000097D01*
X11196545Y-8000097D01*
X11224083Y-8004150D01*
X11224083Y-8004150D01*
X11244950Y-8004150D01*
X11254198Y-8003473D01*
X11265760Y-8002627D01*
X11292929Y-7996575D01*
X11318926Y-7986631D01*
X11343199Y-7973009D01*
X11365230Y-7955997D01*
X11384549Y-7935959D01*
X11400745Y-7913322D01*
X11413472Y-7888567D01*
X11422459Y-7862224D01*
X11427515Y-7834853D01*
X11428531Y-7807037D01*
X11425487Y-7779369D01*
X11418447Y-7752440D01*
X11407561Y-7726823D01*
X11393061Y-7703064D01*
X11375256Y-7681669D01*
X11354525Y-7663094D01*
X11354525Y-7663094D01*
X11338460Y-7652466D01*
X11331312Y-7647736D01*
X11331311Y-7647736D01*
X11331311Y-7647736D01*
X11306110Y-7635922D01*
X11306108Y-7635921D01*
X11279456Y-7627903D01*
X11279455Y-7627903D01*
X11251917Y-7623850D01*
X11251917Y-7623850D01*
X11231051Y-7623850D01*
X11231050Y-7623850D01*
X11210241Y-7625373D01*
X11210240Y-7625373D01*
X11210240Y-7625373D01*
X11183071Y-7631425D01*
X11183071Y-7631425D01*
X11157074Y-7641368D01*
X11157073Y-7641369D01*
X11132800Y-7654991D01*
X11110770Y-7672003D01*
X11091451Y-7692041D01*
X11075255Y-7714678D01*
X11062528Y-7739433D01*
X11053541Y-7765776D01*
X11048485Y-7793147D01*
X11047469Y-7820963D01*
X11047469Y-7820964D01*
X9142022Y-7820964D01*
X9142531Y-7807037D01*
X9139487Y-7779369D01*
X9132447Y-7752440D01*
X9121561Y-7726823D01*
X9107061Y-7703064D01*
X9089256Y-7681669D01*
X9068526Y-7663094D01*
X9068525Y-7663094D01*
X9052460Y-7652466D01*
X9045312Y-7647736D01*
X9045312Y-7647736D01*
X9045311Y-7647736D01*
X9020110Y-7635922D01*
X9020109Y-7635921D01*
X8993456Y-7627903D01*
X8993455Y-7627903D01*
X8965918Y-7623850D01*
X8965917Y-7623850D01*
X8945051Y-7623850D01*
X8945050Y-7623850D01*
X8924241Y-7625373D01*
X8924240Y-7625373D01*
X8924240Y-7625373D01*
X8897071Y-7631425D01*
X8897071Y-7631425D01*
X8897071Y-7631425D01*
X8871074Y-7641368D01*
X8871073Y-7641369D01*
X8846800Y-7654991D01*
X8824770Y-7672003D01*
X8805451Y-7692041D01*
X8789255Y-7714678D01*
X8776528Y-7739433D01*
X8767541Y-7765776D01*
X8762485Y-7793147D01*
X8761469Y-7820963D01*
X8761469Y-7820964D01*
X6908701Y-7820964D01*
X6903405Y-7800048D01*
X6903404Y-7800047D01*
X6893766Y-7778075D01*
X6884796Y-7764344D01*
X6815080Y-7834059D01*
X6812684Y-7825898D01*
X6804787Y-7813609D01*
X6793747Y-7804043D01*
X6780459Y-7797975D01*
X6779465Y-7797832D01*
X6848968Y-7728329D01*
X6845459Y-7725598D01*
X6845459Y-7725598D01*
X6824357Y-7714178D01*
X6801663Y-7706388D01*
X6777997Y-7702438D01*
X6754003Y-7702438D01*
X6730337Y-7706388D01*
X6707643Y-7714178D01*
X6702752Y-7716825D01*
X6698961Y-7717219D01*
X6696002Y-7714816D01*
X6695402Y-7712446D01*
X6695402Y-7710000D01*
X5345402Y-7710000D01*
X5345402Y-7975000D01*
X257045Y-7975000D01*
X166255Y-7906908D01*
X164314Y-7903628D01*
X164263Y-7902924D01*
X164322Y-7510445D01*
X165781Y-7506924D01*
X169303Y-7505466D01*
X170591Y-7505636D01*
X170651Y-7505652D01*
X170651Y-7505652D01*
X192249Y-7511439D01*
X192249Y-7511439D01*
X214525Y-7513388D01*
X236800Y-7511439D01*
X258398Y-7505652D01*
X278664Y-7496202D01*
X296980Y-7483377D01*
X312792Y-7467566D01*
X325617Y-7449249D01*
X335067Y-7428984D01*
X340854Y-7407385D01*
X342803Y-7385110D01*
X342803Y-7385110D01*
X342803Y-7385109D01*
X341089Y-7365524D01*
X342236Y-7361889D01*
X345616Y-7360129D01*
X346050Y-7360110D01*
X612999Y-7360110D01*
X616521Y-7361569D01*
X617979Y-7365090D01*
X617960Y-7365524D01*
X616247Y-7385109D01*
X616247Y-7385110D01*
X616247Y-7385110D01*
X617126Y-7395161D01*
X618196Y-7407386D01*
X623983Y-7428983D01*
X623983Y-7428984D01*
X633433Y-7449249D01*
X633433Y-7449249D01*
X646258Y-7467566D01*
X662069Y-7483377D01*
X680386Y-7496202D01*
X689159Y-7500293D01*
X700616Y-7505636D01*
X700651Y-7505652D01*
X722249Y-7511439D01*
X722249Y-7511439D01*
X744525Y-7513388D01*
X766800Y-7511439D01*
X788398Y-7505652D01*
X808664Y-7496202D01*
X822124Y-7486777D01*
X1994579Y-7486777D01*
X1997541Y-7513701D01*
X1997541Y-7513702D01*
X2004393Y-7539909D01*
X2004393Y-7539909D01*
X2014987Y-7564838D01*
X2014987Y-7564839D01*
X2029098Y-7587961D01*
X2029098Y-7587961D01*
X2038025Y-7598688D01*
X2046425Y-7608782D01*
X2064942Y-7625373D01*
X2066600Y-7626858D01*
X2066600Y-7626858D01*
X2073503Y-7631425D01*
X2089191Y-7641804D01*
X2089191Y-7641804D01*
X2089191Y-7641805D01*
X2113717Y-7653302D01*
X2113718Y-7653302D01*
X2139656Y-7661106D01*
X2139657Y-7661106D01*
X2139657Y-7661106D01*
X2166456Y-7665050D01*
X2166457Y-7665050D01*
X2186764Y-7665050D01*
X2195764Y-7664391D01*
X2207016Y-7663568D01*
X2233455Y-7657678D01*
X2258756Y-7648001D01*
X2282378Y-7634744D01*
X2303818Y-7618189D01*
X2322619Y-7598688D01*
X2338380Y-7576658D01*
X2350766Y-7552567D01*
X2359512Y-7526930D01*
X2364432Y-7500293D01*
X2364926Y-7486777D01*
X7994579Y-7486777D01*
X7997541Y-7513701D01*
X7997541Y-7513702D01*
X8004393Y-7539909D01*
X8004393Y-7539909D01*
X8014987Y-7564838D01*
X8014987Y-7564839D01*
X8029098Y-7587961D01*
X8029098Y-7587961D01*
X8038025Y-7598688D01*
X8046425Y-7608782D01*
X8064942Y-7625373D01*
X8066600Y-7626858D01*
X8066600Y-7626858D01*
X8073503Y-7631425D01*
X8089191Y-7641804D01*
X8089191Y-7641804D01*
X8089191Y-7641805D01*
X8113717Y-7653302D01*
X8113718Y-7653302D01*
X8139656Y-7661106D01*
X8139657Y-7661106D01*
X8139657Y-7661106D01*
X8166456Y-7665050D01*
X8166456Y-7665050D01*
X8186764Y-7665050D01*
X8195764Y-7664391D01*
X8207016Y-7663568D01*
X8233455Y-7657678D01*
X8258756Y-7648001D01*
X8282378Y-7634744D01*
X8303818Y-7618189D01*
X8322619Y-7598688D01*
X8338380Y-7576658D01*
X8350766Y-7552567D01*
X8359512Y-7526930D01*
X8364432Y-7500293D01*
X8365421Y-7473223D01*
X8362459Y-7446298D01*
X8355607Y-7420091D01*
X8345013Y-7395161D01*
X8330902Y-7372039D01*
X8313574Y-7351218D01*
X8302434Y-7341236D01*
X8293400Y-7333142D01*
X8293400Y-7333141D01*
X8270808Y-7318195D01*
X8246283Y-7306698D01*
X8246282Y-7306698D01*
X8220344Y-7298894D01*
X8220343Y-7298894D01*
X8193544Y-7294950D01*
X8193544Y-7294950D01*
X8173237Y-7294950D01*
X8173236Y-7294950D01*
X8152985Y-7296432D01*
X8152985Y-7296432D01*
X8152984Y-7296432D01*
X8126545Y-7302322D01*
X8126545Y-7302322D01*
X8126544Y-7302322D01*
X8101244Y-7311998D01*
X8101244Y-7311999D01*
X8077622Y-7325256D01*
X8056182Y-7341811D01*
X8037381Y-7361312D01*
X8021620Y-7383342D01*
X8009234Y-7407432D01*
X8000488Y-7433070D01*
X7995568Y-7459707D01*
X7994579Y-7486776D01*
X7994579Y-7486777D01*
X2364926Y-7486777D01*
X2365421Y-7473223D01*
X2362459Y-7446298D01*
X2355607Y-7420091D01*
X2345013Y-7395161D01*
X2330902Y-7372039D01*
X2313575Y-7351218D01*
X2302434Y-7341236D01*
X2293400Y-7333142D01*
X2293400Y-7333141D01*
X2270809Y-7318195D01*
X2246283Y-7306698D01*
X2246282Y-7306698D01*
X2220344Y-7298894D01*
X2220343Y-7298894D01*
X2193544Y-7294950D01*
X2193544Y-7294950D01*
X2173237Y-7294950D01*
X2173236Y-7294950D01*
X2152985Y-7296432D01*
X2152985Y-7296432D01*
X2152984Y-7296432D01*
X2126545Y-7302322D01*
X2126545Y-7302322D01*
X2126544Y-7302322D01*
X2101244Y-7311998D01*
X2101244Y-7311999D01*
X2077622Y-7325256D01*
X2056182Y-7341811D01*
X2037381Y-7361312D01*
X2021620Y-7383342D01*
X2009234Y-7407432D01*
X2000488Y-7433070D01*
X1995568Y-7459707D01*
X1994579Y-7486776D01*
X1994579Y-7486777D01*
X822124Y-7486777D01*
X826980Y-7483377D01*
X842791Y-7467566D01*
X855617Y-7449249D01*
X865067Y-7428984D01*
X870854Y-7407385D01*
X872803Y-7385110D01*
X870854Y-7362835D01*
X870515Y-7361569D01*
X867741Y-7351218D01*
X865067Y-7341236D01*
X855617Y-7320971D01*
X842791Y-7302654D01*
X826980Y-7286843D01*
X810066Y-7275000D01*
X1694244Y-7275000D01*
X1696098Y-7287891D01*
X1701508Y-7299737D01*
X1710036Y-7309580D01*
X1720992Y-7316621D01*
X1733488Y-7320290D01*
X1733488Y-7320290D01*
X1746511Y-7320290D01*
X1746512Y-7320290D01*
X1759008Y-7316621D01*
X1769964Y-7309580D01*
X1778492Y-7299737D01*
X1783902Y-7287891D01*
X1785756Y-7275000D01*
X1783902Y-7262109D01*
X1778492Y-7250263D01*
X1769964Y-7240420D01*
X1759008Y-7233379D01*
X1746512Y-7229710D01*
X1733488Y-7229710D01*
X1720992Y-7233379D01*
X1715514Y-7236900D01*
X1710036Y-7240420D01*
X1701508Y-7250263D01*
X1696098Y-7262109D01*
X1696098Y-7262109D01*
X1694385Y-7274018D01*
X1694244Y-7275000D01*
X810066Y-7275000D01*
X808664Y-7274018D01*
X808663Y-7274018D01*
X788399Y-7264568D01*
X788398Y-7264568D01*
X766800Y-7258781D01*
X766799Y-7258780D01*
X749663Y-7257281D01*
X746282Y-7255521D01*
X745117Y-7252339D01*
X744593Y-7110000D01*
X1024244Y-7110000D01*
X1026033Y-7122441D01*
X1026098Y-7122891D01*
X1031508Y-7134737D01*
X1040036Y-7144580D01*
X1050992Y-7151621D01*
X1063488Y-7155290D01*
X1063489Y-7155290D01*
X1076512Y-7155290D01*
X1076512Y-7155290D01*
X1089008Y-7151621D01*
X1099964Y-7144580D01*
X1108492Y-7134737D01*
X1113902Y-7122891D01*
X1115756Y-7110000D01*
X1115703Y-7109635D01*
X2455963Y-7109635D01*
X2464663Y-7115023D01*
X2483811Y-7122441D01*
X2503996Y-7126214D01*
X2524530Y-7126214D01*
X2544715Y-7122441D01*
X2563862Y-7115023D01*
X2572563Y-7109635D01*
X2514263Y-7051335D01*
X2455963Y-7109635D01*
X1115703Y-7109635D01*
X1113902Y-7097109D01*
X1108492Y-7085263D01*
X1099964Y-7075420D01*
X1099964Y-7075420D01*
X1098049Y-7074189D01*
X1095875Y-7071059D01*
X1096552Y-7067308D01*
X1098049Y-7065810D01*
X1099964Y-7064580D01*
X1108492Y-7054737D01*
X1113902Y-7042891D01*
X1115756Y-7030000D01*
X1113902Y-7017109D01*
X1113128Y-7015414D01*
X2402988Y-7015414D01*
X2404883Y-7035861D01*
X2410502Y-7055611D01*
X2419655Y-7073992D01*
X2419656Y-7073993D01*
X2419702Y-7074054D01*
X2419702Y-7074054D01*
X2478342Y-7015414D01*
X2475526Y-7012598D01*
X2483874Y-7012598D01*
X2484909Y-7023766D01*
X2489908Y-7033806D01*
X2498197Y-7041362D01*
X2508655Y-7045414D01*
X2517043Y-7045414D01*
X2525288Y-7043873D01*
X2534824Y-7037968D01*
X2541583Y-7029018D01*
X2544653Y-7018230D01*
X2544392Y-7015414D01*
X2550184Y-7015414D01*
X2608824Y-7074054D01*
X2608871Y-7073992D01*
X2608871Y-7073992D01*
X2618024Y-7055611D01*
X2623643Y-7035861D01*
X2625538Y-7015414D01*
X2623643Y-6994967D01*
X2618024Y-6975217D01*
X2608871Y-6956835D01*
X2608871Y-6956835D01*
X2608824Y-6956774D01*
X2608824Y-6956774D01*
X2550184Y-7015414D01*
X2544392Y-7015414D01*
X2543618Y-7007062D01*
X2538618Y-6997022D01*
X2530330Y-6989465D01*
X2519871Y-6985414D01*
X2511483Y-6985414D01*
X2503238Y-6986955D01*
X2493702Y-6992859D01*
X2486943Y-7001810D01*
X2483874Y-7012598D01*
X2475526Y-7012598D01*
X2419702Y-6956774D01*
X2419655Y-6956835D01*
X2410502Y-6975217D01*
X2404883Y-6994967D01*
X2402988Y-7015414D01*
X1113128Y-7015414D01*
X1108492Y-7005263D01*
X1099964Y-6995420D01*
X1089008Y-6988379D01*
X1076512Y-6984710D01*
X1063488Y-6984710D01*
X1050992Y-6988379D01*
X1045514Y-6991900D01*
X1040036Y-6995420D01*
X1031508Y-7005263D01*
X1026098Y-7017109D01*
X1026098Y-7017109D01*
X1025141Y-7023766D01*
X1024244Y-7030000D01*
X1026098Y-7042891D01*
X1031508Y-7054737D01*
X1040036Y-7064580D01*
X1040036Y-7064580D01*
X1041951Y-7065811D01*
X1044125Y-7068941D01*
X1043448Y-7072692D01*
X1041951Y-7074189D01*
X1040036Y-7075420D01*
X1031508Y-7085263D01*
X1026098Y-7097109D01*
X1026098Y-7097109D01*
X1024244Y-7110000D01*
X1024244Y-7110000D01*
X744593Y-7110000D01*
X743899Y-6921192D01*
X2455963Y-6921192D01*
X2514263Y-6979493D01*
X2572563Y-6921192D01*
X2563863Y-6915805D01*
X2544715Y-6908387D01*
X2524530Y-6904614D01*
X2503996Y-6904614D01*
X2483811Y-6908387D01*
X2464663Y-6915805D01*
X2455963Y-6921192D01*
X743899Y-6921192D01*
X743674Y-6860000D01*
X1584244Y-6860000D01*
X1586098Y-6872891D01*
X1591508Y-6884737D01*
X1600036Y-6894580D01*
X1610992Y-6901621D01*
X1623488Y-6905290D01*
X1623488Y-6905290D01*
X1636511Y-6905290D01*
X1636512Y-6905290D01*
X1649008Y-6901621D01*
X1659964Y-6894580D01*
X1668492Y-6884737D01*
X1672063Y-6876919D01*
X2438973Y-6876919D01*
X2438973Y-6876920D01*
X2439860Y-6881379D01*
X2439860Y-6881380D01*
X2443240Y-6886437D01*
X2443240Y-6886437D01*
X2448297Y-6889817D01*
X2452757Y-6890704D01*
X2575769Y-6890704D01*
X2580229Y-6889817D01*
X2585287Y-6886437D01*
X2588666Y-6881380D01*
X2589553Y-6876919D01*
X2589553Y-6818384D01*
X2591012Y-6814862D01*
X2594533Y-6813404D01*
X7178885Y-6813404D01*
X7179870Y-6813564D01*
X7179872Y-6813552D01*
X7180328Y-6813615D01*
X7180329Y-6813616D01*
X7183106Y-6813487D01*
X7184853Y-6813406D01*
X7184968Y-6813404D01*
X7186856Y-6813404D01*
X7186857Y-6813404D01*
X7186857Y-6813404D01*
X7186857Y-6813404D01*
X7187326Y-6813316D01*
X7187669Y-6813276D01*
X7189418Y-6813195D01*
X7190782Y-6813132D01*
X7192070Y-6812564D01*
X7193165Y-6812224D01*
X7194549Y-6811966D01*
X7197201Y-6810324D01*
X7197503Y-6810165D01*
X7200355Y-6808905D01*
X7201351Y-6807910D01*
X7202250Y-6807198D01*
X7203446Y-6806457D01*
X7205324Y-6803970D01*
X7205550Y-6803710D01*
X7280252Y-6729008D01*
X7281062Y-6728426D01*
X7281055Y-6728415D01*
X7281423Y-6728137D01*
X7281423Y-6728137D01*
X7284475Y-6724789D01*
X7284551Y-6724709D01*
X7285889Y-6723372D01*
X7286160Y-6722976D01*
X7286371Y-6722709D01*
X7288473Y-6720404D01*
X7288981Y-6719092D01*
X7289516Y-6718076D01*
X7290312Y-6716915D01*
X7291025Y-6713882D01*
X7291127Y-6713552D01*
X7292253Y-6710646D01*
X7292253Y-6709239D01*
X7292385Y-6708098D01*
X7292707Y-6706729D01*
X7292707Y-6706729D01*
X7292554Y-6705628D01*
X7292277Y-6703642D01*
X7292253Y-6703298D01*
X7292253Y-6483978D01*
X7293712Y-6480457D01*
X7293972Y-6480214D01*
X7294226Y-6479994D01*
X7294226Y-6479994D01*
X7294227Y-6479994D01*
X7302755Y-6470151D01*
X7308165Y-6458305D01*
X7310019Y-6445414D01*
X7308165Y-6432523D01*
X7302755Y-6420676D01*
X7294227Y-6410834D01*
X7283271Y-6403793D01*
X7270775Y-6400124D01*
X7257751Y-6400124D01*
X7245255Y-6403793D01*
X7239777Y-6407313D01*
X7234299Y-6410834D01*
X7225771Y-6420676D01*
X7220361Y-6432523D01*
X7220361Y-6432523D01*
X7218507Y-6445414D01*
X7218507Y-6445414D01*
X7219167Y-6450000D01*
X7220361Y-6458305D01*
X7225771Y-6470151D01*
X7234299Y-6479994D01*
X7234300Y-6479994D01*
X7234554Y-6480214D01*
X7236260Y-6483623D01*
X7236273Y-6483978D01*
X7236273Y-6691757D01*
X7234814Y-6695278D01*
X7174128Y-6755965D01*
X7170606Y-6757424D01*
X2594339Y-6757424D01*
X2590818Y-6755965D01*
X2589455Y-6753415D01*
X2589447Y-6753377D01*
X2588666Y-6749448D01*
X2588666Y-6749448D01*
X2588666Y-6749448D01*
X2585287Y-6744390D01*
X2585286Y-6744390D01*
X2580229Y-6741011D01*
X2575769Y-6740124D01*
X2575769Y-6740124D01*
X2452758Y-6740124D01*
X2452757Y-6740124D01*
X2449412Y-6740789D01*
X2448297Y-6741011D01*
X2448297Y-6741011D01*
X2448297Y-6741011D01*
X2443240Y-6744390D01*
X2443240Y-6744390D01*
X2439860Y-6749448D01*
X2439860Y-6749448D01*
X2438973Y-6753908D01*
X2438973Y-6876919D01*
X1672063Y-6876919D01*
X1673902Y-6872891D01*
X1675756Y-6860000D01*
X1675160Y-6855856D01*
X1675138Y-6855703D01*
X1673902Y-6847109D01*
X1668492Y-6835263D01*
X1659964Y-6825420D01*
X1649008Y-6818379D01*
X1636512Y-6814710D01*
X1623488Y-6814710D01*
X1610992Y-6818379D01*
X1605514Y-6821900D01*
X1600036Y-6825420D01*
X1591508Y-6835263D01*
X1586098Y-6847109D01*
X1586098Y-6847109D01*
X1584244Y-6860000D01*
X1584244Y-6860000D01*
X743674Y-6860000D01*
X743410Y-6788067D01*
X744856Y-6784540D01*
X747955Y-6783088D01*
X766800Y-6781439D01*
X788398Y-6775652D01*
X808664Y-6766202D01*
X826980Y-6753377D01*
X842791Y-6737566D01*
X855617Y-6719249D01*
X865067Y-6698984D01*
X870379Y-6679157D01*
X870854Y-6677386D01*
X870854Y-6677386D01*
X870854Y-6677385D01*
X872803Y-6655110D01*
X870854Y-6632835D01*
X870096Y-6630006D01*
X868201Y-6622934D01*
X865067Y-6611236D01*
X859827Y-6600000D01*
X1374244Y-6600000D01*
X1375860Y-6611236D01*
X1376098Y-6612891D01*
X1381508Y-6624737D01*
X1390036Y-6634580D01*
X1400992Y-6641621D01*
X1413488Y-6645290D01*
X1413488Y-6645290D01*
X1426511Y-6645290D01*
X1426512Y-6645290D01*
X1439008Y-6641621D01*
X1449964Y-6634580D01*
X1458492Y-6624737D01*
X1463902Y-6612891D01*
X1465756Y-6600000D01*
X1463902Y-6587109D01*
X1460545Y-6579758D01*
X3318724Y-6579758D01*
X3320705Y-6603670D01*
X3326595Y-6626929D01*
X3326595Y-6626930D01*
X3336233Y-6648902D01*
X3345204Y-6662633D01*
X3414919Y-6592918D01*
X3417315Y-6601079D01*
X3425213Y-6613367D01*
X3436253Y-6622934D01*
X3449541Y-6629002D01*
X3450534Y-6629145D01*
X3381032Y-6698647D01*
X3384541Y-6701379D01*
X3384541Y-6701379D01*
X3405643Y-6712798D01*
X3428337Y-6720589D01*
X3452003Y-6724538D01*
X3475997Y-6724538D01*
X3499663Y-6720589D01*
X3522357Y-6712798D01*
X3543459Y-6701379D01*
X3543459Y-6701378D01*
X3546968Y-6698647D01*
X3477465Y-6629145D01*
X3478459Y-6629002D01*
X3491747Y-6622934D01*
X3502787Y-6613367D01*
X3510684Y-6601079D01*
X3513081Y-6592918D01*
X3582796Y-6662633D01*
X3591766Y-6648902D01*
X3601404Y-6626930D01*
X3601405Y-6626929D01*
X3607295Y-6603670D01*
X3609276Y-6579758D01*
X3607295Y-6555846D01*
X3601405Y-6532588D01*
X3601404Y-6532587D01*
X3591766Y-6510615D01*
X3582796Y-6496884D01*
X3513080Y-6566599D01*
X3510684Y-6558438D01*
X3502787Y-6546149D01*
X3491747Y-6536583D01*
X3478459Y-6530515D01*
X3477465Y-6530372D01*
X3544620Y-6463217D01*
X3548142Y-6461758D01*
X3604263Y-6461758D01*
X3604263Y-6102188D01*
X3605722Y-6098667D01*
X3609243Y-6097208D01*
X6981751Y-6097208D01*
X6985272Y-6098667D01*
X6986281Y-6100120D01*
X6986909Y-6101496D01*
X6986909Y-6101496D01*
X6986910Y-6101496D01*
X6995438Y-6111338D01*
X7006394Y-6118379D01*
X7018890Y-6122048D01*
X7018890Y-6122048D01*
X7031913Y-6122048D01*
X7031913Y-6122048D01*
X7044409Y-6118379D01*
X7055365Y-6111338D01*
X7063894Y-6101496D01*
X7069304Y-6089649D01*
X7071157Y-6076758D01*
X7071143Y-6076658D01*
X7069444Y-6064839D01*
X7069304Y-6063868D01*
X7063894Y-6052021D01*
X7055365Y-6042179D01*
X7044409Y-6035138D01*
X7031913Y-6031468D01*
X7018890Y-6031468D01*
X7006394Y-6035138D01*
X6998970Y-6039909D01*
X6995438Y-6042179D01*
X6993349Y-6044590D01*
X6989940Y-6046296D01*
X6989585Y-6046308D01*
X3609243Y-6046308D01*
X3605722Y-6044850D01*
X3604263Y-6041328D01*
X3604263Y-5848188D01*
X3605722Y-5844667D01*
X3609243Y-5843208D01*
X7045253Y-5843208D01*
X7048774Y-5844667D01*
X7049016Y-5844927D01*
X7055438Y-5852338D01*
X7055438Y-5852338D01*
X7066394Y-5859379D01*
X7078890Y-5863048D01*
X7078890Y-5863048D01*
X7091913Y-5863048D01*
X7091913Y-5863048D01*
X7104409Y-5859379D01*
X7115365Y-5852338D01*
X7123894Y-5842496D01*
X7129304Y-5830649D01*
X7131157Y-5817758D01*
X7131064Y-5817109D01*
X7129567Y-5806698D01*
X7129304Y-5804868D01*
X7123894Y-5793021D01*
X7115365Y-5783179D01*
X7104409Y-5776138D01*
X7091913Y-5772468D01*
X7078890Y-5772468D01*
X7066394Y-5776138D01*
X7055438Y-5783179D01*
X7055438Y-5783179D01*
X7049016Y-5790590D01*
X7045608Y-5792296D01*
X7045253Y-5792308D01*
X3609243Y-5792308D01*
X3605722Y-5790850D01*
X3604263Y-5787328D01*
X3604263Y-5433759D01*
X4131765Y-5433759D01*
X4132763Y-5440704D01*
X4133618Y-5446649D01*
X4139029Y-5458496D01*
X4147557Y-5468338D01*
X4158513Y-5475379D01*
X4171009Y-5479049D01*
X4171009Y-5479049D01*
X4184032Y-5479049D01*
X4184032Y-5479049D01*
X4196528Y-5475379D01*
X4207484Y-5468338D01*
X4216013Y-5458496D01*
X4221423Y-5446649D01*
X4223276Y-5433759D01*
X4221423Y-5420868D01*
X4216013Y-5409021D01*
X4207484Y-5399179D01*
X4196528Y-5392138D01*
X4184032Y-5388469D01*
X4171009Y-5388469D01*
X4158513Y-5392138D01*
X4153416Y-5395414D01*
X4147557Y-5399179D01*
X4139029Y-5409021D01*
X4133618Y-5420868D01*
X4133618Y-5420868D01*
X4131765Y-5433758D01*
X4131765Y-5433759D01*
X3604263Y-5433759D01*
X3604263Y-4832189D01*
X3605722Y-4828667D01*
X3609243Y-4827209D01*
X3858003Y-4827209D01*
X3861525Y-4828667D01*
X3907354Y-4874497D01*
X3908813Y-4878018D01*
X3908813Y-5142417D01*
X3908717Y-5143388D01*
X3908314Y-5145414D01*
X3908314Y-5145414D01*
X3910290Y-5155344D01*
X3910290Y-5155344D01*
X3914494Y-5161636D01*
X3914494Y-5161637D01*
X3914495Y-5161637D01*
X3914495Y-5161638D01*
X3915915Y-5163762D01*
X3917631Y-5164909D01*
X3918386Y-5165528D01*
X4018734Y-5265877D01*
X4019354Y-5266631D01*
X4020501Y-5268348D01*
X4022510Y-5269691D01*
X4022513Y-5269693D01*
X4028919Y-5273973D01*
X4028919Y-5273973D01*
X4036343Y-5275450D01*
X4036343Y-5275450D01*
X4038849Y-5275949D01*
X4038849Y-5275949D01*
X4040874Y-5275546D01*
X4041846Y-5275450D01*
X5446370Y-5275450D01*
X5449892Y-5276909D01*
X5451350Y-5280430D01*
X5449892Y-5283951D01*
X5449063Y-5284619D01*
X5443378Y-5288273D01*
X5440036Y-5290420D01*
X5431508Y-5300263D01*
X5426098Y-5312109D01*
X5426098Y-5312110D01*
X5424244Y-5325000D01*
X5424244Y-5325000D01*
X5426098Y-5337890D01*
X5426098Y-5337891D01*
X5431508Y-5349737D01*
X5431508Y-5349738D01*
X5439865Y-5359383D01*
X5441069Y-5362999D01*
X5439363Y-5366407D01*
X5436102Y-5367624D01*
X4362385Y-5367624D01*
X4358863Y-5366165D01*
X4358621Y-5365905D01*
X4354227Y-5360834D01*
X4354227Y-5360834D01*
X4354227Y-5360834D01*
X4343271Y-5353793D01*
X4330775Y-5350124D01*
X4317751Y-5350124D01*
X4305256Y-5353793D01*
X4300484Y-5356860D01*
X4294299Y-5360834D01*
X4285771Y-5370676D01*
X4280361Y-5382523D01*
X4280361Y-5382523D01*
X4279459Y-5388793D01*
X4278507Y-5395414D01*
X4280361Y-5408305D01*
X4285771Y-5420151D01*
X4294300Y-5429994D01*
X4305256Y-5437035D01*
X4317751Y-5440704D01*
X4317752Y-5440704D01*
X4330775Y-5440704D01*
X4330775Y-5440704D01*
X4343271Y-5437035D01*
X4354227Y-5429994D01*
X4355629Y-5428376D01*
X4358621Y-5424923D01*
X4362029Y-5423217D01*
X4362385Y-5423204D01*
X5631879Y-5423204D01*
X5635400Y-5424662D01*
X5635642Y-5424923D01*
X5640036Y-5429993D01*
X5640036Y-5429994D01*
X5650992Y-5437035D01*
X5663488Y-5440704D01*
X5663488Y-5440704D01*
X5676511Y-5440704D01*
X5676512Y-5440704D01*
X5689008Y-5437035D01*
X5699964Y-5429994D01*
X5708492Y-5420151D01*
X5713902Y-5408305D01*
X5715756Y-5395414D01*
X5713902Y-5382523D01*
X5708492Y-5370676D01*
X5699964Y-5360834D01*
X5689008Y-5353793D01*
X5676512Y-5350124D01*
X5663488Y-5350124D01*
X5650992Y-5353793D01*
X5642747Y-5359092D01*
X5640036Y-5360834D01*
X5635642Y-5365905D01*
X5632234Y-5367611D01*
X5631879Y-5367624D01*
X5620211Y-5367624D01*
X5616689Y-5366165D01*
X5615231Y-5362644D01*
X5616595Y-5359350D01*
X5616540Y-5359302D01*
X5616684Y-5359136D01*
X5616689Y-5359122D01*
X5616722Y-5359092D01*
X5616773Y-5359033D01*
X5616773Y-5359033D01*
X5625302Y-5349190D01*
X5630712Y-5337344D01*
X5632256Y-5326601D01*
X5632565Y-5324453D01*
X5632565Y-5324453D01*
X5631189Y-5314880D01*
X5630712Y-5311562D01*
X5625302Y-5299716D01*
X5616773Y-5289873D01*
X5608598Y-5284619D01*
X5606424Y-5281489D01*
X5607101Y-5277738D01*
X5610232Y-5275564D01*
X5611291Y-5275450D01*
X5894114Y-5275450D01*
X5897635Y-5276909D01*
X5897878Y-5277169D01*
X5903755Y-5283951D01*
X5904299Y-5284580D01*
X5915255Y-5291621D01*
X5927751Y-5295290D01*
X5927752Y-5295290D01*
X5940775Y-5295290D01*
X5940775Y-5295290D01*
X5953271Y-5291621D01*
X5964227Y-5284580D01*
X5972755Y-5274737D01*
X5978165Y-5262891D01*
X5980019Y-5250000D01*
X5978165Y-5237109D01*
X5972755Y-5225263D01*
X5964227Y-5215420D01*
X5953271Y-5208379D01*
X5940775Y-5204710D01*
X5927751Y-5204710D01*
X5915255Y-5208379D01*
X5906857Y-5213776D01*
X5904299Y-5215420D01*
X5897878Y-5222831D01*
X5894469Y-5224537D01*
X5894114Y-5224550D01*
X5135238Y-5224550D01*
X5131717Y-5223091D01*
X5130258Y-5219570D01*
X5130258Y-5219567D01*
X5130260Y-5215420D01*
X5130559Y-4706759D01*
X4555245Y-4706759D01*
X4555543Y-5215420D01*
X4555546Y-5219567D01*
X4554089Y-5223089D01*
X4550568Y-5224550D01*
X4051454Y-5224550D01*
X4047932Y-5223091D01*
X3961172Y-5136331D01*
X3959713Y-5132809D01*
X3959713Y-5006759D01*
X4309646Y-5006759D01*
X4311064Y-5016621D01*
X4311499Y-5019649D01*
X4316910Y-5031496D01*
X4325438Y-5041338D01*
X4336394Y-5048379D01*
X4348890Y-5052049D01*
X4348890Y-5052049D01*
X4361913Y-5052049D01*
X4361913Y-5052049D01*
X4374409Y-5048379D01*
X4385365Y-5041338D01*
X4393894Y-5031496D01*
X4399304Y-5019649D01*
X4401157Y-5006759D01*
X4399304Y-4993868D01*
X4393894Y-4982021D01*
X4385365Y-4972179D01*
X4374409Y-4965138D01*
X4361913Y-4961469D01*
X4348890Y-4961469D01*
X4336394Y-4965138D01*
X4330916Y-4968658D01*
X4325438Y-4972179D01*
X4316910Y-4982021D01*
X4311499Y-4993868D01*
X4311499Y-4993868D01*
X4309646Y-5006758D01*
X4309646Y-5006759D01*
X3959713Y-5006759D01*
X3959713Y-4868411D01*
X3959809Y-4867439D01*
X3960212Y-4865414D01*
X3958810Y-4858369D01*
X3958236Y-4855484D01*
X3954031Y-4849190D01*
X3953956Y-4849077D01*
X3953954Y-4849075D01*
X3953297Y-4848091D01*
X3952611Y-4847065D01*
X3950894Y-4845918D01*
X3950140Y-4845299D01*
X3890722Y-4785881D01*
X3890103Y-4785127D01*
X3890064Y-4785069D01*
X3888956Y-4783410D01*
X3887034Y-4782126D01*
X3887034Y-4782125D01*
X3880538Y-4777785D01*
X3870608Y-4775810D01*
X3868582Y-4776213D01*
X3867611Y-4776309D01*
X3609243Y-4776309D01*
X3605722Y-4774850D01*
X3604263Y-4771329D01*
X3604263Y-4445414D01*
X3998507Y-4445414D01*
X3999291Y-4450865D01*
X4000361Y-4458305D01*
X4005771Y-4470151D01*
X4014299Y-4479994D01*
X4025255Y-4487035D01*
X4037751Y-4490704D01*
X4037752Y-4490704D01*
X4050775Y-4490704D01*
X4050775Y-4490704D01*
X4063271Y-4487035D01*
X4074227Y-4479994D01*
X4082755Y-4470151D01*
X4088165Y-4458305D01*
X4090019Y-4445414D01*
X4089874Y-4444408D01*
X4088760Y-4436659D01*
X4088165Y-4432523D01*
X4082755Y-4420676D01*
X4074227Y-4410834D01*
X4063271Y-4403793D01*
X4050775Y-4400124D01*
X4037751Y-4400124D01*
X4025255Y-4403793D01*
X4019777Y-4407313D01*
X4014299Y-4410834D01*
X4005771Y-4420676D01*
X4000361Y-4432523D01*
X4000361Y-4432523D01*
X3998507Y-4445414D01*
X3998507Y-4445414D01*
X3604263Y-4445414D01*
X3604263Y-4416759D01*
X3334263Y-4416759D01*
X3334263Y-6461758D01*
X3379858Y-6461758D01*
X3383380Y-6463217D01*
X3450535Y-6530372D01*
X3449541Y-6530515D01*
X3436253Y-6536583D01*
X3425213Y-6546149D01*
X3417315Y-6558438D01*
X3414919Y-6566599D01*
X3345204Y-6496884D01*
X3336234Y-6510614D01*
X3326595Y-6532587D01*
X3326595Y-6532588D01*
X3320705Y-6555846D01*
X3318724Y-6579758D01*
X1460545Y-6579758D01*
X1458492Y-6575263D01*
X1449964Y-6565420D01*
X1439008Y-6558379D01*
X1426512Y-6554710D01*
X1413488Y-6554710D01*
X1400992Y-6558379D01*
X1395514Y-6561900D01*
X1390036Y-6565420D01*
X1381508Y-6575263D01*
X1376098Y-6587109D01*
X1376098Y-6587109D01*
X1374244Y-6600000D01*
X1374244Y-6600000D01*
X859827Y-6600000D01*
X855617Y-6590971D01*
X842791Y-6572654D01*
X826980Y-6556843D01*
X825557Y-6555846D01*
X811708Y-6546149D01*
X808664Y-6544018D01*
X808277Y-6543837D01*
X788399Y-6534568D01*
X788398Y-6534568D01*
X766800Y-6528781D01*
X766800Y-6528781D01*
X744525Y-6526832D01*
X722249Y-6528781D01*
X700651Y-6534568D01*
X700651Y-6534568D01*
X680386Y-6544018D01*
X680386Y-6544018D01*
X662070Y-6556843D01*
X646258Y-6572655D01*
X633433Y-6590971D01*
X633433Y-6590971D01*
X623983Y-6611236D01*
X623983Y-6611236D01*
X618196Y-6632834D01*
X617427Y-6641621D01*
X616546Y-6651695D01*
X616247Y-6655110D01*
X617960Y-6674696D01*
X616814Y-6678331D01*
X613433Y-6680091D01*
X612999Y-6680110D01*
X346050Y-6680110D01*
X342529Y-6678651D01*
X341070Y-6675130D01*
X341089Y-6674696D01*
X342803Y-6655110D01*
X342803Y-6655110D01*
X340854Y-6632835D01*
X340096Y-6630006D01*
X338201Y-6622934D01*
X335067Y-6611236D01*
X325617Y-6590971D01*
X312792Y-6572654D01*
X296980Y-6556843D01*
X295557Y-6555846D01*
X281708Y-6546149D01*
X278664Y-6544018D01*
X278277Y-6543837D01*
X258399Y-6534568D01*
X258398Y-6534568D01*
X236800Y-6528781D01*
X236800Y-6528781D01*
X218980Y-6527222D01*
X214525Y-6526832D01*
X214525Y-6526832D01*
X192249Y-6528781D01*
X170738Y-6534545D01*
X166960Y-6534047D01*
X164639Y-6531023D01*
X164470Y-6529735D01*
X164474Y-6503104D01*
X2398507Y-6503104D01*
X2400361Y-6515995D01*
X2405771Y-6527841D01*
X2414300Y-6537684D01*
X2425256Y-6544725D01*
X2437751Y-6548394D01*
X2437752Y-6548394D01*
X2450775Y-6548394D01*
X2450775Y-6548394D01*
X2463271Y-6544725D01*
X2474227Y-6537684D01*
X2482755Y-6527841D01*
X2488165Y-6515995D01*
X2490019Y-6503104D01*
X2488165Y-6490213D01*
X2482755Y-6478366D01*
X2474227Y-6468524D01*
X2463271Y-6461483D01*
X2450775Y-6457814D01*
X2437751Y-6457814D01*
X2425256Y-6461483D01*
X2422557Y-6463217D01*
X2414299Y-6468524D01*
X2412890Y-6470151D01*
X2405771Y-6478366D01*
X2400361Y-6490213D01*
X2398507Y-6503104D01*
X164474Y-6503104D01*
X164482Y-6450000D01*
X2654213Y-6450000D01*
X2656197Y-6468876D01*
X2659129Y-6477901D01*
X2662062Y-6486927D01*
X2662062Y-6486927D01*
X2671552Y-6503363D01*
X2684251Y-6517468D01*
X2699606Y-6528624D01*
X2716945Y-6536344D01*
X2735510Y-6540290D01*
X2735510Y-6540290D01*
X2754490Y-6540290D01*
X2754490Y-6540290D01*
X2773055Y-6536344D01*
X2790394Y-6528624D01*
X2805749Y-6517468D01*
X2818448Y-6503363D01*
X2827938Y-6486926D01*
X2833803Y-6468876D01*
X2835787Y-6450000D01*
X2833803Y-6431124D01*
X2827938Y-6413073D01*
X2818448Y-6396637D01*
X2805749Y-6382532D01*
X2790394Y-6371376D01*
X2773055Y-6363656D01*
X2754490Y-6359710D01*
X2735510Y-6359710D01*
X2727618Y-6361387D01*
X2716945Y-6363656D01*
X2716945Y-6363656D01*
X2716945Y-6363656D01*
X2699606Y-6371376D01*
X2699606Y-6371376D01*
X2699606Y-6371376D01*
X2684252Y-6382532D01*
X2671552Y-6396637D01*
X2671551Y-6396637D01*
X2662062Y-6413073D01*
X2662062Y-6413073D01*
X2656197Y-6431124D01*
X2656197Y-6431124D01*
X2654213Y-6450000D01*
X164482Y-6450000D01*
X164551Y-5986777D01*
X494579Y-5986777D01*
X497452Y-6012891D01*
X497541Y-6013702D01*
X503000Y-6034580D01*
X504393Y-6039909D01*
X504393Y-6039909D01*
X514987Y-6064838D01*
X514987Y-6064839D01*
X529098Y-6087961D01*
X529098Y-6087961D01*
X546426Y-6108782D01*
X566600Y-6126858D01*
X566600Y-6126858D01*
X574589Y-6132144D01*
X589191Y-6141804D01*
X589191Y-6141804D01*
X589191Y-6141805D01*
X613717Y-6153302D01*
X613718Y-6153302D01*
X639656Y-6161106D01*
X639657Y-6161106D01*
X639657Y-6161106D01*
X666456Y-6165050D01*
X666457Y-6165050D01*
X686764Y-6165050D01*
X695764Y-6164391D01*
X707016Y-6163568D01*
X733455Y-6157678D01*
X758756Y-6148001D01*
X782378Y-6134744D01*
X803818Y-6118189D01*
X822619Y-6098688D01*
X838380Y-6076658D01*
X850766Y-6052567D01*
X859512Y-6026930D01*
X864432Y-6000293D01*
X865421Y-5973223D01*
X862459Y-5946298D01*
X855607Y-5920091D01*
X845013Y-5895161D01*
X830902Y-5872039D01*
X813574Y-5851218D01*
X806554Y-5844927D01*
X793400Y-5833142D01*
X793400Y-5833141D01*
X770808Y-5818195D01*
X746283Y-5806698D01*
X746282Y-5806698D01*
X720344Y-5798894D01*
X720343Y-5798894D01*
X693544Y-5794950D01*
X693544Y-5794950D01*
X673237Y-5794950D01*
X673236Y-5794950D01*
X652985Y-5796432D01*
X652985Y-5796432D01*
X652984Y-5796432D01*
X641934Y-5798894D01*
X626545Y-5802322D01*
X626544Y-5802322D01*
X601244Y-5811998D01*
X601244Y-5811999D01*
X577622Y-5825256D01*
X556182Y-5841811D01*
X537381Y-5861312D01*
X521620Y-5883342D01*
X509234Y-5907432D01*
X500488Y-5933070D01*
X495568Y-5959707D01*
X494579Y-5986776D01*
X494579Y-5986777D01*
X164551Y-5986777D01*
X164620Y-5525120D01*
X2910801Y-5525120D01*
X2916859Y-5529362D01*
X2916860Y-5529362D01*
X2936809Y-5538665D01*
X2936810Y-5538665D01*
X2958071Y-5544362D01*
X2958072Y-5544362D01*
X2979999Y-5546281D01*
X2980001Y-5546281D01*
X3001928Y-5544362D01*
X3001929Y-5544362D01*
X3023190Y-5538665D01*
X3023191Y-5538665D01*
X3043141Y-5529362D01*
X3049199Y-5525120D01*
X3049199Y-5525120D01*
X2980000Y-5455921D01*
X2910801Y-5525120D01*
X2910801Y-5525120D01*
X164620Y-5525120D01*
X164636Y-5420001D01*
X2853719Y-5420001D01*
X2855638Y-5441928D01*
X2855638Y-5441929D01*
X2861335Y-5463190D01*
X2861335Y-5463191D01*
X2870638Y-5483140D01*
X2870638Y-5483140D01*
X2874880Y-5489199D01*
X2941148Y-5422930D01*
X2944637Y-5422930D01*
X2947505Y-5434254D01*
X2953894Y-5444033D01*
X2963111Y-5451207D01*
X2974159Y-5455000D01*
X2982900Y-5455000D01*
X2991522Y-5453561D01*
X3001795Y-5448002D01*
X3009706Y-5439408D01*
X3014398Y-5428711D01*
X3015120Y-5420000D01*
X3015921Y-5420000D01*
X3085120Y-5489199D01*
X3085120Y-5489199D01*
X3089362Y-5483141D01*
X3098665Y-5463191D01*
X3098665Y-5463190D01*
X3104362Y-5441929D01*
X3104362Y-5441928D01*
X3106280Y-5420001D01*
X3106280Y-5419999D01*
X3104362Y-5398072D01*
X3104362Y-5398071D01*
X3098665Y-5376810D01*
X3098665Y-5376809D01*
X3089362Y-5356860D01*
X3089362Y-5356860D01*
X3085120Y-5350801D01*
X3015921Y-5420000D01*
X3015120Y-5420000D01*
X3015363Y-5417070D01*
X3012495Y-5405746D01*
X3006106Y-5395967D01*
X2996888Y-5388793D01*
X2985840Y-5385000D01*
X2977099Y-5385000D01*
X2968478Y-5386439D01*
X2958205Y-5391998D01*
X2950294Y-5400592D01*
X2945602Y-5411289D01*
X2944637Y-5422930D01*
X2941148Y-5422930D01*
X2944079Y-5420000D01*
X2874880Y-5350801D01*
X2870638Y-5356860D01*
X2870638Y-5356860D01*
X2861335Y-5376809D01*
X2861335Y-5376810D01*
X2855638Y-5398071D01*
X2855638Y-5398072D01*
X2853719Y-5419999D01*
X2853719Y-5420001D01*
X164636Y-5420001D01*
X164652Y-5314880D01*
X2910801Y-5314880D01*
X2980000Y-5384079D01*
X3049199Y-5314880D01*
X3043140Y-5310638D01*
X3043140Y-5310638D01*
X3023191Y-5301335D01*
X3023190Y-5301335D01*
X3001929Y-5295638D01*
X3001928Y-5295638D01*
X2980001Y-5293720D01*
X2979999Y-5293720D01*
X2958072Y-5295638D01*
X2958071Y-5295638D01*
X2936810Y-5301335D01*
X2936809Y-5301335D01*
X2916860Y-5310638D01*
X2916860Y-5310638D01*
X2910801Y-5314880D01*
X164652Y-5314880D01*
X164703Y-4975000D01*
X1692487Y-4975000D01*
X1693537Y-4982304D01*
X1694341Y-4987891D01*
X1699751Y-4999737D01*
X1708279Y-5009580D01*
X1719235Y-5016621D01*
X1731731Y-5020290D01*
X1731732Y-5020290D01*
X1744755Y-5020290D01*
X1744755Y-5020290D01*
X1757251Y-5016621D01*
X1768207Y-5009580D01*
X1776735Y-4999737D01*
X1782145Y-4987891D01*
X1783983Y-4975107D01*
X1783999Y-4975000D01*
X1783999Y-4975000D01*
X1782581Y-4965138D01*
X1782145Y-4962109D01*
X1776735Y-4950263D01*
X1768207Y-4940420D01*
X1757251Y-4933379D01*
X1744755Y-4929710D01*
X1731731Y-4929710D01*
X1719235Y-4933379D01*
X1713757Y-4936900D01*
X1708279Y-4940420D01*
X1699751Y-4950263D01*
X1694341Y-4962109D01*
X1694341Y-4962110D01*
X1692487Y-4975000D01*
X1692487Y-4975000D01*
X164703Y-4975000D01*
X164715Y-4895414D01*
X2338507Y-4895414D01*
X2340317Y-4907997D01*
X2340361Y-4908305D01*
X2345771Y-4920151D01*
X2354300Y-4929994D01*
X2365256Y-4937035D01*
X2377751Y-4940704D01*
X2377752Y-4940704D01*
X2390775Y-4940704D01*
X2390775Y-4940704D01*
X2403271Y-4937035D01*
X2414227Y-4929994D01*
X2422755Y-4920151D01*
X2428165Y-4908305D01*
X2429887Y-4896329D01*
X2430019Y-4895414D01*
X2430019Y-4895414D01*
X2428743Y-4886537D01*
X2428165Y-4882523D01*
X2422755Y-4870676D01*
X2414227Y-4860834D01*
X2403271Y-4853793D01*
X2390775Y-4850124D01*
X2377751Y-4850124D01*
X2365256Y-4853793D01*
X2362625Y-4855484D01*
X2354299Y-4860834D01*
X2345771Y-4870676D01*
X2340361Y-4882523D01*
X2340361Y-4882523D01*
X2338507Y-4895414D01*
X2338507Y-4895414D01*
X164715Y-4895414D01*
X164736Y-4753414D01*
X1055974Y-4753414D01*
X1057886Y-4774047D01*
X1057886Y-4774047D01*
X1062949Y-4791843D01*
X1063557Y-4793977D01*
X1064259Y-4795388D01*
X1072793Y-4812526D01*
X1072793Y-4812527D01*
X1085281Y-4829062D01*
X1085281Y-4829063D01*
X1097901Y-4840567D01*
X1100594Y-4843022D01*
X1118212Y-4853931D01*
X1137534Y-4861416D01*
X1157902Y-4865224D01*
X1157903Y-4865224D01*
X1178623Y-4865224D01*
X1178624Y-4865224D01*
X1198992Y-4861416D01*
X1218315Y-4853931D01*
X1235932Y-4843022D01*
X1251246Y-4829062D01*
X1261639Y-4815300D01*
X1263733Y-4812527D01*
X1263733Y-4812526D01*
X1265458Y-4809062D01*
X1272970Y-4793977D01*
X1278640Y-4774047D01*
X1280552Y-4753414D01*
X1309974Y-4753414D01*
X1311886Y-4774047D01*
X1311886Y-4774047D01*
X1316949Y-4791843D01*
X1317557Y-4793977D01*
X1318259Y-4795388D01*
X1326793Y-4812526D01*
X1326793Y-4812527D01*
X1339281Y-4829062D01*
X1339281Y-4829063D01*
X1351901Y-4840567D01*
X1354594Y-4843022D01*
X1372212Y-4853931D01*
X1391534Y-4861416D01*
X1411902Y-4865224D01*
X1411903Y-4865224D01*
X1432623Y-4865224D01*
X1432624Y-4865224D01*
X1452992Y-4861416D01*
X1472315Y-4853931D01*
X1489932Y-4843022D01*
X1505246Y-4829062D01*
X1515639Y-4815300D01*
X1517733Y-4812527D01*
X1517733Y-4812526D01*
X1519458Y-4809062D01*
X1526969Y-4793977D01*
X1532640Y-4774047D01*
X1534552Y-4753414D01*
X1534552Y-4753414D01*
X1563974Y-4753414D01*
X1565886Y-4774047D01*
X1565886Y-4774047D01*
X1570949Y-4791843D01*
X1571557Y-4793977D01*
X1572259Y-4795388D01*
X1580793Y-4812526D01*
X1580793Y-4812527D01*
X1593280Y-4829062D01*
X1593280Y-4829063D01*
X1605901Y-4840567D01*
X1608594Y-4843022D01*
X1626212Y-4853931D01*
X1645534Y-4861416D01*
X1665902Y-4865224D01*
X1665903Y-4865224D01*
X1686623Y-4865224D01*
X1686624Y-4865224D01*
X1706992Y-4861416D01*
X1726315Y-4853931D01*
X1743932Y-4843022D01*
X1759246Y-4829062D01*
X1769639Y-4815300D01*
X1771733Y-4812527D01*
X1771733Y-4812526D01*
X1773458Y-4809062D01*
X1780969Y-4793977D01*
X1786640Y-4774047D01*
X1788552Y-4753414D01*
X1817974Y-4753414D01*
X1819886Y-4774047D01*
X1819886Y-4774047D01*
X1824949Y-4791843D01*
X1825557Y-4793977D01*
X1826259Y-4795388D01*
X1834793Y-4812526D01*
X1834793Y-4812527D01*
X1847280Y-4829062D01*
X1847280Y-4829063D01*
X1859901Y-4840567D01*
X1862594Y-4843022D01*
X1880212Y-4853931D01*
X1899534Y-4861416D01*
X1919902Y-4865224D01*
X1919903Y-4865224D01*
X1940623Y-4865224D01*
X1940624Y-4865224D01*
X1960992Y-4861416D01*
X1980315Y-4853931D01*
X1997932Y-4843022D01*
X2013246Y-4829062D01*
X2023639Y-4815300D01*
X2025733Y-4812527D01*
X2025733Y-4812526D01*
X2027458Y-4809062D01*
X2034969Y-4793977D01*
X2040640Y-4774047D01*
X2042552Y-4753414D01*
X2040640Y-4732781D01*
X2034969Y-4712850D01*
X2028812Y-4700484D01*
X2025733Y-4694301D01*
X2025733Y-4694301D01*
X2014045Y-4678823D01*
X2013246Y-4677765D01*
X2013246Y-4677765D01*
X2013246Y-4677765D01*
X1997932Y-4663805D01*
X1980315Y-4652897D01*
X1980315Y-4652897D01*
X1972159Y-4649737D01*
X1960992Y-4645411D01*
X1940624Y-4641604D01*
X1940624Y-4641604D01*
X1919902Y-4641604D01*
X1919902Y-4641604D01*
X1899534Y-4645411D01*
X1880211Y-4652897D01*
X1862594Y-4663805D01*
X1847280Y-4677765D01*
X1847280Y-4677765D01*
X1834793Y-4694301D01*
X1834793Y-4694301D01*
X1825557Y-4712851D01*
X1819886Y-4732780D01*
X1819886Y-4732781D01*
X1817974Y-4753414D01*
X1788552Y-4753414D01*
X1786640Y-4732781D01*
X1780969Y-4712850D01*
X1774812Y-4700484D01*
X1771733Y-4694301D01*
X1771733Y-4694301D01*
X1760045Y-4678823D01*
X1759246Y-4677765D01*
X1759246Y-4677765D01*
X1759246Y-4677765D01*
X1743932Y-4663805D01*
X1726315Y-4652897D01*
X1726315Y-4652897D01*
X1718159Y-4649737D01*
X1706992Y-4645411D01*
X1686624Y-4641604D01*
X1686624Y-4641604D01*
X1665902Y-4641604D01*
X1665902Y-4641604D01*
X1645534Y-4645411D01*
X1626211Y-4652897D01*
X1608594Y-4663805D01*
X1593280Y-4677765D01*
X1593280Y-4677765D01*
X1580793Y-4694301D01*
X1580793Y-4694301D01*
X1571557Y-4712851D01*
X1565886Y-4732780D01*
X1565886Y-4732781D01*
X1563974Y-4753414D01*
X1534552Y-4753414D01*
X1532640Y-4732781D01*
X1526969Y-4712850D01*
X1520812Y-4700484D01*
X1517733Y-4694301D01*
X1517733Y-4694301D01*
X1506045Y-4678823D01*
X1505246Y-4677765D01*
X1505246Y-4677765D01*
X1505246Y-4677765D01*
X1489932Y-4663805D01*
X1472315Y-4652897D01*
X1472315Y-4652897D01*
X1464159Y-4649737D01*
X1452992Y-4645411D01*
X1432624Y-4641604D01*
X1432624Y-4641604D01*
X1411902Y-4641604D01*
X1411902Y-4641604D01*
X1391534Y-4645411D01*
X1372211Y-4652897D01*
X1354594Y-4663805D01*
X1339281Y-4677765D01*
X1339281Y-4677765D01*
X1326793Y-4694301D01*
X1326793Y-4694301D01*
X1317557Y-4712851D01*
X1311886Y-4732780D01*
X1311886Y-4732781D01*
X1309974Y-4753414D01*
X1280552Y-4753414D01*
X1278640Y-4732781D01*
X1272970Y-4712850D01*
X1266812Y-4700484D01*
X1263733Y-4694301D01*
X1263733Y-4694301D01*
X1252045Y-4678823D01*
X1251246Y-4677765D01*
X1251246Y-4677765D01*
X1251246Y-4677765D01*
X1235932Y-4663805D01*
X1218315Y-4652897D01*
X1218315Y-4652897D01*
X1210159Y-4649737D01*
X1198993Y-4645411D01*
X1178624Y-4641604D01*
X1178624Y-4641604D01*
X1157902Y-4641604D01*
X1157902Y-4641604D01*
X1137534Y-4645411D01*
X1118211Y-4652897D01*
X1100594Y-4663805D01*
X1085281Y-4677765D01*
X1085281Y-4677765D01*
X1072793Y-4694301D01*
X1072793Y-4694301D01*
X1063557Y-4712851D01*
X1057886Y-4732780D01*
X1057886Y-4732781D01*
X1055974Y-4753414D01*
X164736Y-4753414D01*
X164770Y-4529954D01*
X2169612Y-4529954D01*
X2170814Y-4535996D01*
X2170814Y-4535997D01*
X2171342Y-4537273D01*
X2171343Y-4537273D01*
X2173403Y-4540841D01*
X2173403Y-4540842D01*
X2173403Y-4540842D01*
X2179887Y-4545818D01*
X2180914Y-4546243D01*
X2181163Y-4546346D01*
X2181164Y-4546346D01*
X2181164Y-4546346D01*
X2181164Y-4546346D01*
X2181165Y-4546347D01*
X2184205Y-4546951D01*
X2187207Y-4547549D01*
X2187207Y-4547549D01*
X2373596Y-4547549D01*
X2373597Y-4547549D01*
X2378078Y-4546657D01*
X2379639Y-4546347D01*
X2379639Y-4546347D01*
X2379640Y-4546346D01*
X2380916Y-4545818D01*
X2384485Y-4543757D01*
X2389461Y-4537273D01*
X2389990Y-4535997D01*
X2391192Y-4529954D01*
X2391192Y-4263564D01*
X2389990Y-4257521D01*
X2389461Y-4256244D01*
X2388021Y-4253750D01*
X2407994Y-4253750D01*
X2408536Y-4257520D01*
X2409848Y-4266641D01*
X2415258Y-4278487D01*
X2423786Y-4288330D01*
X2434742Y-4295371D01*
X2447238Y-4299040D01*
X2447239Y-4299040D01*
X2460262Y-4299040D01*
X2460262Y-4299040D01*
X2472758Y-4295371D01*
X2483714Y-4288330D01*
X2492242Y-4278487D01*
X2497652Y-4266641D01*
X2499506Y-4253750D01*
X2497652Y-4240859D01*
X2492242Y-4229013D01*
X2483714Y-4219170D01*
X2472758Y-4212129D01*
X2460262Y-4208460D01*
X2447238Y-4208460D01*
X2434742Y-4212129D01*
X2429264Y-4215650D01*
X2423786Y-4219170D01*
X2415258Y-4229013D01*
X2409848Y-4240859D01*
X2409848Y-4240860D01*
X2407994Y-4253750D01*
X2407994Y-4253750D01*
X2388021Y-4253750D01*
X2387401Y-4252676D01*
X2387400Y-4252675D01*
X2387400Y-4252675D01*
X2380916Y-4247699D01*
X2380491Y-4247523D01*
X2379640Y-4247171D01*
X2379639Y-4247170D01*
X2373597Y-4245969D01*
X2373597Y-4245969D01*
X2187207Y-4245969D01*
X2187206Y-4245969D01*
X2181165Y-4247170D01*
X2181164Y-4247171D01*
X2179888Y-4247699D01*
X2179887Y-4247700D01*
X2176319Y-4249760D01*
X2176319Y-4249760D01*
X2176318Y-4249760D01*
X2176318Y-4249760D01*
X2173257Y-4253750D01*
X2171343Y-4256244D01*
X2170814Y-4257520D01*
X2170814Y-4257521D01*
X2169612Y-4263563D01*
X2169612Y-4529954D01*
X164770Y-4529954D01*
X164833Y-4112759D01*
X2688646Y-4112759D01*
X2690330Y-4124472D01*
X2690499Y-4125649D01*
X2695910Y-4137496D01*
X2704438Y-4147338D01*
X2715394Y-4154379D01*
X2727890Y-4158048D01*
X2727890Y-4158048D01*
X2740913Y-4158048D01*
X2740913Y-4158048D01*
X2753409Y-4154379D01*
X2764365Y-4147338D01*
X2769200Y-4141759D01*
X4264646Y-4141759D01*
X4266461Y-4154379D01*
X4266499Y-4154649D01*
X4271910Y-4166496D01*
X4279299Y-4175024D01*
X4279736Y-4175528D01*
X4280438Y-4176338D01*
X4291394Y-4183379D01*
X4303890Y-4187048D01*
X4303890Y-4187048D01*
X4316913Y-4187048D01*
X4316913Y-4187048D01*
X4329409Y-4183379D01*
X4340365Y-4176338D01*
X4348894Y-4166496D01*
X4354304Y-4154649D01*
X4354973Y-4150000D01*
X5158507Y-4150000D01*
X5159176Y-4154649D01*
X5160361Y-4162891D01*
X5165771Y-4174737D01*
X5174300Y-4184580D01*
X5176525Y-4186010D01*
X5178699Y-4189141D01*
X5178813Y-4190200D01*
X5178813Y-4892623D01*
X5178717Y-4893594D01*
X5178315Y-4895620D01*
X5178315Y-4895620D01*
X5178765Y-4897886D01*
X5178765Y-4897887D01*
X5178813Y-4898127D01*
X5178813Y-4898127D01*
X5179156Y-4899850D01*
X5179275Y-4900450D01*
X5180290Y-4905550D01*
X5180290Y-4905550D01*
X5184494Y-4911843D01*
X5184494Y-4911843D01*
X5184495Y-4911843D01*
X5184495Y-4911844D01*
X5185915Y-4913968D01*
X5187632Y-4915116D01*
X5188386Y-4915735D01*
X5245287Y-4972635D01*
X5245906Y-4973390D01*
X5246982Y-4975000D01*
X5247053Y-4975107D01*
X5255472Y-4980732D01*
X5262895Y-4982209D01*
X5262895Y-4982209D01*
X5265402Y-4982707D01*
X5265402Y-4982707D01*
X5267427Y-4982304D01*
X5268398Y-4982209D01*
X7143003Y-4982209D01*
X7146525Y-4983667D01*
X7361178Y-5198320D01*
X7361797Y-5199075D01*
X7362945Y-5200792D01*
X7364954Y-5202135D01*
X7364956Y-5202136D01*
X7365070Y-5202212D01*
X7365070Y-5202212D01*
X7367822Y-5204051D01*
X7367822Y-5204051D01*
X7370188Y-5205632D01*
X7371363Y-5206417D01*
X7373888Y-5206920D01*
X7381293Y-5208393D01*
X7381293Y-5208393D01*
X7383319Y-5207990D01*
X7384290Y-5207894D01*
X7389283Y-5207894D01*
X7392804Y-5209353D01*
X7394263Y-5212874D01*
X7394263Y-6465414D01*
X7447514Y-6465414D01*
X7451035Y-6466872D01*
X7514535Y-6530372D01*
X7513541Y-6530515D01*
X7500253Y-6536583D01*
X7489213Y-6546149D01*
X7481315Y-6558438D01*
X7478919Y-6566599D01*
X7409204Y-6496884D01*
X7400234Y-6510614D01*
X7390595Y-6532587D01*
X7390595Y-6532588D01*
X7384705Y-6555846D01*
X7382724Y-6579758D01*
X7384705Y-6603670D01*
X7390595Y-6626929D01*
X7390595Y-6626930D01*
X7400233Y-6648902D01*
X7409204Y-6662633D01*
X7478919Y-6592918D01*
X7481315Y-6601079D01*
X7489213Y-6613367D01*
X7500253Y-6622934D01*
X7513541Y-6629002D01*
X7514534Y-6629145D01*
X7445032Y-6698647D01*
X7448541Y-6701379D01*
X7448541Y-6701379D01*
X7469643Y-6712798D01*
X7492337Y-6720589D01*
X7516003Y-6724538D01*
X7539997Y-6724538D01*
X7563663Y-6720589D01*
X7586357Y-6712798D01*
X7607459Y-6701379D01*
X7607459Y-6701378D01*
X7610968Y-6698647D01*
X7541465Y-6629145D01*
X7542459Y-6629002D01*
X7555747Y-6622934D01*
X7566787Y-6613367D01*
X7574684Y-6601079D01*
X7577081Y-6592918D01*
X7646796Y-6662633D01*
X7655766Y-6648902D01*
X7665404Y-6626930D01*
X7665405Y-6626929D01*
X7671295Y-6603670D01*
X7673276Y-6579758D01*
X7671295Y-6555846D01*
X7665405Y-6532588D01*
X7665404Y-6532587D01*
X7655766Y-6510615D01*
X7646796Y-6496884D01*
X7577080Y-6566599D01*
X7574684Y-6558438D01*
X7566787Y-6546149D01*
X7555747Y-6536583D01*
X7542459Y-6530515D01*
X7541465Y-6530372D01*
X7604965Y-6466872D01*
X7608486Y-6465414D01*
X7664263Y-6465414D01*
X7664263Y-5504586D01*
X8670737Y-5504586D01*
X8670737Y-6814586D01*
X8748445Y-6814586D01*
X8751966Y-6816045D01*
X8811535Y-6875614D01*
X8810541Y-6875756D01*
X8797253Y-6881825D01*
X8786213Y-6891391D01*
X8778316Y-6903680D01*
X8775919Y-6911840D01*
X8706204Y-6842125D01*
X8697234Y-6855856D01*
X8687596Y-6877828D01*
X8687595Y-6877829D01*
X8681705Y-6901088D01*
X8679724Y-6925000D01*
X8681705Y-6948912D01*
X8687595Y-6972170D01*
X8687596Y-6972172D01*
X8697233Y-6994144D01*
X8706204Y-7007874D01*
X8775919Y-6938159D01*
X8778316Y-6946320D01*
X8786213Y-6958609D01*
X8797253Y-6968175D01*
X8810541Y-6974243D01*
X8811535Y-6974386D01*
X8742032Y-7043889D01*
X8745541Y-7046620D01*
X8745541Y-7046620D01*
X8766643Y-7058040D01*
X8789337Y-7065831D01*
X8813003Y-7069780D01*
X8836997Y-7069780D01*
X8860663Y-7065831D01*
X8883357Y-7058040D01*
X8904459Y-7046620D01*
X8904459Y-7046620D01*
X8907968Y-7043889D01*
X8838465Y-6974386D01*
X8839459Y-6974243D01*
X8852747Y-6968175D01*
X8863787Y-6958609D01*
X8871685Y-6946320D01*
X8874081Y-6938159D01*
X8943796Y-7007874D01*
X8952767Y-6994144D01*
X8962404Y-6972172D01*
X8962405Y-6972170D01*
X8968295Y-6948912D01*
X8970276Y-6925000D01*
X8968295Y-6901088D01*
X8962405Y-6877829D01*
X8962404Y-6877828D01*
X8952767Y-6855856D01*
X8943796Y-6842125D01*
X8874081Y-6911840D01*
X8871685Y-6903680D01*
X8863787Y-6891391D01*
X8852747Y-6881825D01*
X8839459Y-6875756D01*
X8838465Y-6875613D01*
X8898034Y-6816045D01*
X8901556Y-6814586D01*
X8970737Y-6814586D01*
X8970737Y-6664586D01*
X9924981Y-6664586D01*
X9926821Y-6677386D01*
X9926835Y-6677477D01*
X9932245Y-6689324D01*
X9937405Y-6695278D01*
X9940615Y-6698984D01*
X9940773Y-6699166D01*
X9951729Y-6706207D01*
X9964225Y-6709876D01*
X9964225Y-6709876D01*
X9977248Y-6709876D01*
X9977249Y-6709876D01*
X9989745Y-6706207D01*
X10000701Y-6699166D01*
X10009229Y-6689324D01*
X10014639Y-6677477D01*
X10016493Y-6664586D01*
X10014639Y-6651695D01*
X10009229Y-6639849D01*
X10000701Y-6630006D01*
X9989745Y-6622965D01*
X9977249Y-6619296D01*
X9964225Y-6619296D01*
X9951729Y-6622965D01*
X9948972Y-6624737D01*
X9940773Y-6630006D01*
X9932245Y-6639849D01*
X9926835Y-6651695D01*
X9926835Y-6651696D01*
X9924981Y-6664586D01*
X9924981Y-6664586D01*
X8970737Y-6664586D01*
X8970737Y-5504586D01*
X8670737Y-5504586D01*
X7664263Y-5504586D01*
X7664263Y-5212874D01*
X7665722Y-5209353D01*
X7669243Y-5207894D01*
X7869559Y-5207894D01*
X7870530Y-5207990D01*
X7872556Y-5208393D01*
X7875170Y-5207872D01*
X7876142Y-5207777D01*
X10269722Y-5207777D01*
X10273244Y-5209235D01*
X10303091Y-5239083D01*
X10304550Y-5242605D01*
X10304550Y-5912003D01*
X10304454Y-5912974D01*
X10304051Y-5915000D01*
X10304051Y-5915000D01*
X10306027Y-5924930D01*
X10306027Y-5924930D01*
X10310231Y-5931223D01*
X10310231Y-5931223D01*
X10310232Y-5931223D01*
X10310232Y-5931224D01*
X10311652Y-5933348D01*
X10313368Y-5934495D01*
X10314123Y-5935115D01*
X10373709Y-5994701D01*
X10375168Y-5998222D01*
X10375117Y-5998931D01*
X10374244Y-6005000D01*
X10374244Y-6005000D01*
X10376098Y-6017891D01*
X10381508Y-6029737D01*
X10390036Y-6039580D01*
X10400992Y-6046621D01*
X10413488Y-6050290D01*
X10413489Y-6050290D01*
X10426512Y-6050290D01*
X10426512Y-6050290D01*
X10439008Y-6046621D01*
X10449964Y-6039580D01*
X10458492Y-6029737D01*
X10463902Y-6017891D01*
X10465756Y-6005000D01*
X10465037Y-6000000D01*
X10749244Y-6000000D01*
X10749963Y-6005000D01*
X10751098Y-6012891D01*
X10756508Y-6024737D01*
X10765036Y-6034580D01*
X10775992Y-6041621D01*
X10788488Y-6045290D01*
X10788489Y-6045290D01*
X10801512Y-6045290D01*
X10801512Y-6045290D01*
X10814008Y-6041621D01*
X10824964Y-6034580D01*
X10833492Y-6024737D01*
X10838902Y-6012891D01*
X10840756Y-6000000D01*
X10838902Y-5987109D01*
X10833492Y-5975263D01*
X10824964Y-5965420D01*
X10814008Y-5958379D01*
X10801512Y-5954710D01*
X10788488Y-5954710D01*
X10775992Y-5958379D01*
X10770514Y-5961900D01*
X10765036Y-5965420D01*
X10756508Y-5975263D01*
X10751098Y-5987109D01*
X10751098Y-5987109D01*
X10749244Y-6000000D01*
X10749244Y-6000000D01*
X10465037Y-6000000D01*
X10463902Y-5992109D01*
X10458492Y-5980263D01*
X10449964Y-5970420D01*
X10449964Y-5970420D01*
X10449963Y-5970420D01*
X10447288Y-5968700D01*
X10445114Y-5965569D01*
X10445000Y-5964511D01*
X10445000Y-5920090D01*
X10445000Y-5866395D01*
X10446216Y-5863134D01*
X10453492Y-5854737D01*
X10458902Y-5842891D01*
X10460662Y-5830649D01*
X10460756Y-5830000D01*
X10744244Y-5830000D01*
X10745942Y-5841811D01*
X10746098Y-5842891D01*
X10751508Y-5854737D01*
X10760036Y-5864580D01*
X10770992Y-5871621D01*
X10783488Y-5875290D01*
X10783489Y-5875290D01*
X10796512Y-5875290D01*
X10796512Y-5875290D01*
X10809008Y-5871621D01*
X10819964Y-5864580D01*
X10828492Y-5854737D01*
X10833902Y-5842891D01*
X10835662Y-5830649D01*
X10835756Y-5830000D01*
X10835756Y-5830000D01*
X10834059Y-5818196D01*
X10833902Y-5817109D01*
X10828492Y-5805263D01*
X10819964Y-5795420D01*
X10809008Y-5788379D01*
X10796512Y-5784710D01*
X10783488Y-5784710D01*
X10770992Y-5788379D01*
X10767148Y-5790850D01*
X10760036Y-5795420D01*
X10751508Y-5805263D01*
X10746098Y-5817109D01*
X10746098Y-5817109D01*
X10744244Y-5830000D01*
X10744244Y-5830000D01*
X10460756Y-5830000D01*
X10460756Y-5830000D01*
X10459059Y-5818196D01*
X10458902Y-5817109D01*
X10453492Y-5805263D01*
X10444964Y-5795420D01*
X10444964Y-5795420D01*
X10444963Y-5795420D01*
X10442738Y-5793989D01*
X10440564Y-5790859D01*
X10440450Y-5789800D01*
X10440450Y-5661750D01*
X10537494Y-5661750D01*
X10539348Y-5674641D01*
X10544758Y-5686487D01*
X10553286Y-5696330D01*
X10564242Y-5703371D01*
X10576738Y-5707040D01*
X10576739Y-5707040D01*
X10589762Y-5707040D01*
X10589762Y-5707040D01*
X10602258Y-5703371D01*
X10613214Y-5696330D01*
X10621742Y-5686487D01*
X10627152Y-5674641D01*
X10629006Y-5661750D01*
X10628754Y-5660000D01*
X11155000Y-5660000D01*
X11155000Y-6195000D01*
X11570000Y-6195000D01*
X11570000Y-5660000D01*
X11155000Y-5660000D01*
X10628754Y-5660000D01*
X10627152Y-5648859D01*
X10621742Y-5637013D01*
X10613214Y-5627170D01*
X10602258Y-5620129D01*
X10589762Y-5616460D01*
X10576738Y-5616460D01*
X10564242Y-5620129D01*
X10558764Y-5623650D01*
X10553286Y-5627170D01*
X10544758Y-5637012D01*
X10544758Y-5637013D01*
X10539348Y-5648859D01*
X10537494Y-5661750D01*
X10440450Y-5661750D01*
X10440450Y-5159147D01*
X10440546Y-5158176D01*
X10440949Y-5156151D01*
X10440450Y-5153644D01*
X10440450Y-5153644D01*
X10438973Y-5146221D01*
X10437043Y-5143331D01*
X10434768Y-5139927D01*
X10434768Y-5139927D01*
X10434693Y-5139814D01*
X10434691Y-5139812D01*
X10433348Y-5137802D01*
X10431631Y-5136655D01*
X10430877Y-5136036D01*
X10368964Y-5074123D01*
X10368345Y-5073368D01*
X10367198Y-5071652D01*
X10365276Y-5070368D01*
X10365275Y-5070367D01*
X10358779Y-5066027D01*
X10348849Y-5064051D01*
X10346824Y-5064454D01*
X10345852Y-5064550D01*
X7901454Y-5064550D01*
X7897932Y-5063091D01*
X7745722Y-4910881D01*
X7745103Y-4910127D01*
X7743956Y-4908410D01*
X7742034Y-4907126D01*
X7742034Y-4907125D01*
X7735538Y-4902785D01*
X7725608Y-4900810D01*
X7723582Y-4901213D01*
X7722611Y-4901309D01*
X7644497Y-4901309D01*
X7640975Y-4899850D01*
X7639517Y-4896329D01*
X7640833Y-4892956D01*
X7642643Y-4890989D01*
X7655766Y-4870902D01*
X7665404Y-4848930D01*
X7665405Y-4848929D01*
X7671295Y-4825670D01*
X7673276Y-4801759D01*
X7671295Y-4777847D01*
X7670058Y-4772964D01*
X8761469Y-4772964D01*
X8764513Y-4800630D01*
X8764513Y-4800631D01*
X8771461Y-4827209D01*
X8771553Y-4827560D01*
X8771553Y-4827561D01*
X8782439Y-4853177D01*
X8782439Y-4853177D01*
X8783847Y-4855484D01*
X8796939Y-4876936D01*
X8796939Y-4876937D01*
X8808541Y-4890877D01*
X8814574Y-4898127D01*
X8814744Y-4898331D01*
X8835474Y-4916906D01*
X8835475Y-4916906D01*
X8840380Y-4920151D01*
X8858688Y-4932264D01*
X8858689Y-4932264D01*
X8858689Y-4932264D01*
X8883890Y-4944078D01*
X8883891Y-4944078D01*
X8910544Y-4952097D01*
X8910545Y-4952097D01*
X8910545Y-4952097D01*
X8938083Y-4956150D01*
X8938083Y-4956150D01*
X8958950Y-4956150D01*
X8968198Y-4955473D01*
X8979760Y-4954627D01*
X9006929Y-4948575D01*
X9032926Y-4938632D01*
X9057199Y-4925009D01*
X9079230Y-4907997D01*
X9098549Y-4887959D01*
X9114745Y-4865322D01*
X9127472Y-4840568D01*
X9136459Y-4814224D01*
X9141515Y-4786853D01*
X9142022Y-4772964D01*
X11047469Y-4772964D01*
X11050513Y-4800630D01*
X11050513Y-4800631D01*
X11057461Y-4827209D01*
X11057553Y-4827560D01*
X11057553Y-4827561D01*
X11068439Y-4853177D01*
X11068439Y-4853177D01*
X11069847Y-4855484D01*
X11082939Y-4876936D01*
X11082939Y-4876937D01*
X11094541Y-4890877D01*
X11100574Y-4898127D01*
X11100744Y-4898331D01*
X11121474Y-4916906D01*
X11121475Y-4916906D01*
X11126380Y-4920151D01*
X11144688Y-4932264D01*
X11144689Y-4932264D01*
X11144689Y-4932264D01*
X11169890Y-4944078D01*
X11169891Y-4944078D01*
X11196544Y-4952097D01*
X11196545Y-4952097D01*
X11196545Y-4952097D01*
X11224083Y-4956150D01*
X11224083Y-4956150D01*
X11244950Y-4956150D01*
X11254198Y-4955473D01*
X11265760Y-4954627D01*
X11292929Y-4948575D01*
X11318926Y-4938632D01*
X11343199Y-4925009D01*
X11365230Y-4907997D01*
X11384549Y-4887959D01*
X11400745Y-4865322D01*
X11413472Y-4840568D01*
X11422459Y-4814224D01*
X11427515Y-4786853D01*
X11428531Y-4759037D01*
X11425487Y-4731369D01*
X11418447Y-4704440D01*
X11407561Y-4678823D01*
X11393061Y-4655064D01*
X11375256Y-4633669D01*
X11375108Y-4633537D01*
X11354525Y-4615094D01*
X11354525Y-4615094D01*
X11331311Y-4599736D01*
X11306110Y-4587922D01*
X11306108Y-4587922D01*
X11279456Y-4579903D01*
X11279455Y-4579903D01*
X11251917Y-4575850D01*
X11251917Y-4575850D01*
X11231051Y-4575850D01*
X11231050Y-4575850D01*
X11210241Y-4577373D01*
X11210240Y-4577373D01*
X11210240Y-4577373D01*
X11196122Y-4580518D01*
X11183071Y-4583425D01*
X11183071Y-4583425D01*
X11157074Y-4593368D01*
X11157073Y-4593369D01*
X11132800Y-4606991D01*
X11110770Y-4624003D01*
X11091451Y-4644041D01*
X11083565Y-4655064D01*
X11075296Y-4666621D01*
X11075255Y-4666678D01*
X11062528Y-4691433D01*
X11053541Y-4717776D01*
X11048485Y-4745147D01*
X11047469Y-4772963D01*
X11047469Y-4772964D01*
X9142022Y-4772964D01*
X9142531Y-4759037D01*
X9139487Y-4731369D01*
X9132447Y-4704440D01*
X9121561Y-4678823D01*
X9107061Y-4655064D01*
X9089256Y-4633669D01*
X9089108Y-4633537D01*
X9068526Y-4615094D01*
X9068525Y-4615094D01*
X9045311Y-4599736D01*
X9020110Y-4587922D01*
X9020109Y-4587922D01*
X8993456Y-4579903D01*
X8993455Y-4579903D01*
X8965918Y-4575850D01*
X8965917Y-4575850D01*
X8945051Y-4575850D01*
X8945050Y-4575850D01*
X8924241Y-4577373D01*
X8924240Y-4577373D01*
X8924240Y-4577373D01*
X8910122Y-4580518D01*
X8897071Y-4583425D01*
X8897071Y-4583425D01*
X8871074Y-4593368D01*
X8871073Y-4593369D01*
X8846800Y-4606991D01*
X8824770Y-4624003D01*
X8805451Y-4644041D01*
X8797565Y-4655064D01*
X8789296Y-4666621D01*
X8789255Y-4666678D01*
X8776528Y-4691433D01*
X8767541Y-4717776D01*
X8762485Y-4745147D01*
X8761469Y-4772963D01*
X8761469Y-4772964D01*
X7670058Y-4772964D01*
X7665405Y-4754588D01*
X7665404Y-4754587D01*
X7655766Y-4732615D01*
X7642643Y-4712528D01*
X7640833Y-4710561D01*
X7639521Y-4706983D01*
X7641124Y-4703525D01*
X7644497Y-4702209D01*
X8115567Y-4702209D01*
X8116539Y-4702304D01*
X8118565Y-4702707D01*
X8128495Y-4700732D01*
X8134788Y-4696527D01*
X8134788Y-4696527D01*
X8135138Y-4696293D01*
X8135139Y-4696292D01*
X8136913Y-4695107D01*
X8138060Y-4693390D01*
X8138679Y-4692636D01*
X8409820Y-4421495D01*
X8413342Y-4420036D01*
X10017740Y-4420036D01*
X10018711Y-4420132D01*
X10020737Y-4420535D01*
X10030667Y-4418560D01*
X10036960Y-4414355D01*
X10036960Y-4414355D01*
X10037311Y-4414120D01*
X10037312Y-4414120D01*
X10039085Y-4412935D01*
X10040233Y-4411217D01*
X10040851Y-4410464D01*
X10096614Y-4354701D01*
X10097368Y-4354082D01*
X10099085Y-4352935D01*
X10100270Y-4351161D01*
X10100271Y-4351160D01*
X10101140Y-4349860D01*
X10104710Y-4344516D01*
X10105200Y-4342053D01*
X10106187Y-4337093D01*
X10106187Y-4337093D01*
X10106234Y-4336854D01*
X10106234Y-4336853D01*
X10106685Y-4334586D01*
X10106283Y-4332561D01*
X10106187Y-4331590D01*
X10106187Y-4174786D01*
X10107646Y-4171265D01*
X10108474Y-4170597D01*
X10110701Y-4169166D01*
X10119229Y-4159324D01*
X10123487Y-4150000D01*
X10753721Y-4150000D01*
X10755634Y-4175527D01*
X10755634Y-4175528D01*
X10761330Y-4200484D01*
X10770683Y-4224315D01*
X10783483Y-4246485D01*
X10787525Y-4251554D01*
X10868557Y-4170522D01*
X10872590Y-4180259D01*
X10882208Y-4192792D01*
X10894741Y-4202410D01*
X10904478Y-4206443D01*
X10823442Y-4287479D01*
X10823442Y-4287479D01*
X10839361Y-4298332D01*
X10862424Y-4309439D01*
X10886886Y-4316984D01*
X10886887Y-4316985D01*
X10912201Y-4320800D01*
X10937799Y-4320800D01*
X10963113Y-4316985D01*
X10963114Y-4316984D01*
X10987575Y-4309439D01*
X10987576Y-4309439D01*
X11010639Y-4298332D01*
X11010639Y-4298332D01*
X11026558Y-4287479D01*
X11026558Y-4287479D01*
X10945522Y-4206443D01*
X10955259Y-4202410D01*
X10967793Y-4192792D01*
X10977410Y-4180259D01*
X10981443Y-4170522D01*
X11062475Y-4251554D01*
X11062475Y-4251554D01*
X11066517Y-4246485D01*
X11079317Y-4224315D01*
X11088670Y-4200484D01*
X11094366Y-4175528D01*
X11094366Y-4175527D01*
X11096279Y-4150000D01*
X11094366Y-4124473D01*
X11094366Y-4124472D01*
X11088670Y-4099515D01*
X11079317Y-4075685D01*
X11066517Y-4053515D01*
X11062475Y-4048446D01*
X10981443Y-4129478D01*
X10977410Y-4119741D01*
X10967793Y-4107207D01*
X10955259Y-4097590D01*
X10945522Y-4093557D01*
X11026558Y-4012521D01*
X11010639Y-4001668D01*
X10987576Y-3990561D01*
X10987575Y-3990561D01*
X10963114Y-3983015D01*
X10963113Y-3983015D01*
X10937799Y-3979200D01*
X10912201Y-3979200D01*
X10886887Y-3983015D01*
X10886886Y-3983015D01*
X10862424Y-3990561D01*
X10862424Y-3990561D01*
X10839361Y-4001668D01*
X10823442Y-4012521D01*
X10823442Y-4012521D01*
X10904478Y-4093557D01*
X10894741Y-4097590D01*
X10882208Y-4107207D01*
X10872590Y-4119741D01*
X10868557Y-4129478D01*
X10787525Y-4048446D01*
X10787525Y-4048446D01*
X10783483Y-4053515D01*
X10770683Y-4075685D01*
X10761330Y-4099515D01*
X10755634Y-4124472D01*
X10755634Y-4124473D01*
X10753721Y-4150000D01*
X10123487Y-4150000D01*
X10124639Y-4147477D01*
X10126493Y-4134586D01*
X10124639Y-4121695D01*
X10119229Y-4109849D01*
X10110701Y-4100006D01*
X10099745Y-4092965D01*
X10087249Y-4089296D01*
X10074225Y-4089296D01*
X10061729Y-4092965D01*
X10056278Y-4096468D01*
X10050773Y-4100006D01*
X10042245Y-4109849D01*
X10036835Y-4121695D01*
X10036835Y-4121696D01*
X10034981Y-4134586D01*
X10034981Y-4134586D01*
X10036815Y-4147338D01*
X10036835Y-4147477D01*
X10042245Y-4159324D01*
X10050773Y-4169166D01*
X10052999Y-4170596D01*
X10055173Y-4173727D01*
X10055287Y-4174786D01*
X10055287Y-4321982D01*
X10053828Y-4325503D01*
X10011654Y-4367678D01*
X10008132Y-4369136D01*
X8403734Y-4369136D01*
X8402763Y-4369041D01*
X8400737Y-4368638D01*
X8390807Y-4370613D01*
X8384513Y-4374818D01*
X8384457Y-4374856D01*
X8384457Y-4374855D01*
X8382389Y-4376238D01*
X8382388Y-4376238D01*
X8381241Y-4377955D01*
X8380622Y-4378709D01*
X8109481Y-4649850D01*
X8105960Y-4651309D01*
X7685382Y-4651309D01*
X7681860Y-4649850D01*
X7680402Y-4646329D01*
X7680402Y-4450865D01*
X7681860Y-4447344D01*
X7685382Y-4445885D01*
X8241891Y-4445885D01*
X8242862Y-4445981D01*
X8244888Y-4446384D01*
X8254818Y-4444408D01*
X8261111Y-4440203D01*
X8261111Y-4440203D01*
X8261462Y-4439969D01*
X8261463Y-4439968D01*
X8263236Y-4438783D01*
X8264384Y-4437066D01*
X8265002Y-4436312D01*
X8359820Y-4341495D01*
X8363341Y-4340036D01*
X9747740Y-4340036D01*
X9748711Y-4340132D01*
X9750737Y-4340535D01*
X9750737Y-4340535D01*
X9753687Y-4339948D01*
X9756636Y-4339361D01*
X9760667Y-4338560D01*
X9766960Y-4334355D01*
X9766960Y-4334355D01*
X9767311Y-4334120D01*
X9767312Y-4334120D01*
X9769085Y-4332935D01*
X9770233Y-4331217D01*
X9770851Y-4330464D01*
X9886614Y-4214701D01*
X9887368Y-4214082D01*
X9889085Y-4212935D01*
X9890270Y-4211161D01*
X9890271Y-4211160D01*
X9890505Y-4210810D01*
X9894710Y-4204516D01*
X9895775Y-4199166D01*
X9896187Y-4197093D01*
X9896187Y-4197093D01*
X9896234Y-4196854D01*
X9896234Y-4196853D01*
X9896685Y-4194586D01*
X9896283Y-4192561D01*
X9896187Y-4191589D01*
X9896187Y-3844079D01*
X9896187Y-3800000D01*
X10789246Y-3800000D01*
X10791098Y-3822344D01*
X10791098Y-3822345D01*
X10796602Y-3844079D01*
X10796602Y-3844079D01*
X10805608Y-3864611D01*
X10805608Y-3864612D01*
X10817871Y-3883382D01*
X10833057Y-3899877D01*
X10850750Y-3913648D01*
X10870468Y-3924320D01*
X10891674Y-3931600D01*
X10913790Y-3935290D01*
X10936211Y-3935290D01*
X10958326Y-3931600D01*
X10979532Y-3924320D01*
X10999250Y-3913648D01*
X11016944Y-3899877D01*
X11032129Y-3883382D01*
X11044392Y-3864612D01*
X11053398Y-3844079D01*
X11058902Y-3822344D01*
X11060754Y-3800000D01*
X11058902Y-3777656D01*
X11056792Y-3769324D01*
X11053398Y-3755921D01*
X11053398Y-3755921D01*
X11044392Y-3735389D01*
X11041979Y-3731696D01*
X11032129Y-3716618D01*
X11016944Y-3700123D01*
X10999250Y-3686352D01*
X10979532Y-3675680D01*
X10958326Y-3668400D01*
X10958325Y-3668400D01*
X10958325Y-3668400D01*
X10936211Y-3664710D01*
X10913790Y-3664710D01*
X10891675Y-3668400D01*
X10870468Y-3675680D01*
X10850750Y-3686352D01*
X10833057Y-3700123D01*
X10817871Y-3716618D01*
X10805608Y-3735389D01*
X10796602Y-3755921D01*
X10796602Y-3755921D01*
X10791098Y-3777655D01*
X10791098Y-3777656D01*
X10789246Y-3800000D01*
X9896187Y-3800000D01*
X9896187Y-3494786D01*
X9897645Y-3491265D01*
X9898474Y-3490597D01*
X9900701Y-3489166D01*
X9909229Y-3479324D01*
X9914639Y-3467477D01*
X9916493Y-3454586D01*
X9916086Y-3451758D01*
X9915833Y-3450000D01*
X10789246Y-3450000D01*
X10791098Y-3472344D01*
X10791098Y-3472345D01*
X10796602Y-3494079D01*
X10796602Y-3494079D01*
X10805608Y-3514611D01*
X10805608Y-3514612D01*
X10817871Y-3533382D01*
X10833057Y-3549877D01*
X10850750Y-3563648D01*
X10870468Y-3574320D01*
X10891674Y-3581600D01*
X10913790Y-3585290D01*
X10936211Y-3585290D01*
X10958326Y-3581600D01*
X10979532Y-3574320D01*
X10999250Y-3563648D01*
X11016944Y-3549877D01*
X11032129Y-3533382D01*
X11044392Y-3514612D01*
X11053398Y-3494079D01*
X11058902Y-3472344D01*
X11060754Y-3450000D01*
X11058902Y-3427656D01*
X11058857Y-3427477D01*
X11053398Y-3405921D01*
X11053398Y-3405921D01*
X11044392Y-3385389D01*
X11043055Y-3383342D01*
X11032129Y-3366618D01*
X11016944Y-3350123D01*
X11016786Y-3350000D01*
X11006265Y-3341811D01*
X10999250Y-3336352D01*
X10979532Y-3325680D01*
X10958326Y-3318400D01*
X10958325Y-3318400D01*
X10958325Y-3318400D01*
X10936211Y-3314710D01*
X10913790Y-3314710D01*
X10891675Y-3318400D01*
X10870468Y-3325680D01*
X10850750Y-3336352D01*
X10833057Y-3350123D01*
X10817871Y-3366618D01*
X10805608Y-3385389D01*
X10796602Y-3405921D01*
X10796602Y-3405921D01*
X10791098Y-3427655D01*
X10791098Y-3427656D01*
X10789246Y-3450000D01*
X9915833Y-3450000D01*
X9915713Y-3449166D01*
X9914639Y-3441695D01*
X9909229Y-3429849D01*
X9900701Y-3420006D01*
X9889745Y-3412965D01*
X9877249Y-3409296D01*
X9864225Y-3409296D01*
X9851729Y-3412965D01*
X9846251Y-3416486D01*
X9840773Y-3420006D01*
X9832245Y-3429849D01*
X9826835Y-3441695D01*
X9826835Y-3441696D01*
X9824981Y-3454586D01*
X9824981Y-3454586D01*
X9826671Y-3466338D01*
X9826835Y-3467477D01*
X9832245Y-3479324D01*
X9840228Y-3488536D01*
X9840773Y-3489166D01*
X9842999Y-3490596D01*
X9845173Y-3493727D01*
X9845287Y-3494786D01*
X9845287Y-4181982D01*
X9843828Y-4185503D01*
X9741654Y-4287678D01*
X9738132Y-4289136D01*
X8353734Y-4289136D01*
X8352762Y-4289041D01*
X8350737Y-4288638D01*
X8348230Y-4289136D01*
X8339536Y-4290865D01*
X8339408Y-4291290D01*
X8338325Y-4292271D01*
X8334479Y-4294841D01*
X8334474Y-4294844D01*
X8332389Y-4296238D01*
X8332388Y-4296238D01*
X8331241Y-4297955D01*
X8330622Y-4298709D01*
X8235805Y-4393526D01*
X8232283Y-4394985D01*
X7685382Y-4394985D01*
X7681860Y-4393526D01*
X7680402Y-4390005D01*
X7680402Y-4164586D01*
X8174981Y-4164586D01*
X8176671Y-4176338D01*
X8176835Y-4177477D01*
X8182245Y-4189324D01*
X8190773Y-4199166D01*
X8201729Y-4206207D01*
X8214225Y-4209876D01*
X8214225Y-4209876D01*
X8227248Y-4209876D01*
X8227249Y-4209876D01*
X8239744Y-4206207D01*
X8250700Y-4199166D01*
X8259229Y-4189324D01*
X8264639Y-4177477D01*
X8266493Y-4164586D01*
X8266249Y-4162891D01*
X8265736Y-4159324D01*
X8264639Y-4151695D01*
X8259229Y-4139849D01*
X8250700Y-4130006D01*
X8239744Y-4122965D01*
X8227249Y-4119296D01*
X8214225Y-4119296D01*
X8201729Y-4122965D01*
X8197553Y-4125649D01*
X8190773Y-4130006D01*
X8182245Y-4139849D01*
X8176835Y-4151695D01*
X8176834Y-4151696D01*
X8174981Y-4164586D01*
X8174981Y-4164586D01*
X7680402Y-4164586D01*
X7680402Y-4010000D01*
X8284981Y-4010000D01*
X8285915Y-4016496D01*
X8286835Y-4022891D01*
X8292245Y-4034737D01*
X8300773Y-4044580D01*
X8311729Y-4051621D01*
X8324225Y-4055290D01*
X8324225Y-4055290D01*
X8337248Y-4055290D01*
X8337249Y-4055290D01*
X8349744Y-4051621D01*
X8360700Y-4044580D01*
X8369229Y-4034737D01*
X8374639Y-4022891D01*
X8376493Y-4010000D01*
X8374639Y-3997109D01*
X8369229Y-3985263D01*
X8360700Y-3975420D01*
X8349744Y-3968379D01*
X8337249Y-3964710D01*
X8324225Y-3964710D01*
X8311729Y-3968379D01*
X8306251Y-3971900D01*
X8300773Y-3975420D01*
X8292245Y-3985263D01*
X8286835Y-3997109D01*
X8286834Y-3997109D01*
X8284981Y-4010000D01*
X8284981Y-4010000D01*
X7680402Y-4010000D01*
X7680402Y-3948728D01*
X8394781Y-3948728D01*
X8396634Y-3961618D01*
X8402044Y-3973465D01*
X8410573Y-3983307D01*
X8421529Y-3990348D01*
X8434025Y-3994018D01*
X8434025Y-3994018D01*
X8447048Y-3994018D01*
X8447048Y-3994018D01*
X8459544Y-3990348D01*
X8470500Y-3983307D01*
X8479028Y-3973465D01*
X8484439Y-3961618D01*
X8486292Y-3948728D01*
X8484439Y-3935837D01*
X8479028Y-3923990D01*
X8470500Y-3914148D01*
X8459544Y-3907107D01*
X8447048Y-3903438D01*
X8434025Y-3903438D01*
X8421529Y-3907107D01*
X8416051Y-3910627D01*
X8410573Y-3914148D01*
X8402044Y-3923990D01*
X8402044Y-3923990D01*
X8396634Y-3935837D01*
X8394781Y-3948728D01*
X7680402Y-3948728D01*
X7680402Y-3926758D01*
X7410402Y-3926758D01*
X7410402Y-4390005D01*
X7408943Y-4393526D01*
X7405422Y-4394985D01*
X5483040Y-4394985D01*
X5479518Y-4393526D01*
X5437310Y-4351319D01*
X5435852Y-4347797D01*
X5435852Y-4181958D01*
X5437310Y-4178437D01*
X5438139Y-4177769D01*
X5440365Y-4176338D01*
X5448894Y-4166496D01*
X5454304Y-4154649D01*
X5456157Y-4141758D01*
X5456125Y-4141536D01*
X5455126Y-4134586D01*
X5454304Y-4128868D01*
X5448894Y-4117021D01*
X5440365Y-4107179D01*
X5429409Y-4100138D01*
X5416913Y-4096468D01*
X5403890Y-4096468D01*
X5391394Y-4100138D01*
X5385916Y-4103658D01*
X5380438Y-4107179D01*
X5371910Y-4117021D01*
X5366499Y-4128868D01*
X5366499Y-4128868D01*
X5364646Y-4141758D01*
X5364646Y-4141759D01*
X5366461Y-4154379D01*
X5366499Y-4154649D01*
X5371910Y-4166496D01*
X5380438Y-4176338D01*
X5382664Y-4177769D01*
X5384838Y-4180900D01*
X5384952Y-4181958D01*
X5384952Y-4357405D01*
X5384856Y-4358376D01*
X5384453Y-4360402D01*
X5384453Y-4360402D01*
X5386428Y-4370332D01*
X5386428Y-4370332D01*
X5390633Y-4376624D01*
X5390633Y-4376625D01*
X5390633Y-4376625D01*
X5390634Y-4376625D01*
X5392053Y-4378750D01*
X5393770Y-4379897D01*
X5394525Y-4380516D01*
X5450320Y-4436312D01*
X5450939Y-4437066D01*
X5452087Y-4438783D01*
X5453861Y-4439969D01*
X5454096Y-4440126D01*
X5454099Y-4440128D01*
X5454212Y-4440203D01*
X5460505Y-4444408D01*
X5468410Y-4445981D01*
X5470435Y-4446384D01*
X5470435Y-4446384D01*
X5470435Y-4446384D01*
X5472461Y-4445981D01*
X5473432Y-4445885D01*
X7405422Y-4445885D01*
X7408943Y-4447344D01*
X7410402Y-4450865D01*
X7410402Y-4646329D01*
X7408943Y-4649850D01*
X7405422Y-4651309D01*
X6434363Y-4651309D01*
X6430842Y-4649850D01*
X6416291Y-4635299D01*
X6414832Y-4631778D01*
X6414883Y-4631070D01*
X6415756Y-4625000D01*
X6413902Y-4612109D01*
X6408492Y-4600263D01*
X6399964Y-4590420D01*
X6389008Y-4583379D01*
X6376512Y-4579710D01*
X6363488Y-4579710D01*
X6350992Y-4583379D01*
X6345514Y-4586900D01*
X6340036Y-4590420D01*
X6331508Y-4600263D01*
X6326098Y-4612109D01*
X6326098Y-4612110D01*
X6324244Y-4625000D01*
X6324244Y-4625000D01*
X6325725Y-4635299D01*
X6326098Y-4637891D01*
X6331508Y-4649737D01*
X6340036Y-4659580D01*
X6350992Y-4666621D01*
X6363488Y-4670290D01*
X6363488Y-4670290D01*
X6376868Y-4670290D01*
X6376868Y-4670394D01*
X6380172Y-4671236D01*
X6380710Y-4671702D01*
X6391187Y-4682179D01*
X6401643Y-4692635D01*
X6402263Y-4693390D01*
X6403410Y-4695107D01*
X6405185Y-4696293D01*
X6405419Y-4696450D01*
X6405422Y-4696451D01*
X6409794Y-4699373D01*
X6411828Y-4700732D01*
X6419733Y-4702304D01*
X6421758Y-4702707D01*
X6421758Y-4702707D01*
X6421758Y-4702707D01*
X6423784Y-4702304D01*
X6424756Y-4702209D01*
X7411503Y-4702209D01*
X7415025Y-4703667D01*
X7416483Y-4707189D01*
X7415167Y-4710561D01*
X7413357Y-4712528D01*
X7400233Y-4732615D01*
X7390595Y-4754587D01*
X7390595Y-4754588D01*
X7384705Y-4777847D01*
X7382724Y-4801758D01*
X7384705Y-4825670D01*
X7390595Y-4848929D01*
X7390595Y-4848930D01*
X7400233Y-4870902D01*
X7413357Y-4890989D01*
X7415167Y-4892956D01*
X7416479Y-4896534D01*
X7414876Y-4899992D01*
X7411503Y-4901309D01*
X7393109Y-4901309D01*
X7389588Y-4899850D01*
X7348861Y-4859123D01*
X7348242Y-4858369D01*
X7347095Y-4856652D01*
X7345173Y-4855368D01*
X7345172Y-4855367D01*
X7338676Y-4851027D01*
X7328746Y-4849051D01*
X7326721Y-4849454D01*
X7325749Y-4849550D01*
X5420382Y-4849550D01*
X5416860Y-4848091D01*
X5415402Y-4844570D01*
X5415402Y-4816759D01*
X5365402Y-4816759D01*
X5363456Y-4816759D01*
X5359935Y-4815300D01*
X5311172Y-4766537D01*
X5309713Y-4763015D01*
X5309713Y-4716759D01*
X6144646Y-4716759D01*
X6146499Y-4729649D01*
X6151910Y-4741496D01*
X6160438Y-4751338D01*
X6171394Y-4758379D01*
X6183890Y-4762049D01*
X6183890Y-4762049D01*
X6196913Y-4762049D01*
X6196913Y-4762049D01*
X6209409Y-4758379D01*
X6220365Y-4751338D01*
X6228894Y-4741496D01*
X6234304Y-4729649D01*
X6236157Y-4716759D01*
X6234304Y-4703868D01*
X6228894Y-4692021D01*
X6220365Y-4682179D01*
X6209409Y-4675138D01*
X6196913Y-4671469D01*
X6183890Y-4671469D01*
X6171394Y-4675138D01*
X6167306Y-4677765D01*
X6160438Y-4682179D01*
X6151910Y-4692021D01*
X6146499Y-4703868D01*
X6146499Y-4703868D01*
X6144646Y-4716758D01*
X6144646Y-4716759D01*
X5309713Y-4716759D01*
X5309713Y-4593409D01*
X5539261Y-4593409D01*
X5540171Y-4599736D01*
X5541114Y-4606300D01*
X5546525Y-4618146D01*
X5555053Y-4627989D01*
X5566009Y-4635030D01*
X5578505Y-4638699D01*
X5578505Y-4638699D01*
X5591528Y-4638699D01*
X5591528Y-4638699D01*
X5604024Y-4635030D01*
X5614980Y-4627989D01*
X5623509Y-4618146D01*
X5628919Y-4606300D01*
X5630772Y-4593409D01*
X5630766Y-4593368D01*
X5629983Y-4587922D01*
X5628919Y-4580518D01*
X5623509Y-4568672D01*
X5614980Y-4558829D01*
X5604024Y-4551788D01*
X5591528Y-4548119D01*
X5578505Y-4548119D01*
X5566009Y-4551788D01*
X5560531Y-4555309D01*
X5555053Y-4558829D01*
X5546525Y-4568672D01*
X5541114Y-4580518D01*
X5541114Y-4580519D01*
X5539261Y-4593409D01*
X5539261Y-4593409D01*
X5309713Y-4593409D01*
X5309713Y-4525000D01*
X5449244Y-4525000D01*
X5450825Y-4535997D01*
X5451098Y-4537891D01*
X5456508Y-4549737D01*
X5465036Y-4559580D01*
X5475992Y-4566621D01*
X5488488Y-4570290D01*
X5488489Y-4570290D01*
X5501512Y-4570290D01*
X5501512Y-4570290D01*
X5514008Y-4566621D01*
X5524964Y-4559580D01*
X5533492Y-4549737D01*
X5538902Y-4537891D01*
X5540756Y-4525000D01*
X5538902Y-4512109D01*
X5533492Y-4500263D01*
X5524964Y-4490420D01*
X5514008Y-4483379D01*
X5501512Y-4479710D01*
X5488488Y-4479710D01*
X5475992Y-4483379D01*
X5470514Y-4486900D01*
X5465036Y-4490420D01*
X5456508Y-4500263D01*
X5451098Y-4512109D01*
X5451098Y-4512110D01*
X5449244Y-4525000D01*
X5449244Y-4525000D01*
X5309713Y-4525000D01*
X5309713Y-4115614D01*
X5311172Y-4112092D01*
X5312001Y-4111424D01*
X5314227Y-4109994D01*
X5322755Y-4100151D01*
X5328165Y-4088305D01*
X5330019Y-4075414D01*
X5518507Y-4075414D01*
X5520361Y-4088305D01*
X5525771Y-4100151D01*
X5534300Y-4109994D01*
X5545256Y-4117035D01*
X5557751Y-4120704D01*
X5557752Y-4120704D01*
X5570775Y-4120704D01*
X5570775Y-4120704D01*
X5583271Y-4117035D01*
X5594227Y-4109994D01*
X5602755Y-4100151D01*
X5608165Y-4088305D01*
X5610019Y-4075414D01*
X5608165Y-4062523D01*
X5602755Y-4050676D01*
X5594227Y-4040834D01*
X5583271Y-4033793D01*
X5570775Y-4030124D01*
X5557751Y-4030124D01*
X5545256Y-4033793D01*
X5543786Y-4034737D01*
X5534299Y-4040834D01*
X5525771Y-4050676D01*
X5520361Y-4062523D01*
X5520361Y-4062523D01*
X5518929Y-4072485D01*
X5518507Y-4075414D01*
X5330019Y-4075414D01*
X5328165Y-4062523D01*
X5322755Y-4050676D01*
X5314227Y-4040834D01*
X5303271Y-4033793D01*
X5290775Y-4030124D01*
X5277751Y-4030124D01*
X5265256Y-4033793D01*
X5263786Y-4034737D01*
X5254299Y-4040834D01*
X5245771Y-4050676D01*
X5240361Y-4062523D01*
X5240361Y-4062523D01*
X5238929Y-4072485D01*
X5238507Y-4075414D01*
X5240361Y-4088305D01*
X5245771Y-4100151D01*
X5254300Y-4109994D01*
X5256525Y-4111424D01*
X5258699Y-4114555D01*
X5258813Y-4115614D01*
X5258813Y-4141536D01*
X5257355Y-4145057D01*
X5253833Y-4146516D01*
X5250312Y-4145057D01*
X5248904Y-4142245D01*
X5248221Y-4137496D01*
X5248165Y-4137109D01*
X5242755Y-4125263D01*
X5234227Y-4115420D01*
X5223271Y-4108379D01*
X5210775Y-4104710D01*
X5197751Y-4104710D01*
X5185256Y-4108379D01*
X5182743Y-4109994D01*
X5174299Y-4115420D01*
X5165771Y-4125263D01*
X5160361Y-4137109D01*
X5160361Y-4137109D01*
X5158507Y-4150000D01*
X5158507Y-4150000D01*
X4354973Y-4150000D01*
X4356157Y-4141758D01*
X4356125Y-4141536D01*
X4355126Y-4134586D01*
X4354304Y-4128868D01*
X4348894Y-4117021D01*
X4340365Y-4107179D01*
X4329409Y-4100138D01*
X4316913Y-4096468D01*
X4303890Y-4096468D01*
X4291394Y-4100138D01*
X4285916Y-4103658D01*
X4280438Y-4107179D01*
X4271910Y-4117021D01*
X4266499Y-4128868D01*
X4266499Y-4128868D01*
X4264646Y-4141758D01*
X4264646Y-4141759D01*
X2769200Y-4141759D01*
X2772894Y-4137496D01*
X2778304Y-4125649D01*
X2780157Y-4112758D01*
X2779966Y-4111424D01*
X2779000Y-4104710D01*
X2778304Y-4099868D01*
X2772894Y-4088021D01*
X2764365Y-4078179D01*
X2753409Y-4071138D01*
X2740913Y-4067468D01*
X2727890Y-4067468D01*
X2715394Y-4071138D01*
X2709916Y-4074658D01*
X2704438Y-4078179D01*
X2695910Y-4088021D01*
X2690499Y-4099868D01*
X2690499Y-4099868D01*
X2688646Y-4112758D01*
X2688646Y-4112759D01*
X164833Y-4112759D01*
X164846Y-4024586D01*
X1754981Y-4024586D01*
X1755568Y-4028665D01*
X1756835Y-4037477D01*
X1762245Y-4049324D01*
X1770773Y-4059166D01*
X1781729Y-4066207D01*
X1794225Y-4069876D01*
X1794225Y-4069876D01*
X1807248Y-4069876D01*
X1807249Y-4069876D01*
X1819744Y-4066207D01*
X1830700Y-4059166D01*
X1831804Y-4057892D01*
X1834204Y-4055123D01*
X1837613Y-4053416D01*
X1837968Y-4053404D01*
X4920607Y-4053404D01*
X4924128Y-4054862D01*
X4937521Y-4068255D01*
X4938979Y-4071776D01*
X4938928Y-4072485D01*
X4938507Y-4075414D01*
X4938507Y-4075414D01*
X4940361Y-4088305D01*
X4945771Y-4100151D01*
X4954300Y-4109994D01*
X4965256Y-4117035D01*
X4977751Y-4120704D01*
X4977752Y-4120704D01*
X4990775Y-4120704D01*
X4990775Y-4120704D01*
X5003271Y-4117035D01*
X5014227Y-4109994D01*
X5022755Y-4100151D01*
X5028165Y-4088305D01*
X5030019Y-4075414D01*
X5028165Y-4062523D01*
X5022755Y-4050676D01*
X5014227Y-4040834D01*
X5003271Y-4033793D01*
X4990775Y-4030124D01*
X4990775Y-4030124D01*
X4980620Y-4030124D01*
X4977098Y-4028665D01*
X4957858Y-4009425D01*
X4957275Y-4008614D01*
X4957265Y-4008622D01*
X4956987Y-4008254D01*
X4953641Y-4005204D01*
X4953558Y-4005124D01*
X4952221Y-4003788D01*
X4951827Y-4003518D01*
X4951557Y-4003304D01*
X4950459Y-4002303D01*
X4949253Y-4001204D01*
X4949253Y-4001204D01*
X4947941Y-4000696D01*
X4946926Y-4000160D01*
X4946471Y-3999849D01*
X4945765Y-3999365D01*
X4945764Y-3999365D01*
X4945764Y-3999365D01*
X4942731Y-3998652D01*
X4942402Y-3998550D01*
X4939495Y-3997424D01*
X4938088Y-3997424D01*
X4936948Y-3997291D01*
X4936645Y-3997220D01*
X4935578Y-3996969D01*
X4933437Y-3997268D01*
X4932492Y-3997400D01*
X4932148Y-3997424D01*
X1839402Y-3997424D01*
X1835881Y-3995965D01*
X1835638Y-3995705D01*
X1832219Y-3991759D01*
X7129646Y-3991759D01*
X7131375Y-4003788D01*
X7131499Y-4004649D01*
X7136910Y-4016496D01*
X7145438Y-4026338D01*
X7156394Y-4033379D01*
X7168890Y-4037048D01*
X7168890Y-4037048D01*
X7181913Y-4037048D01*
X7181913Y-4037048D01*
X7194409Y-4033379D01*
X7205365Y-4026338D01*
X7213894Y-4016496D01*
X7219304Y-4004649D01*
X7221157Y-3991758D01*
X7220985Y-3990561D01*
X7220223Y-3985263D01*
X7219304Y-3978868D01*
X7213894Y-3967021D01*
X7205365Y-3957179D01*
X7194409Y-3950138D01*
X7181913Y-3946468D01*
X7168890Y-3946468D01*
X7156394Y-3950138D01*
X7150916Y-3953658D01*
X7145438Y-3957179D01*
X7136910Y-3967021D01*
X7131499Y-3978868D01*
X7131499Y-3978868D01*
X7129646Y-3991758D01*
X7129646Y-3991759D01*
X1832219Y-3991759D01*
X1830701Y-3990006D01*
X1830701Y-3990006D01*
X1830700Y-3990006D01*
X1819744Y-3982965D01*
X1807249Y-3979296D01*
X1794225Y-3979296D01*
X1781729Y-3982965D01*
X1776251Y-3986486D01*
X1770773Y-3990006D01*
X1762245Y-3999849D01*
X1756835Y-4011695D01*
X1756834Y-4011696D01*
X1754981Y-4024586D01*
X1754981Y-4024586D01*
X164846Y-4024586D01*
X164876Y-3824586D01*
X4779646Y-3824586D01*
X4781499Y-3837477D01*
X4786910Y-3849324D01*
X4795438Y-3859166D01*
X4806394Y-3866207D01*
X4818890Y-3869876D01*
X4818890Y-3869876D01*
X4831913Y-3869876D01*
X4831913Y-3869876D01*
X4844409Y-3866207D01*
X4855365Y-3859166D01*
X4857401Y-3856817D01*
X4861787Y-3851755D01*
X4865195Y-3850049D01*
X4865551Y-3850036D01*
X7967740Y-3850036D01*
X7968711Y-3850132D01*
X7970737Y-3850535D01*
X7980667Y-3848560D01*
X7986960Y-3844355D01*
X7986960Y-3844354D01*
X7987311Y-3844120D01*
X7987312Y-3844119D01*
X7989085Y-3842935D01*
X7990233Y-3841217D01*
X7990851Y-3840463D01*
X8034993Y-3796322D01*
X8038511Y-3794864D01*
X8530737Y-3794586D01*
X8530737Y-3486777D01*
X8994579Y-3486777D01*
X8996108Y-3500676D01*
X8997541Y-3513702D01*
X9003973Y-3538305D01*
X9004393Y-3539909D01*
X9004393Y-3539909D01*
X9014481Y-3563648D01*
X9014987Y-3564839D01*
X9020773Y-3574319D01*
X9029098Y-3587961D01*
X9029098Y-3587961D01*
X9046426Y-3608782D01*
X9066600Y-3626858D01*
X9066600Y-3626858D01*
X9072573Y-3630810D01*
X9089191Y-3641804D01*
X9089191Y-3641804D01*
X9089191Y-3641805D01*
X9113717Y-3653302D01*
X9113718Y-3653302D01*
X9139656Y-3661106D01*
X9139657Y-3661106D01*
X9139657Y-3661106D01*
X9166456Y-3665050D01*
X9166457Y-3665050D01*
X9186764Y-3665050D01*
X9195764Y-3664391D01*
X9207016Y-3663568D01*
X9233455Y-3657678D01*
X9258756Y-3648001D01*
X9282378Y-3634744D01*
X9303818Y-3618189D01*
X9322619Y-3598688D01*
X9338380Y-3576658D01*
X9350766Y-3552567D01*
X9359512Y-3526930D01*
X9364432Y-3500293D01*
X9365421Y-3473223D01*
X9362459Y-3446298D01*
X9355607Y-3420091D01*
X9345013Y-3395161D01*
X9330902Y-3372039D01*
X9328619Y-3369296D01*
X9321975Y-3361312D01*
X9313575Y-3351218D01*
X9312215Y-3350000D01*
X9293400Y-3333142D01*
X9293400Y-3333141D01*
X9271118Y-3318400D01*
X9270809Y-3318196D01*
X9270809Y-3318195D01*
X9270809Y-3318195D01*
X9246283Y-3306698D01*
X9246282Y-3306698D01*
X9220344Y-3298894D01*
X9220343Y-3298894D01*
X9193544Y-3294950D01*
X9193544Y-3294950D01*
X9173237Y-3294950D01*
X9173236Y-3294950D01*
X9152985Y-3296432D01*
X9152985Y-3296432D01*
X9152984Y-3296432D01*
X9138542Y-3299649D01*
X9126545Y-3302322D01*
X9126544Y-3302322D01*
X9101244Y-3311998D01*
X9101244Y-3311999D01*
X9077622Y-3325256D01*
X9056182Y-3341811D01*
X9037381Y-3361312D01*
X9021620Y-3383342D01*
X9009234Y-3407432D01*
X9000488Y-3433070D01*
X8995568Y-3459707D01*
X8994579Y-3486776D01*
X8994579Y-3486777D01*
X8530737Y-3486777D01*
X8530737Y-3239586D01*
X8505058Y-3239586D01*
X8501536Y-3238128D01*
X8500078Y-3234606D01*
X8501394Y-3231233D01*
X8502269Y-3230282D01*
X8508004Y-3221505D01*
X10789710Y-3221505D01*
X10789710Y-3221506D01*
X10790597Y-3225966D01*
X10790597Y-3225966D01*
X10793976Y-3231023D01*
X10793977Y-3231023D01*
X10799034Y-3234403D01*
X10803494Y-3235290D01*
X11046506Y-3235290D01*
X11050966Y-3234403D01*
X11056023Y-3231023D01*
X11059403Y-3225966D01*
X11060290Y-3221506D01*
X11060290Y-2978494D01*
X11059403Y-2974034D01*
X11059403Y-2974034D01*
X11059403Y-2974034D01*
X11056024Y-2968977D01*
X11056023Y-2968976D01*
X11050966Y-2965597D01*
X11046506Y-2964710D01*
X11046506Y-2964710D01*
X10803495Y-2964710D01*
X10803494Y-2964710D01*
X10800149Y-2965375D01*
X10799034Y-2965597D01*
X10799034Y-2965597D01*
X10799034Y-2965597D01*
X10793977Y-2968976D01*
X10793976Y-2968977D01*
X10790597Y-2974034D01*
X10790597Y-2974034D01*
X10789710Y-2978494D01*
X10789710Y-3221505D01*
X8508004Y-3221505D01*
X8514579Y-3211441D01*
X8523619Y-3190831D01*
X8523619Y-3190831D01*
X8528391Y-3171986D01*
X8437849Y-3171986D01*
X8440686Y-3167571D01*
X8444737Y-3153775D01*
X8444737Y-3139397D01*
X8440686Y-3125602D01*
X8437849Y-3121186D01*
X8528391Y-3121186D01*
X8528391Y-3121186D01*
X8523619Y-3102341D01*
X8523619Y-3102341D01*
X8514579Y-3081731D01*
X8502269Y-3062890D01*
X8487027Y-3046332D01*
X8469267Y-3032509D01*
X8449474Y-3021798D01*
X8428188Y-3014490D01*
X8428188Y-3014490D01*
X8420137Y-3013147D01*
X8420137Y-3103219D01*
X8408968Y-3098118D01*
X8398313Y-3096586D01*
X8391161Y-3096586D01*
X8380505Y-3098118D01*
X8369337Y-3103219D01*
X8369337Y-3013147D01*
X8361286Y-3014490D01*
X8361286Y-3014490D01*
X8340000Y-3021798D01*
X8320207Y-3032509D01*
X8318776Y-3033623D01*
X8315101Y-3034635D01*
X8311787Y-3032752D01*
X8310737Y-3029693D01*
X8310737Y-3019586D01*
X8004798Y-3019586D01*
X8004798Y-3752471D01*
X8003339Y-3755992D01*
X7961654Y-3797678D01*
X7958132Y-3799136D01*
X5980348Y-3799136D01*
X5976827Y-3797678D01*
X5975368Y-3794156D01*
X5976827Y-3790635D01*
X5978945Y-3789378D01*
X5989744Y-3786207D01*
X6000700Y-3779166D01*
X6009229Y-3769324D01*
X6014639Y-3757477D01*
X6016493Y-3744586D01*
X6014639Y-3731695D01*
X6009229Y-3719849D01*
X6000700Y-3710006D01*
X5989744Y-3702965D01*
X5977249Y-3699296D01*
X5964225Y-3699296D01*
X5951729Y-3702965D01*
X5948031Y-3705342D01*
X5940773Y-3710006D01*
X5932245Y-3719849D01*
X5926835Y-3731695D01*
X5926834Y-3731696D01*
X5925606Y-3740238D01*
X5924981Y-3744586D01*
X5926835Y-3757477D01*
X5932245Y-3769324D01*
X5940773Y-3779166D01*
X5951729Y-3786207D01*
X5962528Y-3789378D01*
X5965496Y-3791770D01*
X5965904Y-3795559D01*
X5963512Y-3798527D01*
X5961125Y-3799136D01*
X4984274Y-3799136D01*
X4980752Y-3797678D01*
X4979294Y-3794156D01*
X4980752Y-3790635D01*
X4981581Y-3789967D01*
X4989964Y-3784580D01*
X4998492Y-3774737D01*
X5003902Y-3762891D01*
X5005756Y-3750000D01*
X5004883Y-3743931D01*
X5005826Y-3740238D01*
X5006032Y-3740000D01*
X5504244Y-3740000D01*
X5505682Y-3750000D01*
X5506098Y-3752891D01*
X5511508Y-3764737D01*
X5520036Y-3774580D01*
X5530992Y-3781621D01*
X5543488Y-3785290D01*
X5543489Y-3785290D01*
X5556512Y-3785290D01*
X5556512Y-3785290D01*
X5569008Y-3781621D01*
X5579964Y-3774580D01*
X5588492Y-3764737D01*
X5593902Y-3752891D01*
X5595756Y-3740000D01*
X5593902Y-3727109D01*
X5588492Y-3715263D01*
X5579964Y-3705420D01*
X5569008Y-3698379D01*
X5556512Y-3694710D01*
X5543488Y-3694710D01*
X5530992Y-3698379D01*
X5528279Y-3700123D01*
X5520036Y-3705420D01*
X5511508Y-3715263D01*
X5506098Y-3727109D01*
X5506098Y-3727109D01*
X5504244Y-3740000D01*
X5504244Y-3740000D01*
X5006032Y-3740000D01*
X5006290Y-3739701D01*
X5062325Y-3683667D01*
X5065846Y-3682208D01*
X7775567Y-3682208D01*
X7776539Y-3682304D01*
X7778565Y-3682707D01*
X7788495Y-3680732D01*
X7794788Y-3676527D01*
X7794788Y-3676527D01*
X7795138Y-3676293D01*
X7795139Y-3676292D01*
X7796913Y-3675107D01*
X7798060Y-3673390D01*
X7798679Y-3672636D01*
X7836614Y-3634701D01*
X7837368Y-3634082D01*
X7839085Y-3632935D01*
X7844710Y-3624516D01*
X7846187Y-3617093D01*
X7846187Y-3617093D01*
X7846234Y-3616854D01*
X7846234Y-3616853D01*
X7846685Y-3614586D01*
X7846283Y-3612561D01*
X7846187Y-3611589D01*
X7846187Y-3454786D01*
X7847645Y-3451265D01*
X7848474Y-3450597D01*
X7850700Y-3449166D01*
X7859229Y-3439324D01*
X7864639Y-3427477D01*
X7866493Y-3414586D01*
X7864639Y-3401695D01*
X7859229Y-3389849D01*
X7850700Y-3380006D01*
X7839744Y-3372965D01*
X7827249Y-3369296D01*
X7814225Y-3369296D01*
X7801729Y-3372965D01*
X7796251Y-3376486D01*
X7790773Y-3380006D01*
X7782245Y-3389849D01*
X7776835Y-3401695D01*
X7776834Y-3401696D01*
X7774981Y-3414586D01*
X7774981Y-3414586D01*
X7775597Y-3418868D01*
X7776835Y-3427477D01*
X7782245Y-3439324D01*
X7790773Y-3449166D01*
X7792999Y-3450596D01*
X7795173Y-3453727D01*
X7795287Y-3454786D01*
X7795287Y-3601982D01*
X7793828Y-3605503D01*
X7769481Y-3629850D01*
X7765960Y-3631308D01*
X5056239Y-3631308D01*
X5055267Y-3631213D01*
X5053242Y-3630810D01*
X5043311Y-3632785D01*
X5037018Y-3636990D01*
X5036962Y-3637028D01*
X5036962Y-3637028D01*
X5034893Y-3638410D01*
X5034893Y-3638410D01*
X5033746Y-3640127D01*
X5033127Y-3640881D01*
X4970710Y-3703298D01*
X4967189Y-3704756D01*
X4966543Y-3704710D01*
X4966512Y-3704710D01*
X4953488Y-3704710D01*
X4940992Y-3708379D01*
X4935514Y-3711900D01*
X4930036Y-3715420D01*
X4921508Y-3725263D01*
X4916098Y-3737109D01*
X4916098Y-3737109D01*
X4914244Y-3750000D01*
X4914244Y-3750000D01*
X4915319Y-3757477D01*
X4916098Y-3762891D01*
X4921508Y-3774737D01*
X4930036Y-3784580D01*
X4938419Y-3789967D01*
X4940593Y-3793098D01*
X4939916Y-3796849D01*
X4936785Y-3799022D01*
X4935726Y-3799136D01*
X4865551Y-3799136D01*
X4862029Y-3797678D01*
X4861787Y-3797417D01*
X4855366Y-3790006D01*
X4855365Y-3790006D01*
X4855365Y-3790006D01*
X4844409Y-3782965D01*
X4831913Y-3779296D01*
X4818890Y-3779296D01*
X4806394Y-3782965D01*
X4803882Y-3784580D01*
X4795438Y-3790006D01*
X4786910Y-3799849D01*
X4781499Y-3811695D01*
X4781499Y-3811696D01*
X4779646Y-3824586D01*
X4779646Y-3824586D01*
X164876Y-3824586D01*
X164921Y-3525414D01*
X3994981Y-3525414D01*
X3995199Y-3526930D01*
X3996835Y-3538305D01*
X4002245Y-3550151D01*
X4010773Y-3559994D01*
X4021729Y-3567035D01*
X4034225Y-3570704D01*
X4034225Y-3570704D01*
X4047248Y-3570704D01*
X4047249Y-3570704D01*
X4059744Y-3567035D01*
X4070700Y-3559994D01*
X4072736Y-3557645D01*
X4077122Y-3552583D01*
X4080531Y-3550876D01*
X4080886Y-3550864D01*
X5295852Y-3550864D01*
X5296824Y-3550959D01*
X5298849Y-3551362D01*
X5308779Y-3549387D01*
X5315073Y-3545182D01*
X5315073Y-3545182D01*
X5315423Y-3544948D01*
X5315424Y-3544947D01*
X5317198Y-3543762D01*
X5318345Y-3542045D01*
X5318964Y-3541291D01*
X5333553Y-3526702D01*
X5337074Y-3525244D01*
X5337720Y-3525290D01*
X5337751Y-3525290D01*
X5350775Y-3525290D01*
X5350775Y-3525290D01*
X5363271Y-3521621D01*
X5374227Y-3514580D01*
X5382755Y-3504737D01*
X5388165Y-3492891D01*
X5390019Y-3480000D01*
X5389922Y-3479323D01*
X5389044Y-3473223D01*
X5388165Y-3467109D01*
X5382755Y-3455263D01*
X5379719Y-3451759D01*
X6144521Y-3451759D01*
X6145664Y-3459707D01*
X6146374Y-3464649D01*
X6151785Y-3476496D01*
X6160313Y-3486338D01*
X6171269Y-3493379D01*
X6183765Y-3497048D01*
X6183765Y-3497048D01*
X6196788Y-3497048D01*
X6196788Y-3497048D01*
X6209284Y-3493379D01*
X6220240Y-3486338D01*
X6228769Y-3476496D01*
X6234179Y-3464649D01*
X6236032Y-3451758D01*
X6235865Y-3450596D01*
X6235010Y-3444649D01*
X6234179Y-3438868D01*
X6230932Y-3431759D01*
X6979646Y-3431759D01*
X6981075Y-3441695D01*
X6981499Y-3444649D01*
X6986910Y-3456496D01*
X6995438Y-3466338D01*
X7006394Y-3473379D01*
X7018890Y-3477048D01*
X7018890Y-3477048D01*
X7031913Y-3477048D01*
X7031913Y-3477048D01*
X7044409Y-3473379D01*
X7055365Y-3466338D01*
X7063894Y-3456496D01*
X7069304Y-3444649D01*
X7071157Y-3431758D01*
X7070707Y-3428624D01*
X7069480Y-3420091D01*
X7069304Y-3418868D01*
X7063894Y-3407021D01*
X7055365Y-3397179D01*
X7044409Y-3390138D01*
X7031913Y-3386468D01*
X7018890Y-3386468D01*
X7006394Y-3390138D01*
X7000916Y-3393658D01*
X6995438Y-3397179D01*
X6986910Y-3407021D01*
X6981499Y-3418868D01*
X6981499Y-3418868D01*
X6979646Y-3431758D01*
X6979646Y-3431759D01*
X6230932Y-3431759D01*
X6228769Y-3427021D01*
X6220240Y-3417179D01*
X6209284Y-3410138D01*
X6196788Y-3406468D01*
X6183765Y-3406468D01*
X6171269Y-3410138D01*
X6166869Y-3412965D01*
X6160313Y-3417179D01*
X6151785Y-3427021D01*
X6146374Y-3438868D01*
X6146374Y-3438868D01*
X6144521Y-3451758D01*
X6144521Y-3451759D01*
X5379719Y-3451759D01*
X5374227Y-3445420D01*
X5363271Y-3438379D01*
X5350775Y-3434710D01*
X5337751Y-3434710D01*
X5325256Y-3438379D01*
X5323786Y-3439324D01*
X5314299Y-3445420D01*
X5305771Y-3455263D01*
X5300361Y-3467109D01*
X5300361Y-3467109D01*
X5298507Y-3480000D01*
X5298507Y-3480000D01*
X5299380Y-3486069D01*
X5298437Y-3489762D01*
X5297972Y-3490299D01*
X5289766Y-3498505D01*
X5286245Y-3499964D01*
X4080886Y-3499964D01*
X4077364Y-3498505D01*
X4077122Y-3498245D01*
X4070701Y-3490834D01*
X4070701Y-3490834D01*
X4070700Y-3490834D01*
X4059744Y-3483793D01*
X4047249Y-3480124D01*
X4034225Y-3480124D01*
X4021729Y-3483793D01*
X4017087Y-3486776D01*
X4010773Y-3490834D01*
X4002245Y-3500676D01*
X3996835Y-3512523D01*
X3996834Y-3512523D01*
X3994981Y-3525414D01*
X3994981Y-3525414D01*
X164921Y-3525414D01*
X164947Y-3350000D01*
X1979213Y-3350000D01*
X1981197Y-3368876D01*
X1984129Y-3377901D01*
X1987062Y-3386927D01*
X1987062Y-3386927D01*
X1996551Y-3403363D01*
X1996551Y-3403363D01*
X2009251Y-3417468D01*
X2024606Y-3428624D01*
X2041945Y-3436344D01*
X2060510Y-3440290D01*
X2060510Y-3440290D01*
X2079490Y-3440290D01*
X2079490Y-3440290D01*
X2098055Y-3436344D01*
X2115394Y-3428624D01*
X2130749Y-3417468D01*
X2143449Y-3403363D01*
X2152938Y-3386926D01*
X2158803Y-3368876D01*
X2160787Y-3350000D01*
X2158803Y-3331124D01*
X2152938Y-3313073D01*
X2143449Y-3296637D01*
X2130749Y-3282532D01*
X2115394Y-3271376D01*
X2098055Y-3263656D01*
X2079490Y-3259710D01*
X2060510Y-3259710D01*
X2052618Y-3261387D01*
X2041945Y-3263656D01*
X2041945Y-3263656D01*
X2041945Y-3263656D01*
X2024606Y-3271376D01*
X2024606Y-3271376D01*
X2024606Y-3271376D01*
X2009252Y-3282532D01*
X2009251Y-3282532D01*
X2009251Y-3282532D01*
X2005446Y-3286758D01*
X1996551Y-3296637D01*
X1996551Y-3296637D01*
X1987062Y-3313073D01*
X1987062Y-3313073D01*
X1981197Y-3331124D01*
X1980073Y-3341811D01*
X1979213Y-3350000D01*
X164947Y-3350000D01*
X164965Y-3231779D01*
X2386997Y-3231779D01*
X2388199Y-3237820D01*
X2388199Y-3237821D01*
X2388199Y-3237821D01*
X2388199Y-3237821D01*
X2389657Y-3241341D01*
X2389658Y-3241343D01*
X2391718Y-3244912D01*
X2391718Y-3244912D01*
X2391719Y-3244912D01*
X2394736Y-3247228D01*
X2398203Y-3249888D01*
X2398203Y-3249888D01*
X2401724Y-3251347D01*
X2401725Y-3251347D01*
X2401725Y-3251347D01*
X2403793Y-3251758D01*
X2407767Y-3252548D01*
X2407767Y-3252548D01*
X2677807Y-3252548D01*
X2677807Y-3252548D01*
X2683849Y-3251347D01*
X2687371Y-3249888D01*
X2690941Y-3247827D01*
X2693695Y-3244237D01*
X2696996Y-3242331D01*
X2697646Y-3242288D01*
X4030693Y-3242288D01*
X4034214Y-3243747D01*
X4073208Y-3282740D01*
X4074666Y-3286262D01*
X4074646Y-3286544D01*
X4074646Y-3286759D01*
X4076066Y-3296637D01*
X4076499Y-3299649D01*
X4081910Y-3311496D01*
X4090438Y-3321338D01*
X4101394Y-3328379D01*
X4113890Y-3332048D01*
X4113890Y-3332048D01*
X4126913Y-3332048D01*
X4126913Y-3332048D01*
X4139409Y-3328379D01*
X4150365Y-3321338D01*
X4158894Y-3311496D01*
X4164304Y-3299649D01*
X4166157Y-3286758D01*
X4166127Y-3286544D01*
X4165539Y-3282461D01*
X4164304Y-3273868D01*
X4158894Y-3262021D01*
X4150365Y-3252179D01*
X4139409Y-3245138D01*
X4126913Y-3241468D01*
X4126913Y-3241468D01*
X4120350Y-3241468D01*
X4116829Y-3240010D01*
X4071085Y-3194266D01*
X4070467Y-3193408D01*
X4070465Y-3193409D01*
X4070187Y-3193042D01*
X4070187Y-3193041D01*
X4070187Y-3193041D01*
X4066533Y-3189710D01*
X4066450Y-3189631D01*
X4065719Y-3188900D01*
X4064989Y-3188170D01*
X4064546Y-3187867D01*
X4064276Y-3187653D01*
X4061752Y-3185352D01*
X4060271Y-3184778D01*
X4059256Y-3184243D01*
X4057947Y-3183346D01*
X4057947Y-3183346D01*
X4054623Y-3182564D01*
X4054293Y-3182462D01*
X4051109Y-3181228D01*
X4051109Y-3181228D01*
X4049521Y-3181228D01*
X4048381Y-3181096D01*
X4048042Y-3181016D01*
X4046836Y-3180733D01*
X4044516Y-3181056D01*
X4043454Y-3181205D01*
X4043110Y-3181228D01*
X3998891Y-3181228D01*
X3995370Y-3179770D01*
X3993911Y-3176248D01*
X3995370Y-3172727D01*
X3996198Y-3172059D01*
X3997055Y-3171509D01*
X7039896Y-3171509D01*
X7041598Y-3183346D01*
X7041749Y-3184399D01*
X7047160Y-3196246D01*
X7055688Y-3206088D01*
X7066644Y-3213129D01*
X7079140Y-3216798D01*
X7079140Y-3216798D01*
X7092163Y-3216798D01*
X7092163Y-3216798D01*
X7104659Y-3213129D01*
X7115615Y-3206088D01*
X7124144Y-3196246D01*
X7129554Y-3184399D01*
X7131407Y-3171508D01*
X7131216Y-3170177D01*
X7129655Y-3159324D01*
X7129554Y-3158618D01*
X7124144Y-3146771D01*
X7115615Y-3136929D01*
X7104659Y-3129888D01*
X7092163Y-3126218D01*
X7079140Y-3126218D01*
X7066644Y-3129888D01*
X7064701Y-3131136D01*
X7055688Y-3136929D01*
X7047160Y-3146771D01*
X7041749Y-3158618D01*
X7041749Y-3158618D01*
X7039896Y-3171508D01*
X7039896Y-3171509D01*
X3997055Y-3171509D01*
X4000700Y-3169166D01*
X4009229Y-3159324D01*
X4014639Y-3147477D01*
X4016493Y-3134586D01*
X4014639Y-3121695D01*
X4009229Y-3109849D01*
X4000700Y-3100006D01*
X3989744Y-3092965D01*
X3977249Y-3089296D01*
X3964225Y-3089296D01*
X3951729Y-3092965D01*
X3946832Y-3096113D01*
X3940773Y-3100006D01*
X3932245Y-3109849D01*
X3926835Y-3121695D01*
X3926834Y-3121696D01*
X3925738Y-3129323D01*
X3924981Y-3134586D01*
X3926835Y-3147477D01*
X3932245Y-3159324D01*
X3940773Y-3169166D01*
X3945275Y-3172059D01*
X3947449Y-3175190D01*
X3946772Y-3178941D01*
X3943641Y-3181115D01*
X3942582Y-3181228D01*
X3242806Y-3181228D01*
X3239284Y-3179770D01*
X3237826Y-3176285D01*
X3237016Y-3064586D01*
X6834981Y-3064586D01*
X6836652Y-3076207D01*
X6836835Y-3077477D01*
X6842245Y-3089324D01*
X6850773Y-3099166D01*
X6861729Y-3106207D01*
X6874225Y-3109876D01*
X6874225Y-3109876D01*
X6887248Y-3109876D01*
X6887249Y-3109876D01*
X6899744Y-3106207D01*
X6910700Y-3099166D01*
X6919229Y-3089324D01*
X6924639Y-3077477D01*
X6926493Y-3064586D01*
X6924639Y-3051695D01*
X6919229Y-3039849D01*
X6910700Y-3030006D01*
X6899744Y-3022965D01*
X6887249Y-3019296D01*
X6874225Y-3019296D01*
X6861729Y-3022965D01*
X6857919Y-3025414D01*
X6850773Y-3030006D01*
X6842245Y-3039849D01*
X6836835Y-3051695D01*
X6836834Y-3051696D01*
X6834981Y-3064586D01*
X6834981Y-3064586D01*
X3237016Y-3064586D01*
X3236837Y-3039849D01*
X3236402Y-2979764D01*
X3237835Y-2976233D01*
X3241345Y-2974749D01*
X3241382Y-2974748D01*
X4272454Y-2974748D01*
X4275975Y-2976207D01*
X4276217Y-2976467D01*
X4280438Y-2981338D01*
X4280438Y-2981338D01*
X4291394Y-2988379D01*
X4303890Y-2992048D01*
X4303890Y-2992048D01*
X4316913Y-2992048D01*
X4316913Y-2992048D01*
X4329409Y-2988379D01*
X4340365Y-2981338D01*
X4341729Y-2979765D01*
X4344586Y-2976467D01*
X4347995Y-2974761D01*
X4348350Y-2974748D01*
X4613121Y-2974748D01*
X4616643Y-2976207D01*
X4616885Y-2976467D01*
X4616910Y-2976496D01*
X4616910Y-2976496D01*
X4625438Y-2986338D01*
X4636394Y-2993379D01*
X4648890Y-2997048D01*
X4648890Y-2997048D01*
X4661913Y-2997048D01*
X4661913Y-2997048D01*
X4674409Y-2993379D01*
X4685365Y-2986338D01*
X4693894Y-2976496D01*
X4693894Y-2976496D01*
X4693919Y-2976467D01*
X4697327Y-2974761D01*
X4697682Y-2974748D01*
X4898121Y-2974748D01*
X4901643Y-2976207D01*
X4901885Y-2976467D01*
X4901910Y-2976496D01*
X4901910Y-2976496D01*
X4910438Y-2986338D01*
X4921394Y-2993379D01*
X4933890Y-2997048D01*
X4933890Y-2997048D01*
X4946913Y-2997048D01*
X4946913Y-2997048D01*
X4959409Y-2993379D01*
X4970365Y-2986338D01*
X4970366Y-2986338D01*
X4970634Y-2986105D01*
X4970738Y-2986225D01*
X4973662Y-2984761D01*
X4974017Y-2984748D01*
X5102454Y-2984748D01*
X5105975Y-2986207D01*
X5106217Y-2986467D01*
X5110438Y-2991338D01*
X5110438Y-2991338D01*
X5121394Y-2998379D01*
X5133890Y-3002048D01*
X5133890Y-3002048D01*
X5146913Y-3002048D01*
X5146913Y-3002048D01*
X5159409Y-2998379D01*
X5170365Y-2991338D01*
X5171715Y-2989781D01*
X5174586Y-2986467D01*
X5177995Y-2984761D01*
X5178350Y-2984748D01*
X6164282Y-2984748D01*
X6166974Y-2985539D01*
X6168419Y-2986467D01*
X6171394Y-2988379D01*
X6183890Y-2992048D01*
X6183890Y-2992048D01*
X6196913Y-2992048D01*
X6196913Y-2992048D01*
X6209409Y-2988379D01*
X6220365Y-2981338D01*
X6222830Y-2978494D01*
X6226787Y-2973927D01*
X6230195Y-2972221D01*
X6230551Y-2972208D01*
X7660305Y-2972208D01*
X7663826Y-2973667D01*
X7673828Y-2983669D01*
X7675287Y-2987191D01*
X7675287Y-2994386D01*
X7673828Y-2997908D01*
X7672999Y-2998576D01*
X7670773Y-3000006D01*
X7662245Y-3009849D01*
X7656835Y-3021695D01*
X7656834Y-3021696D01*
X7654981Y-3034586D01*
X7654981Y-3034586D01*
X7656835Y-3047477D01*
X7662245Y-3059324D01*
X7670773Y-3069166D01*
X7681729Y-3076207D01*
X7694225Y-3079876D01*
X7694225Y-3079876D01*
X7707248Y-3079876D01*
X7707249Y-3079876D01*
X7719744Y-3076207D01*
X7730700Y-3069166D01*
X7739229Y-3059324D01*
X7744639Y-3047477D01*
X7746493Y-3034586D01*
X7746484Y-3034527D01*
X7745174Y-3025414D01*
X7744639Y-3021695D01*
X7739229Y-3009849D01*
X7730700Y-3000006D01*
X7730700Y-3000006D01*
X7729835Y-2999450D01*
X7728474Y-2998576D01*
X7726301Y-2995445D01*
X7726187Y-2994387D01*
X7726187Y-2977583D01*
X7726282Y-2976611D01*
X7726305Y-2976496D01*
X7726685Y-2974586D01*
X7726294Y-2972621D01*
X7726294Y-2972620D01*
X7724710Y-2964656D01*
X7723131Y-2962293D01*
X7720430Y-2958250D01*
X7720428Y-2958247D01*
X7720372Y-2958164D01*
X7719085Y-2956238D01*
X7717368Y-2955090D01*
X7716614Y-2954471D01*
X7693024Y-2930881D01*
X7692404Y-2930127D01*
X7691258Y-2928410D01*
X7689336Y-2927126D01*
X7689335Y-2927125D01*
X7682839Y-2922785D01*
X7678300Y-2921882D01*
X7678300Y-2921882D01*
X7675989Y-2921422D01*
X7675416Y-2921308D01*
X7672909Y-2920810D01*
X7670883Y-2921213D01*
X7669912Y-2921308D01*
X6230551Y-2921308D01*
X6227029Y-2919850D01*
X6226787Y-2919590D01*
X6220365Y-2912179D01*
X6220365Y-2912179D01*
X6220365Y-2912179D01*
X6209409Y-2905138D01*
X6196913Y-2901468D01*
X6183890Y-2901468D01*
X6171394Y-2905138D01*
X6165916Y-2908658D01*
X6160438Y-2912179D01*
X6151909Y-2922021D01*
X6150157Y-2925857D01*
X6147368Y-2928454D01*
X6145628Y-2928768D01*
X5178350Y-2928768D01*
X5174828Y-2927310D01*
X5174586Y-2927050D01*
X5170366Y-2922179D01*
X5170365Y-2922179D01*
X5170365Y-2922179D01*
X5159409Y-2915138D01*
X5146913Y-2911468D01*
X5133890Y-2911468D01*
X5121394Y-2915138D01*
X5110704Y-2922008D01*
X5110438Y-2922179D01*
X5106217Y-2927050D01*
X5102809Y-2928756D01*
X5102454Y-2928768D01*
X4982682Y-2928768D01*
X4979161Y-2927310D01*
X4978919Y-2927050D01*
X4978894Y-2927021D01*
X4978894Y-2927021D01*
X4970365Y-2917179D01*
X4959409Y-2910138D01*
X4946913Y-2906468D01*
X4933890Y-2906468D01*
X4921394Y-2910138D01*
X4915916Y-2913658D01*
X4910438Y-2917179D01*
X4910169Y-2917412D01*
X4910066Y-2917292D01*
X4907141Y-2918756D01*
X4906786Y-2918768D01*
X4689017Y-2918768D01*
X4685663Y-2917379D01*
X4685634Y-2917412D01*
X4685536Y-2917326D01*
X4685496Y-2917310D01*
X4685408Y-2917216D01*
X4685365Y-2917179D01*
X4684000Y-2916301D01*
X4674409Y-2910138D01*
X4661913Y-2906468D01*
X4648890Y-2906468D01*
X4636394Y-2910138D01*
X4630916Y-2913658D01*
X4625438Y-2917179D01*
X4625169Y-2917412D01*
X4625066Y-2917292D01*
X4622141Y-2918756D01*
X4621786Y-2918768D01*
X4348350Y-2918768D01*
X4344828Y-2917310D01*
X4344586Y-2917050D01*
X4340366Y-2912179D01*
X4340365Y-2912179D01*
X4340365Y-2912179D01*
X4329409Y-2905138D01*
X4316913Y-2901468D01*
X4303890Y-2901468D01*
X4291394Y-2905138D01*
X4281543Y-2911468D01*
X4280438Y-2912179D01*
X4276217Y-2917050D01*
X4272809Y-2918756D01*
X4272454Y-2918768D01*
X3240904Y-2918768D01*
X3237382Y-2917310D01*
X3235924Y-2913825D01*
X3235530Y-2859470D01*
X3235459Y-2849726D01*
X3236892Y-2846194D01*
X3240403Y-2844710D01*
X3240439Y-2844710D01*
X7613776Y-2844710D01*
X7616469Y-2845500D01*
X7621535Y-2848756D01*
X7625992Y-2851621D01*
X7638488Y-2855290D01*
X7638488Y-2855290D01*
X7651511Y-2855290D01*
X7651512Y-2855290D01*
X7664008Y-2851621D01*
X7670780Y-2847268D01*
X7673531Y-2845500D01*
X7676223Y-2844710D01*
X9934253Y-2844710D01*
X9937774Y-2846169D01*
X9938016Y-2846429D01*
X9940036Y-2848760D01*
X9940036Y-2848760D01*
X9950992Y-2855801D01*
X9963488Y-2859470D01*
X9963489Y-2859470D01*
X9976512Y-2859470D01*
X9976512Y-2859470D01*
X9989008Y-2855801D01*
X9999964Y-2848760D01*
X10008492Y-2838917D01*
X10013902Y-2827071D01*
X10015756Y-2814180D01*
X10013902Y-2801289D01*
X10008492Y-2789443D01*
X9999964Y-2779600D01*
X9989008Y-2772559D01*
X9976512Y-2768890D01*
X9963488Y-2768890D01*
X9950992Y-2772559D01*
X9940036Y-2779600D01*
X9940036Y-2779600D01*
X9938016Y-2781931D01*
X9934608Y-2783637D01*
X9934253Y-2783650D01*
X7684369Y-2783650D01*
X7680848Y-2782191D01*
X7680606Y-2781932D01*
X7674964Y-2775420D01*
X7664008Y-2768379D01*
X7651512Y-2764710D01*
X7638488Y-2764710D01*
X7625992Y-2768379D01*
X7620514Y-2771900D01*
X7615036Y-2775420D01*
X7611544Y-2779451D01*
X7609394Y-2781931D01*
X7605986Y-2783637D01*
X7605631Y-2783650D01*
X2786936Y-2783650D01*
X2785892Y-2783480D01*
X2785891Y-2783483D01*
X2785434Y-2783419D01*
X2785434Y-2783419D01*
X2785434Y-2783419D01*
X2780495Y-2783647D01*
X2780380Y-2783650D01*
X2778314Y-2783650D01*
X2777787Y-2783749D01*
X2777444Y-2783788D01*
X2774033Y-2783946D01*
X2774032Y-2783946D01*
X2772580Y-2784587D01*
X2771484Y-2784927D01*
X2769923Y-2785219D01*
X2767020Y-2787016D01*
X2766715Y-2787177D01*
X2763591Y-2788556D01*
X2763590Y-2788557D01*
X2762468Y-2789679D01*
X2761568Y-2790392D01*
X2760219Y-2791227D01*
X2758161Y-2793952D01*
X2757935Y-2794212D01*
X2652637Y-2899510D01*
X2649116Y-2900968D01*
X2407767Y-2900968D01*
X2401725Y-2902170D01*
X2401725Y-2902170D01*
X2401724Y-2902170D01*
X2401724Y-2902170D01*
X2401724Y-2902171D01*
X2398204Y-2903629D01*
X2398203Y-2903629D01*
X2394633Y-2905690D01*
X2389657Y-2912174D01*
X2389657Y-2912175D01*
X2388199Y-2915695D01*
X2388199Y-2915697D01*
X2386997Y-2921738D01*
X2386997Y-3231779D01*
X164965Y-3231779D01*
X165003Y-2975414D01*
X801974Y-2975414D01*
X803886Y-2996047D01*
X803886Y-2996047D01*
X809389Y-3015389D01*
X809557Y-3015977D01*
X812404Y-3021695D01*
X818793Y-3034526D01*
X818793Y-3034527D01*
X831280Y-3051062D01*
X831280Y-3051062D01*
X844255Y-3062890D01*
X846594Y-3065022D01*
X864212Y-3075931D01*
X883534Y-3083416D01*
X903902Y-3087224D01*
X903903Y-3087224D01*
X924623Y-3087224D01*
X924624Y-3087224D01*
X944992Y-3083416D01*
X964315Y-3075931D01*
X981932Y-3065022D01*
X997246Y-3051062D01*
X1009733Y-3034526D01*
X1018969Y-3015977D01*
X1024640Y-2996047D01*
X1026552Y-2975414D01*
X1055974Y-2975414D01*
X1057886Y-2996047D01*
X1057886Y-2996047D01*
X1063389Y-3015389D01*
X1063557Y-3015977D01*
X1066404Y-3021695D01*
X1072793Y-3034526D01*
X1072793Y-3034527D01*
X1085281Y-3051062D01*
X1085281Y-3051062D01*
X1098255Y-3062890D01*
X1100594Y-3065022D01*
X1118212Y-3075931D01*
X1137534Y-3083416D01*
X1157902Y-3087224D01*
X1157903Y-3087224D01*
X1178623Y-3087224D01*
X1178624Y-3087224D01*
X1198992Y-3083416D01*
X1218315Y-3075931D01*
X1235932Y-3065022D01*
X1251246Y-3051062D01*
X1263733Y-3034526D01*
X1272017Y-3017891D01*
X1274892Y-3015389D01*
X1278694Y-3015653D01*
X1281196Y-3018528D01*
X1281302Y-3018888D01*
X1282448Y-3023412D01*
X1282448Y-3023413D01*
X1292255Y-3045771D01*
X1301632Y-3060123D01*
X1373827Y-2987929D01*
X1376314Y-2996398D01*
X1384087Y-3008494D01*
X1394953Y-3017909D01*
X1408032Y-3023882D01*
X1409504Y-3024093D01*
X1337485Y-3096113D01*
X1341410Y-3099168D01*
X1341410Y-3099168D01*
X1362882Y-3110788D01*
X1385975Y-3118715D01*
X1410056Y-3122734D01*
X1434470Y-3122734D01*
X1458552Y-3118715D01*
X1481644Y-3110788D01*
X1503116Y-3099168D01*
X1503116Y-3099167D01*
X1507041Y-3096113D01*
X1435022Y-3024093D01*
X1436495Y-3023882D01*
X1449573Y-3017909D01*
X1460439Y-3008494D01*
X1468212Y-2996398D01*
X1470699Y-2987929D01*
X1542894Y-3060123D01*
X1552271Y-3045771D01*
X1562078Y-3023413D01*
X1562078Y-3023412D01*
X1563224Y-3018888D01*
X1565502Y-3015833D01*
X1569274Y-3015283D01*
X1572330Y-3017561D01*
X1572509Y-3017891D01*
X1580793Y-3034526D01*
X1580793Y-3034527D01*
X1593280Y-3051062D01*
X1593280Y-3051062D01*
X1606255Y-3062890D01*
X1608594Y-3065022D01*
X1626212Y-3075931D01*
X1645534Y-3083416D01*
X1665902Y-3087224D01*
X1665903Y-3087224D01*
X1686623Y-3087224D01*
X1686624Y-3087224D01*
X1706992Y-3083416D01*
X1726315Y-3075931D01*
X1743932Y-3065022D01*
X1759246Y-3051062D01*
X1771733Y-3034526D01*
X1780969Y-3015977D01*
X1786640Y-2996047D01*
X1788552Y-2975414D01*
X1817974Y-2975414D01*
X1818371Y-2979692D01*
X1819886Y-2996047D01*
X1819886Y-2996047D01*
X1825389Y-3015389D01*
X1825557Y-3015977D01*
X1828404Y-3021695D01*
X1834793Y-3034526D01*
X1834793Y-3034527D01*
X1847280Y-3051062D01*
X1847280Y-3051062D01*
X1860255Y-3062890D01*
X1862594Y-3065022D01*
X1880212Y-3075931D01*
X1899534Y-3083416D01*
X1919902Y-3087224D01*
X1919903Y-3087224D01*
X1940623Y-3087224D01*
X1940624Y-3087224D01*
X1960992Y-3083416D01*
X1980315Y-3075931D01*
X1997932Y-3065022D01*
X2013246Y-3051062D01*
X2025733Y-3034526D01*
X2034969Y-3015977D01*
X2040640Y-2996047D01*
X2042552Y-2975414D01*
X2071974Y-2975414D01*
X2073886Y-2996047D01*
X2073886Y-2996047D01*
X2079389Y-3015389D01*
X2079557Y-3015977D01*
X2082404Y-3021695D01*
X2088793Y-3034526D01*
X2088793Y-3034527D01*
X2101281Y-3051062D01*
X2101281Y-3051062D01*
X2114255Y-3062890D01*
X2116594Y-3065022D01*
X2134212Y-3075931D01*
X2153534Y-3083416D01*
X2173902Y-3087224D01*
X2173903Y-3087224D01*
X2194623Y-3087224D01*
X2194624Y-3087224D01*
X2214992Y-3083416D01*
X2234315Y-3075931D01*
X2251932Y-3065022D01*
X2267246Y-3051062D01*
X2279733Y-3034526D01*
X2288970Y-3015977D01*
X2294640Y-2996047D01*
X2296552Y-2975414D01*
X2294640Y-2954781D01*
X2288970Y-2934850D01*
X2282179Y-2921213D01*
X2279733Y-2916301D01*
X2279733Y-2916301D01*
X2267246Y-2899765D01*
X2267246Y-2899765D01*
X2251932Y-2885805D01*
X2234315Y-2874897D01*
X2234315Y-2874897D01*
X2227212Y-2872145D01*
X2214993Y-2867411D01*
X2194624Y-2863604D01*
X2194624Y-2863604D01*
X2173902Y-2863604D01*
X2173902Y-2863604D01*
X2153534Y-2867411D01*
X2134211Y-2874897D01*
X2116594Y-2885805D01*
X2101281Y-2899765D01*
X2101281Y-2899765D01*
X2088793Y-2916301D01*
X2088793Y-2916301D01*
X2079557Y-2934850D01*
X2073886Y-2954780D01*
X2073886Y-2954781D01*
X2071974Y-2975414D01*
X2042552Y-2975414D01*
X2040640Y-2954781D01*
X2034969Y-2934850D01*
X2028179Y-2921213D01*
X2025733Y-2916301D01*
X2025733Y-2916301D01*
X2013246Y-2899765D01*
X2013246Y-2899765D01*
X1997932Y-2885805D01*
X1980315Y-2874897D01*
X1980315Y-2874897D01*
X1973212Y-2872145D01*
X1960992Y-2867411D01*
X1940624Y-2863604D01*
X1940624Y-2863604D01*
X1919902Y-2863604D01*
X1919902Y-2863604D01*
X1899534Y-2867411D01*
X1880211Y-2874897D01*
X1862594Y-2885805D01*
X1847280Y-2899765D01*
X1847280Y-2899765D01*
X1834793Y-2916301D01*
X1834793Y-2916301D01*
X1825557Y-2934850D01*
X1819886Y-2954780D01*
X1819886Y-2954781D01*
X1818102Y-2974034D01*
X1817974Y-2975414D01*
X1788552Y-2975414D01*
X1786640Y-2954781D01*
X1780969Y-2934850D01*
X1774179Y-2921213D01*
X1771733Y-2916301D01*
X1771733Y-2916301D01*
X1759246Y-2899765D01*
X1759246Y-2899765D01*
X1743932Y-2885805D01*
X1726315Y-2874897D01*
X1726315Y-2874897D01*
X1719212Y-2872145D01*
X1706992Y-2867411D01*
X1686624Y-2863604D01*
X1686624Y-2863604D01*
X1665902Y-2863604D01*
X1665902Y-2863604D01*
X1645534Y-2867411D01*
X1626211Y-2874897D01*
X1608594Y-2885805D01*
X1593280Y-2899765D01*
X1593280Y-2899765D01*
X1580793Y-2916301D01*
X1580793Y-2916301D01*
X1572509Y-2932937D01*
X1569634Y-2935439D01*
X1565832Y-2935175D01*
X1563330Y-2932299D01*
X1563224Y-2931939D01*
X1562078Y-2927416D01*
X1562078Y-2927414D01*
X1552271Y-2905057D01*
X1542894Y-2890704D01*
X1470699Y-2962899D01*
X1468212Y-2954429D01*
X1460439Y-2942334D01*
X1449573Y-2932919D01*
X1436495Y-2926946D01*
X1435022Y-2926734D01*
X1507041Y-2854715D01*
X1503116Y-2851660D01*
X1503116Y-2851660D01*
X1481644Y-2840040D01*
X1458552Y-2832112D01*
X1434470Y-2828094D01*
X1410056Y-2828094D01*
X1385975Y-2832112D01*
X1362882Y-2840040D01*
X1341411Y-2851660D01*
X1337485Y-2854715D01*
X1409504Y-2926734D01*
X1408032Y-2926946D01*
X1394953Y-2932919D01*
X1384087Y-2942334D01*
X1376314Y-2954429D01*
X1373827Y-2962899D01*
X1301632Y-2890704D01*
X1292255Y-2905056D01*
X1282448Y-2927414D01*
X1282448Y-2927415D01*
X1281302Y-2931939D01*
X1279024Y-2934995D01*
X1275252Y-2935544D01*
X1272196Y-2933266D01*
X1272017Y-2932938D01*
X1266179Y-2921213D01*
X1263733Y-2916301D01*
X1263733Y-2916301D01*
X1251246Y-2899765D01*
X1251246Y-2899765D01*
X1235932Y-2885805D01*
X1218315Y-2874897D01*
X1218315Y-2874897D01*
X1211212Y-2872145D01*
X1198993Y-2867411D01*
X1178624Y-2863604D01*
X1178624Y-2863604D01*
X1157902Y-2863604D01*
X1157902Y-2863604D01*
X1137534Y-2867411D01*
X1118211Y-2874897D01*
X1100594Y-2885805D01*
X1085281Y-2899765D01*
X1085281Y-2899765D01*
X1072793Y-2916301D01*
X1072793Y-2916301D01*
X1063557Y-2934850D01*
X1057886Y-2954780D01*
X1057886Y-2954781D01*
X1055974Y-2975414D01*
X1026552Y-2975414D01*
X1024640Y-2954781D01*
X1018969Y-2934850D01*
X1012179Y-2921213D01*
X1009733Y-2916301D01*
X1009733Y-2916301D01*
X997246Y-2899765D01*
X997246Y-2899765D01*
X981932Y-2885805D01*
X964315Y-2874897D01*
X964315Y-2874897D01*
X957212Y-2872145D01*
X944992Y-2867411D01*
X924624Y-2863604D01*
X924624Y-2863604D01*
X903902Y-2863604D01*
X903902Y-2863604D01*
X883534Y-2867411D01*
X864211Y-2874897D01*
X846594Y-2885805D01*
X831280Y-2899765D01*
X831280Y-2899765D01*
X818793Y-2916301D01*
X818793Y-2916301D01*
X809557Y-2934850D01*
X803886Y-2954780D01*
X803886Y-2954781D01*
X801974Y-2975414D01*
X165003Y-2975414D01*
X165048Y-2674586D01*
X6684981Y-2674586D01*
X6686387Y-2684367D01*
X6686835Y-2687477D01*
X6692245Y-2699324D01*
X6700773Y-2709166D01*
X6711729Y-2716207D01*
X6724225Y-2719876D01*
X6724225Y-2719876D01*
X6737248Y-2719876D01*
X6737249Y-2719876D01*
X6749744Y-2716207D01*
X6760700Y-2709166D01*
X6769229Y-2699324D01*
X6774639Y-2687477D01*
X6776493Y-2674586D01*
X6774639Y-2661695D01*
X6769229Y-2649849D01*
X6760700Y-2640006D01*
X6749744Y-2632965D01*
X6737249Y-2629296D01*
X6724225Y-2629296D01*
X6711729Y-2632965D01*
X6706251Y-2636486D01*
X6700773Y-2640006D01*
X6692245Y-2649849D01*
X6686835Y-2661695D01*
X6686834Y-2661696D01*
X6684981Y-2674586D01*
X6684981Y-2674586D01*
X165048Y-2674586D01*
X165067Y-2551326D01*
X7373021Y-2551326D01*
X7375002Y-2575238D01*
X7380892Y-2598497D01*
X7380892Y-2598498D01*
X7390530Y-2620470D01*
X7399501Y-2634201D01*
X7469216Y-2564486D01*
X7471612Y-2572647D01*
X7479510Y-2584936D01*
X7490550Y-2594502D01*
X7503838Y-2600570D01*
X7504831Y-2600713D01*
X7435329Y-2670215D01*
X7438838Y-2672947D01*
X7438838Y-2672947D01*
X7459940Y-2684367D01*
X7482634Y-2692157D01*
X7506300Y-2696107D01*
X7530294Y-2696107D01*
X7553960Y-2692157D01*
X7576654Y-2684367D01*
X7597755Y-2672947D01*
X7616224Y-2658572D01*
X7619899Y-2657560D01*
X7623213Y-2659443D01*
X7624263Y-2662502D01*
X7624263Y-2690000D01*
X9434263Y-2690000D01*
X9434263Y-2390000D01*
X7624263Y-2390000D01*
X7624263Y-2440151D01*
X7622804Y-2443672D01*
X7619283Y-2445131D01*
X7616224Y-2444081D01*
X7597755Y-2429706D01*
X7576654Y-2418286D01*
X7553960Y-2410496D01*
X7530294Y-2406547D01*
X7506300Y-2406547D01*
X7482634Y-2410496D01*
X7459940Y-2418286D01*
X7438838Y-2429706D01*
X7435329Y-2432438D01*
X7504832Y-2501940D01*
X7503838Y-2502083D01*
X7490550Y-2508151D01*
X7479510Y-2517718D01*
X7471612Y-2530006D01*
X7469216Y-2538167D01*
X7399501Y-2468452D01*
X7390531Y-2482182D01*
X7380892Y-2504155D01*
X7380892Y-2504156D01*
X7375002Y-2527415D01*
X7373021Y-2551326D01*
X165067Y-2551326D01*
X165083Y-2447414D01*
X1966673Y-2447414D01*
X1968587Y-2466843D01*
X1974254Y-2485525D01*
X1983457Y-2502743D01*
X1995843Y-2517834D01*
X2010934Y-2530220D01*
X2028152Y-2539423D01*
X2046834Y-2545090D01*
X2061467Y-2546531D01*
X2066263Y-2547003D01*
X2066263Y-2547003D01*
X2066263Y-2547003D01*
X2070695Y-2546567D01*
X2085692Y-2545090D01*
X2104374Y-2539423D01*
X2121592Y-2530220D01*
X2136684Y-2517834D01*
X2149069Y-2502743D01*
X2158272Y-2485525D01*
X2163939Y-2466843D01*
X2165853Y-2447414D01*
X2220674Y-2447414D01*
X2222587Y-2466843D01*
X2228254Y-2485525D01*
X2237457Y-2502743D01*
X2249843Y-2517834D01*
X2264934Y-2530220D01*
X2282152Y-2539423D01*
X2300834Y-2545090D01*
X2315467Y-2546531D01*
X2320263Y-2547003D01*
X2320263Y-2547003D01*
X2320263Y-2547003D01*
X2324695Y-2546567D01*
X2339692Y-2545090D01*
X2358374Y-2539423D01*
X2375592Y-2530220D01*
X2390684Y-2517834D01*
X2403069Y-2502743D01*
X2412272Y-2485525D01*
X2417939Y-2466843D01*
X2419853Y-2447414D01*
X2474674Y-2447414D01*
X2476587Y-2466843D01*
X2482254Y-2485525D01*
X2491457Y-2502743D01*
X2503843Y-2517834D01*
X2518934Y-2530220D01*
X2536152Y-2539423D01*
X2554834Y-2545090D01*
X2569467Y-2546531D01*
X2574263Y-2547003D01*
X2574263Y-2547003D01*
X2574263Y-2547003D01*
X2578695Y-2546567D01*
X2593692Y-2545090D01*
X2612374Y-2539423D01*
X2629592Y-2530220D01*
X2644684Y-2517834D01*
X2657069Y-2502743D01*
X2666272Y-2485525D01*
X2671939Y-2466843D01*
X2673853Y-2447414D01*
X2728674Y-2447414D01*
X2730587Y-2466843D01*
X2736254Y-2485525D01*
X2745457Y-2502743D01*
X2757843Y-2517834D01*
X2772934Y-2530220D01*
X2790152Y-2539423D01*
X2808834Y-2545090D01*
X2823467Y-2546531D01*
X2828263Y-2547003D01*
X2828263Y-2547003D01*
X2828263Y-2547003D01*
X2832695Y-2546567D01*
X2847692Y-2545090D01*
X2866374Y-2539423D01*
X2883592Y-2530220D01*
X2898684Y-2517834D01*
X2911069Y-2502743D01*
X2920272Y-2485525D01*
X2925939Y-2466843D01*
X2927853Y-2447414D01*
X2982673Y-2447414D01*
X2984587Y-2466843D01*
X2990254Y-2485525D01*
X2999457Y-2502743D01*
X3011843Y-2517834D01*
X3026934Y-2530220D01*
X3044152Y-2539423D01*
X3062834Y-2545090D01*
X3077467Y-2546531D01*
X3082263Y-2547003D01*
X3082263Y-2547003D01*
X3082263Y-2547003D01*
X3086695Y-2546567D01*
X3101692Y-2545090D01*
X3120374Y-2539423D01*
X3137592Y-2530220D01*
X3152684Y-2517834D01*
X3165069Y-2502743D01*
X3174272Y-2485525D01*
X3179939Y-2466843D01*
X3181853Y-2447414D01*
X3236673Y-2447414D01*
X3238587Y-2466843D01*
X3244254Y-2485525D01*
X3253457Y-2502743D01*
X3265843Y-2517834D01*
X3280934Y-2530220D01*
X3298152Y-2539423D01*
X3316834Y-2545090D01*
X3331467Y-2546531D01*
X3336263Y-2547003D01*
X3336263Y-2547003D01*
X3336263Y-2547003D01*
X3340695Y-2546567D01*
X3355692Y-2545090D01*
X3374374Y-2539423D01*
X3391592Y-2530220D01*
X3406684Y-2517834D01*
X3419069Y-2502743D01*
X3428272Y-2485525D01*
X3433939Y-2466843D01*
X3435853Y-2447414D01*
X3490673Y-2447414D01*
X3492587Y-2466843D01*
X3498254Y-2485525D01*
X3507457Y-2502743D01*
X3519843Y-2517834D01*
X3534934Y-2530220D01*
X3552152Y-2539423D01*
X3570834Y-2545090D01*
X3585467Y-2546531D01*
X3590263Y-2547003D01*
X3590263Y-2547003D01*
X3590263Y-2547003D01*
X3594695Y-2546567D01*
X3609692Y-2545090D01*
X3628374Y-2539423D01*
X3645592Y-2530220D01*
X3660684Y-2517834D01*
X3673069Y-2502743D01*
X3682272Y-2485525D01*
X3687939Y-2466843D01*
X3689853Y-2447414D01*
X3744673Y-2447414D01*
X3746587Y-2466843D01*
X3752254Y-2485525D01*
X3761457Y-2502743D01*
X3773843Y-2517834D01*
X3788934Y-2530220D01*
X3806152Y-2539423D01*
X3824834Y-2545090D01*
X3839467Y-2546531D01*
X3844263Y-2547003D01*
X3844263Y-2547003D01*
X3844263Y-2547003D01*
X3848695Y-2546567D01*
X3863692Y-2545090D01*
X3882374Y-2539423D01*
X3899592Y-2530220D01*
X3914684Y-2517834D01*
X3927069Y-2502743D01*
X3936272Y-2485525D01*
X3941939Y-2466843D01*
X3943853Y-2447414D01*
X3998673Y-2447414D01*
X4000587Y-2466843D01*
X4006254Y-2485525D01*
X4015457Y-2502743D01*
X4027843Y-2517834D01*
X4042934Y-2530220D01*
X4060152Y-2539423D01*
X4078834Y-2545090D01*
X4093467Y-2546531D01*
X4098263Y-2547003D01*
X4098263Y-2547003D01*
X4098263Y-2547003D01*
X4102695Y-2546567D01*
X4117692Y-2545090D01*
X4136374Y-2539423D01*
X4153592Y-2530220D01*
X4168684Y-2517834D01*
X4181069Y-2502743D01*
X4190272Y-2485525D01*
X4195939Y-2466843D01*
X4197853Y-2447414D01*
X4252674Y-2447414D01*
X4254587Y-2466843D01*
X4260254Y-2485525D01*
X4269457Y-2502743D01*
X4281843Y-2517834D01*
X4296934Y-2530220D01*
X4314152Y-2539423D01*
X4332834Y-2545090D01*
X4347467Y-2546531D01*
X4352263Y-2547003D01*
X4352263Y-2547003D01*
X4352263Y-2547003D01*
X4356695Y-2546567D01*
X4371692Y-2545090D01*
X4390374Y-2539423D01*
X4407592Y-2530220D01*
X4422684Y-2517834D01*
X4435069Y-2502743D01*
X4444272Y-2485525D01*
X4449939Y-2466843D01*
X4451853Y-2447414D01*
X4506674Y-2447414D01*
X4508587Y-2466843D01*
X4514254Y-2485525D01*
X4523457Y-2502743D01*
X4535843Y-2517834D01*
X4550934Y-2530220D01*
X4568152Y-2539423D01*
X4586834Y-2545090D01*
X4601467Y-2546531D01*
X4606263Y-2547003D01*
X4606263Y-2547003D01*
X4606263Y-2547003D01*
X4610695Y-2546567D01*
X4625692Y-2545090D01*
X4644374Y-2539423D01*
X4661592Y-2530220D01*
X4676684Y-2517834D01*
X4689069Y-2502743D01*
X4698272Y-2485525D01*
X4703939Y-2466843D01*
X4705853Y-2447414D01*
X4760674Y-2447414D01*
X4762587Y-2466843D01*
X4768254Y-2485525D01*
X4777457Y-2502743D01*
X4789843Y-2517834D01*
X4804934Y-2530220D01*
X4822152Y-2539423D01*
X4840834Y-2545090D01*
X4855467Y-2546531D01*
X4860263Y-2547003D01*
X4860263Y-2547003D01*
X4860263Y-2547003D01*
X4864695Y-2546567D01*
X4879692Y-2545090D01*
X4898374Y-2539423D01*
X4915592Y-2530220D01*
X4930684Y-2517834D01*
X4943069Y-2502743D01*
X4943730Y-2501505D01*
X6094710Y-2501505D01*
X6094710Y-2501506D01*
X6095597Y-2505966D01*
X6095597Y-2505966D01*
X6098976Y-2511023D01*
X6098977Y-2511023D01*
X6104034Y-2514403D01*
X6108494Y-2515290D01*
X6351506Y-2515290D01*
X6355966Y-2514403D01*
X6361023Y-2511023D01*
X6364403Y-2505966D01*
X6365290Y-2501506D01*
X6365290Y-2258494D01*
X6364403Y-2254034D01*
X6364403Y-2254034D01*
X6364403Y-2254034D01*
X6361023Y-2248977D01*
X6361023Y-2248976D01*
X6355966Y-2245597D01*
X6351506Y-2244710D01*
X6351505Y-2244710D01*
X6108495Y-2244710D01*
X6108494Y-2244710D01*
X6105149Y-2245375D01*
X6104034Y-2245597D01*
X6104034Y-2245597D01*
X6104034Y-2245597D01*
X6098977Y-2248976D01*
X6098976Y-2248977D01*
X6095597Y-2254034D01*
X6095597Y-2254034D01*
X6094710Y-2258494D01*
X6094710Y-2501505D01*
X4943730Y-2501505D01*
X4952272Y-2485525D01*
X4957939Y-2466843D01*
X4959853Y-2447414D01*
X4957939Y-2427985D01*
X4952272Y-2409303D01*
X4943069Y-2392085D01*
X4930684Y-2376993D01*
X4915592Y-2364608D01*
X4898374Y-2355405D01*
X4879692Y-2349738D01*
X4879692Y-2349738D01*
X4860263Y-2347824D01*
X4860263Y-2347824D01*
X4840834Y-2349738D01*
X4832699Y-2352206D01*
X4822152Y-2355405D01*
X4804934Y-2364608D01*
X4804934Y-2364608D01*
X4804934Y-2364608D01*
X4789843Y-2376993D01*
X4777458Y-2392084D01*
X4777457Y-2392085D01*
X4777457Y-2392085D01*
X4768254Y-2409303D01*
X4765529Y-2418286D01*
X4762587Y-2427985D01*
X4761002Y-2444081D01*
X4760674Y-2447414D01*
X4705853Y-2447414D01*
X4703939Y-2427985D01*
X4698272Y-2409303D01*
X4689069Y-2392085D01*
X4676684Y-2376993D01*
X4661592Y-2364608D01*
X4644374Y-2355405D01*
X4625692Y-2349738D01*
X4625692Y-2349738D01*
X4606263Y-2347824D01*
X4606263Y-2347824D01*
X4586834Y-2349738D01*
X4578699Y-2352206D01*
X4568152Y-2355405D01*
X4550934Y-2364608D01*
X4550934Y-2364608D01*
X4550934Y-2364608D01*
X4535843Y-2376993D01*
X4523458Y-2392084D01*
X4523457Y-2392085D01*
X4523457Y-2392085D01*
X4514254Y-2409303D01*
X4511529Y-2418286D01*
X4508587Y-2427985D01*
X4507002Y-2444081D01*
X4506674Y-2447414D01*
X4451853Y-2447414D01*
X4449939Y-2427985D01*
X4444272Y-2409303D01*
X4435069Y-2392085D01*
X4422684Y-2376993D01*
X4407592Y-2364608D01*
X4390374Y-2355405D01*
X4371692Y-2349738D01*
X4371692Y-2349738D01*
X4352263Y-2347824D01*
X4352263Y-2347824D01*
X4332834Y-2349738D01*
X4324699Y-2352206D01*
X4314152Y-2355405D01*
X4296934Y-2364608D01*
X4296934Y-2364608D01*
X4296934Y-2364608D01*
X4281843Y-2376993D01*
X4269458Y-2392084D01*
X4269457Y-2392085D01*
X4269457Y-2392085D01*
X4260254Y-2409303D01*
X4257529Y-2418286D01*
X4254587Y-2427985D01*
X4253002Y-2444081D01*
X4252674Y-2447414D01*
X4197853Y-2447414D01*
X4195939Y-2427985D01*
X4190272Y-2409303D01*
X4181069Y-2392085D01*
X4168684Y-2376993D01*
X4153592Y-2364608D01*
X4136374Y-2355405D01*
X4117692Y-2349738D01*
X4117692Y-2349738D01*
X4098263Y-2347824D01*
X4098263Y-2347824D01*
X4078834Y-2349738D01*
X4070699Y-2352206D01*
X4060152Y-2355405D01*
X4042934Y-2364608D01*
X4042934Y-2364608D01*
X4042934Y-2364608D01*
X4027843Y-2376993D01*
X4015458Y-2392084D01*
X4015457Y-2392085D01*
X4015457Y-2392085D01*
X4006254Y-2409303D01*
X4003529Y-2418286D01*
X4000587Y-2427985D01*
X3999002Y-2444081D01*
X3998673Y-2447414D01*
X3943853Y-2447414D01*
X3941939Y-2427985D01*
X3936272Y-2409303D01*
X3927069Y-2392085D01*
X3914684Y-2376993D01*
X3899592Y-2364608D01*
X3882374Y-2355405D01*
X3863692Y-2349738D01*
X3863692Y-2349738D01*
X3844263Y-2347824D01*
X3844263Y-2347824D01*
X3824834Y-2349738D01*
X3816699Y-2352206D01*
X3806152Y-2355405D01*
X3788934Y-2364608D01*
X3788934Y-2364608D01*
X3788934Y-2364608D01*
X3773843Y-2376993D01*
X3761458Y-2392084D01*
X3761457Y-2392085D01*
X3761457Y-2392085D01*
X3752254Y-2409303D01*
X3749529Y-2418286D01*
X3746587Y-2427985D01*
X3745002Y-2444081D01*
X3744673Y-2447414D01*
X3689853Y-2447414D01*
X3687939Y-2427985D01*
X3682272Y-2409303D01*
X3673069Y-2392085D01*
X3660684Y-2376993D01*
X3645592Y-2364608D01*
X3628374Y-2355405D01*
X3609692Y-2349738D01*
X3609692Y-2349738D01*
X3590263Y-2347824D01*
X3590263Y-2347824D01*
X3570834Y-2349738D01*
X3562699Y-2352206D01*
X3552152Y-2355405D01*
X3534934Y-2364608D01*
X3534934Y-2364608D01*
X3534934Y-2364608D01*
X3519843Y-2376993D01*
X3507458Y-2392084D01*
X3507457Y-2392085D01*
X3507457Y-2392085D01*
X3498254Y-2409303D01*
X3495529Y-2418286D01*
X3492587Y-2427985D01*
X3491002Y-2444081D01*
X3490673Y-2447414D01*
X3435853Y-2447414D01*
X3433939Y-2427985D01*
X3428272Y-2409303D01*
X3419069Y-2392085D01*
X3406684Y-2376993D01*
X3391592Y-2364608D01*
X3374374Y-2355405D01*
X3355692Y-2349738D01*
X3355692Y-2349738D01*
X3336263Y-2347824D01*
X3336263Y-2347824D01*
X3316834Y-2349738D01*
X3308699Y-2352206D01*
X3298152Y-2355405D01*
X3280934Y-2364608D01*
X3280934Y-2364608D01*
X3280934Y-2364608D01*
X3265843Y-2376993D01*
X3253458Y-2392084D01*
X3253457Y-2392085D01*
X3253457Y-2392085D01*
X3244254Y-2409303D01*
X3241529Y-2418286D01*
X3238587Y-2427985D01*
X3237002Y-2444081D01*
X3236673Y-2447414D01*
X3181853Y-2447414D01*
X3179939Y-2427985D01*
X3174272Y-2409303D01*
X3165069Y-2392085D01*
X3152684Y-2376993D01*
X3137592Y-2364608D01*
X3120374Y-2355405D01*
X3101692Y-2349738D01*
X3101692Y-2349738D01*
X3082263Y-2347824D01*
X3082263Y-2347824D01*
X3062834Y-2349738D01*
X3054699Y-2352206D01*
X3044152Y-2355405D01*
X3026934Y-2364608D01*
X3026934Y-2364608D01*
X3026934Y-2364608D01*
X3011843Y-2376993D01*
X2999458Y-2392084D01*
X2999457Y-2392085D01*
X2999457Y-2392085D01*
X2990254Y-2409303D01*
X2987529Y-2418286D01*
X2984587Y-2427985D01*
X2983002Y-2444081D01*
X2982673Y-2447414D01*
X2927853Y-2447414D01*
X2925939Y-2427985D01*
X2920272Y-2409303D01*
X2911069Y-2392085D01*
X2898684Y-2376993D01*
X2883592Y-2364608D01*
X2866374Y-2355405D01*
X2847692Y-2349738D01*
X2847692Y-2349738D01*
X2828263Y-2347824D01*
X2828263Y-2347824D01*
X2808834Y-2349738D01*
X2800699Y-2352206D01*
X2790152Y-2355405D01*
X2772934Y-2364608D01*
X2772934Y-2364608D01*
X2772934Y-2364608D01*
X2757843Y-2376993D01*
X2745458Y-2392084D01*
X2745457Y-2392085D01*
X2745457Y-2392085D01*
X2736254Y-2409303D01*
X2733529Y-2418286D01*
X2730587Y-2427985D01*
X2729002Y-2444081D01*
X2728674Y-2447414D01*
X2673853Y-2447414D01*
X2671939Y-2427985D01*
X2666272Y-2409303D01*
X2657069Y-2392085D01*
X2644684Y-2376993D01*
X2629592Y-2364608D01*
X2612374Y-2355405D01*
X2593692Y-2349738D01*
X2593692Y-2349738D01*
X2574263Y-2347824D01*
X2574263Y-2347824D01*
X2554834Y-2349738D01*
X2546699Y-2352206D01*
X2536152Y-2355405D01*
X2518934Y-2364608D01*
X2518934Y-2364608D01*
X2518934Y-2364608D01*
X2503843Y-2376993D01*
X2491458Y-2392084D01*
X2491457Y-2392085D01*
X2491457Y-2392085D01*
X2482254Y-2409303D01*
X2479529Y-2418286D01*
X2476587Y-2427985D01*
X2475002Y-2444081D01*
X2474674Y-2447414D01*
X2419853Y-2447414D01*
X2417939Y-2427985D01*
X2412272Y-2409303D01*
X2403069Y-2392085D01*
X2390684Y-2376993D01*
X2375592Y-2364608D01*
X2358374Y-2355405D01*
X2339692Y-2349738D01*
X2339692Y-2349738D01*
X2320263Y-2347824D01*
X2320263Y-2347824D01*
X2300834Y-2349738D01*
X2292699Y-2352206D01*
X2282152Y-2355405D01*
X2264934Y-2364608D01*
X2264934Y-2364608D01*
X2264934Y-2364608D01*
X2249843Y-2376993D01*
X2237458Y-2392084D01*
X2237457Y-2392085D01*
X2237457Y-2392085D01*
X2228254Y-2409303D01*
X2225529Y-2418286D01*
X2222587Y-2427985D01*
X2221002Y-2444081D01*
X2220674Y-2447414D01*
X2165853Y-2447414D01*
X2163939Y-2427985D01*
X2158272Y-2409303D01*
X2149069Y-2392085D01*
X2136684Y-2376993D01*
X2121592Y-2364608D01*
X2104374Y-2355405D01*
X2085692Y-2349738D01*
X2085692Y-2349738D01*
X2066263Y-2347824D01*
X2066263Y-2347824D01*
X2046834Y-2349738D01*
X2038699Y-2352206D01*
X2028152Y-2355405D01*
X2010934Y-2364608D01*
X2010934Y-2364608D01*
X2010934Y-2364608D01*
X1995843Y-2376993D01*
X1983458Y-2392084D01*
X1983457Y-2392085D01*
X1983457Y-2392085D01*
X1974254Y-2409303D01*
X1971529Y-2418286D01*
X1968587Y-2427985D01*
X1967002Y-2444081D01*
X1966673Y-2447414D01*
X165083Y-2447414D01*
X165145Y-2030000D01*
X6094246Y-2030000D01*
X6096098Y-2052344D01*
X6096098Y-2052345D01*
X6101602Y-2074079D01*
X6101602Y-2074079D01*
X6110608Y-2094611D01*
X6110608Y-2094612D01*
X6122871Y-2113382D01*
X6138056Y-2129877D01*
X6155750Y-2143648D01*
X6175468Y-2154320D01*
X6196674Y-2161600D01*
X6218789Y-2165290D01*
X6241210Y-2165290D01*
X6263326Y-2161600D01*
X6284532Y-2154320D01*
X6304250Y-2143648D01*
X6321943Y-2129877D01*
X6337129Y-2113382D01*
X6349392Y-2094612D01*
X6358398Y-2074079D01*
X6363902Y-2052344D01*
X6365754Y-2030000D01*
X6363902Y-2007656D01*
X6358398Y-1985921D01*
X6349392Y-1965388D01*
X6337129Y-1946618D01*
X6321943Y-1930123D01*
X6304250Y-1916352D01*
X6284532Y-1905680D01*
X6263326Y-1898400D01*
X6263325Y-1898400D01*
X6263325Y-1898400D01*
X6241210Y-1894710D01*
X6218789Y-1894710D01*
X6196675Y-1898400D01*
X6175468Y-1905680D01*
X6155750Y-1916352D01*
X6138056Y-1930123D01*
X6122871Y-1946618D01*
X6110608Y-1965389D01*
X6101602Y-1985921D01*
X6101602Y-1985921D01*
X6096098Y-2007655D01*
X6096098Y-2007656D01*
X6094246Y-2030000D01*
X165145Y-2030000D01*
X165178Y-1810000D01*
X1759244Y-1810000D01*
X1760319Y-1817479D01*
X1761098Y-1822891D01*
X1766508Y-1834737D01*
X1775036Y-1844580D01*
X1785992Y-1851621D01*
X1798488Y-1855290D01*
X1798488Y-1855290D01*
X1811511Y-1855290D01*
X1811512Y-1855290D01*
X1824008Y-1851621D01*
X1834964Y-1844580D01*
X1843492Y-1834737D01*
X1848902Y-1822891D01*
X1850756Y-1810000D01*
X1848902Y-1797109D01*
X1843492Y-1785263D01*
X1834964Y-1775420D01*
X1824008Y-1768379D01*
X1811512Y-1764710D01*
X1798488Y-1764710D01*
X1785992Y-1768379D01*
X1780514Y-1771900D01*
X1775036Y-1775420D01*
X1766508Y-1785263D01*
X1761098Y-1797109D01*
X1761098Y-1797109D01*
X1759244Y-1810000D01*
X1759244Y-1810000D01*
X165178Y-1810000D01*
X165189Y-1740000D01*
X2084244Y-1740000D01*
X2086098Y-1752891D01*
X2091508Y-1764737D01*
X2100036Y-1774580D01*
X2110992Y-1781621D01*
X2123488Y-1785290D01*
X2123489Y-1785290D01*
X2136512Y-1785290D01*
X2136512Y-1785290D01*
X2149008Y-1781621D01*
X2159964Y-1774580D01*
X2168492Y-1764737D01*
X2173902Y-1752891D01*
X2175756Y-1740000D01*
X2175756Y-1740000D01*
X2175756Y-1739644D01*
X2175932Y-1739644D01*
X2176727Y-1736521D01*
X2177193Y-1735982D01*
X2215854Y-1697322D01*
X2219375Y-1695863D01*
X5658874Y-1695863D01*
X5659918Y-1696034D01*
X5659918Y-1696031D01*
X5660375Y-1696094D01*
X5660375Y-1696094D01*
X5663411Y-1695954D01*
X5665314Y-1695866D01*
X5665429Y-1695863D01*
X5667495Y-1695863D01*
X5667495Y-1695863D01*
X5668024Y-1695765D01*
X5668366Y-1695725D01*
X5671777Y-1695567D01*
X5673229Y-1694926D01*
X5674325Y-1694587D01*
X5675886Y-1694295D01*
X5678791Y-1692496D01*
X5679094Y-1692337D01*
X5682219Y-1690957D01*
X5683341Y-1689834D01*
X5684241Y-1689122D01*
X5685591Y-1688286D01*
X5687649Y-1685561D01*
X5687874Y-1685301D01*
X5693176Y-1680000D01*
X6058721Y-1680000D01*
X6060634Y-1705527D01*
X6060634Y-1705528D01*
X6066330Y-1730484D01*
X6075683Y-1754315D01*
X6088483Y-1776485D01*
X6092525Y-1781554D01*
X6173557Y-1700522D01*
X6177590Y-1710259D01*
X6187207Y-1722792D01*
X6199741Y-1732410D01*
X6209478Y-1736443D01*
X6128442Y-1817479D01*
X6128442Y-1817479D01*
X6144361Y-1828332D01*
X6167424Y-1839439D01*
X6191886Y-1846984D01*
X6191886Y-1846984D01*
X6217201Y-1850800D01*
X6242799Y-1850800D01*
X6268113Y-1846984D01*
X6268114Y-1846984D01*
X6292575Y-1839439D01*
X6292576Y-1839439D01*
X6315639Y-1828332D01*
X6315639Y-1828332D01*
X6331558Y-1817479D01*
X6331558Y-1817479D01*
X6250522Y-1736443D01*
X6260259Y-1732410D01*
X6272792Y-1722792D01*
X6282410Y-1710259D01*
X6286443Y-1700522D01*
X6367475Y-1781554D01*
X6367475Y-1781554D01*
X6371517Y-1776485D01*
X6384317Y-1754315D01*
X6393670Y-1730484D01*
X6399366Y-1705528D01*
X6399366Y-1705527D01*
X6401279Y-1680000D01*
X6399366Y-1654473D01*
X6399366Y-1654472D01*
X6393670Y-1629515D01*
X6384317Y-1605685D01*
X6371517Y-1583515D01*
X6367475Y-1578446D01*
X6286443Y-1659478D01*
X6282410Y-1649741D01*
X6272792Y-1637207D01*
X6260259Y-1627590D01*
X6250522Y-1623557D01*
X6331558Y-1542521D01*
X6315639Y-1531668D01*
X6292576Y-1520561D01*
X6292575Y-1520561D01*
X6268114Y-1513015D01*
X6268113Y-1513015D01*
X6242799Y-1509200D01*
X6217201Y-1509200D01*
X6191886Y-1513015D01*
X6191886Y-1513015D01*
X6167424Y-1520561D01*
X6167424Y-1520561D01*
X6144361Y-1531668D01*
X6128442Y-1542521D01*
X6128442Y-1542521D01*
X6209478Y-1623557D01*
X6199741Y-1627590D01*
X6187207Y-1637207D01*
X6177590Y-1649741D01*
X6173557Y-1659478D01*
X6092525Y-1578446D01*
X6092525Y-1578446D01*
X6088483Y-1583515D01*
X6075683Y-1605685D01*
X6066330Y-1629515D01*
X6060634Y-1654472D01*
X6060634Y-1654473D01*
X6058721Y-1680000D01*
X5693176Y-1680000D01*
X5727492Y-1645684D01*
X5728351Y-1645066D01*
X5728349Y-1645063D01*
X5728717Y-1644786D01*
X5728717Y-1644785D01*
X5732049Y-1641130D01*
X5732126Y-1641050D01*
X5733588Y-1639588D01*
X5733892Y-1639145D01*
X5734106Y-1638874D01*
X5736407Y-1636350D01*
X5736980Y-1634870D01*
X5737516Y-1633854D01*
X5738412Y-1632545D01*
X5739194Y-1629220D01*
X5739296Y-1628893D01*
X5740530Y-1625707D01*
X5740530Y-1624119D01*
X5740662Y-1622979D01*
X5741026Y-1621434D01*
X5741026Y-1621434D01*
X5740826Y-1620000D01*
X5740554Y-1618051D01*
X5740530Y-1617708D01*
X5740530Y-1474709D01*
X5741989Y-1471187D01*
X5781187Y-1431989D01*
X5784709Y-1430530D01*
X6445291Y-1430530D01*
X6448813Y-1431989D01*
X6468011Y-1451187D01*
X6469470Y-1454709D01*
X6469470Y-1584207D01*
X6469300Y-1585252D01*
X6469303Y-1585252D01*
X6469239Y-1585709D01*
X6469467Y-1590648D01*
X6469470Y-1590763D01*
X6469470Y-1592829D01*
X6469569Y-1593357D01*
X6469608Y-1593699D01*
X6469766Y-1597111D01*
X6469766Y-1597111D01*
X6470407Y-1598563D01*
X6470747Y-1599659D01*
X6471038Y-1601220D01*
X6472836Y-1604123D01*
X6472997Y-1604429D01*
X6474377Y-1607552D01*
X6475499Y-1608675D01*
X6476211Y-1609574D01*
X6477047Y-1610924D01*
X6479773Y-1612982D01*
X6480032Y-1613208D01*
X6549650Y-1682825D01*
X6550267Y-1683684D01*
X6550270Y-1683682D01*
X6550548Y-1684050D01*
X6554202Y-1687382D01*
X6554285Y-1687461D01*
X6555746Y-1688922D01*
X6556189Y-1689225D01*
X6556459Y-1689439D01*
X6558983Y-1691740D01*
X6560464Y-1692314D01*
X6561478Y-1692849D01*
X6562788Y-1693746D01*
X6562788Y-1693746D01*
X6566112Y-1694528D01*
X6566442Y-1694630D01*
X6569626Y-1695863D01*
X6571214Y-1695863D01*
X6572354Y-1695996D01*
X6573899Y-1696359D01*
X6577282Y-1695887D01*
X6577626Y-1695863D01*
X7719788Y-1695863D01*
X7723310Y-1697322D01*
X7724318Y-1698775D01*
X7724758Y-1699737D01*
X7733286Y-1709580D01*
X7744242Y-1716621D01*
X7756738Y-1720290D01*
X7756738Y-1720290D01*
X7769761Y-1720290D01*
X7769762Y-1720290D01*
X7782258Y-1716621D01*
X7793214Y-1709580D01*
X7793872Y-1708820D01*
X7795234Y-1707249D01*
X7798642Y-1705543D01*
X7798997Y-1705530D01*
X8009253Y-1705530D01*
X8012774Y-1706989D01*
X8013016Y-1707249D01*
X8015036Y-1709580D01*
X8015036Y-1709580D01*
X8025992Y-1716621D01*
X8038488Y-1720290D01*
X8038488Y-1720290D01*
X8051511Y-1720290D01*
X8051512Y-1720290D01*
X8064008Y-1716621D01*
X8074964Y-1709580D01*
X8083492Y-1699737D01*
X8088902Y-1687891D01*
X8090756Y-1675000D01*
X8088902Y-1662109D01*
X8083492Y-1650263D01*
X8074964Y-1640420D01*
X8064008Y-1633379D01*
X8051512Y-1629710D01*
X8038488Y-1629710D01*
X8025992Y-1633379D01*
X8017021Y-1639145D01*
X8015036Y-1640420D01*
X8013016Y-1642751D01*
X8009608Y-1644457D01*
X8009253Y-1644470D01*
X7798997Y-1644470D01*
X7795476Y-1643011D01*
X7795234Y-1642751D01*
X7793214Y-1640420D01*
X7793214Y-1640420D01*
X7793214Y-1640420D01*
X7782258Y-1633379D01*
X7769762Y-1629710D01*
X7756738Y-1629710D01*
X7748408Y-1632156D01*
X7744242Y-1633379D01*
X7743256Y-1634013D01*
X7740564Y-1634803D01*
X6590042Y-1634803D01*
X6586521Y-1633345D01*
X6531989Y-1578813D01*
X6530530Y-1575291D01*
X6530530Y-1445793D01*
X6530700Y-1444749D01*
X6530697Y-1444748D01*
X6530761Y-1444291D01*
X6530761Y-1444291D01*
X6530582Y-1440412D01*
X6530533Y-1439352D01*
X6530530Y-1439237D01*
X6530530Y-1437172D01*
X6530530Y-1437171D01*
X6530431Y-1436643D01*
X6530391Y-1436300D01*
X6530262Y-1433500D01*
X6584244Y-1433500D01*
X6585895Y-1444980D01*
X6586098Y-1446391D01*
X6591508Y-1458237D01*
X6600036Y-1468080D01*
X6610992Y-1475121D01*
X6623488Y-1478790D01*
X6623488Y-1478790D01*
X6636511Y-1478790D01*
X6636512Y-1478790D01*
X6649008Y-1475121D01*
X6659964Y-1468080D01*
X6661999Y-1465731D01*
X6666385Y-1460669D01*
X6669794Y-1458963D01*
X6670149Y-1458950D01*
X9956351Y-1458950D01*
X9959872Y-1460409D01*
X9960115Y-1460669D01*
X9966536Y-1468080D01*
X9966536Y-1468080D01*
X9977492Y-1475121D01*
X9989988Y-1478790D01*
X9989989Y-1478790D01*
X10003012Y-1478790D01*
X10003012Y-1478790D01*
X10015508Y-1475121D01*
X10026464Y-1468080D01*
X10034992Y-1458237D01*
X10040402Y-1446391D01*
X10042256Y-1433500D01*
X10040402Y-1420609D01*
X10034992Y-1408763D01*
X10026464Y-1398920D01*
X10015508Y-1391879D01*
X10003012Y-1388210D01*
X9989988Y-1388210D01*
X9977492Y-1391879D01*
X9966536Y-1398920D01*
X9966536Y-1398920D01*
X9960115Y-1406331D01*
X9956706Y-1408037D01*
X9956351Y-1408050D01*
X6670149Y-1408050D01*
X6666628Y-1406591D01*
X6666385Y-1406331D01*
X6659964Y-1398920D01*
X6659964Y-1398920D01*
X6659964Y-1398920D01*
X6649008Y-1391879D01*
X6636512Y-1388210D01*
X6623488Y-1388210D01*
X6610992Y-1391879D01*
X6605514Y-1395400D01*
X6600036Y-1398920D01*
X6591508Y-1408763D01*
X6586098Y-1420609D01*
X6586098Y-1420609D01*
X6584244Y-1433500D01*
X6584244Y-1433500D01*
X6530262Y-1433500D01*
X6530234Y-1432889D01*
X6529593Y-1431437D01*
X6529253Y-1430341D01*
X6528961Y-1428780D01*
X6527163Y-1425876D01*
X6527003Y-1425572D01*
X6525623Y-1422447D01*
X6524501Y-1421325D01*
X6523788Y-1420425D01*
X6522953Y-1419076D01*
X6520228Y-1417018D01*
X6519967Y-1416791D01*
X6485684Y-1382508D01*
X6485066Y-1381649D01*
X6485063Y-1381651D01*
X6484786Y-1381283D01*
X6484785Y-1381283D01*
X6484785Y-1381283D01*
X6481131Y-1377952D01*
X6481048Y-1377872D01*
X6480223Y-1377047D01*
X6479588Y-1376412D01*
X6479144Y-1376108D01*
X6478874Y-1375894D01*
X6476351Y-1373593D01*
X6474870Y-1373020D01*
X6473855Y-1372485D01*
X6472545Y-1371588D01*
X6472545Y-1371588D01*
X6469221Y-1370806D01*
X6468891Y-1370704D01*
X6465707Y-1369470D01*
X6465707Y-1369470D01*
X6464120Y-1369470D01*
X6462979Y-1369338D01*
X6462640Y-1369258D01*
X6461434Y-1368974D01*
X6459115Y-1369298D01*
X6458052Y-1369446D01*
X6457708Y-1369470D01*
X5775793Y-1369470D01*
X5774748Y-1369300D01*
X5774748Y-1369303D01*
X5774291Y-1369239D01*
X5774291Y-1369239D01*
X5774291Y-1369239D01*
X5769352Y-1369467D01*
X5769237Y-1369470D01*
X5767171Y-1369470D01*
X5766643Y-1369569D01*
X5766300Y-1369608D01*
X5762889Y-1369766D01*
X5761437Y-1370407D01*
X5760341Y-1370747D01*
X5758780Y-1371039D01*
X5755877Y-1372836D01*
X5755571Y-1372997D01*
X5752448Y-1374376D01*
X5752447Y-1374377D01*
X5751325Y-1375499D01*
X5750425Y-1376211D01*
X5749076Y-1377047D01*
X5749076Y-1377047D01*
X5747018Y-1379772D01*
X5746791Y-1380033D01*
X5692508Y-1434316D01*
X5691649Y-1434934D01*
X5691651Y-1434936D01*
X5691283Y-1435214D01*
X5687952Y-1438868D01*
X5687872Y-1438952D01*
X5686411Y-1440413D01*
X5686108Y-1440855D01*
X5685894Y-1441126D01*
X5683593Y-1443649D01*
X5683593Y-1443650D01*
X5683020Y-1445130D01*
X5682485Y-1446145D01*
X5681587Y-1447455D01*
X5680806Y-1450779D01*
X5680703Y-1451109D01*
X5679470Y-1454293D01*
X5679470Y-1455880D01*
X5679338Y-1457020D01*
X5678974Y-1458565D01*
X5678974Y-1458566D01*
X5679231Y-1460409D01*
X5679446Y-1461948D01*
X5679470Y-1462292D01*
X5679470Y-1605291D01*
X5678011Y-1608813D01*
X5653479Y-1633345D01*
X5649958Y-1634803D01*
X2210459Y-1634803D01*
X2209415Y-1634633D01*
X2209415Y-1634636D01*
X2208958Y-1634572D01*
X2208958Y-1634572D01*
X2208957Y-1634572D01*
X2204018Y-1634801D01*
X2203903Y-1634803D01*
X2201838Y-1634803D01*
X2201310Y-1634902D01*
X2200968Y-1634942D01*
X2197555Y-1635099D01*
X2196103Y-1635741D01*
X2195007Y-1636080D01*
X2193447Y-1636372D01*
X2190544Y-1638169D01*
X2190238Y-1638330D01*
X2187114Y-1639710D01*
X2187114Y-1639710D01*
X2185991Y-1640833D01*
X2185092Y-1641545D01*
X2183742Y-1642381D01*
X2181684Y-1645106D01*
X2181458Y-1645366D01*
X2133573Y-1693251D01*
X2130051Y-1694710D01*
X2123488Y-1694710D01*
X2110992Y-1698379D01*
X2108879Y-1699737D01*
X2100036Y-1705420D01*
X2091508Y-1715263D01*
X2086098Y-1727109D01*
X2086098Y-1727109D01*
X2084822Y-1735982D01*
X2084244Y-1740000D01*
X165189Y-1740000D01*
X165255Y-1300000D01*
X5554244Y-1300000D01*
X5556098Y-1312891D01*
X5561508Y-1324737D01*
X5570036Y-1334580D01*
X5580992Y-1341621D01*
X5593488Y-1345290D01*
X5593488Y-1345290D01*
X5606511Y-1345290D01*
X5606512Y-1345290D01*
X5619008Y-1341621D01*
X5629964Y-1334580D01*
X5638492Y-1324737D01*
X5643902Y-1312891D01*
X5645756Y-1300000D01*
X5643902Y-1287109D01*
X5638492Y-1275263D01*
X5629964Y-1265420D01*
X5619008Y-1258379D01*
X5606512Y-1254710D01*
X5593488Y-1254710D01*
X5580992Y-1258379D01*
X5575514Y-1261900D01*
X5570036Y-1265420D01*
X5561508Y-1275263D01*
X5561508Y-1275263D01*
X5556098Y-1287109D01*
X5554244Y-1300000D01*
X165255Y-1300000D01*
X165313Y-910000D01*
X2394981Y-910000D01*
X2396835Y-922891D01*
X2402245Y-934737D01*
X2410773Y-944580D01*
X2421729Y-951621D01*
X2434225Y-955290D01*
X2434225Y-955290D01*
X2447248Y-955290D01*
X2447249Y-955290D01*
X2459745Y-951621D01*
X2470701Y-944580D01*
X2471359Y-943820D01*
X2472721Y-942249D01*
X2476129Y-940543D01*
X2476484Y-940530D01*
X8594293Y-940530D01*
X8644207Y-940530D01*
X8645251Y-940700D01*
X8645252Y-940697D01*
X8645708Y-940761D01*
X8645709Y-940761D01*
X8648744Y-940621D01*
X8650648Y-940533D01*
X8650763Y-940530D01*
X8652829Y-940530D01*
X9054253Y-940530D01*
X9057774Y-941989D01*
X9058016Y-942249D01*
X9060036Y-944580D01*
X9060036Y-944580D01*
X9070992Y-951621D01*
X9083488Y-955290D01*
X9083489Y-955290D01*
X9096512Y-955290D01*
X9096512Y-955290D01*
X9109008Y-951621D01*
X9119964Y-944580D01*
X9128492Y-934737D01*
X9133902Y-922891D01*
X9135756Y-910000D01*
X9133902Y-897109D01*
X9128492Y-885263D01*
X9119964Y-875420D01*
X9109008Y-868379D01*
X9096512Y-864710D01*
X9083488Y-864710D01*
X9070992Y-868379D01*
X9060036Y-875420D01*
X9060036Y-875420D01*
X9058016Y-877751D01*
X9054608Y-879457D01*
X9054253Y-879470D01*
X8724080Y-879470D01*
X8720559Y-878011D01*
X8719100Y-874490D01*
X8719550Y-872421D01*
X8721396Y-868379D01*
X8723902Y-862891D01*
X8725756Y-850000D01*
X8723902Y-837109D01*
X8718492Y-825263D01*
X8709964Y-815420D01*
X8699008Y-808379D01*
X8686512Y-804710D01*
X8673488Y-804710D01*
X8660992Y-808379D01*
X8655514Y-811900D01*
X8650036Y-815420D01*
X8641508Y-825263D01*
X8636098Y-837109D01*
X8636098Y-837109D01*
X8634244Y-850000D01*
X8634244Y-850000D01*
X8636098Y-862890D01*
X8636098Y-862891D01*
X8640253Y-871989D01*
X8640389Y-875798D01*
X8639245Y-877579D01*
X8638814Y-878011D01*
X8635293Y-879470D01*
X2476484Y-879470D01*
X2472963Y-878011D01*
X2472721Y-877751D01*
X2470701Y-875420D01*
X2470701Y-875420D01*
X2470701Y-875420D01*
X2459745Y-868379D01*
X2447249Y-864710D01*
X2434225Y-864710D01*
X2421729Y-868379D01*
X2416251Y-871900D01*
X2410773Y-875420D01*
X2402245Y-885262D01*
X2402245Y-885263D01*
X2396835Y-897109D01*
X2394981Y-910000D01*
X165313Y-910000D01*
X165328Y-810000D01*
X7717494Y-810000D01*
X7718121Y-814362D01*
X7719348Y-822891D01*
X7724758Y-834737D01*
X7733286Y-844580D01*
X7744242Y-851621D01*
X7756738Y-855290D01*
X7756738Y-855290D01*
X7769761Y-855290D01*
X7769762Y-855290D01*
X7782258Y-851621D01*
X7793214Y-844580D01*
X7801742Y-834737D01*
X7807152Y-822891D01*
X7809006Y-810000D01*
X7808814Y-808665D01*
X7807476Y-799362D01*
X7807152Y-797109D01*
X7806244Y-795120D01*
X10790801Y-795120D01*
X10796860Y-799362D01*
X10796860Y-799362D01*
X10816809Y-808665D01*
X10816810Y-808665D01*
X10838071Y-814362D01*
X10838072Y-814362D01*
X10859999Y-816280D01*
X10860001Y-816280D01*
X10881928Y-814362D01*
X10881929Y-814362D01*
X10903190Y-808665D01*
X10903191Y-808665D01*
X10923141Y-799362D01*
X10929199Y-795120D01*
X10929199Y-795120D01*
X10860000Y-725921D01*
X10790801Y-795120D01*
X10790801Y-795120D01*
X7806244Y-795120D01*
X7801742Y-785263D01*
X7793214Y-775420D01*
X7782258Y-768379D01*
X7769762Y-764710D01*
X7756738Y-764710D01*
X7744242Y-768379D01*
X7738764Y-771900D01*
X7733286Y-775420D01*
X7724758Y-785263D01*
X7719348Y-797109D01*
X7719348Y-797109D01*
X7717494Y-810000D01*
X7717494Y-810000D01*
X165328Y-810000D01*
X165346Y-690001D01*
X10733720Y-690001D01*
X10735638Y-711928D01*
X10735638Y-711929D01*
X10741335Y-733190D01*
X10741335Y-733191D01*
X10750638Y-753140D01*
X10750638Y-753140D01*
X10754880Y-759199D01*
X10821149Y-692930D01*
X10824637Y-692930D01*
X10827505Y-704254D01*
X10833894Y-714033D01*
X10843112Y-721207D01*
X10854160Y-725000D01*
X10862901Y-725000D01*
X10871522Y-723561D01*
X10881795Y-718002D01*
X10889706Y-709408D01*
X10894398Y-698711D01*
X10895120Y-690000D01*
X10895921Y-690000D01*
X10965120Y-759199D01*
X10965120Y-759199D01*
X10969362Y-753141D01*
X10978665Y-733191D01*
X10978665Y-733190D01*
X10984362Y-711929D01*
X10984362Y-711928D01*
X10986281Y-690001D01*
X10986281Y-689999D01*
X10984362Y-668072D01*
X10984362Y-668071D01*
X10978665Y-646810D01*
X10978665Y-646809D01*
X10969362Y-626860D01*
X10969362Y-626860D01*
X10965120Y-620801D01*
X10895921Y-690000D01*
X10895120Y-690000D01*
X10895363Y-687070D01*
X10892495Y-675746D01*
X10886106Y-665967D01*
X10876889Y-658793D01*
X10865841Y-655000D01*
X10857100Y-655000D01*
X10848478Y-656439D01*
X10838205Y-661998D01*
X10830294Y-670592D01*
X10825602Y-681289D01*
X10824637Y-692930D01*
X10821149Y-692930D01*
X10824079Y-690000D01*
X10754880Y-620801D01*
X10750638Y-626860D01*
X10750638Y-626860D01*
X10741335Y-646809D01*
X10741335Y-646810D01*
X10735638Y-668071D01*
X10735638Y-668072D01*
X10733720Y-689999D01*
X10733720Y-690001D01*
X165346Y-690001D01*
X165388Y-415414D01*
X950673Y-415414D01*
X952587Y-434843D01*
X958254Y-453525D01*
X967457Y-470743D01*
X979843Y-485834D01*
X994934Y-498219D01*
X1012152Y-507423D01*
X1030834Y-513090D01*
X1045467Y-514531D01*
X1050263Y-515003D01*
X1050263Y-515003D01*
X1050263Y-515003D01*
X1054695Y-514567D01*
X1069692Y-513090D01*
X1088374Y-507423D01*
X1105592Y-498219D01*
X1120684Y-485834D01*
X1133069Y-470743D01*
X1142272Y-453525D01*
X1147939Y-434843D01*
X1149853Y-415414D01*
X1204674Y-415414D01*
X1206587Y-434843D01*
X1212254Y-453525D01*
X1221457Y-470743D01*
X1233843Y-485834D01*
X1248934Y-498219D01*
X1266152Y-507423D01*
X1284834Y-513090D01*
X1299467Y-514531D01*
X1304263Y-515003D01*
X1304263Y-515003D01*
X1304263Y-515003D01*
X1308695Y-514567D01*
X1323692Y-513090D01*
X1342374Y-507423D01*
X1359592Y-498219D01*
X1374684Y-485834D01*
X1387069Y-470743D01*
X1396272Y-453525D01*
X1401939Y-434843D01*
X1403853Y-415414D01*
X1458673Y-415414D01*
X1460587Y-434843D01*
X1466254Y-453525D01*
X1475457Y-470743D01*
X1487843Y-485834D01*
X1502934Y-498219D01*
X1520152Y-507423D01*
X1538834Y-513090D01*
X1553467Y-514531D01*
X1558263Y-515003D01*
X1558263Y-515003D01*
X1558263Y-515003D01*
X1562695Y-514567D01*
X1577692Y-513090D01*
X1596374Y-507423D01*
X1613592Y-498219D01*
X1628684Y-485834D01*
X1641069Y-470743D01*
X1650272Y-453525D01*
X1655939Y-434843D01*
X1657853Y-415414D01*
X1712673Y-415414D01*
X1714587Y-434843D01*
X1720254Y-453525D01*
X1729457Y-470743D01*
X1741843Y-485834D01*
X1756934Y-498219D01*
X1774152Y-507423D01*
X1792834Y-513090D01*
X1807467Y-514531D01*
X1812263Y-515003D01*
X1812263Y-515003D01*
X1812263Y-515003D01*
X1816695Y-514567D01*
X1831692Y-513090D01*
X1850374Y-507423D01*
X1867592Y-498219D01*
X1882684Y-485834D01*
X1895069Y-470743D01*
X1904272Y-453525D01*
X1909939Y-434843D01*
X1911853Y-415414D01*
X1966673Y-415414D01*
X1968587Y-434843D01*
X1974254Y-453525D01*
X1983457Y-470743D01*
X1995843Y-485834D01*
X2010934Y-498219D01*
X2028152Y-507423D01*
X2046834Y-513090D01*
X2061467Y-514531D01*
X2066263Y-515003D01*
X2066263Y-515003D01*
X2066263Y-515003D01*
X2070695Y-514567D01*
X2085692Y-513090D01*
X2104374Y-507423D01*
X2121592Y-498219D01*
X2136684Y-485834D01*
X2149069Y-470743D01*
X2158272Y-453525D01*
X2163939Y-434843D01*
X2165853Y-415414D01*
X2220674Y-415414D01*
X2222587Y-434843D01*
X2228254Y-453525D01*
X2237457Y-470743D01*
X2249843Y-485834D01*
X2264934Y-498219D01*
X2282152Y-507423D01*
X2300834Y-513090D01*
X2315467Y-514531D01*
X2320263Y-515003D01*
X2320263Y-515003D01*
X2320263Y-515003D01*
X2324695Y-514567D01*
X2339692Y-513090D01*
X2358374Y-507423D01*
X2375592Y-498219D01*
X2390684Y-485834D01*
X2403069Y-470743D01*
X2412272Y-453525D01*
X2417939Y-434843D01*
X2419853Y-415414D01*
X2474674Y-415414D01*
X2476587Y-434843D01*
X2482254Y-453525D01*
X2491457Y-470743D01*
X2503843Y-485834D01*
X2518934Y-498219D01*
X2536152Y-507423D01*
X2554834Y-513090D01*
X2569467Y-514531D01*
X2574263Y-515003D01*
X2574263Y-515003D01*
X2574263Y-515003D01*
X2578695Y-514567D01*
X2593692Y-513090D01*
X2612374Y-507423D01*
X2629592Y-498219D01*
X2644684Y-485834D01*
X2657069Y-470743D01*
X2666272Y-453525D01*
X2671939Y-434843D01*
X2673853Y-415414D01*
X2728674Y-415414D01*
X2730587Y-434843D01*
X2736254Y-453525D01*
X2745457Y-470743D01*
X2757843Y-485834D01*
X2772934Y-498219D01*
X2790152Y-507423D01*
X2808834Y-513090D01*
X2823467Y-514531D01*
X2828263Y-515003D01*
X2828263Y-515003D01*
X2828263Y-515003D01*
X2832695Y-514567D01*
X2847692Y-513090D01*
X2866374Y-507423D01*
X2883592Y-498219D01*
X2898684Y-485834D01*
X2911069Y-470743D01*
X2920272Y-453525D01*
X2925939Y-434843D01*
X2927853Y-415414D01*
X2982673Y-415414D01*
X2984587Y-434843D01*
X2990254Y-453525D01*
X2999457Y-470743D01*
X3011843Y-485834D01*
X3026934Y-498219D01*
X3044152Y-507423D01*
X3062834Y-513090D01*
X3077467Y-514531D01*
X3082263Y-515003D01*
X3082263Y-515003D01*
X3082263Y-515003D01*
X3086695Y-514567D01*
X3101692Y-513090D01*
X3120374Y-507423D01*
X3137592Y-498219D01*
X3152684Y-485834D01*
X3165069Y-470743D01*
X3174272Y-453525D01*
X3179939Y-434843D01*
X3181853Y-415414D01*
X3236673Y-415414D01*
X3238587Y-434843D01*
X3244254Y-453525D01*
X3253457Y-470743D01*
X3265843Y-485834D01*
X3280934Y-498219D01*
X3298152Y-507423D01*
X3316834Y-513090D01*
X3331467Y-514531D01*
X3336263Y-515003D01*
X3336263Y-515003D01*
X3336263Y-515003D01*
X3340695Y-514567D01*
X3355692Y-513090D01*
X3374374Y-507423D01*
X3391592Y-498219D01*
X3406684Y-485834D01*
X3419069Y-470743D01*
X3428272Y-453525D01*
X3433939Y-434843D01*
X3435853Y-415414D01*
X3490673Y-415414D01*
X3492587Y-434843D01*
X3498254Y-453525D01*
X3507457Y-470743D01*
X3519843Y-485834D01*
X3534934Y-498219D01*
X3552152Y-507423D01*
X3570834Y-513090D01*
X3585467Y-514531D01*
X3590263Y-515003D01*
X3590263Y-515003D01*
X3590263Y-515003D01*
X3594695Y-514567D01*
X3609692Y-513090D01*
X3628374Y-507423D01*
X3645592Y-498219D01*
X3660684Y-485834D01*
X3673069Y-470743D01*
X3682272Y-453525D01*
X3687939Y-434843D01*
X3689853Y-415414D01*
X3744673Y-415414D01*
X3746587Y-434843D01*
X3752254Y-453525D01*
X3761457Y-470743D01*
X3773843Y-485834D01*
X3788934Y-498219D01*
X3806152Y-507423D01*
X3824834Y-513090D01*
X3839467Y-514531D01*
X3844263Y-515003D01*
X3844263Y-515003D01*
X3844263Y-515003D01*
X3848695Y-514567D01*
X3863692Y-513090D01*
X3882374Y-507423D01*
X3899592Y-498219D01*
X3914684Y-485834D01*
X3927069Y-470743D01*
X3936272Y-453525D01*
X3941939Y-434843D01*
X3943853Y-415414D01*
X3998673Y-415414D01*
X4000587Y-434843D01*
X4006254Y-453525D01*
X4015457Y-470743D01*
X4027843Y-485834D01*
X4042934Y-498219D01*
X4060152Y-507423D01*
X4078834Y-513090D01*
X4093467Y-514531D01*
X4098263Y-515003D01*
X4098263Y-515003D01*
X4098263Y-515003D01*
X4102695Y-514567D01*
X4117692Y-513090D01*
X4136374Y-507423D01*
X4153592Y-498219D01*
X4168684Y-485834D01*
X4181069Y-470743D01*
X4190272Y-453525D01*
X4195939Y-434843D01*
X4197853Y-415414D01*
X4252674Y-415414D01*
X4254587Y-434843D01*
X4260254Y-453525D01*
X4269457Y-470743D01*
X4281843Y-485834D01*
X4296934Y-498219D01*
X4314152Y-507423D01*
X4332834Y-513090D01*
X4347467Y-514531D01*
X4352263Y-515003D01*
X4352263Y-515003D01*
X4352263Y-515003D01*
X4356695Y-514567D01*
X4371692Y-513090D01*
X4390374Y-507423D01*
X4407592Y-498219D01*
X4422684Y-485834D01*
X4435069Y-470743D01*
X4444272Y-453525D01*
X4449939Y-434843D01*
X4451853Y-415414D01*
X4506674Y-415414D01*
X4508587Y-434843D01*
X4514254Y-453525D01*
X4523457Y-470743D01*
X4535843Y-485834D01*
X4550934Y-498219D01*
X4568152Y-507423D01*
X4586834Y-513090D01*
X4601467Y-514531D01*
X4606263Y-515003D01*
X4606263Y-515003D01*
X4606263Y-515003D01*
X4610695Y-514567D01*
X4625692Y-513090D01*
X4644374Y-507423D01*
X4661592Y-498219D01*
X4676684Y-485834D01*
X4689069Y-470743D01*
X4698272Y-453525D01*
X4703939Y-434843D01*
X4705853Y-415414D01*
X4725129Y-415414D01*
X4727182Y-438879D01*
X4727182Y-438880D01*
X4733278Y-461632D01*
X4733279Y-461633D01*
X4743233Y-482980D01*
X4743234Y-482981D01*
X4748810Y-490945D01*
X4811827Y-427929D01*
X4814314Y-436398D01*
X4822087Y-448494D01*
X4832953Y-457909D01*
X4846032Y-463882D01*
X4847504Y-464093D01*
X4784731Y-526867D01*
X4792696Y-532443D01*
X4792696Y-532444D01*
X4814044Y-542398D01*
X4814045Y-542398D01*
X4836797Y-548495D01*
X4836798Y-548495D01*
X4860263Y-550548D01*
X4860264Y-550548D01*
X4883728Y-548495D01*
X4883729Y-548495D01*
X4906481Y-542398D01*
X4906483Y-542398D01*
X4927830Y-532444D01*
X4927830Y-532443D01*
X4935795Y-526867D01*
X4873022Y-464093D01*
X4874495Y-463882D01*
X4887573Y-457909D01*
X4898439Y-448494D01*
X4906212Y-436398D01*
X4908699Y-427929D01*
X4971716Y-490945D01*
X4974635Y-486777D01*
X5994579Y-486777D01*
X5997541Y-513701D01*
X5997541Y-513702D01*
X6002441Y-532444D01*
X6004393Y-539909D01*
X6004393Y-539909D01*
X6014852Y-564522D01*
X6014987Y-564839D01*
X6018951Y-571335D01*
X6029098Y-587961D01*
X6029098Y-587961D01*
X6034611Y-594586D01*
X6045339Y-607477D01*
X6046426Y-608782D01*
X6066600Y-626858D01*
X6066600Y-626859D01*
X6070088Y-629166D01*
X6089191Y-641804D01*
X6089191Y-641805D01*
X6089191Y-641805D01*
X6113717Y-653302D01*
X6113718Y-653302D01*
X6139656Y-661106D01*
X6139657Y-661106D01*
X6139657Y-661106D01*
X6166456Y-665050D01*
X6166456Y-665050D01*
X6186764Y-665050D01*
X6195764Y-664391D01*
X6207016Y-663568D01*
X6233455Y-657678D01*
X6258756Y-648001D01*
X6282378Y-634744D01*
X6303818Y-618189D01*
X6322619Y-598688D01*
X6338380Y-576658D01*
X6350766Y-552568D01*
X6359512Y-526931D01*
X6364432Y-500293D01*
X6365421Y-473223D01*
X6364471Y-464586D01*
X6684981Y-464586D01*
X6685866Y-470743D01*
X6686835Y-477477D01*
X6692245Y-489324D01*
X6700773Y-499166D01*
X6711729Y-506207D01*
X6724225Y-509876D01*
X6724225Y-509876D01*
X6737248Y-509876D01*
X6737249Y-509876D01*
X6749744Y-506207D01*
X6760700Y-499166D01*
X6761521Y-498219D01*
X6763136Y-496355D01*
X6766545Y-494649D01*
X6766900Y-494636D01*
X7819440Y-494636D01*
X7820412Y-494732D01*
X7822437Y-495135D01*
X7832367Y-493160D01*
X7838661Y-488955D01*
X7838661Y-488954D01*
X7839011Y-488720D01*
X7839012Y-488719D01*
X7840786Y-487535D01*
X7841933Y-485817D01*
X7842552Y-485063D01*
X7926157Y-401459D01*
X7929678Y-400000D01*
X8249867Y-400000D01*
X8253388Y-401459D01*
X8254847Y-404980D01*
X8254847Y-532422D01*
X8253388Y-535943D01*
X8221654Y-567678D01*
X8218132Y-569136D01*
X6920886Y-569136D01*
X6917364Y-567678D01*
X6917122Y-567417D01*
X6910701Y-560007D01*
X6910701Y-560006D01*
X6910700Y-560006D01*
X6899744Y-552965D01*
X6887249Y-549296D01*
X6874225Y-549296D01*
X6861729Y-552965D01*
X6858631Y-554956D01*
X6850773Y-560006D01*
X6842245Y-569849D01*
X6836835Y-581695D01*
X6836834Y-581696D01*
X6834981Y-594586D01*
X6834981Y-594586D01*
X6835571Y-598688D01*
X6836835Y-607477D01*
X6842245Y-619324D01*
X6850773Y-629166D01*
X6861729Y-636207D01*
X6874225Y-639876D01*
X6874225Y-639876D01*
X6887248Y-639876D01*
X6887249Y-639876D01*
X6899744Y-636207D01*
X6910700Y-629166D01*
X6912736Y-626817D01*
X6917122Y-621755D01*
X6920531Y-620049D01*
X6920886Y-620036D01*
X8227740Y-620036D01*
X8228711Y-620132D01*
X8230737Y-620535D01*
X8240667Y-618560D01*
X8246960Y-614355D01*
X8246960Y-614355D01*
X8247311Y-614120D01*
X8247312Y-614120D01*
X8249085Y-612935D01*
X8250232Y-611218D01*
X8250851Y-610463D01*
X8276434Y-584880D01*
X10790801Y-584880D01*
X10860000Y-654079D01*
X10929199Y-584880D01*
X10923140Y-580638D01*
X10923140Y-580638D01*
X10903191Y-571335D01*
X10903190Y-571335D01*
X10881929Y-565638D01*
X10881928Y-565638D01*
X10860001Y-563720D01*
X10859999Y-563720D01*
X10838072Y-565638D01*
X10838071Y-565638D01*
X10816810Y-571335D01*
X10816809Y-571335D01*
X10796860Y-580638D01*
X10796860Y-580638D01*
X10790801Y-584880D01*
X8276434Y-584880D01*
X8296174Y-565141D01*
X8296928Y-564522D01*
X8298645Y-563375D01*
X8301078Y-559733D01*
X8304270Y-554956D01*
X8306246Y-545026D01*
X8305843Y-543000D01*
X8305747Y-542029D01*
X8305747Y-404980D01*
X8307206Y-401459D01*
X8310727Y-400000D01*
X9415000Y-400000D01*
X9415000Y-150000D01*
X7625000Y-150000D01*
X7625000Y-154740D01*
X7623541Y-158261D01*
X7620020Y-159720D01*
X7616903Y-158504D01*
X7616852Y-158570D01*
X7597755Y-143706D01*
X7576654Y-132286D01*
X7553960Y-124496D01*
X7530294Y-120546D01*
X7506300Y-120546D01*
X7482634Y-124496D01*
X7459940Y-132286D01*
X7438838Y-143706D01*
X7435329Y-146438D01*
X7504832Y-215940D01*
X7503838Y-216083D01*
X7490550Y-222151D01*
X7479510Y-231717D01*
X7471612Y-244006D01*
X7469216Y-252167D01*
X7399501Y-182452D01*
X7390531Y-196182D01*
X7380892Y-218155D01*
X7380892Y-218156D01*
X7375002Y-241414D01*
X7373021Y-265326D01*
X7375002Y-289238D01*
X7380892Y-312497D01*
X7380892Y-312498D01*
X7390530Y-334470D01*
X7399501Y-348201D01*
X7469216Y-278486D01*
X7471612Y-286647D01*
X7479510Y-298936D01*
X7490550Y-308502D01*
X7503838Y-314570D01*
X7504831Y-314713D01*
X7435329Y-384215D01*
X7438838Y-386947D01*
X7438838Y-386947D01*
X7459940Y-398366D01*
X7482634Y-406157D01*
X7506300Y-410106D01*
X7530294Y-410106D01*
X7553960Y-406157D01*
X7576654Y-398366D01*
X7597755Y-386947D01*
X7616852Y-372083D01*
X7616907Y-372154D01*
X7620225Y-370937D01*
X7623683Y-372539D01*
X7625000Y-375913D01*
X7625000Y-400000D01*
X7843609Y-400000D01*
X7847130Y-401459D01*
X7848589Y-404980D01*
X7847130Y-408501D01*
X7813354Y-442278D01*
X7809833Y-443736D01*
X6774205Y-443736D01*
X6770683Y-442278D01*
X6769675Y-440825D01*
X6769229Y-439849D01*
X6760700Y-430006D01*
X6749744Y-422965D01*
X6737249Y-419296D01*
X6724225Y-419296D01*
X6711729Y-422965D01*
X6706251Y-426486D01*
X6700773Y-430006D01*
X6692245Y-439849D01*
X6686835Y-451695D01*
X6686834Y-451696D01*
X6684981Y-464586D01*
X6684981Y-464586D01*
X6364471Y-464586D01*
X6362459Y-446298D01*
X6355607Y-420091D01*
X6345013Y-395161D01*
X6330902Y-372039D01*
X6328535Y-369195D01*
X6320953Y-360084D01*
X6313574Y-351218D01*
X6309812Y-347847D01*
X6293400Y-333142D01*
X6293400Y-333141D01*
X6270808Y-318195D01*
X6246283Y-306698D01*
X6246282Y-306698D01*
X6220344Y-298894D01*
X6220343Y-298894D01*
X6193544Y-294950D01*
X6193544Y-294950D01*
X6173237Y-294950D01*
X6173236Y-294950D01*
X6152985Y-296432D01*
X6152985Y-296432D01*
X6152984Y-296432D01*
X6141933Y-298894D01*
X6126545Y-302322D01*
X6126544Y-302322D01*
X6101244Y-311998D01*
X6101244Y-311999D01*
X6077622Y-325256D01*
X6056182Y-341811D01*
X6037381Y-361312D01*
X6029077Y-372919D01*
X6022341Y-382334D01*
X6021620Y-383342D01*
X6009234Y-407432D01*
X6000488Y-433070D01*
X5995568Y-459707D01*
X5994579Y-486776D01*
X5994579Y-486777D01*
X4974635Y-486777D01*
X4977293Y-482981D01*
X4977293Y-482980D01*
X4987247Y-461633D01*
X4987248Y-461632D01*
X4993344Y-438880D01*
X4993344Y-438879D01*
X4995397Y-415414D01*
X4995397Y-415413D01*
X4993344Y-391949D01*
X4993344Y-391948D01*
X4987248Y-369195D01*
X4987247Y-369194D01*
X4977293Y-347847D01*
X4977293Y-347847D01*
X4971716Y-339882D01*
X4908699Y-402899D01*
X4906212Y-394429D01*
X4898439Y-382334D01*
X4887573Y-372919D01*
X4874495Y-366946D01*
X4873022Y-366734D01*
X4935795Y-303961D01*
X4927830Y-298384D01*
X4927830Y-298384D01*
X4906483Y-288430D01*
X4906481Y-288429D01*
X4883729Y-282333D01*
X4883728Y-282332D01*
X4860264Y-280280D01*
X4860263Y-280280D01*
X4836798Y-282332D01*
X4836797Y-282333D01*
X4814045Y-288429D01*
X4814044Y-288430D01*
X4792696Y-298384D01*
X4792696Y-298384D01*
X4784731Y-303961D01*
X4847504Y-366734D01*
X4846032Y-366946D01*
X4832953Y-372919D01*
X4822087Y-382334D01*
X4814314Y-394429D01*
X4811827Y-402899D01*
X4748810Y-339882D01*
X4743234Y-347847D01*
X4743233Y-347847D01*
X4733279Y-369194D01*
X4733278Y-369195D01*
X4727182Y-391948D01*
X4727182Y-391949D01*
X4725129Y-415413D01*
X4725129Y-415414D01*
X4705853Y-415414D01*
X4705853Y-415414D01*
X4705853Y-415413D01*
X4705172Y-408501D01*
X4703939Y-395985D01*
X4698272Y-377302D01*
X4689069Y-360085D01*
X4676684Y-344993D01*
X4662242Y-333142D01*
X4661593Y-332608D01*
X4661592Y-332608D01*
X4661592Y-332608D01*
X4644374Y-323405D01*
X4625692Y-317738D01*
X4625692Y-317738D01*
X4606263Y-315824D01*
X4606263Y-315824D01*
X4586834Y-317738D01*
X4585325Y-318196D01*
X4568152Y-323405D01*
X4550934Y-332608D01*
X4550934Y-332608D01*
X4550934Y-332608D01*
X4535843Y-344993D01*
X4523458Y-360084D01*
X4523457Y-360085D01*
X4523457Y-360085D01*
X4514254Y-377302D01*
X4512728Y-382334D01*
X4508587Y-395985D01*
X4506674Y-415413D01*
X4506674Y-415414D01*
X4451853Y-415414D01*
X4451853Y-415413D01*
X4451172Y-408501D01*
X4449939Y-395985D01*
X4444272Y-377302D01*
X4435069Y-360085D01*
X4422684Y-344993D01*
X4408242Y-333142D01*
X4407593Y-332608D01*
X4407592Y-332608D01*
X4407592Y-332608D01*
X4390374Y-323405D01*
X4371692Y-317738D01*
X4371692Y-317738D01*
X4352263Y-315824D01*
X4352263Y-315824D01*
X4332834Y-317738D01*
X4331325Y-318196D01*
X4314152Y-323405D01*
X4296934Y-332608D01*
X4296934Y-332608D01*
X4296934Y-332608D01*
X4281843Y-344993D01*
X4269458Y-360084D01*
X4269457Y-360085D01*
X4269457Y-360085D01*
X4260254Y-377302D01*
X4258728Y-382334D01*
X4254587Y-395985D01*
X4252674Y-415413D01*
X4252674Y-415414D01*
X4197853Y-415414D01*
X4197853Y-415413D01*
X4197172Y-408501D01*
X4195939Y-395985D01*
X4190272Y-377302D01*
X4181069Y-360085D01*
X4168684Y-344993D01*
X4154242Y-333142D01*
X4153592Y-332608D01*
X4153592Y-332608D01*
X4153592Y-332608D01*
X4136374Y-323405D01*
X4117692Y-317738D01*
X4117692Y-317738D01*
X4098263Y-315824D01*
X4098263Y-315824D01*
X4078834Y-317738D01*
X4077325Y-318196D01*
X4060152Y-323405D01*
X4042934Y-332608D01*
X4042934Y-332608D01*
X4042934Y-332608D01*
X4027843Y-344993D01*
X4015458Y-360084D01*
X4015457Y-360085D01*
X4015457Y-360085D01*
X4006254Y-377302D01*
X4004728Y-382334D01*
X4000587Y-395985D01*
X3998674Y-415413D01*
X3998673Y-415414D01*
X3943853Y-415414D01*
X3943853Y-415413D01*
X3943172Y-408501D01*
X3941939Y-395985D01*
X3936272Y-377302D01*
X3927069Y-360085D01*
X3914684Y-344993D01*
X3900242Y-333142D01*
X3899592Y-332608D01*
X3899592Y-332608D01*
X3899592Y-332608D01*
X3882374Y-323405D01*
X3863692Y-317738D01*
X3863692Y-317738D01*
X3844263Y-315824D01*
X3844263Y-315824D01*
X3824834Y-317738D01*
X3823325Y-318196D01*
X3806152Y-323405D01*
X3788934Y-332608D01*
X3788934Y-332608D01*
X3788934Y-332608D01*
X3773843Y-344993D01*
X3761458Y-360084D01*
X3761457Y-360085D01*
X3761457Y-360085D01*
X3752254Y-377302D01*
X3750728Y-382334D01*
X3746587Y-395985D01*
X3744674Y-415413D01*
X3744673Y-415414D01*
X3689853Y-415414D01*
X3689853Y-415413D01*
X3689172Y-408501D01*
X3687939Y-395985D01*
X3682272Y-377302D01*
X3673069Y-360085D01*
X3660684Y-344993D01*
X3646242Y-333142D01*
X3645592Y-332608D01*
X3645592Y-332608D01*
X3645592Y-332608D01*
X3628374Y-323405D01*
X3609692Y-317738D01*
X3609692Y-317738D01*
X3590263Y-315824D01*
X3590263Y-315824D01*
X3570834Y-317738D01*
X3569325Y-318196D01*
X3552152Y-323405D01*
X3534934Y-332608D01*
X3534934Y-332608D01*
X3534934Y-332608D01*
X3519843Y-344993D01*
X3507458Y-360084D01*
X3507457Y-360085D01*
X3507457Y-360085D01*
X3498254Y-377302D01*
X3496728Y-382334D01*
X3492587Y-395985D01*
X3490674Y-415413D01*
X3490673Y-415414D01*
X3435853Y-415414D01*
X3435853Y-415413D01*
X3435172Y-408501D01*
X3433939Y-395985D01*
X3428272Y-377302D01*
X3419069Y-360085D01*
X3406684Y-344993D01*
X3392242Y-333142D01*
X3391592Y-332608D01*
X3391592Y-332608D01*
X3391592Y-332608D01*
X3374374Y-323405D01*
X3355692Y-317738D01*
X3355692Y-317738D01*
X3336263Y-315824D01*
X3336263Y-315824D01*
X3316834Y-317738D01*
X3315325Y-318196D01*
X3298152Y-323405D01*
X3280934Y-332608D01*
X3280934Y-332608D01*
X3280934Y-332608D01*
X3265843Y-344993D01*
X3253458Y-360084D01*
X3253457Y-360085D01*
X3253457Y-360085D01*
X3244254Y-377302D01*
X3242728Y-382334D01*
X3238587Y-395985D01*
X3236674Y-415413D01*
X3236673Y-415414D01*
X3181853Y-415414D01*
X3181853Y-415413D01*
X3181172Y-408501D01*
X3179939Y-395985D01*
X3174272Y-377302D01*
X3165069Y-360085D01*
X3152684Y-344993D01*
X3138242Y-333142D01*
X3137592Y-332608D01*
X3137592Y-332608D01*
X3137592Y-332608D01*
X3120374Y-323405D01*
X3101692Y-317738D01*
X3101692Y-317738D01*
X3082263Y-315824D01*
X3082263Y-315824D01*
X3062834Y-317738D01*
X3061325Y-318196D01*
X3044152Y-323405D01*
X3026934Y-332608D01*
X3026934Y-332608D01*
X3026934Y-332608D01*
X3011843Y-344993D01*
X2999458Y-360084D01*
X2999457Y-360085D01*
X2999457Y-360085D01*
X2990254Y-377302D01*
X2988728Y-382334D01*
X2984587Y-395985D01*
X2982674Y-415413D01*
X2982673Y-415414D01*
X2927853Y-415414D01*
X2927853Y-415413D01*
X2927172Y-408501D01*
X2925939Y-395985D01*
X2920272Y-377302D01*
X2911069Y-360085D01*
X2898684Y-344993D01*
X2884242Y-333142D01*
X2883592Y-332608D01*
X2883592Y-332608D01*
X2883592Y-332608D01*
X2866374Y-323405D01*
X2847692Y-317738D01*
X2847692Y-317738D01*
X2828263Y-315824D01*
X2828263Y-315824D01*
X2808834Y-317738D01*
X2807325Y-318196D01*
X2790152Y-323405D01*
X2772934Y-332608D01*
X2772934Y-332608D01*
X2772934Y-332608D01*
X2757843Y-344993D01*
X2745458Y-360084D01*
X2745457Y-360085D01*
X2745457Y-360085D01*
X2736254Y-377302D01*
X2734728Y-382334D01*
X2730587Y-395985D01*
X2728674Y-415413D01*
X2728674Y-415414D01*
X2673853Y-415414D01*
X2673853Y-415413D01*
X2673172Y-408501D01*
X2671939Y-395985D01*
X2666272Y-377302D01*
X2657069Y-360085D01*
X2644684Y-344993D01*
X2630242Y-333142D01*
X2629593Y-332608D01*
X2629592Y-332608D01*
X2629592Y-332608D01*
X2612374Y-323405D01*
X2593692Y-317738D01*
X2593692Y-317738D01*
X2574263Y-315824D01*
X2574263Y-315824D01*
X2554834Y-317738D01*
X2553325Y-318196D01*
X2536152Y-323405D01*
X2518934Y-332608D01*
X2518934Y-332608D01*
X2518934Y-332608D01*
X2503843Y-344993D01*
X2491458Y-360084D01*
X2491457Y-360085D01*
X2491457Y-360085D01*
X2482254Y-377302D01*
X2480728Y-382334D01*
X2476587Y-395985D01*
X2474674Y-415413D01*
X2474674Y-415414D01*
X2419853Y-415414D01*
X2419853Y-415413D01*
X2419172Y-408501D01*
X2417939Y-395985D01*
X2412272Y-377302D01*
X2403069Y-360085D01*
X2390684Y-344993D01*
X2376242Y-333142D01*
X2375593Y-332608D01*
X2375592Y-332608D01*
X2375592Y-332608D01*
X2358374Y-323405D01*
X2339692Y-317738D01*
X2339692Y-317738D01*
X2320263Y-315824D01*
X2320263Y-315824D01*
X2300834Y-317738D01*
X2299325Y-318196D01*
X2282152Y-323405D01*
X2264934Y-332608D01*
X2264934Y-332608D01*
X2264934Y-332608D01*
X2249843Y-344993D01*
X2237458Y-360084D01*
X2237457Y-360085D01*
X2237457Y-360085D01*
X2228254Y-377302D01*
X2226728Y-382334D01*
X2222587Y-395985D01*
X2220674Y-415413D01*
X2220674Y-415414D01*
X2165853Y-415414D01*
X2165853Y-415413D01*
X2165172Y-408501D01*
X2163939Y-395985D01*
X2158272Y-377302D01*
X2149069Y-360085D01*
X2136684Y-344993D01*
X2122242Y-333142D01*
X2121593Y-332608D01*
X2121592Y-332608D01*
X2121592Y-332608D01*
X2104374Y-323405D01*
X2085692Y-317738D01*
X2085692Y-317738D01*
X2066263Y-315824D01*
X2066263Y-315824D01*
X2046834Y-317738D01*
X2045325Y-318196D01*
X2028152Y-323405D01*
X2010934Y-332608D01*
X2010934Y-332608D01*
X2010934Y-332608D01*
X1995843Y-344993D01*
X1983458Y-360084D01*
X1983457Y-360085D01*
X1983457Y-360085D01*
X1974254Y-377302D01*
X1972728Y-382334D01*
X1968587Y-395985D01*
X1966674Y-415413D01*
X1966673Y-415414D01*
X1911853Y-415414D01*
X1911853Y-415413D01*
X1911172Y-408501D01*
X1909939Y-395985D01*
X1904272Y-377302D01*
X1895069Y-360085D01*
X1882684Y-344993D01*
X1868242Y-333142D01*
X1867592Y-332608D01*
X1867592Y-332608D01*
X1867592Y-332608D01*
X1850374Y-323405D01*
X1831692Y-317738D01*
X1831692Y-317738D01*
X1812263Y-315824D01*
X1812263Y-315824D01*
X1792834Y-317738D01*
X1791325Y-318196D01*
X1774152Y-323405D01*
X1756934Y-332608D01*
X1756934Y-332608D01*
X1756934Y-332608D01*
X1741843Y-344993D01*
X1729458Y-360084D01*
X1729457Y-360085D01*
X1729457Y-360085D01*
X1720254Y-377302D01*
X1718728Y-382334D01*
X1714587Y-395985D01*
X1712674Y-415413D01*
X1712673Y-415414D01*
X1657853Y-415414D01*
X1657853Y-415413D01*
X1657172Y-408501D01*
X1655939Y-395985D01*
X1650272Y-377302D01*
X1641069Y-360085D01*
X1628684Y-344993D01*
X1614242Y-333142D01*
X1613592Y-332608D01*
X1613592Y-332608D01*
X1613592Y-332608D01*
X1596374Y-323405D01*
X1577692Y-317738D01*
X1577692Y-317738D01*
X1558263Y-315824D01*
X1558263Y-315824D01*
X1538834Y-317738D01*
X1537325Y-318196D01*
X1520152Y-323405D01*
X1502934Y-332608D01*
X1502934Y-332608D01*
X1502934Y-332608D01*
X1487843Y-344993D01*
X1475458Y-360084D01*
X1475457Y-360085D01*
X1475457Y-360085D01*
X1466254Y-377302D01*
X1464728Y-382334D01*
X1460587Y-395985D01*
X1458674Y-415413D01*
X1458673Y-415414D01*
X1403853Y-415414D01*
X1403853Y-415413D01*
X1403172Y-408501D01*
X1401939Y-395985D01*
X1396272Y-377302D01*
X1387069Y-360085D01*
X1374684Y-344993D01*
X1360242Y-333142D01*
X1359593Y-332608D01*
X1359592Y-332608D01*
X1359592Y-332608D01*
X1342374Y-323405D01*
X1323692Y-317738D01*
X1323692Y-317738D01*
X1304263Y-315824D01*
X1304263Y-315824D01*
X1284834Y-317738D01*
X1283325Y-318196D01*
X1266152Y-323405D01*
X1248934Y-332608D01*
X1248934Y-332608D01*
X1248934Y-332608D01*
X1233843Y-344993D01*
X1221458Y-360084D01*
X1221457Y-360085D01*
X1221457Y-360085D01*
X1212254Y-377302D01*
X1210728Y-382334D01*
X1206587Y-395985D01*
X1204674Y-415413D01*
X1204674Y-415414D01*
X1149853Y-415414D01*
X1149853Y-415413D01*
X1149172Y-408501D01*
X1147939Y-395985D01*
X1142272Y-377302D01*
X1133069Y-360085D01*
X1120684Y-344993D01*
X1106242Y-333142D01*
X1105593Y-332608D01*
X1105592Y-332608D01*
X1105592Y-332608D01*
X1088374Y-323405D01*
X1069692Y-317738D01*
X1069692Y-317738D01*
X1050263Y-315824D01*
X1050263Y-315824D01*
X1030834Y-317738D01*
X1029325Y-318196D01*
X1012152Y-323405D01*
X994934Y-332608D01*
X994934Y-332608D01*
X994934Y-332608D01*
X979843Y-344993D01*
X967458Y-360084D01*
X967457Y-360085D01*
X967457Y-360085D01*
X958254Y-377302D01*
X956728Y-382334D01*
X952587Y-395985D01*
X950674Y-415413D01*
X950673Y-415414D01*
X165388Y-415414D01*
X165401Y-323616D01*
X166618Y-320355D01*
X342777Y-117128D01*
X346186Y-115423D01*
X346531Y-115410D01*
X11342394Y-97172D01*
X11345673Y-98396D01*
G37*
%TD.AperFunction*%
%TD*%
D26*
X200000Y0D02*
X11500000Y0D01*
X200000Y-8200000D02*
X11500000Y-8200000D01*
X0Y-8000000D02*
X0Y-200000D01*
X11500000Y0D02*
X11700000Y-200000D01*
X11700000Y-200000D02*
X11700000Y-8000000D01*
X11700000Y-8000000D02*
X11500000Y-8200000D01*
X200000Y0D02*
X0Y-200000D01*
X0Y-8000000D02*
X200000Y-8200000D01*
M02*
