M48
; DRILL file {KiCad 7.0.5} date Thu Jul 20 14:33:11 2023
; FORMAT={-:-/ absolute / metric / decimal}
; #@! TF.CreationDate,2023-07-20T14:33:11+01:00
; #@! TF.GenerationSoftware,Kicad,Pcbnew,7.0.5
; #@! TF.FileFunction,Plated,1,4,PTH
FMAT,2
METRIC
; #@! TA.AperFunction,Plated,PTH,ViaDrill
T1C0.350
; #@! TA.AperFunction,Plated,PTH,ComponentDrill
T2C0.600
; #@! TA.AperFunction,Plated,PTH,ComponentDrill
T3C0.700
; #@! TA.AperFunction,Plated,PTH,ComponentDrill
T4C1.000
; #@! TA.AperFunction,Plated,PTH,ComponentDrill
T5C1.016
; #@! TA.AperFunction,Plated,PTH,ComponentDrill
T6C1.200
; #@! TA.AperFunction,Plated,PTH,ComponentDrill
T7C1.500
%
G90
G05
T1
X2.2Y-58.5
X2.307Y-26.546
X2.45Y-13.25
X2.543Y-37.754
X2.643Y-78.954
X2.7Y-49.0
X3.207Y-2.446
X8.2Y-34.5
X8.3Y-19.7
X8.45Y-44.75
X8.6Y-5.9
X9.2Y-65.5
X9.3Y-55.5
X9.45Y-50.0
X10.1Y-68.6
X10.3Y-15.4
X10.7Y-70.3
X10.7Y-71.1
X10.943Y-63.404
X11.45Y-27.25
X12.1Y-68.7
X12.343Y-80.154
X12.4Y-7.8
X14.2Y-66.0
X14.2Y-71.3
X14.45Y-74.75
X16.0Y-22.9
X16.3Y-68.6
X16.3Y-71.8
X16.607Y-1.746
X17.1Y-67.1
X17.2Y-32.75
X17.3Y-63.7
X17.382Y-49.75
X17.4Y-72.75
X17.454Y-13.118
X17.693Y-58.654
X18.007Y-40.246
X18.05Y-18.1
X18.95Y-39.5
X18.95Y-41.5
X19.043Y-51.854
X19.7Y-35.5
X19.95Y-56.0
X20.7Y-68.5
X21.3Y-17.4
X21.554Y-7.918
X22.207Y-43.946
X22.6Y-41.0
X22.7Y-39.5
X22.728Y-12.995
X22.743Y-46.854
X23.06Y-44.793
X23.107Y-43.046
X23.4Y-20.2
X23.643Y-50.236
X23.843Y-48.954
X24.2Y-58.25
X24.407Y-9.1
X24.407Y-29.746
X24.443Y-65.031
X24.537Y-42.538
X24.669Y-31.807
X25.094Y-37.678
X25.7Y-15.9
X25.707Y-30.768
X25.973Y-51.112
X26.03Y-55.092
X26.3Y-42.6
X26.407Y-29.546
X26.407Y-31.918
X26.45Y-62.25
X27.344Y-41.128
X27.494Y-36.028
X27.7Y-51.9
X27.754Y-30.068
X28.304Y-11.218
X28.8Y-74.2
X29.6Y-80.4
X29.7Y-49.5
X29.954Y-43.518
X30.004Y-27.318
X30.2Y-39.2
X30.504Y-33.468
X31.7Y-68.8
X32.243Y-49.454
X32.4Y-43.8
X32.8Y-56.7
X33.104Y-28.868
X33.304Y-14.718
X33.428Y-36.495
X33.575Y-41.138
X34.407Y-33.846
X34.607Y-23.346
X35.204Y-6.568
X35.225Y-38.788
X35.807Y-36.746
X36.5Y-63.3
X36.6Y-55.5
X36.707Y-1.546
X37.543Y-43.954
X37.654Y-41.368
X38.307Y-27.218
X39.243Y-39.354
X39.3Y-36.5
X39.707Y-31.346
X39.773Y-32.832
X40.054Y-59.318
X40.1Y-73.9
X40.407Y-35.254
X40.443Y-9.854
X40.443Y-44.454
X40.654Y-26.918
X40.8Y-50.4
X40.9Y-15.6
X41.204Y-32.868
X41.754Y-28.818
X41.775Y-54.338
X41.907Y-22.746
X42.3Y-43.7
X42.304Y-36.318
X42.4Y-51.4
X42.904Y-61.518
X43.104Y-6.618
X43.104Y-29.468
X43.104Y-41.418
X43.243Y-53.954
X43.454Y-27.268
X43.554Y-50.068
X43.954Y-66.668
X44.254Y-39.018
X44.4Y-34.3
X44.5Y-36.4
X44.643Y-54.954
X45.0Y-46.5
X45.904Y-59.518
X46.2Y-15.8
X46.2Y-68.8
X46.343Y-45.054
X46.504Y-30.668
X46.554Y-29.518
X46.603Y-11.045
X47.7Y-33.5
X47.7Y-36.1
X48.254Y-38.246
X48.604Y-61.518
X48.743Y-46.454
X49.104Y-63.918
X49.404Y-14.718
X49.404Y-29.518
X49.554Y-6.618
X49.6Y-37.5
X49.825Y-2.538
X49.843Y-40.754
X50.154Y-53.218
X50.6Y-39.0
X50.704Y-41.468
X50.954Y-66.568
X51.0Y-37.4
X51.004Y-45.068
X51.154Y-55.868
X51.4Y-34.0
X51.404Y-29.568
X51.7Y-80.5
X52.043Y-41.5
X52.154Y-51.354
X52.204Y-28.868
X52.8Y-30.3
X52.843Y-40.754
X53.443Y-34.8
X53.45Y-50.75
X53.543Y-39.754
X53.6Y-37.3
X54.104Y-41.418
X54.107Y-14.646
X54.604Y-61.418
X54.7Y-53.25
X54.904Y-35.668
X54.95Y-45.25
X54.954Y-59.418
X55.1Y-68.9
X55.154Y-38.846
X55.5Y-37.4
X55.6Y-73.4
X55.643Y-40.754
X55.85Y-45.934
X55.868Y-53.245
X56.0Y-13.0
X56.204Y-63.568
X56.454Y-6.568
X56.7Y-53.954
X56.975Y-26.738
X57.454Y-31.668
X57.754Y-28.818
X57.95Y-50.5
X58.2Y-10.1
X58.2Y-48.0
X58.204Y-61.468
X58.45Y-45.0
X58.604Y-66.568
X59.254Y-2.368
X59.343Y-52.5
X59.707Y-37.446
X60.0Y-35.9
X60.704Y-64.268
X61.443Y-59.418
X61.903Y-34.518
X61.904Y-29.468
X61.904Y-47.168
X62.7Y-33.0
X62.8Y-37.6
X62.804Y-45.018
X62.904Y-42.368
X63.204Y-66.618
X63.7Y-46.25
X63.704Y-61.418
X64.0Y-28.8
X65.5Y-35.9
X65.8Y-69.0
X65.904Y-55.218
X66.2Y-31.25
X66.3Y-14.335
X66.3Y-20.9
X66.5Y-10.9
X66.754Y-64.168
X67.304Y-51.868
X67.307Y-4.646
X67.307Y-26.746
X67.95Y-43.5
X68.1Y-7.1
X68.1Y-15.3
X68.107Y-25.746
X68.807Y-5.946
X68.807Y-30.646
X69.054Y-61.418
X69.1Y-33.6
X69.254Y-59.318
X69.304Y-42.468
X69.424Y-47.374
X69.7Y-15.5
X69.743Y-66.554
X69.95Y-23.25
X70.2Y-21.0
X70.254Y-34.318
X70.254Y-60.768
X70.854Y-58.178
X70.857Y-31.715
X71.0Y-1.7
X71.004Y-28.846
X71.2Y-80.6
X71.554Y-54.368
X71.754Y-39.918
X71.768Y-47.412
X71.854Y-42.418
X72.554Y-30.918
X72.643Y-64.454
X72.907Y-5.346
X72.95Y-45.0
X75.104Y-74.318
X75.9Y-9.9
X76.45Y-28.1
X76.5Y-8.2
X76.7Y-15.5
X76.7Y-35.9
X76.7Y-37.6
X77.007Y-30.346
X77.2Y-61.4
X77.5Y-40.8
X77.632Y-8.1
X77.632Y-16.75
X78.1Y-29.0
X78.207Y-5.246
X78.207Y-34.146
X78.4Y-21.6
X78.807Y-30.446
X79.4Y-52.7
X79.954Y-45.518
X80.054Y-43.018
X80.1Y-10.718
X80.205Y-38.852
X80.45Y-16.75
X80.7Y-23.25
X81.3Y-48.8
X81.35Y-5.368
X81.5Y-57.4
X82.0Y-64.6
X82.207Y-41.646
X82.9Y-6.918
X83.1Y-28.9
X83.307Y-40.1
X83.9Y-15.818
X84.405Y-39.487
X85.5Y-17.268
X85.554Y-52.418
X85.7Y-38.6
X86.2Y-60.6
X86.2Y-63.0
X86.5Y-5.468
X86.8Y-8.5
X88.0Y-21.6
X88.404Y-50.168
X88.607Y-42.346
X89.6Y-10.0
X89.7Y-8.4
X89.9Y-16.818
X90.004Y-30.618
X90.5Y-60.4
X90.7Y-65.6
X90.754Y-28.918
X90.9Y-9.1
X91.654Y-52.518
X94.0Y-23.3
X94.2Y-21.5
X94.95Y-7.768
X95.1Y-1.7
X95.154Y-50.118
X95.2Y-17.3
X95.2Y-26.6
X95.404Y-71.718
X96.154Y-45.268
X96.343Y-32.354
X97.3Y-41.9
X97.4Y-10.5
X97.5Y-78.5
X98.207Y-58.046
X98.707Y-34.546
X99.7Y-28.142
X99.707Y-66.646
X99.965Y-14.335
X100.6Y-30.5
X100.707Y-45.168
X100.807Y-41.346
X100.95Y-63.7
X101.143Y-50.254
X102.25Y-52.55
X102.4Y-15.6
X102.45Y-10.468
X104.104Y-71.468
X104.15Y-58.3
X104.2Y-60.05
X104.3Y-18.868
X104.4Y-31.9
X105.1Y-2.0
X105.832Y-56.617
X106.254Y-75.218
X107.0Y-42.5
X107.6Y-26.268
X107.8Y-21.3
X107.9Y-58.3
X107.95Y-60.0
X108.5Y-15.318
X110.55Y-64.0
X110.9Y-54.65
X111.777Y-66.896
X111.977Y-73.908
X112.1Y-43.0
X112.243Y-51.154
X114.143Y-2.454
X114.807Y-29.918
X115.1Y-22.6
X115.369Y-9.92
T2
X25.143Y-68.154
X25.143Y-70.154
T3
X20.7Y-33.5
X27.45Y-64.5
X29.8Y-54.2
X108.6Y-6.9
T4
X9.143Y-29.754
X10.503Y-4.154
X11.683Y-29.754
X11.683Y-47.534
X13.043Y-4.154
X14.223Y-29.754
X14.223Y-47.534
X15.583Y-4.154
X16.763Y-29.754
X16.763Y-47.534
X18.123Y-4.154
X19.303Y-29.754
X19.303Y-47.534
X20.663Y-4.154
X20.663Y-24.474
X21.843Y-29.754
X23.203Y-4.154
X23.203Y-24.474
X25.743Y-4.154
X25.743Y-24.474
X28.283Y-4.154
X28.283Y-24.474
X30.823Y-4.154
X30.823Y-24.474
X33.363Y-4.154
X33.363Y-24.474
X35.903Y-4.154
X35.903Y-24.474
X38.443Y-4.154
X38.443Y-24.474
X40.983Y-4.154
X40.983Y-24.474
X43.523Y-4.154
X43.523Y-24.474
X46.063Y-4.154
X46.063Y-24.474
X48.603Y-4.154
X48.603Y-24.474
X81.407Y-31.466
X81.407Y-34.006
X81.407Y-36.546
X83.947Y-31.466
X83.947Y-34.006
X83.947Y-36.546
T5
X34.64Y-45.478
X34.64Y-48.018
X34.64Y-50.558
X34.64Y-53.098
X34.64Y-55.638
X34.64Y-58.178
X34.64Y-60.718
X34.64Y-63.258
X34.64Y-65.798
X54.96Y-78.472
X57.5Y-78.472
X60.04Y-78.472
X62.58Y-78.472
X65.12Y-78.472
X67.66Y-78.472
X75.183Y-2.653
X75.183Y-25.513
X75.28Y-40.398
X75.28Y-42.938
X75.28Y-45.478
X75.28Y-48.018
X75.28Y-50.558
X75.28Y-53.098
X75.28Y-55.638
X75.28Y-58.178
X75.28Y-60.718
X75.28Y-63.258
X75.28Y-65.798
X77.723Y-2.653
X77.723Y-25.513
X80.263Y-2.653
X80.263Y-25.513
X82.803Y-2.653
X82.803Y-25.513
X85.343Y-2.653
X85.343Y-25.513
X87.883Y-2.653
X87.883Y-25.513
X88.25Y-56.55
X88.25Y-59.09
X88.25Y-61.63
X88.25Y-64.17
X88.25Y-66.71
X88.25Y-69.25
X90.423Y-2.653
X90.423Y-25.513
X92.963Y-2.653
X92.963Y-25.513
X102.22Y-79.41
X104.76Y-79.41
X107.3Y-79.41
T6
X62.3Y-16.8
X62.3Y-20.3
X62.3Y-23.8
X109.25Y-31.0
X109.25Y-34.5
X109.25Y-38.0
X109.25Y-41.5
T7
X2.145Y-66.551
X2.145Y-73.851
X7.445Y-66.551
X7.445Y-73.851
T0
M30
